<svg width="20" height="18" fill="none" xmlns="http://www.w3.org/2000/svg"><path d="M14.78 7.502H1.589c-.747 0-1.327.42-1.527 1.1a1.512 1.512 0 001.456 1.93H14.81c-.047.05-.07.08-.097.105-.773.772-1.544 1.546-2.32 2.315-.741.733-1.485 1.461-2.227 2.194-.464.458-.6 1.11-.358 1.672.255.596.803.95 1.467.933a1.474 1.474 0 001.032-.463c1.365-1.364 2.733-2.728 4.1-4.09 1.035-1.03 2.077-2.05 3.112-3.077.64-.633.64-1.578.003-2.215C17.119 5.51 14.716 3.11 12.31.716c-.42-.42-.938-.563-1.514-.399-.577.165-.941.549-1.068 1.136-.106.501.01.962.37 1.329.968.98 1.948 1.947 2.921 2.918.556.555 1.109 1.11 1.668 1.658.035.035.097.047.147.07-.015.027-.035.05-.053.074z" fill="#000"/></svg>