<svg width="20" height="18" fill="none" xmlns="http://www.w3.org/2000/svg"><path d="M5.22 10.498h13.192c.747 0 1.327-.42 1.527-1.1a1.512 1.512 0 00-1.456-1.93H5.19c.047-.05.07-.08.097-.106.773-.771 1.544-1.546 2.32-2.314.741-.733 1.485-1.461 2.227-2.194.464-.458.6-1.11.358-1.672A1.506 1.506 0 008.725.249a1.475 1.475 0 00-1.032.463 2687.7 2687.7 0 01-4.1 4.09C2.558 5.832 1.516 6.851.48 7.878c-.64.633-.64 1.578-.003 2.215 2.403 2.396 4.806 4.796 7.212 7.19.42.42.938.563 1.514.399.577-.165.941-.549 1.068-1.136.106-.501-.01-.962-.37-1.329-.968-.98-1.948-1.947-2.921-2.918-.556-.555-1.109-1.11-1.668-1.658-.035-.035-.097-.047-.147-.07.015-.027.035-.05.053-.074z" fill="#000"/></svg>