 <svg display="none" xmlns="http://www.w3.org/2000/svg">
  <symbol id="arrow-right" viewBox="0 0 9 15">
    <g>
      <path fill-rule="evenodd" clip-rule="evenodd" d="M1.70711 14.7071L8.07107 8.34315C8.46159 7.95262 8.46159 7.31946 8.07107 6.92893L1.70711 0.564971C1.31658 0.174447 0.683418 0.174447 0.292893 0.564971C-0.0976311 0.955495 -0.0976311 1.58866 0.292893 1.97919L5.94975 7.63604L0.292893 13.2929C-0.0976311 13.6834 -0.0976311 14.3166 0.292893 14.7071C0.683418 15.0976 1.31658 15.0976 1.70711 14.7071Z"/>
    </g>
  </symbol>
  <symbol id="catalog-1" viewBox="0 0 19 19">
    <g>
      <path d="M18.8297 7.01158C18.7448 6.92321 18.6387 6.87903 18.5325 6.85694L12.6308 5.90693L9.95599 0.317395C9.8923 0.184837 9.78616 0.096462 9.65878 0.0522759C9.53141 0.00808985 9.3828 0.00809794 9.25543 0.074377C9.14928 0.118563 9.06437 0.20693 9.02191 0.317395L6.34705 5.90693L0.445374 6.85694C0.169396 6.90112 -0.0428941 7.18833 -0.000436012 7.47554C0.020793 7.58601 0.0632511 7.69646 0.148167 7.78484L4.39398 12.1814L3.41744 18.3674C3.37498 18.6767 3.56604 18.9639 3.84202 19.0081C3.94817 19.0302 4.07554 19.0081 4.18169 18.9418L9.48895 16.0697L14.7962 18.9418C14.8811 18.986 15.0085 19.0081 15.1146 19.0081C15.3906 18.9639 15.5817 18.743 15.5817 18.4558C15.5817 18.4337 15.5817 18.4116 15.5817 18.3895V18.3674L14.6051 12.1814L18.851 7.78484C19.042 7.56391 19.042 7.21042 18.8297 7.01158ZM13.6711 11.6069C13.5437 11.7395 13.5012 11.9162 13.5225 12.093L14.3716 17.4837L9.7437 14.9651C9.59509 14.8767 9.40403 14.8767 9.25543 14.9651L4.6275 17.4837L5.47666 12.093C5.49789 11.9162 5.45543 11.7395 5.32806 11.6069L1.6342 7.76275L6.77163 6.9453C6.94146 6.92321 7.09007 6.81275 7.15375 6.6581L9.48895 1.77554L11.8241 6.6581C11.9091 6.81275 12.0364 6.92321 12.2063 6.9453L17.3437 7.76275L13.6711 11.6069Z"/>
    </g>
  </symbol>
  <symbol id="catalog-2" viewBox="0 0 19 19">
    <g clip-path="url(#clip0_90_7267)">
<path d="M14.5488 3.30348C14.4652 3.49412 14.2561 3.60003 14.0471 3.55766C11.8524 2.79512 8.96792 3.15521 6.35515 4.51084C3.11533 6.18419 0.920612 9.10727 0.878808 11.7762C0.878808 11.8185 0.878808 11.8397 0.857905 11.8821C0.878808 12.3693 1.04602 12.5387 1.12963 12.6023C1.33865 12.7505 1.94481 12.7082 2.88541 12.0303C2.92721 12.0092 2.94811 11.988 3.01082 11.9668C3.74239 11.6279 4.57848 11.9456 4.93381 12.6446C5.28915 13.3648 5.03832 14.2332 4.32765 14.6357C3.99322 14.8687 3.86781 15.1229 3.95141 15.4406C4.03502 15.7795 4.28585 16.0337 4.62028 16.1184H4.64118H4.66209H4.70389C4.70389 16.1184 4.72479 16.1184 4.74569 16.1184C5.28915 16.2455 5.87441 16.3091 6.48057 16.3091C8.15273 16.3091 9.97122 15.8431 11.6852 14.9534C11.8942 14.8475 12.145 14.9111 12.2704 15.1229C12.375 15.3347 12.3123 15.5889 12.1032 15.716C12.1032 15.716 12.0823 15.716 12.0823 15.7371C10.3684 16.648 8.42446 17.1563 6.50147 17.1775C5.87441 17.1775 5.22644 17.114 4.59938 16.9869C3.97232 16.9233 3.34525 16.3514 3.17804 15.6524C3.01082 14.9958 3.24074 14.3815 3.826 13.9579L3.8469 13.9367L3.86781 13.9155C3.86781 13.9155 3.86781 13.8943 3.88871 13.8943H3.90961C3.90961 13.8943 3.93051 13.8943 3.93051 13.8732C4.24404 13.7037 4.36946 13.3224 4.20224 13.0047C4.11863 12.8564 3.99322 12.7293 3.826 12.687C3.7633 12.7082 3.67969 12.7082 3.61698 12.7082C3.51247 12.7082 3.42886 12.7293 3.32435 12.7717H3.30345C2.57188 13.2801 1.92391 13.5554 1.40136 13.5554C1.12963 13.5554 0.878808 13.4707 0.648885 13.3224C0.042724 12.8988 -0.166297 11.988 0.10543 10.7594V10.7383C0.60708 8.027 2.86451 5.33693 5.95801 3.72712C8.7798 2.26558 11.9151 1.88431 14.3188 2.71039C14.5488 2.8163 14.6533 3.07048 14.5488 3.30348Z" />
<path d="M8.46609 11.7344C7.58821 11.7344 6.89844 12.4546 6.89844 13.323C6.89844 14.1915 7.60911 14.9116 8.46609 14.9116C8.71692 14.9116 8.96774 14.8481 9.17676 14.7422C9.69932 14.4668 10.0338 13.9161 10.0338 13.323C10.0338 12.4334 9.32308 11.7344 8.46609 11.7344ZM9.13496 13.5772C9.07225 13.7678 8.94684 13.9161 8.75872 14.0008C8.65421 14.0432 8.5497 14.0644 8.44519 14.0644C8.36158 14.0644 8.27797 14.0432 8.21527 14.022C8.02715 13.9585 7.88084 13.8314 7.79723 13.6407C7.63001 13.2806 7.77633 12.8358 8.13166 12.6664C8.23617 12.6028 8.34068 12.5816 8.46609 12.5816H8.5497C8.80053 12.6028 9.00955 12.7511 9.11406 12.9841C9.19767 13.1959 9.19767 13.3866 9.13496 13.5772Z" />
<path d="M12.7507 5.55023C12.688 5.59259 12.6044 5.61377 12.5417 5.61377H12.5208C12.3327 5.61377 12.1446 5.50787 12.061 5.33841C11.9355 5.08423 12.0401 4.7665 12.2909 4.61823C12.3745 4.57587 12.4581 4.55469 12.5208 4.55469C12.7089 4.55469 12.897 4.6606 12.9806 4.85123C13.1061 5.10541 13.0015 5.42314 12.7507 5.55023Z" />
<path d="M9.80346 5.61273C9.74075 5.65509 9.65714 5.67628 9.57353 5.67628C9.38542 5.67628 9.1973 5.57037 9.11369 5.40091C8.98828 5.14673 9.09279 4.82901 9.34361 4.68073C9.42722 4.63837 9.51083 4.61719 9.57353 4.61719C9.76165 4.61719 9.94977 4.7231 10.0334 4.89255C10.1588 5.16791 10.0543 5.48564 9.80346 5.61273Z" />
<path d="M7.12772 6.60945C7.08591 6.73654 6.9814 6.84245 6.85599 6.92718C6.79328 6.96954 6.70968 6.99072 6.62607 6.99072C6.50065 6.99072 6.35434 6.92718 6.24983 6.84245C6.14532 6.73654 6.10352 6.60945 6.10352 6.46118C6.10352 6.16464 6.33344 5.93164 6.62607 5.93164C6.81419 5.93164 7.0023 6.03755 7.08591 6.22818C7.14862 6.33409 7.16952 6.48236 7.12772 6.60945Z" />
<path d="M4.78729 8.93775C4.78729 9.12838 4.68278 9.31902 4.49466 9.40374C4.41105 9.44611 4.34835 9.46729 4.26474 9.46729C4.11843 9.46729 3.99301 9.40374 3.8885 9.31902C3.78399 9.21311 3.74219 9.08602 3.74219 8.93775C3.74219 8.78947 3.80489 8.66238 3.8885 8.55648C3.99301 8.45057 4.11843 8.4082 4.26474 8.4082C4.41105 8.4082 4.53647 8.47175 4.64098 8.55648C4.72459 8.66238 4.78729 8.81066 4.78729 8.93775Z" />
<path d="M18.2283 5.2107C18.8763 4.51171 19.1271 3.51617 18.9181 2.58417L18.3746 0.317726C18.3537 0.232999 18.291 0.148272 18.2283 0.0847269C18.1447 0.0423634 18.0611 0 17.9566 0C17.8312 0 17.7057 0.0635452 17.6221 0.169454L16.1799 1.9699C15.5946 2.75362 15.4274 3.77035 15.7409 4.68116V4.70234V4.72352L15.511 6.75697L15.4901 6.77815C14.3614 7.83724 13.6089 9.53177 13.4835 11.2899L12.961 18.2586C12.9401 18.4705 13.0864 18.6611 13.2954 18.7035L14.6122 19C14.6331 19 14.6749 19 14.6958 19C14.884 19 15.0512 18.8941 15.1139 18.7035L17.4967 12.1371C17.8521 11.1416 18.0193 10.1249 17.9566 9.06577C17.9148 8.47269 17.7893 7.85842 17.5803 7.28651V7.26533L17.7893 6.43924L18.2283 5.2107ZM16.7442 11.8618L14.4659 18.068L13.8807 17.9409V17.8986L14.3614 11.3322C14.445 9.91304 15.0094 8.5786 15.95 7.54069L15.9709 7.51951L16.8279 7.71015V7.73133C16.9951 8.19732 17.0787 8.66332 17.0996 9.1505C17.1832 10.0825 17.0578 10.9933 16.7442 11.8618ZM17.5594 4.65998C17.4967 4.70234 17.4549 4.76589 17.434 4.85061L16.9742 6.20624V6.24861L16.8279 6.82051L16.3889 6.7146L16.5979 4.70234C16.5979 4.61761 16.5979 4.53289 16.5561 4.44816V4.42698C16.3262 3.77035 16.4307 3.05017 16.8488 2.49944L17.7475 1.37681L18.082 2.77481C18.2283 3.4738 18.0402 4.1728 17.5594 4.65998Z" />
</g>
  </symbol>
  <symbol id="catalog-3" viewBox="0 0 19 19">
    <g>
      <g clip-path="url(#clip0_90_7272)">
<path d="M3.69173 16.298L3.69172 16.298C3.24959 16.5488 2.85741 16.9698 2.53901 17.4219L2.53892 17.422C2.48222 17.5024 2.42716 17.6039 2.37521 17.7237C2.28533 17.9436 2.24067 18.1863 2.26751 18.3811C2.29275 18.5642 2.37473 18.6869 2.54008 18.7468L2.54086 18.7471C2.6789 18.7977 2.77424 18.7858 2.84969 18.7524C2.93397 18.715 3.02016 18.6384 3.10947 18.5161C3.19817 18.3947 3.27747 18.2458 3.3555 18.0853C3.37895 18.037 3.40296 17.9862 3.4272 17.9348C3.47887 17.8255 3.53158 17.7139 3.58211 17.6204M3.69173 16.298L4.07295 16.1376L4.30865 16.0542L4.0733 16.1385C4.07324 16.1384 4.07318 16.1382 4.07312 16.138M3.69173 16.298L3.69388 16.2968C3.84206 16.2108 3.95888 16.1456 4.04721 16.1269C4.05557 16.1252 4.0622 16.1242 4.0673 16.1236C4.06902 16.1274 4.07098 16.1321 4.07312 16.138M3.69173 16.298L4.07312 16.138M3.58211 17.6204C3.58227 17.6201 3.58244 17.6198 3.5826 17.6195L3.80249 17.7384L3.58165 17.6213C3.5818 17.621 3.58195 17.6207 3.58211 17.6204ZM3.58211 17.6204C3.58541 17.6142 3.58877 17.6078 3.59218 17.6014C3.6948 17.4081 3.84651 17.1223 3.9572 16.8319C4.01438 16.682 4.05749 16.5386 4.078 16.4124C4.09898 16.2833 4.09266 16.1937 4.07312 16.138M3.56839 16.0805L3.56839 16.0805L3.56839 16.0805Z" />
<path d="M2.30725 6.41547L2.30725 6.41547L2.30628 6.41523C2.07525 6.35822 1.82864 6.31349 1.59077 6.27035C1.44349 6.24364 1.29956 6.21753 1.16476 6.1895L1.16476 6.18948L1.16199 6.18894C0.812123 6.1203 0.548051 6.03929 0.417507 5.84224L0.417509 5.84224L0.416883 5.8413C0.306708 5.67662 0.301593 5.52665 0.348004 5.40722C0.396595 5.28218 0.514074 5.16038 0.702443 5.08916L0.702447 5.08916L0.704496 5.08837C0.860118 5.02796 1.07899 5.04589 1.34488 5.13054C1.6034 5.21284 1.86067 5.34281 2.07422 5.45218C2.54954 5.70261 2.98766 6.03378 3.35281 6.43214L3.3528 6.43215L3.35462 6.43409C3.39753 6.47992 3.4271 6.52492 3.44412 6.5626C3.45376 6.58393 3.45796 6.5996 3.45974 6.60976C3.4464 6.61506 3.42143 6.62227 3.37925 6.62574C3.22676 6.6361 3.05958 6.61132 2.87499 6.56763C2.78313 6.54588 2.69057 6.52039 2.59512 6.49368C2.58441 6.49068 2.57364 6.48766 2.56282 6.48463C2.47886 6.46109 2.39216 6.43678 2.30725 6.41547Z" />
<path d="M9.65397 16.9911L9.65423 16.9914C9.7292 17.0737 9.77761 17.1947 9.8449 17.3766C9.8838 17.4825 9.91155 17.5802 9.91701 17.662C9.92234 17.7419 9.90495 17.7748 9.88958 17.7914L9.8893 17.7918C9.88388 17.7976 9.86792 17.8104 9.8258 17.8047C9.78236 17.7988 9.73731 17.7749 9.70889 17.7424C9.63537 17.6494 9.60238 17.4904 9.60805 17.2918C9.61118 17.2073 9.61566 17.1159 9.62621 17.0317C9.629 17.0095 9.63204 16.9893 9.63525 16.971C9.64123 16.9773 9.64747 16.9839 9.65397 16.9911L9.65397 16.9911Z" />
<path d="M6.41089 16.6449C6.35414 16.685 6.24952 16.6821 6.18542 16.6244C6.11114 16.5565 6.11319 16.5116 6.11646 16.4915C6.12192 16.4581 6.14917 16.4091 6.20768 16.3684C6.26593 16.3279 6.32699 16.3155 6.36845 16.322C6.39712 16.3265 6.43751 16.3417 6.47275 16.4187C6.50502 16.4921 6.47313 16.6009 6.41089 16.6449Z" />
<path d="M17.5153 3.61681C17.649 3.53279 17.7979 3.47843 17.9514 3.46046C18.0707 3.44819 18.1291 3.45859 18.1606 3.47785L18.1606 3.47792L18.166 3.48106C18.18 3.48912 18.1927 3.50295 18.1992 3.51643C18.2012 3.5204 18.2021 3.52317 18.2025 3.52484L18.2019 3.52695C18.1996 3.52929 18.1946 3.53353 18.1846 3.53951C18.1564 3.55645 18.1124 3.57224 18.0521 3.5866C17.8766 3.62479 17.6931 3.63483 17.5153 3.61681ZM18.2028 3.52609C18.2027 3.52615 18.2026 3.52622 18.2026 3.5263C18.2026 3.52619 18.2027 3.52609 18.2027 3.52599C18.2027 3.52602 18.2028 3.52606 18.2028 3.52609ZM18.2028 3.52608C18.2028 3.52603 18.2028 3.52599 18.2028 3.52594C18.2032 3.52521 18.2035 3.52485 18.2036 3.52485C18.2037 3.52486 18.2035 3.52527 18.2028 3.52608ZM18.2028 3.52677C18.2028 3.52677 18.2028 3.52656 18.2028 3.52615C18.2028 3.52657 18.2028 3.52678 18.2028 3.52677Z" />
<path d="M15.7537 5.57897L15.7537 5.57897L15.7546 5.57807C15.9246 5.39513 16.0741 5.26995 16.2776 5.16128L16.2776 5.16129L16.2792 5.16043C16.599 4.98671 17.0729 5.08297 17.2862 5.377C17.4823 5.64746 17.4129 6.00263 17.1571 6.2605C17.1077 6.3059 17.0563 6.34803 17.0026 6.38358L17.0026 6.38357L17.0011 6.38456C16.6457 6.62337 16.1831 6.70537 15.7096 6.75794C15.5744 6.77163 15.4517 6.78028 15.3567 6.75919C15.3132 6.74952 15.2896 6.73625 15.277 6.72553C15.2674 6.71738 15.2542 6.70272 15.2452 6.66562C15.2161 6.54157 15.2585 6.35014 15.3743 6.12237C15.4851 5.90474 15.6384 5.70183 15.7537 5.57897Z" />
<path d="M11.3817 3.20518C11.4449 3.47492 11.5399 3.6986 11.7044 3.74466C12.084 3.86308 12.2232 3.09334 12.2675 2.84334C12.3687 2.34334 12.4509 1.23808 11.6095 1.43544C11.2425 1.52097 11.2362 1.92887 11.2678 2.24466C11.2804 2.43544 11.2994 2.8565 11.3817 3.20518Z"/>
<path d="M7.54252 2.83276C7.54077 2.83202 7.53904 2.83132 7.53734 2.83063C7.53364 2.82916 7.53015 2.82784 7.5272 2.82676L7.52276 2.82445L7.50803 2.81901C7.21311 2.71003 6.9124 2.37824 6.68988 1.93822C6.46981 1.50305 6.36034 1.02863 6.39211 0.703071C6.40972 0.526966 6.46708 0.427922 6.52547 0.371787C6.5844 0.315134 6.66711 0.280326 6.77486 0.274339C7.00075 0.261788 7.28982 0.381524 7.48386 0.590892C7.56111 0.676188 7.67711 0.891051 7.78442 1.19056C7.88865 1.48151 7.97256 1.81827 8.00218 2.12141C8.03318 2.4385 7.99903 2.6633 7.9264 2.77685C7.89654 2.82354 7.86276 2.84797 7.81746 2.85974C7.76719 2.87279 7.68083 2.87541 7.54252 2.83276Z" />
<path d="M1.21974 11.8493L1.2197 11.8491L1.20943 11.8518C1.06782 11.8886 0.918058 11.8947 0.763694 11.8726L0.763697 11.8726L0.760425 11.8722C0.735691 11.8689 0.715771 11.8637 0.67689 11.8534C0.670305 11.8517 0.663177 11.8498 0.65539 11.8478C0.650037 11.8459 0.645658 11.8443 0.641502 11.8428C0.635939 11.8407 0.632376 11.8393 0.63005 11.8382L0.627366 11.836L0.619252 11.8303C0.617101 11.8288 0.615135 11.8273 0.61334 11.8259C0.618241 11.8205 0.624701 11.8142 0.633103 11.8073C0.822479 11.6553 1.09662 11.5938 1.39254 11.5938C1.46311 11.5938 1.51246 11.5998 1.5494 11.6123C1.55105 11.6129 1.55234 11.6135 1.55331 11.614C1.55428 11.6198 1.55518 11.6361 1.54438 11.6617C1.50669 11.7394 1.38424 11.814 1.21974 11.8493Z" />
<path d="M14.8604 12.0836L14.8678 12.0858L14.8753 12.0875C14.9295 12.1001 14.9894 12.1367 15.0295 12.19C15.0656 12.2471 15.0697 12.3048 15.0605 12.3334L15.0604 12.3334L15.0583 12.3404C15.0489 12.3732 15.0058 12.4125 14.9652 12.4189C14.9195 12.4251 14.8595 12.4062 14.8115 12.3584C14.7743 12.3145 14.7454 12.2426 14.7442 12.1764C14.7431 12.1164 14.7622 12.0936 14.7825 12.0814C14.7857 12.0798 14.793 12.077 14.8064 12.0763C14.8214 12.0755 14.8402 12.0776 14.8604 12.0836Z" />
<path d="M13.2315 16.5795L13.2315 16.5795L13.2307 16.5764C13.2176 16.5311 13.1888 16.4533 13.1573 16.3685C13.1468 16.3401 13.136 16.3109 13.1254 16.2819C13.0795 16.1563 13.0281 16.0104 12.9871 15.8678C12.9472 15.7287 12.9211 15.6065 12.9153 15.5157C12.9664 15.5443 13.032 15.5916 13.1111 15.6614C13.3091 15.8359 13.542 16.1059 13.7731 16.4092C14.0025 16.71 14.2227 17.0335 14.3954 17.3077C14.5727 17.5894 14.6874 17.7993 14.7185 17.8802L14.7185 17.8802L14.7192 17.882C14.829 18.1612 14.7522 18.3955 14.6321 18.5101C14.5726 18.5669 14.5008 18.5979 14.4225 18.5999C14.3447 18.6018 14.2409 18.5753 14.1198 18.4824C14.019 18.4007 13.93 18.3122 13.8588 18.2117L13.8588 18.2117L13.856 18.2078C13.5666 17.8156 13.4189 17.2705 13.2764 16.7444C13.2614 16.6891 13.2465 16.6341 13.2315 16.5795ZM12.8396 15.4843C12.8396 15.4842 12.8403 15.4842 12.8418 15.4845L12.8396 15.4843Z" />
<path d="M18.5977 12.4575L18.5976 12.4576L18.6037 12.4619C18.6944 12.5259 18.7363 12.6456 18.7045 12.7514L18.7043 12.7514L18.7018 12.7613C18.6729 12.8739 18.5771 12.9615 18.4881 12.98L18.4881 12.9799L18.4834 12.981C18.4279 12.9936 18.3687 12.9851 18.2844 12.9452C18.2198 12.9147 18.1641 12.8788 18.0958 12.8348C18.0688 12.8174 18.0399 12.7987 18.0076 12.7786L17.9995 12.7702L17.9701 12.7528C17.7359 12.6146 17.5043 12.4779 17.2729 12.3349C17.194 12.2854 17.0809 12.2337 16.9764 12.186C16.9674 12.1819 16.9584 12.1778 16.9496 12.1738C16.8284 12.1183 16.7045 12.0607 16.5934 11.9967C16.4798 11.9311 16.3989 11.8694 16.3525 11.8136C16.3108 11.7636 16.3128 11.7394 16.316 11.724L16.3162 11.7232C16.3168 11.7204 16.3174 11.718 16.3179 11.716C16.3459 11.7101 16.4056 11.7105 16.5047 11.7348C16.6027 11.7588 16.7096 11.7983 16.8136 11.8402C16.8404 11.8509 16.8687 11.8627 16.8973 11.8745C16.9671 11.9033 17.0378 11.9325 17.0877 11.949C17.3557 12.0374 17.6257 12.1206 17.8929 12.2029C18.024 12.2433 18.1544 12.2835 18.2835 12.324C18.3037 12.331 18.3227 12.3375 18.3407 12.3436C18.4589 12.384 18.5338 12.4096 18.5977 12.4575Z" />
<mask id="path-13-inside-1_90_7272" >
<path d="M17.2864 9.19147C16.9194 8.42831 16.1728 8.14541 15.4705 7.84278C14.9201 7.60594 14.3507 7.31647 14.028 6.79015C13.6484 6.16515 13.7243 5.32962 14.0153 4.65199C14.3064 3.97436 14.7746 3.40199 15.1922 2.79673C15.5844 2.23094 15.9198 1.40857 15.4009 0.901992C15.1099 0.619097 14.667 0.586202 14.319 0.783571C13.6167 1.17831 13.4332 1.97436 13.2877 2.71778C13.1422 3.45462 12.9904 4.23752 12.326 4.67173C12.0097 4.88226 11.5984 4.90857 11.2821 4.69804C10.7949 4.37568 10.8392 3.75726 10.7633 3.21778C10.7 2.75068 10.3773 2.20462 9.92809 2.28357C9.5105 2.35594 9.35866 2.90199 9.35866 3.34278C9.36498 3.67173 9.39029 4.02699 9.28906 4.32304C9.2511 4.42831 9.20048 4.52041 9.12456 4.60594C8.75126 5.02699 8.06162 4.82962 7.63138 4.46778C7.09991 4.02041 6.70764 3.35594 5.9484 3.30989C5.50551 3.28357 5.06895 3.48752 4.79688 3.84936C4.06295 4.84278 4.89179 6.34936 4.24011 7.34936C3.89212 7.87568 3.24044 8.07305 2.63938 8.17173C1.88013 8.29673 1.05762 8.34278 0.519828 9.03357C0.285728 9.3362 0.216131 9.75068 0.374306 10.0994C0.627387 10.6717 1.27274 10.7112 1.79156 10.573C2.23445 10.4546 2.65203 10.2244 3.10125 10.1915C3.68333 10.1454 4.39196 10.5599 4.11989 11.3165C4.03132 11.5599 3.85416 11.7638 3.63904 11.8954L1.91177 12.9415C1.55113 13.1586 1.18416 13.3888 0.962718 13.7507C0.690657 14.198 0.722292 14.902 1.29805 15.0796C1.56378 15.1586 1.84217 15.0862 2.06362 14.9217C2.52549 14.573 2.67734 14.0073 2.8798 13.4809C3.05696 13.0204 3.31004 12.5467 3.75926 12.3625C4.18316 12.198 4.67667 12.3494 4.94241 12.7309C5.23977 13.1586 5.16385 13.7375 4.9171 14.1783C4.80954 14.3691 4.67667 14.5402 4.53115 14.7046C4.1452 15.1257 4.59442 15.8099 5.10058 15.5599C5.10691 15.5599 5.10691 15.5533 5.11323 15.5533C5.67001 15.2638 5.82819 14.3165 6.44823 14.2836C6.91643 14.2573 7.22013 14.8033 7.25809 15.2902C7.30238 15.9217 7.07461 16.5796 7.50484 17.1586C7.68833 17.4086 8.02998 17.4941 8.28939 17.3296C8.7829 17.0204 8.44124 16.2441 8.75126 15.7902C8.8778 15.6059 9.09292 15.5073 9.29539 15.4217C9.30171 15.4217 9.30804 15.4152 9.30804 15.4152C9.79522 15.2046 10.3647 15.402 10.6177 15.8823C10.7379 16.1191 10.9088 16.3165 11.1619 16.4546C11.4529 16.6059 11.8135 16.5402 12.0097 16.2704C12.4652 15.6257 11.4276 14.7375 11.8705 14.1125C11.9844 13.948 12.1742 13.8625 12.3703 13.8625C12.7436 13.8625 13.041 14.1059 13.2751 14.3823C13.7243 14.9086 14.0027 15.5796 14.5025 16.0599C15.0023 16.5336 15.8628 16.7375 16.3184 16.2178C16.7613 15.7112 16.5272 14.8691 16.0779 14.3757C15.6287 13.8757 15.015 13.5665 14.5658 13.0665C14.1166 12.5665 13.8825 11.7244 14.3254 11.2244C15.0277 10.4283 16.5714 11.2902 17.2168 10.3691C17.4509 10.0138 17.4636 9.56647 17.2864 9.19147ZM11.1492 11.0204C11.0543 11.1191 10.991 11.4546 10.9024 11.5928C10.8139 11.7309 10.6114 11.9678 10.3014 12.2112C10.2065 12.3888 10.2951 12.902 10.3204 13.0665C10.352 13.2309 10.333 13.3559 10.2318 13.3954C10.1306 13.4349 9.93441 13.3099 9.93441 13.1915C9.93441 13.073 10.0673 12.6915 10.1306 12.4546C10.1938 12.2112 10.2065 12.2704 10.004 12.3954C9.80155 12.527 9.70664 12.7112 9.53581 12.7836C9.36498 12.8625 9.00434 13.1191 9.00434 13.1191C9.00434 13.1191 9.00434 13.8099 8.97904 14.0533C8.95373 14.2967 9.02332 14.7046 8.87148 14.7638C8.6184 14.7902 8.54247 14.6191 8.61207 14.2309C8.68799 13.8428 8.80188 13.2178 8.80188 13.2178L8.46655 13.2441C8.49818 13.4217 8.51716 13.8296 8.35899 13.8625C7.99202 13.8625 8.33368 13.2507 8.33368 13.2507C8.33368 13.2507 8.13122 13.1717 7.7769 12.8888C7.7769 12.8888 7.78323 13.2507 7.65036 13.2902C7.41627 13.2967 7.39096 13.1388 7.56179 12.652C7.34667 12.2244 7.85916 11.9744 8.04264 11.8823C8.22612 11.7902 8.73228 11.448 9.06129 11.2638C9.39029 11.0796 9.63072 10.8823 9.82053 10.6849C10.0103 10.4875 9.83951 10.2244 9.75726 10.152C9.67501 10.0796 9.40927 10.0862 8.98536 10.0402C8.56145 9.9941 7.9857 9.68489 7.56179 9.16515C7.46688 9.11252 7.5175 9.75068 7.54913 9.92173C7.58077 10.0862 7.48586 10.323 7.32769 10.3757C7.17584 10.4283 7.1189 10.1059 7.16318 9.88884C7.20747 9.67173 7.34667 9.47436 7.39096 9.32305C7.43525 9.17173 7.353 8.69147 7.33401 8.59278C7.31503 8.4941 7.15053 8.47436 7.13155 8.25068C7.11257 8.02041 7.34667 7.82305 7.43525 7.67173C7.52382 7.52699 7.65036 7.07305 7.95406 6.84936C8.25776 6.62568 9.12456 6.05331 9.42193 5.93489C9.71929 5.81647 10.2571 5.80331 10.4089 5.8362C10.5671 5.8691 10.8645 6.32305 10.9404 6.40857C10.9404 6.40857 11.1492 6.79673 11.1429 6.98094C11.1365 7.16515 10.6747 7.22436 10.6747 7.22436H10.6683C10.5734 7.40199 10.662 7.91515 10.6873 8.07962C10.719 8.2441 10.7 8.3691 10.5987 8.40857C10.4975 8.44805 10.3014 8.32305 10.3014 8.20462C10.3014 8.09278 10.4279 7.73094 10.4912 7.48752C10.4975 7.47436 10.4975 7.45462 10.4975 7.44147C10.4975 7.32962 10.4026 7.2441 10.3014 7.26383C10.1432 7.29015 9.94707 7.32305 9.87747 7.36252C9.76991 7.41515 9.65602 7.48752 9.45356 7.50068C9.2511 7.51383 8.82719 7.94147 8.82719 7.94147C8.83351 8.10594 8.70065 8.34278 8.70065 8.34278C8.70065 8.34278 8.8778 8.51384 9.20681 8.55989C9.53581 8.60594 9.78257 8.6191 10.4532 8.8362C11.2568 9.0862 11.358 10.2112 11.3453 10.323C11.3643 10.4283 11.2441 10.9217 11.1492 11.0204Z"/>
</mask>
<path d="M17.2864 9.19147C16.9194 8.42831 16.1728 8.14541 15.4705 7.84278C14.9201 7.60594 14.3507 7.31647 14.028 6.79015C13.6484 6.16515 13.7243 5.32962 14.0153 4.65199C14.3064 3.97436 14.7746 3.40199 15.1922 2.79673C15.5844 2.23094 15.9198 1.40857 15.4009 0.901992C15.1099 0.619097 14.667 0.586202 14.319 0.783571C13.6167 1.17831 13.4332 1.97436 13.2877 2.71778C13.1422 3.45462 12.9904 4.23752 12.326 4.67173C12.0097 4.88226 11.5984 4.90857 11.2821 4.69804C10.7949 4.37568 10.8392 3.75726 10.7633 3.21778C10.7 2.75068 10.3773 2.20462 9.92809 2.28357C9.5105 2.35594 9.35866 2.90199 9.35866 3.34278C9.36498 3.67173 9.39029 4.02699 9.28906 4.32304C9.2511 4.42831 9.20048 4.52041 9.12456 4.60594C8.75126 5.02699 8.06162 4.82962 7.63138 4.46778C7.09991 4.02041 6.70764 3.35594 5.9484 3.30989C5.50551 3.28357 5.06895 3.48752 4.79688 3.84936C4.06295 4.84278 4.89179 6.34936 4.24011 7.34936C3.89212 7.87568 3.24044 8.07305 2.63938 8.17173C1.88013 8.29673 1.05762 8.34278 0.519828 9.03357C0.285728 9.3362 0.216131 9.75068 0.374306 10.0994C0.627387 10.6717 1.27274 10.7112 1.79156 10.573C2.23445 10.4546 2.65203 10.2244 3.10125 10.1915C3.68333 10.1454 4.39196 10.5599 4.11989 11.3165C4.03132 11.5599 3.85416 11.7638 3.63904 11.8954L1.91177 12.9415C1.55113 13.1586 1.18416 13.3888 0.962718 13.7507C0.690657 14.198 0.722292 14.902 1.29805 15.0796C1.56378 15.1586 1.84217 15.0862 2.06362 14.9217C2.52549 14.573 2.67734 14.0073 2.8798 13.4809C3.05696 13.0204 3.31004 12.5467 3.75926 12.3625C4.18316 12.198 4.67667 12.3494 4.94241 12.7309C5.23977 13.1586 5.16385 13.7375 4.9171 14.1783C4.80954 14.3691 4.67667 14.5402 4.53115 14.7046C4.1452 15.1257 4.59442 15.8099 5.10058 15.5599C5.10691 15.5599 5.10691 15.5533 5.11323 15.5533C5.67001 15.2638 5.82819 14.3165 6.44823 14.2836C6.91643 14.2573 7.22013 14.8033 7.25809 15.2902C7.30238 15.9217 7.07461 16.5796 7.50484 17.1586C7.68833 17.4086 8.02998 17.4941 8.28939 17.3296C8.7829 17.0204 8.44124 16.2441 8.75126 15.7902C8.8778 15.6059 9.09292 15.5073 9.29539 15.4217C9.30171 15.4217 9.30804 15.4152 9.30804 15.4152C9.79522 15.2046 10.3647 15.402 10.6177 15.8823C10.7379 16.1191 10.9088 16.3165 11.1619 16.4546C11.4529 16.6059 11.8135 16.5402 12.0097 16.2704C12.4652 15.6257 11.4276 14.7375 11.8705 14.1125C11.9844 13.948 12.1742 13.8625 12.3703 13.8625C12.7436 13.8625 13.041 14.1059 13.2751 14.3823C13.7243 14.9086 14.0027 15.5796 14.5025 16.0599C15.0023 16.5336 15.8628 16.7375 16.3184 16.2178C16.7613 15.7112 16.5272 14.8691 16.0779 14.3757C15.6287 13.8757 15.015 13.5665 14.5658 13.0665C14.1166 12.5665 13.8825 11.7244 14.3254 11.2244C15.0277 10.4283 16.5714 11.2902 17.2168 10.3691C17.4509 10.0138 17.4636 9.56647 17.2864 9.19147ZM11.1492 11.0204C11.0543 11.1191 10.991 11.4546 10.9024 11.5928C10.8139 11.7309 10.6114 11.9678 10.3014 12.2112C10.2065 12.3888 10.2951 12.902 10.3204 13.0665C10.352 13.2309 10.333 13.3559 10.2318 13.3954C10.1306 13.4349 9.93441 13.3099 9.93441 13.1915C9.93441 13.073 10.0673 12.6915 10.1306 12.4546C10.1938 12.2112 10.2065 12.2704 10.004 12.3954C9.80155 12.527 9.70664 12.7112 9.53581 12.7836C9.36498 12.8625 9.00434 13.1191 9.00434 13.1191C9.00434 13.1191 9.00434 13.8099 8.97904 14.0533C8.95373 14.2967 9.02332 14.7046 8.87148 14.7638C8.6184 14.7902 8.54247 14.6191 8.61207 14.2309C8.68799 13.8428 8.80188 13.2178 8.80188 13.2178L8.46655 13.2441C8.49818 13.4217 8.51716 13.8296 8.35899 13.8625C7.99202 13.8625 8.33368 13.2507 8.33368 13.2507C8.33368 13.2507 8.13122 13.1717 7.7769 12.8888C7.7769 12.8888 7.78323 13.2507 7.65036 13.2902C7.41627 13.2967 7.39096 13.1388 7.56179 12.652C7.34667 12.2244 7.85916 11.9744 8.04264 11.8823C8.22612 11.7902 8.73228 11.448 9.06129 11.2638C9.39029 11.0796 9.63072 10.8823 9.82053 10.6849C10.0103 10.4875 9.83951 10.2244 9.75726 10.152C9.67501 10.0796 9.40927 10.0862 8.98536 10.0402C8.56145 9.9941 7.9857 9.68489 7.56179 9.16515C7.46688 9.11252 7.5175 9.75068 7.54913 9.92173C7.58077 10.0862 7.48586 10.323 7.32769 10.3757C7.17584 10.4283 7.1189 10.1059 7.16318 9.88884C7.20747 9.67173 7.34667 9.47436 7.39096 9.32305C7.43525 9.17173 7.353 8.69147 7.33401 8.59278C7.31503 8.4941 7.15053 8.47436 7.13155 8.25068C7.11257 8.02041 7.34667 7.82305 7.43525 7.67173C7.52382 7.52699 7.65036 7.07305 7.95406 6.84936C8.25776 6.62568 9.12456 6.05331 9.42193 5.93489C9.71929 5.81647 10.2571 5.80331 10.4089 5.8362C10.5671 5.8691 10.8645 6.32305 10.9404 6.40857C10.9404 6.40857 11.1492 6.79673 11.1429 6.98094C11.1365 7.16515 10.6747 7.22436 10.6747 7.22436H10.6683C10.5734 7.40199 10.662 7.91515 10.6873 8.07962C10.719 8.2441 10.7 8.3691 10.5987 8.40857C10.4975 8.44805 10.3014 8.32305 10.3014 8.20462C10.3014 8.09278 10.4279 7.73094 10.4912 7.48752C10.4975 7.47436 10.4975 7.45462 10.4975 7.44147C10.4975 7.32962 10.4026 7.2441 10.3014 7.26383C10.1432 7.29015 9.94707 7.32305 9.87747 7.36252C9.76991 7.41515 9.65602 7.48752 9.45356 7.50068C9.2511 7.51383 8.82719 7.94147 8.82719 7.94147C8.83351 8.10594 8.70065 8.34278 8.70065 8.34278C8.70065 8.34278 8.8778 8.51384 9.20681 8.55989C9.53581 8.60594 9.78257 8.6191 10.4532 8.8362C11.2568 9.0862 11.358 10.2112 11.3453 10.323C11.3643 10.4283 11.2441 10.9217 11.1492 11.0204Z" />
</g>
    </g>
  </symbol>
  <symbol id="catalog-4" viewBox="0 0 19 19">
    <g>
      <path d="M15.814 12.7083C15.814 11.2159 15.2721 9.76957 14.285 8.66507C15.8914 7.38964 16.285 5.07545 15.2011 3.32009C14.1172 1.56473 11.8979 0.927012 10.0785 1.854C8.25271 2.78099 7.40755 4.95712 8.13013 6.90314C7.86561 6.98203 7.60755 7.08722 7.35594 7.20556C6.59465 6.02217 5.15594 5.49622 3.8269 5.91698C2.50432 6.33774 1.60755 7.60002 1.63336 9.01352C1.65916 10.427 2.6011 11.6564 3.94303 12.018C3.69142 14.2533 4.67206 16.4492 6.49787 17.718C8.32368 18.9869 10.685 19.1249 12.6398 18.073C14.5946 17.0277 15.814 14.9568 15.814 12.7083ZM11.8398 2.01836C13.3043 2.01836 14.6011 2.97165 15.0656 4.38514C15.5301 5.79864 15.0527 7.35677 13.8785 8.25089C12.7817 7.21871 11.343 6.64016 9.85271 6.64016C9.45916 6.64016 9.06561 6.67961 8.67852 6.7585C8.25916 5.69345 8.38819 4.48376 9.02045 3.53047C9.65916 2.58376 10.7172 2.01836 11.8398 2.01836ZM2.2011 8.95435C2.2011 7.52113 3.34303 6.35746 4.74948 6.35746C6.15594 6.35746 7.29787 7.52113 7.29787 8.95435C7.29787 10.3876 6.15594 11.5512 4.74948 11.5512C3.34948 11.5512 2.20755 10.3876 2.2011 8.95435ZM4.47207 12.7083C4.47207 12.5111 4.48497 12.3139 4.50432 12.1166C4.58819 12.1232 4.66561 12.1298 4.74948 12.1298C5.79465 12.1298 6.76884 11.5973 7.34948 10.7097C7.93013 9.82217 8.0269 8.69795 7.62045 7.71836C7.92368 7.57372 8.24626 7.46196 8.57529 7.38307C8.99464 7.27788 9.4269 7.22528 9.85271 7.22528C12.8269 7.22528 15.2398 9.68411 15.2398 12.7149C15.2398 15.7457 12.8269 18.2045 9.85271 18.2045C6.88497 18.1979 4.47207 15.7391 4.47207 12.7083Z"/>
<path d="M6.67203 4.23369C6.82686 4.23369 6.9559 4.1022 6.9559 3.94441C6.9559 3.78663 6.82686 3.65514 6.67203 3.65514C6.20106 3.65514 5.82041 3.26725 5.82041 2.78732C5.82041 2.62953 5.69138 2.49805 5.53654 2.49805C5.3817 2.49805 5.25267 2.62953 5.25267 2.78732C5.25267 3.26725 4.87203 3.65514 4.40106 3.65514C4.24622 3.65514 4.11719 3.78663 4.11719 3.94441C4.11719 4.1022 4.24622 4.23369 4.40106 4.23369C4.87203 4.23369 5.25267 4.62158 5.25267 5.10151C5.25267 5.25929 5.3817 5.39078 5.53654 5.39078C5.69138 5.39078 5.82041 5.25929 5.82041 5.10151C5.82041 4.62158 6.20106 4.23369 6.67203 4.23369ZM5.24622 3.94441C5.3559 3.85895 5.45912 3.76033 5.53654 3.64857C5.62041 3.76033 5.71719 3.86552 5.82686 3.94441C5.71719 4.02988 5.61396 4.1285 5.53654 4.24026C5.45912 4.1285 5.3559 4.02988 5.24622 3.94441Z"/>
<path d="M16.0964 15.6005C15.9415 15.6005 15.8125 15.7319 15.8125 15.8897C15.8125 16.0475 15.9415 16.179 16.0964 16.179C16.5673 16.179 16.948 16.5669 16.948 17.0468C16.948 17.2046 17.077 17.3361 17.2319 17.3361C17.3867 17.3361 17.5157 17.2046 17.5157 17.0468C17.5157 16.5669 17.8964 16.179 18.3673 16.179C18.5222 16.179 18.6512 16.0475 18.6512 15.8897C18.6512 15.7319 18.5222 15.6005 18.3673 15.6005C17.8964 15.6005 17.5157 15.2126 17.5157 14.7326C17.5157 14.5748 17.3867 14.4434 17.2319 14.4434C17.077 14.4434 16.948 14.5748 16.948 14.7326C16.9415 15.2126 16.5609 15.6005 16.0964 15.6005ZM17.5222 15.8897C17.4125 15.9752 17.3093 16.0738 17.2319 16.1856C17.148 16.0738 17.0512 15.9686 16.9415 15.8897C17.0512 15.8043 17.1544 15.7056 17.2319 15.5939C17.3093 15.7056 17.406 15.8043 17.5222 15.8897Z"/>
<path d="M9.85947 16.4628C9.85947 15.9829 10.2401 15.595 10.7111 15.595C10.8659 15.595 10.995 15.4635 10.995 15.3057C10.995 15.148 10.8659 15.0165 10.7111 15.0165C10.2401 15.0165 9.85947 14.6286 9.85947 14.1486C9.85947 13.9909 9.73044 13.8594 9.5756 13.8594C9.42076 13.8594 9.29173 13.9909 9.29173 14.1486C9.29173 14.6286 8.91109 15.0165 8.44012 15.0165C8.28528 15.0165 8.15625 15.148 8.15625 15.3057C8.15625 15.4635 8.28528 15.595 8.44012 15.595C8.91109 15.595 9.29173 15.9829 9.29173 16.4628C9.29173 16.6206 9.42076 16.7521 9.5756 16.7521C9.73044 16.7521 9.85947 16.6272 9.85947 16.4628ZM9.28528 15.3123C9.39496 15.2268 9.49818 15.1282 9.5756 15.0165C9.65947 15.1282 9.75625 15.2334 9.86592 15.3123C9.75625 15.3978 9.65302 15.4964 9.5756 15.6082C9.49173 15.4964 9.39496 15.3912 9.28528 15.3123Z"/>
<path d="M12.1225 13.2873C12.2773 13.2873 12.4064 13.1558 12.4064 12.998C12.4064 12.5181 12.787 12.1302 13.258 12.1302C13.4128 12.1302 13.5418 11.9987 13.5418 11.8409C13.5418 11.6831 13.4128 11.5516 13.258 11.5516C12.787 11.5516 12.4064 11.1637 12.4064 10.6838C12.4064 10.526 12.2773 10.3945 12.1225 10.3945C11.9676 10.3945 11.8386 10.526 11.8386 10.6838C11.8386 11.1637 11.458 11.5516 10.987 11.5516C10.8322 11.5516 10.7031 11.6831 10.7031 11.8409C10.7031 11.9987 10.8322 12.1302 10.987 12.1302C11.458 12.1302 11.8386 12.5181 11.8386 12.998C11.8386 13.1558 11.9676 13.2873 12.1225 13.2873ZM11.8322 11.8409C11.9418 11.7554 12.0451 11.6568 12.1225 11.545C12.2064 11.6568 12.3031 11.762 12.4128 11.8409C12.3031 11.9264 12.1999 12.025 12.1225 12.1367C12.0451 12.025 11.9418 11.9264 11.8322 11.8409Z"/>
<path d="M4.32232 18.4407C4.79329 18.4407 5.17393 18.0528 5.17393 17.5729C5.17393 17.093 4.79329 16.7051 4.32232 16.7051C3.85135 16.7051 3.4707 17.093 3.4707 17.5729C3.4707 18.0528 3.85135 18.4407 4.32232 18.4407ZM4.32232 17.2836C4.47716 17.2836 4.60619 17.4151 4.60619 17.5729C4.60619 17.7307 4.47716 17.8622 4.32232 17.8622C4.16748 17.8622 4.03845 17.7307 4.03845 17.5729C4.03845 17.4151 4.16103 17.2836 4.32232 17.2836Z"/>
<path d="M17.795 13.4837C18.2659 13.4837 18.6466 13.0958 18.6466 12.6159C18.6466 12.1359 18.2659 11.748 17.795 11.748C17.324 11.748 16.9434 12.1359 16.9434 12.6159C16.9434 13.0958 17.324 13.4837 17.795 13.4837ZM17.795 12.3266C17.9498 12.3266 18.0788 12.4581 18.0788 12.6159C18.0788 12.7737 17.9498 12.9051 17.795 12.9051C17.6401 12.9051 17.5111 12.7737 17.5111 12.6159C17.5111 12.4581 17.6401 12.3266 17.795 12.3266Z"/>
<path d="M15.2461 1.95244C15.7171 1.95244 16.0977 1.56455 16.0977 1.08462C16.0977 0.604686 15.7171 0.216797 15.2461 0.216797C14.7752 0.216797 14.3945 0.604686 14.3945 1.08462C14.3945 1.56455 14.7752 1.95244 15.2461 1.95244ZM15.2461 0.801918C15.401 0.801918 15.53 0.933406 15.53 1.09119C15.53 1.24898 15.401 1.38046 15.2461 1.38046C15.0913 1.38046 14.9623 1.24898 14.9623 1.09119C14.9623 0.926831 15.0849 0.801918 15.2461 0.801918Z"/>
<path d="M16.6589 10.1111C17.2847 10.1111 17.7944 9.59169 17.7944 8.95397C17.7944 8.31625 17.2847 7.79688 16.6589 7.79688C16.0331 7.79688 15.5234 8.31625 15.5234 8.95397C15.5299 9.59169 16.0331 10.1111 16.6589 10.1111ZM16.6589 8.37542C16.9751 8.37542 17.2267 8.63182 17.2267 8.95397C17.2267 9.27611 16.9751 9.53252 16.6589 9.53252C16.3428 9.53252 16.0912 9.27611 16.0912 8.95397C16.0912 8.63182 16.3492 8.37542 16.6589 8.37542Z"/>
<path d="M1.49095 5.95677C2.11676 5.95677 2.62644 5.43739 2.62644 4.79967C2.62644 4.16196 2.11676 3.64258 1.49095 3.64258C0.865146 3.64258 0.355469 4.16196 0.355469 4.79967C0.355469 5.43739 0.865146 5.95677 1.49095 5.95677ZM1.49095 4.22113C1.80708 4.22113 2.05869 4.47753 2.05869 4.79967C2.05869 5.12182 1.80708 5.37822 1.49095 5.37822C1.17482 5.37822 0.923211 5.12182 0.923211 4.79967C0.923211 4.47753 1.18128 4.22113 1.49095 4.22113Z"/>
<path d="M11.2792 2.90541C11.2921 3.05663 11.4147 3.16839 11.5566 3.16839C11.9889 3.17496 12.8792 3.26043 13.4856 3.81926C13.8598 4.194 14.0792 4.68708 14.1114 5.21303C14.1179 5.36424 14.2469 5.48258 14.3953 5.48258C14.5566 5.48258 14.6856 5.34451 14.6792 5.18016C14.6405 4.50299 14.3501 3.86528 13.8663 3.39192C13.1243 2.70161 12.0792 2.59642 11.5631 2.58984C11.3953 2.58984 11.2598 2.73448 11.2792 2.90541Z"/>
<path d="M14.3752 12.998C14.2333 12.998 14.1107 13.1098 14.0978 13.2544C14.0139 14.0565 13.4978 16.4562 10.3752 17.0019C10.2268 17.0282 10.1236 17.1662 10.143 17.324V17.3306C10.1623 17.4884 10.3107 17.6001 10.472 17.5738C13.9107 16.969 14.543 14.2603 14.6591 13.3202C14.672 13.1493 14.543 12.998 14.3752 12.998Z" fill="#222222"/>
    </g>
  </symbol>
  <symbol id="catalog-5" viewBox="0 0 27 27">
    <g clip-path="url(#clip0_90_7282)" >
<path d="M22.1208 0.101562H12.1402C11.7311 0.101562 11.3834 0.428796 11.3834 0.85829V7.40296H4.83876C4.42972 7.40296 4.08203 7.73019 4.08203 8.15969V10.4299V10.5117V18.1812C4.08203 18.5903 4.40926 18.9379 4.83876 18.9379H14.8398C15.2489 18.9379 15.5966 18.6107 15.5966 18.1812V11.6365H22.1412C22.5503 11.6365 22.898 11.3093 22.898 10.8798V5.70544V5.25549V0.878742C22.898 0.449248 22.5503 0.101562 22.1208 0.101562ZM14.8603 8.13924V18.1403H4.85921V10.4912V10.4094V8.13924H14.8603ZM22.1412 10.8594H15.5966V8.13924C15.5966 7.73019 15.2693 7.38251 14.8398 7.38251H12.1402V0.837838H22.1412V5.23504V5.68498V10.8594V10.8594Z"/>
<path d="M14.8601 19H4.85899C4.38859 19 4 18.6114 4 18.141V8.13994C4 7.66954 4.38859 7.28095 4.85899 7.28095H11.3014V0.858988C11.3014 0.38859 11.69 0 12.1604 0H22.141C22.6319 0 23.0205 0.38859 23.0205 0.87944V10.8601C23.0205 11.3305 22.6319 11.7191 22.1615 11.7191H15.7191V18.1615C15.7191 18.6114 15.3305 19 14.8601 19ZM4.85899 7.50592C4.5113 7.50592 4.20452 7.79225 4.20452 8.16039V18.1615C4.20452 18.5091 4.49085 18.8159 4.85899 18.8159H14.8601C15.2077 18.8159 15.5145 18.5296 15.5145 18.1615V11.5145H22.1615C22.5091 11.5145 22.8159 11.2282 22.8159 10.8601V0.87944C22.8159 0.511303 22.5091 0.204521 22.141 0.204521H12.1399C11.7922 0.204521 11.4855 0.49085 11.4855 0.858988V7.50592H4.85899ZM14.9623 18.2433H4.75673V8.03767H14.9623V18.2433ZM4.96125 18.0388H14.7578V8.2422H4.96125V18.0388ZM22.2433 10.9623H15.4941V8.13994C15.4941 7.79225 15.2077 7.48547 14.8396 7.48547H12.0377V0.736276H22.2433V10.9623V10.9623ZM15.7191 10.7578H22.0592V0.961249H12.2422V7.3014H14.8601C15.3305 7.3014 15.7191 7.68999 15.7191 8.16039C15.7191 8.16039 15.7191 10.7578 15.7191 10.7578Z"/>
<path d="M7.21088 11.0839C7.61752 11.0839 7.94716 10.7542 7.94716 10.3476C7.94716 9.94097 7.61752 9.61133 7.21088 9.61133C6.80425 9.61133 6.47461 9.94097 6.47461 10.3476C6.47461 10.7542 6.80425 11.0839 7.21088 11.0839Z"/>
<path d="M7.21158 11.1868C6.76164 11.1868 6.37305 10.8187 6.37305 10.3483C6.37305 9.8779 6.74118 9.50977 7.21158 9.50977C7.68198 9.50977 8.05012 9.8779 8.05012 10.3483C8.05012 10.8187 7.68198 11.1868 7.21158 11.1868ZM7.21158 9.71429C6.8639 9.71429 6.57757 10.0006 6.57757 10.3483C6.57757 10.696 6.8639 10.9823 7.21158 10.9823C7.55927 10.9823 7.8456 10.696 7.8456 10.3483C7.8456 10.0006 7.55927 9.71429 7.21158 9.71429Z"/>
<path d="M7.21088 13.8651C7.61752 13.8651 7.94716 13.5355 7.94716 13.1289C7.94716 12.7222 7.61752 12.3926 7.21088 12.3926C6.80425 12.3926 6.47461 12.7222 6.47461 13.1289C6.47461 13.5355 6.80425 13.8651 7.21088 13.8651Z"/>
<path d="M7.21158 13.9681C6.76164 13.9681 6.37305 13.6 6.37305 13.1296C6.37305 12.6796 6.74118 12.291 7.21158 12.291C7.68198 12.291 8.05012 12.6592 8.05012 13.1296C8.05012 13.5795 7.68198 13.9681 7.21158 13.9681ZM7.21158 12.4955C6.8639 12.4955 6.57757 12.7819 6.57757 13.1296C6.57757 13.4772 6.8639 13.7636 7.21158 13.7636C7.55927 13.7636 7.8456 13.4772 7.8456 13.1296C7.8456 12.7819 7.55927 12.4955 7.21158 12.4955Z"/>
<path d="M7.21088 16.6464C7.61752 16.6464 7.94716 16.3167 7.94716 15.9101C7.94716 15.5035 7.61752 15.1738 7.21088 15.1738C6.80425 15.1738 6.47461 15.5035 6.47461 15.9101C6.47461 16.3167 6.80425 16.6464 7.21088 16.6464Z"/>
<path d="M7.21158 16.7493C6.76164 16.7493 6.37305 16.3812 6.37305 15.9108C6.37305 15.4404 6.74118 15.0723 7.21158 15.0723C7.68198 15.0723 8.05012 15.4404 8.05012 15.9108C8.05012 16.3812 7.68198 16.7493 7.21158 16.7493ZM7.21158 15.2768C6.8639 15.2768 6.57757 15.5631 6.57757 15.9108C6.57757 16.2585 6.8639 16.5448 7.21158 16.5448C7.55927 16.5448 7.8456 16.2585 7.8456 15.9108C7.8456 15.5631 7.55927 15.2768 7.21158 15.2768Z"/>
<path d="M12.5078 11.0839C12.9144 11.0839 13.244 10.7542 13.244 10.3476C13.244 9.94097 12.9144 9.61133 12.5078 9.61133C12.1011 9.61133 11.7715 9.94097 11.7715 10.3476C11.7715 10.7542 12.1011 11.0839 12.5078 11.0839Z"/>
<path d="M12.5085 11.1868C12.0585 11.1868 11.6699 10.8187 11.6699 10.3483C11.6699 9.8779 12.0381 9.50977 12.5085 9.50977C12.9789 9.50977 13.347 9.8779 13.347 10.3483C13.347 10.8187 12.9584 11.1868 12.5085 11.1868ZM12.5085 9.71429C12.1608 9.71429 11.8744 10.0006 11.8744 10.3483C11.8744 10.696 12.1608 10.9823 12.5085 10.9823C12.8561 10.9823 13.1425 10.696 13.1425 10.3483C13.1425 10.0006 12.8561 9.71429 12.5085 9.71429Z"/>
<path d="M12.5078 13.8651C12.9144 13.8651 13.244 13.5355 13.244 13.1289C13.244 12.7222 12.9144 12.3926 12.5078 12.3926C12.1011 12.3926 11.7715 12.7222 11.7715 13.1289C11.7715 13.5355 12.1011 13.8651 12.5078 13.8651Z"/>
<path d="M12.5085 13.9681C12.0585 13.9681 11.6699 13.6 11.6699 13.1296C11.6699 12.6796 12.0381 12.291 12.5085 12.291C12.9789 12.291 13.347 12.6592 13.347 13.1296C13.347 13.5795 12.9584 13.9681 12.5085 13.9681ZM12.5085 12.4955C12.1608 12.4955 11.8744 12.7819 11.8744 13.1296C11.8744 13.4772 12.1608 13.7636 12.5085 13.7636C12.8561 13.7636 13.1425 13.4772 13.1425 13.1296C13.1425 12.7819 12.8561 12.4955 12.5085 12.4955Z"/>
<path d="M12.5078 16.6464C12.9144 16.6464 13.244 16.3167 13.244 15.9101C13.244 15.5035 12.9144 15.1738 12.5078 15.1738C12.1011 15.1738 11.7715 15.5035 11.7715 15.9101C11.7715 16.3167 12.1011 16.6464 12.5078 16.6464Z"/>
<path d="M12.5085 16.7493C12.0585 16.7493 11.6699 16.3812 11.6699 15.9108C11.6699 15.4404 12.0381 15.0723 12.5085 15.0723C12.9789 15.0723 13.347 15.4404 13.347 15.9108C13.347 16.3812 12.9584 16.7493 12.5085 16.7493ZM12.5085 15.2768C12.1608 15.2768 11.8744 15.5631 11.8744 15.9108C11.8744 16.2585 12.1608 16.5448 12.5085 16.5448C12.8561 16.5448 13.1425 16.2585 13.1425 15.9108C13.1425 15.5631 12.8561 15.2768 12.5085 15.2768Z"/>
<path d="M17.1503 6.58583C17.557 6.58583 17.8866 6.25619 17.8866 5.84956C17.8866 5.44292 17.557 5.11328 17.1503 5.11328C16.7437 5.11328 16.4141 5.44292 16.4141 5.84956C16.4141 6.25619 16.7437 6.58583 17.1503 6.58583Z"/>
<path d="M17.151 6.68879C16.7011 6.68879 16.3125 6.32065 16.3125 5.85025C16.3125 5.37986 16.6806 5.01172 17.151 5.01172C17.601 5.01172 17.9896 5.37986 17.9896 5.85025C17.9896 6.32065 17.601 6.68879 17.151 6.68879ZM17.151 5.23669C16.8034 5.23669 16.517 5.52302 16.517 5.87071C16.517 6.21839 16.8034 6.50472 17.151 6.50472C17.4987 6.50472 17.7851 6.21839 17.7851 5.87071C17.7851 5.52302 17.4987 5.23669 17.151 5.23669Z"/>
</g>
  </symbol>
  <symbol id="catalog-7" viewBox="0 0 19 19">
    <g clip-path="url(#clip0_90_7292)">
<path d="M9.27404 3.67304C9.0693 3.48409 8.82361 3.37911 8.55745 3.35812C8.65982 3.12718 8.65982 2.83326 8.65982 2.62331V2.51834C8.65982 2.09845 8.53697 1.63657 8.29128 1.21668C7.8818 0.523865 7.22663 0.166959 6.36672 0.145965C5.32253 0.12497 4.13503 0.334915 2.76327 0.754804C0.163052 1.25867 0.142578 3.98795 0.142578 4.02994C0.44969 8.27083 2.64042 9.92939 2.72232 9.99237C2.72232 9.99237 2.74279 10.0134 2.76327 10.0134C2.76327 10.0554 2.76327 10.0764 2.76327 10.1183L3.25465 13.8973C3.2956 14.1283 3.47986 14.2962 3.70508 14.2962C3.72555 14.2962 3.74603 14.2962 3.7665 14.2962L8.35271 13.6664C8.5984 13.6244 8.78266 13.3935 8.74172 13.1415L8.25034 9.36254C8.25034 9.29956 8.20939 9.23657 8.18891 9.17359C9.08978 8.45978 9.68352 7.15812 9.74495 5.83547V5.79348C9.7859 5.14265 9.82684 4.1769 9.27404 3.67304ZM8.37318 13.1835C8.37318 13.2255 8.35271 13.2675 8.31176 13.2675L3.72555 13.8973C3.6846 13.8973 3.66413 13.8764 3.66413 13.8344L3.17275 10.0554C3.17275 10.0344 3.17275 10.0134 3.19322 10.0134C3.19322 10.0134 3.2137 9.99237 3.23417 9.99237L7.84085 9.36254C7.8818 9.36254 7.90228 9.38353 7.90228 9.42552L8.37318 13.1835ZM9.35594 5.77248V5.81447C9.31499 6.8642 8.82361 8.22884 7.82038 8.94265C7.7999 8.94265 7.75896 8.94265 7.73848 8.94265L3.15228 9.57248C3.07038 9.57248 3.00896 9.61447 2.94753 9.65646C2.84516 9.57248 0.818225 7.9769 0.531587 4.00895C0.531587 3.90398 0.552061 1.57359 2.84516 1.13271H2.86564C4.21693 0.73381 5.34301 0.523865 6.36672 0.54486C7.10378 0.565854 7.63611 0.838782 7.9637 1.40563C8.16844 1.76254 8.29128 2.14044 8.27081 2.49735V2.60232C8.27081 2.81226 8.27081 3.14817 8.14796 3.25315C8.12749 3.27414 8.10702 3.29514 8.10702 3.31613C8.00465 3.31613 7.8818 3.31613 7.77943 3.33713C7.69753 3.33713 7.63611 3.33713 7.55422 3.35812C6.87857 3.37911 6.24387 3.46309 5.71154 3.54707H5.69107C5.36348 3.61005 4.93353 3.69403 4.72878 4.07193C4.58547 4.36585 4.60594 4.76475 4.74926 5.14265C3.04991 5.52055 2.51758 5.16364 2.45616 4.97469C2.45616 4.86972 2.35378 4.80674 2.25141 4.82773C2.14904 4.84873 2.06715 4.9537 2.1081 5.05867C2.1081 5.10066 2.16952 5.28961 2.41521 5.45757C2.6609 5.62552 3.02943 5.7095 3.47986 5.7095C3.88934 5.7095 4.38072 5.64652 4.97447 5.52055C5.07684 5.66751 5.19969 5.81447 5.32253 5.89845C5.93676 6.29735 6.40766 5.98243 6.79667 5.7305C7.04236 5.56254 7.26758 5.41558 7.53374 5.41558C7.63611 5.41558 7.73848 5.3316 7.73848 5.20563C7.73848 5.10066 7.65659 4.99569 7.53374 4.99569C7.16521 4.99569 6.85809 5.20563 6.59193 5.37359C6.18245 5.64652 5.91628 5.77248 5.54775 5.54155C5.22016 5.3316 4.93353 4.59679 5.11779 4.26088C5.22016 4.05094 5.54775 3.98795 5.79344 3.94596H5.81391C6.34624 3.84099 6.93999 3.77801 7.59516 3.75701C7.67706 3.75701 7.73848 3.75701 7.82038 3.73602C8.27081 3.71503 8.74171 3.67304 9.02835 3.96696C9.41736 4.34486 9.37641 5.20563 9.35594 5.77248Z" />
<path d="M3.70582 14.4647C3.39871 14.4647 3.15302 14.2337 3.11207 13.9188L2.62069 10.1398C2.62069 10.1188 2.62069 10.1188 2.62069 10.0978C2.2931 9.8249 0.286638 8.08235 0 4.05142C0 4.00943 0.0409484 1.17517 2.68211 0.608322L2.70259 0.587328H2.74353C4.13578 0.188433 5.32328 -0.0215122 6.36746 -0.000517715C7.28879 0.0204768 7.98491 0.398377 8.41487 1.13318C8.68103 1.57407 8.80388 2.05694 8.80388 2.51882V2.6028C8.80388 2.77075 8.80388 3.00169 8.74246 3.23263C8.98815 3.29561 9.19289 3.40059 9.35668 3.56854C9.95043 4.13539 9.90948 5.12213 9.86853 5.79396V5.83595C9.80711 7.1586 9.23384 8.43926 8.35345 9.21606C8.37392 9.25805 8.37392 9.30003 8.37392 9.34202L8.8653 13.121C8.90625 13.4569 8.68103 13.7719 8.35345 13.8138L3.76724 14.4437C3.76724 14.4437 3.72629 14.4647 3.70582 14.4647ZM2.78448 0.902245C0.327586 1.38512 0.286638 4.00943 0.286638 4.05142C0.573276 8.16633 2.72306 9.8039 2.80496 9.86688L2.90733 9.92987L2.88685 10.0348C2.88685 10.0558 2.88685 10.0768 2.88685 10.0978L3.37823 13.8768C3.39871 14.0448 3.5625 14.1708 3.74677 14.1498L8.33297 13.5199C8.49677 13.4989 8.61961 13.331 8.59914 13.142L8.10776 9.36302C8.10776 9.32103 8.08728 9.27904 8.06681 9.23705L8.00539 9.13208L8.10776 9.0481C8.96767 8.35528 9.54095 7.11661 9.60237 5.81495V5.77296C9.62284 5.16412 9.66379 4.24037 9.17241 3.77849C9.00862 3.63153 8.80388 3.52655 8.53771 3.48457L8.35345 3.46357L8.43534 3.27462C8.53771 3.06468 8.51724 2.79175 8.51724 2.6028V2.51882C8.51724 2.11992 8.3944 1.67904 8.16918 1.30114C7.78017 0.650311 7.18642 0.314399 6.34698 0.314399C5.32328 0.293405 4.17672 0.482355 2.78448 0.902245ZM3.70582 14.0448C3.60345 14.0448 3.52155 13.9608 3.50108 13.8558L3.0097 10.0768C3.0097 10.0138 3.0097 9.95086 3.05065 9.90887C3.07112 9.86688 3.13254 9.8249 3.19397 9.8249L7.80065 9.19506C7.92349 9.19506 8.02586 9.27904 8.02586 9.38401L8.51724 13.163C8.51724 13.226 8.51724 13.289 8.47629 13.331C8.43534 13.373 8.3944 13.415 8.33297 13.415L3.70582 14.0448ZM3.29634 10.1188L3.76724 13.7509L8.21013 13.142L7.73922 9.50998L3.29634 10.1188ZM2.94828 9.84589L2.86638 9.78291C2.64116 9.59396 0.675646 7.97738 0.389009 4.03042C0.389009 3.90445 0.429957 1.4691 2.80496 1.00722H2.82543C4.1972 0.587328 5.34375 0.398377 6.34698 0.419372C7.16595 0.419372 7.71875 0.713294 8.08728 1.34313C8.3125 1.72103 8.43534 2.14092 8.41487 2.51882V2.62379C8.41487 2.93871 8.41487 3.25363 8.2306 3.40059C8.2306 3.40059 8.2306 3.42158 8.21013 3.42158L8.18965 3.48457H8.10776C8.00539 3.48457 7.88254 3.48457 7.78017 3.50556C7.69828 3.50556 7.63685 3.50556 7.55496 3.52655C6.87931 3.54755 6.26509 3.61053 5.73276 3.7155L5.69181 3.56854L5.71228 3.7155C5.40517 3.77849 5.01616 3.84147 4.85237 4.15639C4.72953 4.38733 4.75 4.74423 4.89332 5.10114L4.95474 5.2691L4.79095 5.31108C2.64116 5.77296 2.35453 5.12213 2.33405 5.05915C2.31358 5.01716 2.2931 4.99617 2.27263 5.01716C2.25216 5.01716 2.23168 5.03816 2.23168 5.03816C2.23168 5.03816 2.21121 5.05915 2.23168 5.08015C2.23168 5.10114 2.27263 5.2481 2.47737 5.37407C2.90733 5.66799 3.74677 5.66799 4.93427 5.39506L5.03664 5.37407L5.09806 5.45805C5.20043 5.60501 5.3028 5.70998 5.40517 5.79396C5.9375 6.15086 6.34698 5.87794 6.71552 5.626C6.98168 5.45805 7.22737 5.29009 7.51401 5.29009C7.53448 5.29009 7.55496 5.29009 7.55496 5.2691C7.55496 5.2691 7.57543 5.2481 7.57543 5.22711C7.57543 5.18512 7.55496 5.16412 7.51401 5.16412C7.18642 5.16412 6.92026 5.35307 6.65409 5.52103C6.26509 5.77296 5.91703 6.0039 5.44612 5.68898C5.07759 5.43705 4.75 4.61827 4.95474 4.21937C5.09806 3.94644 5.46659 3.88346 5.73276 3.84147C6.26509 3.7365 6.87931 3.67352 7.55496 3.65252C7.5959 3.65252 7.65733 3.65252 7.69827 3.65252H7.78017C8.2306 3.63153 8.74246 3.58954 9.09052 3.92545C9.54095 4.34534 9.5 5.2481 9.47952 5.83595V5.87794C9.43858 6.96965 8.92672 8.37628 7.90302 9.13208L7.86207 9.15307H7.82112C7.80065 9.15307 7.78017 9.15307 7.7597 9.15307L3.17349 9.78291C3.13254 9.78291 3.07112 9.8039 3.03017 9.84589H2.94828ZM2.86638 1.28015C0.716595 1.70003 0.696121 3.92545 0.696121 4.00943C0.94181 7.5155 2.60022 9.15307 2.98922 9.46799C3.05065 9.447 3.09159 9.426 3.15302 9.426L7.73922 8.79617C7.7597 8.79617 7.78017 8.79617 7.80065 8.79617C8.72198 8.10335 9.19289 6.80169 9.23383 5.79396V5.75197C9.25431 5.22711 9.29526 4.40832 8.92672 4.07241C8.68103 3.84147 8.25108 3.86247 7.82112 3.88346H7.73922C7.6778 3.88346 7.63685 3.88346 7.57543 3.88346C6.92026 3.90445 6.30603 3.96744 5.81465 4.07241H5.79418C5.58944 4.1144 5.28233 4.15639 5.2209 4.30335C5.07759 4.57628 5.34375 5.22711 5.60991 5.39506C5.91703 5.58401 6.08082 5.50003 6.51078 5.22711C6.77694 5.05915 7.125 4.82821 7.53448 4.82821C7.71875 4.82821 7.88254 4.97517 7.88254 5.18512C7.88254 5.2691 7.84159 5.37407 7.78017 5.43705C7.71875 5.50003 7.63685 5.54202 7.53448 5.54202C7.32974 5.54202 7.125 5.66799 6.87931 5.83595C6.4903 6.08788 5.9375 6.44479 5.26185 6.0039C5.13901 5.91992 5.01616 5.81495 4.91379 5.66799C3.68534 5.94092 2.82543 5.89893 2.33405 5.58401C2.04741 5.39506 1.98599 5.16412 1.96552 5.10114C1.94504 5.01716 1.96552 4.91219 2.00647 4.82821C2.04741 4.74423 2.12931 4.70224 2.23168 4.68125C2.39547 4.63926 2.57974 4.74423 2.62069 4.93318C2.66164 5.01716 3.11207 5.31108 4.58621 5.01716C4.46336 4.63926 4.48384 4.26136 4.62715 3.98843C4.85237 3.54755 5.36422 3.46357 5.69181 3.40059H5.71228C6.26509 3.29562 6.89978 3.23263 7.57543 3.21164C7.63685 3.21164 7.71875 3.21164 7.78017 3.19064C7.86207 3.19064 7.96444 3.19064 8.04634 3.16965L8.06681 3.14865C8.14871 3.08567 8.14871 2.72876 8.14871 2.6028V2.51882C8.14871 2.18291 8.04634 1.826 7.86207 1.51108C7.55496 0.986222 7.06358 0.734289 6.36746 0.713294C5.3847 0.6923 4.25862 0.88125 2.90733 1.28015H2.86638V1.28015Z"/>
<path d="M7.10427 12.7438C7.0838 12.8488 7.0019 12.8908 6.92001 12.8908C6.89953 12.8908 6.89953 12.8908 6.87906 12.8908L5.8144 12.6389L4.91354 13.2477C4.87259 13.2687 4.85212 13.2897 4.81117 13.2897C4.74975 13.2897 4.68833 13.2477 4.64738 13.1847C4.58595 13.1008 4.60643 12.9748 4.7088 12.9118L5.2616 12.5549L4.72927 12.4289C4.6269 12.4079 4.56548 12.303 4.58595 12.198C4.60643 12.093 4.7088 12.03 4.81117 12.051L5.73251 12.261L6.55147 11.7151C6.65384 11.6521 6.75621 11.6731 6.81763 11.7781C6.87906 11.8621 6.85858 11.988 6.75621 12.051L6.26483 12.3659L6.96095 12.5129C7.06332 12.5339 7.12475 12.6389 7.10427 12.7438Z"/>
<path d="M4.81096 13.4153C4.68812 13.4153 4.58575 13.3523 4.52432 13.2474C4.48338 13.1634 4.4629 13.0794 4.48338 12.9954C4.50385 12.9115 4.56527 12.8275 4.62669 12.7645L4.89286 12.5965L4.68812 12.5545C4.50385 12.5126 4.381 12.3236 4.42195 12.1347C4.44243 12.0507 4.50385 11.9667 4.56527 11.9247C4.64717 11.8827 4.72906 11.8617 4.81096 11.8827L5.67088 12.0717L6.44889 11.5678C6.53079 11.5258 6.61269 11.5048 6.71506 11.5258C6.79695 11.5468 6.87885 11.6098 6.9198 11.6728C6.96075 11.7568 6.98122 11.8407 6.96075 11.9247C6.94027 12.0087 6.87885 12.0927 6.81743 12.1556L6.61269 12.2816L6.96075 12.3656C7.14501 12.4076 7.26786 12.5965 7.22691 12.7855C7.18596 12.9534 7.06312 13.0584 6.89932 13.0584C6.87885 13.0584 6.85838 13.0584 6.81743 13.0584L5.83467 12.8065L4.99523 13.3523C4.93381 13.3943 4.87238 13.4153 4.81096 13.4153ZM4.77001 12.1556C4.74954 12.1556 4.74954 12.1556 4.74954 12.1556C4.74954 12.1556 4.72907 12.1766 4.72907 12.1976C4.72907 12.2186 4.72907 12.2396 4.72907 12.2396C4.72907 12.2396 4.74954 12.2606 4.77001 12.2606L5.6504 12.4706L4.77001 13.0164C4.74954 13.0374 4.74954 13.0374 4.74954 13.0584C4.74954 13.0584 4.74954 13.0794 4.74954 13.1004C4.77001 13.1214 4.79049 13.1424 4.83144 13.1214L5.77325 12.5126L6.89932 12.7645C6.94027 12.7645 6.96075 12.7435 6.96075 12.7225C6.96075 12.7015 6.94027 12.6595 6.9198 12.6595L5.89609 12.4286L6.67411 11.9247C6.69458 11.9037 6.69458 11.9037 6.69458 11.8827C6.69458 11.8827 6.69458 11.8617 6.69458 11.8407C6.67411 11.8197 6.67411 11.8197 6.65363 11.8197C6.65363 11.8197 6.63316 11.8197 6.61269 11.8197L5.75277 12.3866L4.77001 12.1556Z"/>
<path d="M6.89819 11.1472C6.87771 11.2521 6.79581 11.2941 6.71392 11.2941C6.69344 11.2941 6.69344 11.2941 6.67297 11.2941L5.60831 11.0422L4.70745 11.63C4.6665 11.651 4.64603 11.672 4.60508 11.672C4.54366 11.672 4.48224 11.63 4.44129 11.5671C4.37987 11.4831 4.40034 11.3571 4.50271 11.2941L5.07599 10.9372L4.50271 10.8113C4.40034 10.7903 4.33892 10.6853 4.35939 10.5803C4.37987 10.4753 4.48224 10.4124 4.58461 10.4334L5.50594 10.6433L6.34538 10.0764C6.42728 10.0135 6.55012 10.0345 6.61155 10.1394C6.67297 10.2234 6.6525 10.3494 6.55012 10.4124L6.05875 10.7273L6.75487 10.8742C6.85724 10.9162 6.91866 11.0422 6.89819 11.1472Z"/>
<path d="M4.58555 11.8191C4.46271 11.8191 4.36034 11.7561 4.29891 11.6512C4.19654 11.4832 4.23749 11.2733 4.40128 11.1683L4.66745 11.0003L4.46271 10.9584C4.38081 10.9374 4.29891 10.8744 4.25796 10.8114C4.21702 10.7274 4.19654 10.6434 4.21702 10.5385C4.25796 10.3495 4.44223 10.2445 4.6265 10.2655L5.48641 10.4545L6.26443 9.95062C6.34633 9.90863 6.42822 9.88763 6.51012 9.90863C6.59202 9.92962 6.67391 9.99261 6.71486 10.0556C6.81723 10.2026 6.77628 10.4335 6.61249 10.5385L6.40775 10.6644L6.75581 10.7484C6.94008 10.7904 7.06292 10.9793 7.02197 11.1683C6.98103 11.3363 6.85818 11.4412 6.69439 11.4412C6.67391 11.4412 6.65344 11.4412 6.61249 11.4412L5.60926 11.2103L4.76982 11.7561C4.72887 11.7981 4.66745 11.8191 4.58555 11.8191ZM4.5446 10.5595C4.52413 10.5595 4.50365 10.5805 4.48318 10.6014C4.48318 10.6224 4.48318 10.6434 4.48318 10.6434C4.48318 10.6434 4.50365 10.6644 4.52413 10.6644L5.40452 10.8744L4.5446 11.4412C4.52413 11.4622 4.50365 11.4832 4.52413 11.5252C4.5446 11.5462 4.56508 11.5672 4.58555 11.5462L5.52736 10.9374L6.65344 11.1893C6.69439 11.1893 6.71486 11.1683 6.71486 11.1473C6.71486 11.1263 6.69439 11.0843 6.67391 11.0843L5.65021 10.8534L6.4487 10.3495C6.46917 10.3285 6.48965 10.3075 6.46917 10.2655C6.4487 10.2445 6.4487 10.2445 6.42822 10.2445C6.42822 10.2445 6.40775 10.2445 6.38728 10.2445L5.50689 10.8114L4.5446 10.5595C4.56508 10.5595 4.56508 10.5595 4.5446 10.5595Z" />
<path d="M16.8497 5.68949C15.6622 5.05966 14.5361 4.63977 13.4919 4.45082C12.1611 4.21988 11.1988 4.84971 10.687 6.31933C10.687 6.31933 10.5437 6.84419 10.5846 7.22209C10.3185 7.22209 10.0523 7.24308 9.78613 7.45303C9.15143 7.9359 8.88526 8.94363 9.00811 10.4132C9.09001 11.505 9.41759 12.3447 9.94992 12.9326C9.90897 12.9746 9.86802 13.0376 9.84755 13.1005L9.00811 15.6829L8.96716 15.8088L8.68052 16.7116C8.63958 16.8376 8.66005 16.9635 8.701 17.0685C8.76242 17.1735 8.84432 17.2574 8.96716 17.2994L13.3691 18.811C13.41 18.832 13.4715 18.832 13.5124 18.832C13.7172 18.832 13.881 18.7061 13.9424 18.5171L15.1504 14.9061C15.1504 14.8641 15.1708 14.8431 15.1708 14.8011C15.1913 14.8011 15.1913 14.8011 15.2118 14.7801C15.3141 14.7381 17.771 13.5204 18.8357 9.40551C18.8357 9.38452 19.3066 6.69723 16.8497 5.68949ZM13.5943 18.3911C13.5738 18.4331 13.5329 18.4541 13.5124 18.4331L9.11048 16.9215C9.09001 16.9215 9.06953 16.9005 9.06953 16.8795C9.06953 16.8795 9.04906 16.8586 9.06953 16.8376L9.31522 16.0608L13.84 17.6353L13.5943 18.3911ZM13.9628 17.2784L9.43807 15.7039L9.86802 14.3602L14.3928 15.9348L13.9628 17.2784ZM14.7818 14.7801L14.5361 15.5569L10.0113 13.9823L10.2366 13.2265C10.257 13.1845 10.2775 13.1845 10.298 13.1845H10.3185L14.7204 14.6961C14.7409 14.6961 14.7613 14.7171 14.7613 14.7381C14.7818 14.7171 14.7818 14.7381 14.7818 14.7801ZM18.4467 9.32154C17.9348 11.274 17.0954 12.5547 16.3788 13.3315C15.6827 14.0663 15.1094 14.3812 15.048 14.4232C15.007 14.3602 14.9456 14.3182 14.8637 14.2972L10.4618 12.7856C10.4413 12.7856 10.4004 12.7646 10.3799 12.7646C9.82707 12.2398 9.49949 11.442 9.41759 10.3713C9.31522 9.04861 9.51996 8.16684 10.0318 7.76794C10.2161 7.62098 10.4208 7.62098 10.687 7.62098H10.7894C10.8508 7.62098 10.8917 7.62098 10.9532 7.62098L10.9327 7.22209C10.9532 7.22209 10.9736 6.59225 11.035 6.44529C11.4855 5.14363 12.2635 4.61877 13.41 4.82872C14.4338 5.01767 15.5189 5.41656 16.6654 6.0254H16.6859H16.7064C18.8357 6.94916 18.4467 9.23756 18.4467 9.32154Z"/>
<path d="M13.5336 18.9992C13.4722 18.9992 13.4108 18.9782 13.3494 18.9572L8.94742 17.4456C8.8041 17.4037 8.66078 17.2777 8.59936 17.1307C8.53794 16.9838 8.51746 16.8158 8.55841 16.6689L9.74591 13.0368C9.76639 12.9948 9.76639 12.9738 9.78686 12.9318C9.27501 12.323 8.9679 11.4832 8.886 10.4125C8.76315 8.8799 9.04979 7.83017 9.72544 7.32631C9.97113 7.13736 10.2168 7.09537 10.442 7.07437C10.442 6.69647 10.5444 6.27658 10.5444 6.25559C11.0767 4.702 12.1004 4.03017 13.5132 4.28211C14.5778 4.47106 15.7039 4.89095 16.8709 5.52078L16.8914 5.54178C19.4711 6.5915 18.9593 9.38377 18.9388 9.42576C17.9151 13.4147 15.6015 14.7164 15.2739 14.8843C15.2739 14.9053 15.2739 14.9053 15.2535 14.9263L14.066 18.5584C14.025 18.8103 13.7998 18.9992 13.5336 18.9992ZM9.13169 15.8501L8.82458 16.7738C8.8041 16.8578 8.8041 16.9418 8.84505 17.0048C8.886 17.0887 8.94742 17.1307 9.02932 17.1727L13.4313 18.6843C13.5951 18.7473 13.7793 18.6423 13.8407 18.4744L15.0282 14.8423C15.0282 14.8213 15.0487 14.8003 15.0487 14.7793V14.6744L15.1716 14.6324C15.2535 14.5904 17.6489 13.4147 18.6931 9.36277C18.6931 9.34178 19.1435 6.78045 16.8095 5.8147H16.789C15.622 5.18487 14.5164 4.76498 13.4722 4.59702C12.2233 4.36609 11.3019 4.99592 10.831 6.38156C10.7901 6.50752 10.7082 6.92741 10.7491 7.22134L10.7696 7.38929H10.6058C10.3806 7.38929 10.1349 7.41028 9.88923 7.57824C9.29548 8.04012 9.04979 8.98487 9.17264 10.4125C9.25453 11.4622 9.56165 12.281 10.094 12.8479L10.1963 12.9528L10.1144 13.0578C10.094 13.0998 10.0735 13.1208 10.053 13.1628L9.13169 15.8501ZM13.5336 18.5793C13.5132 18.5793 13.4927 18.5793 13.4517 18.5584L9.04979 17.0677C8.98837 17.0468 8.94742 17.0048 8.92695 16.9418C8.90647 16.8998 8.90647 16.8368 8.92695 16.7948L9.23406 15.8711L14.025 17.5506L13.7384 18.4324C13.7179 18.4954 13.6769 18.5374 13.636 18.5584C13.5951 18.5793 13.5746 18.5793 13.5336 18.5793ZM13.5541 18.2854C13.5541 18.3064 13.5541 18.3064 13.5541 18.2854V18.2854ZM9.23406 16.8158L13.4927 18.2644L13.6565 17.7396L9.41833 16.249L9.23406 16.8158ZM14.0455 17.4456L9.25453 15.7661L9.78686 14.1495L14.5778 15.8291L14.0455 17.4456ZM9.62307 15.5981L13.8612 17.0887L14.2093 16.039L9.97113 14.5484L9.62307 15.5981ZM14.6188 15.7451L9.82781 14.0655L10.1144 13.1838C10.1554 13.0998 10.2373 13.0368 10.3192 13.0368C10.3397 13.0368 10.3601 13.0368 10.4011 13.0578L14.7826 14.5484C14.844 14.5694 14.8849 14.6114 14.9054 14.6534C14.9259 14.6954 14.9463 14.7584 14.9259 14.8213L14.6188 15.7451ZM10.1759 13.8766L14.414 15.3672L14.5983 14.8003L10.3397 13.3517L10.1759 13.8766ZM15.0078 14.5904L14.9463 14.5274C14.9054 14.4854 14.8644 14.4644 14.8235 14.4434L10.4216 12.9318C10.4011 12.9318 10.3806 12.9108 10.3601 12.9108H10.3192L10.2782 12.8898C9.70497 12.344 9.3569 11.5042 9.27501 10.4125C9.17264 9.02686 9.39785 8.1031 9.95065 7.68321C10.1759 7.51526 10.442 7.51526 10.6877 7.51526H10.7901H10.8106L10.7901 7.11636H10.8106C10.8106 7.09537 10.8106 7.05338 10.8106 7.01139C10.831 6.73846 10.8515 6.52852 10.8925 6.42354C11.3634 5.0799 12.2028 4.49205 13.4108 4.72299C14.455 4.91194 15.5606 5.31084 16.7071 5.94067L16.7481 5.96167C18.9183 6.86443 18.6112 9.11084 18.5703 9.36277V9.38377C18.0379 11.4412 17.1371 12.7429 16.4614 13.4567C15.7653 14.2125 15.1511 14.5484 15.0897 14.5694L15.0078 14.5904ZM10.442 12.6379C10.4625 12.6379 10.483 12.6589 10.5035 12.6589L14.9054 14.1705C14.9668 14.1915 15.0078 14.2125 15.0692 14.2545C15.2535 14.1495 15.7244 13.8346 16.2772 13.2468C16.9119 12.5539 17.7922 11.2943 18.3041 9.29979C18.3451 9.04785 18.6112 7.03238 16.6662 6.2136C16.6457 6.2136 16.6457 6.2136 16.6252 6.19261C16.6252 6.19261 16.6047 6.19261 16.5843 6.17161C15.4787 5.56277 14.3935 5.16388 13.3903 4.99592C12.3052 4.80697 11.6091 5.28984 11.1791 6.50752C11.1586 6.57051 11.1177 6.86443 11.1177 7.01139C11.1177 7.11636 11.0972 7.17935 11.0972 7.22134L11.1177 7.7462H10.9744C10.9129 7.7462 10.8515 7.7462 10.7901 7.7462H10.6877C10.4216 7.7462 10.2578 7.7462 10.1144 7.85117C9.64354 8.20808 9.4388 9.04785 9.54117 10.3285C9.62307 11.3782 9.93018 12.134 10.442 12.6379Z"/>
<path d="M9.02923 15.6836L8.98828 15.8096C8.98828 15.7886 8.98828 15.7676 8.98828 15.7466C9.00876 15.7256 9.00875 15.7046 9.02923 15.6836Z"/>
<path d="M8.8457 16.6703V15.8095C8.8457 15.7675 8.8457 15.7255 8.86618 15.6835C8.88665 15.6416 8.90713 15.5996 8.9276 15.5786L9.41898 15.0117L8.8457 16.6703Z"/>
</g>
  </symbol>
  <symbol id="catalog-8" viewBox="0 0 19 19">
    <g clip-path="url(#clip0_90_7297)">
<path d="M4.25503 18.113C3.16282 18.113 2.27539 17.3085 2.27539 16.3182C2.27539 15.328 3.16282 14.5234 4.25503 14.5234C5.34725 14.5234 6.23467 15.328 6.23467 16.3182C6.23467 17.3085 5.34725 18.113 4.25503 18.113ZM4.25503 15.1423C3.54964 15.1423 2.95803 15.6581 2.95803 16.3182C2.95803 16.9577 3.52689 17.4941 4.25503 17.4941C4.96042 17.4941 5.55204 16.9784 5.55204 16.3182C5.55204 15.6581 4.98318 15.1423 4.25503 15.1423Z"/>
<path d="M14.7218 18.113C13.6296 18.113 12.7422 17.3085 12.7422 16.3182C12.7422 15.328 13.6296 14.5234 14.7218 14.5234C15.814 14.5234 16.7015 15.328 16.7015 16.3182C16.7015 17.3085 15.814 18.113 14.7218 18.113ZM14.7218 15.1423C14.0164 15.1423 13.4248 15.6581 13.4248 16.3182C13.4248 16.9577 13.9937 17.4941 14.7218 17.4941C15.4272 17.4941 16.0188 16.9784 16.0188 16.3182C16.0188 15.6581 15.45 15.1423 14.7218 15.1423Z"/>
<path d="M4.25458 18.9994C3.50368 18.9994 2.73003 18.7312 2.16116 18.2155C1.00069 17.1634 1.00069 15.4717 2.16116 14.4196L4.5959 12.2122C4.57314 11.9853 4.55039 11.779 4.55039 11.5933C4.55039 11.0982 4.61865 10.6237 4.75518 10.1492L1.22823 8.78767H1.20548C0.727632 8.602 0.340805 8.2513 0.136015 7.81807C-0.0687757 7.38485 -0.0687757 6.88973 0.136015 6.45651C0.340805 6.02328 0.727632 5.67258 1.20548 5.48691C1.68332 5.30124 2.22943 5.30124 2.70727 5.48691L6.43901 6.88973C6.50727 6.91036 6.55278 6.95162 6.57554 6.99288C7.25817 7.8387 8.30488 8.31318 9.4426 8.31318C10.5803 8.31318 11.627 7.8387 12.3097 6.99288C12.3552 6.95162 12.4007 6.91036 12.4462 6.88973L16.1779 5.48691C17.1791 5.11557 18.3396 5.5488 18.7492 6.45651C18.954 6.88973 18.954 7.38485 18.7492 7.81807C18.5444 8.2513 18.1576 8.602 17.6797 8.78767C17.6797 8.78767 17.6797 8.78767 17.657 8.78767L14.1073 10.1286C14.2438 10.6031 14.3121 11.0982 14.3121 11.5727C14.3121 11.779 14.2893 11.9853 14.2666 12.1916L16.724 14.4196C17.8845 15.4717 17.8845 17.1634 16.724 18.2155C15.5636 19.2676 13.6977 19.2676 12.56 18.2155C12.56 18.2155 12.56 18.2155 12.5372 18.1948L10.6258 16.4619C9.82943 16.6682 8.98751 16.6682 8.1911 16.4619L6.25697 18.2155C5.77913 18.7312 5.02823 18.9994 4.25458 18.9994ZM2.66176 14.8528C1.77434 15.6574 1.77434 16.9777 2.66176 17.7822C3.54919 18.5868 4.98272 18.5868 5.87015 17.7822L7.94081 15.9049C8.03182 15.8224 8.16835 15.8018 8.28212 15.8224C9.07853 16.07 9.89769 16.07 10.6941 15.8224C10.8079 15.7812 10.9444 15.8224 11.0354 15.9049L13.1061 17.7822C13.9935 18.5868 15.427 18.5868 16.3145 17.7822C17.2019 16.9777 17.2019 15.678 16.3145 14.8734L13.766 12.5217C13.6977 12.4598 13.6522 12.3566 13.6749 12.2535C13.7204 12.0059 13.7432 11.7584 13.7432 11.5521C13.7432 11.0363 13.6522 10.5206 13.4701 10.0255C13.4246 9.88105 13.4929 9.71601 13.6749 9.65412L17.5204 8.21004C17.5204 8.21004 17.5204 8.21004 17.5432 8.21004C17.8618 8.08626 18.1121 7.85933 18.2258 7.57051C18.3624 7.2817 18.3624 6.97225 18.2258 6.6628C17.9528 6.06454 17.2019 5.77572 16.542 6.02328L12.8785 7.40548C12.0821 8.35444 10.8306 8.91145 9.51087 8.91145C8.1911 8.91145 6.93961 8.35444 6.1432 7.40548L2.47973 6.02328C2.16116 5.8995 1.81985 5.8995 1.47853 6.02328C1.13721 6.14706 0.909667 6.39462 0.77314 6.68343C0.636614 6.97225 0.636614 7.2817 0.77314 7.59114C0.909667 7.87996 1.13721 8.10689 1.45578 8.21004L5.30128 9.65412C5.46057 9.71601 5.55158 9.88105 5.50608 10.0255C5.32404 10.5206 5.23302 11.0363 5.23302 11.5521C5.23302 11.7584 5.25578 11.9853 5.30128 12.2535C5.32404 12.3566 5.27853 12.4391 5.21027 12.5217L2.66176 14.8528Z"/>
<path d="M9.48891 8.91205C7.1452 8.91205 5.23382 7.17915 5.23382 5.05429C5.23382 4.86862 5.25658 4.66232 5.27933 4.47666C4.43742 4.06406 3.91406 3.2595 3.91406 2.39305C3.91406 1.07275 5.0973 0 6.55358 0C7.50927 0 8.3967 0.474484 8.85179 1.23779C9.28412 1.1759 9.71646 1.1759 10.126 1.23779C10.5811 0.474484 11.4686 0 12.4242 0C13.8805 0 15.0638 1.07275 15.0638 2.39305C15.0638 3.2595 14.5404 4.06406 13.6985 4.47666C13.7212 4.66232 13.744 4.86862 13.744 5.05429C13.7668 7.17915 11.8554 8.91205 9.48891 8.91205ZM6.55358 0.618893C5.48412 0.618893 4.5967 1.40282 4.5967 2.39305C4.5967 3.09446 5.07454 3.73398 5.77993 4.0228C5.93921 4.08469 6.00748 4.2291 5.98472 4.37351C5.93921 4.60043 5.8937 4.82736 5.8937 5.05429C5.8937 6.84908 7.50927 8.29316 9.46616 8.29316C11.4458 8.29316 13.0386 6.82845 13.0386 5.05429C13.0386 4.82736 13.0159 4.60043 12.9476 4.37351C12.9021 4.2291 12.9931 4.08469 13.1524 4.0228C13.8805 3.75461 14.3356 3.11509 14.3356 2.39305C14.3356 1.42345 13.4709 0.618893 12.3787 0.618893C11.6051 0.618893 10.8997 1.05212 10.5811 1.69164C10.5129 1.83605 10.3536 1.89794 10.1943 1.87731C9.6937 1.77416 9.17035 1.77416 8.66975 1.87731C8.51047 1.91857 8.35119 1.83605 8.28293 1.69164C8.03263 1.05212 7.32724 0.618893 6.55358 0.618893Z"/>
<path d="M12.9922 3.75425C12.8785 3.75425 12.7419 3.69236 12.6964 3.58922C12.3551 2.97032 11.7862 2.45458 11.1036 2.14513C10.9443 2.06261 10.8761 1.89758 10.9443 1.73254C11.2174 1.19616 11.7862 0.886719 12.4234 0.886719C13.3335 0.886719 14.0844 1.5675 14.0844 2.37206C14.0844 2.94969 13.7204 3.46544 13.1515 3.71299C13.106 3.75425 13.0377 3.75425 12.9922 3.75425ZM11.7407 1.7738C12.2868 2.08324 12.7647 2.51647 13.106 3.01158C13.288 2.84655 13.4018 2.61962 13.4018 2.39269C13.4018 1.91821 12.9695 1.52624 12.4234 1.52624C12.1731 1.50561 11.9228 1.60876 11.7407 1.7738Z"/>
<path d="M5.98352 3.75511C5.93801 3.75511 5.89251 3.75511 5.847 3.73448C5.27813 3.48692 4.91406 2.95055 4.91406 2.39355C4.91406 1.56836 5.66496 0.908203 6.55239 0.908203C7.18951 0.908203 7.75837 1.23828 8.03143 1.75402C8.09969 1.89843 8.03143 2.0841 7.87215 2.16662C7.18951 2.47606 6.62065 2.99181 6.27933 3.6107C6.23382 3.69322 6.12005 3.75511 5.98352 3.75511ZM6.55239 1.50647C6.02903 1.50647 5.5967 1.89843 5.5967 2.37292C5.5967 2.62047 5.71047 2.82677 5.89251 2.99181C6.23382 2.49669 6.71167 2.06347 7.25777 1.75402C7.05298 1.60961 6.82544 1.50647 6.55239 1.50647Z"/>
<path d="M9.48906 15.2667C7.50942 15.2667 5.87109 13.6163 5.87109 11.574C5.87109 10.068 6.75852 8.72705 8.12379 8.14941C8.19205 8.10816 8.28307 8.10816 8.37409 8.12879C9.10223 8.33508 9.87588 8.33508 10.604 8.12879C10.695 8.10816 10.7861 8.10816 10.8543 8.14941C12.2196 8.72705 13.107 10.068 13.107 11.574C13.107 13.6163 11.4915 15.2667 9.48906 15.2667ZM8.30582 8.76831C7.23636 9.26342 6.57648 10.3568 6.57648 11.574C6.57648 13.2656 7.89624 14.6478 9.51181 14.6478C11.1274 14.6478 12.4471 13.2656 12.4471 11.574C12.4471 10.3568 11.7645 9.26342 10.7178 8.76831C9.92139 8.9746 9.07948 8.9746 8.30582 8.76831Z"/>
<path d="M9.48718 6.51915C9.16862 6.51915 8.85005 6.35412 8.64526 6.08593L8.577 5.98278C8.3267 5.67333 8.25843 5.34326 8.41772 5.0957C8.53149 4.8894 8.78179 4.76562 9.10035 4.76562H9.89676C10.2153 4.76562 10.4656 4.8894 10.5794 5.0957C10.7159 5.34326 10.6477 5.6527 10.4201 5.98278L10.3519 6.0653C10.1243 6.35412 9.8285 6.51915 9.48718 6.51915ZM9.00933 5.40515C9.00933 5.44641 9.03209 5.52893 9.12311 5.63207L9.19137 5.71459C9.35065 5.92089 9.60095 5.92089 9.76023 5.71459L9.8285 5.63207C9.91951 5.5083 9.94227 5.44641 9.94227 5.40515C9.91951 5.40515 9.89676 5.40515 9.87401 5.40515H9.10035C9.05484 5.40515 9.03209 5.40515 9.00933 5.40515Z"/>
<path d="M9.4878 7.69518C9.30577 7.69518 9.14648 7.55077 9.14648 7.38573V6.20984C9.14648 6.0448 9.30577 5.90039 9.4878 5.90039C9.66984 5.90039 9.82912 6.0448 9.82912 6.20984V7.38573C9.82912 7.55077 9.69259 7.69518 9.4878 7.69518Z"/>
<path d="M9.48717 7.73687C8.69076 7.73687 7.96261 7.44805 7.39375 6.95294C7.32549 6.89105 7.30273 6.80853 7.30273 6.72601C7.30273 6.64349 7.32549 6.56097 7.39375 6.49908C7.53028 6.37531 7.73507 6.37531 7.8716 6.49908C8.30393 6.89105 8.87279 7.09735 9.48717 7.09735C10.1015 7.09735 10.6704 6.89105 11.1027 6.49908C11.2393 6.37531 11.4441 6.37531 11.5806 6.49908C11.6488 6.56097 11.6716 6.64349 11.6716 6.72601C11.6716 6.80853 11.6488 6.89105 11.5806 6.95294C11.0345 7.44805 10.2836 7.73687 9.48717 7.73687Z"/>
<path d="M8.85101 4.16772H7.87257C7.69053 4.16772 7.53125 4.02331 7.53125 3.85827C7.53125 3.69324 7.69053 3.54883 7.87257 3.54883H8.85101C9.03305 3.54883 9.19233 3.69324 9.19233 3.85827C9.19233 4.02331 9.03305 4.16772 8.85101 4.16772Z"/>
<path d="M11.1264 4.16772H10.148C9.96592 4.16772 9.80664 4.02331 9.80664 3.85827C9.80664 3.69324 9.96592 3.54883 10.148 3.54883H11.1264C11.3084 3.54883 11.4677 3.69324 11.4677 3.85827C11.4677 4.02331 11.3084 4.16772 11.1264 4.16772Z"/>
</g>
  </symbol>
  <symbol id="catalog-6" viewBox="0 0 19 19">
    <g>
      <path d="M10.8294 3.51318V5.36183C10.8294 5.60831 10.9542 5.81372 11.162 5.93696C11.3699 6.06021 11.6194 6.06021 11.8272 5.93696C11.9312 5.87534 12.0559 5.83426 12.1806 5.83426C12.5756 5.83426 12.9082 6.16291 12.9082 6.55318C12.9082 6.94345 12.5756 7.2721 12.1806 7.2721C12.0559 7.2721 11.9312 7.23102 11.8272 7.16939C11.6194 7.04615 11.3699 7.04615 11.162 7.16939C10.9542 7.29264 10.8294 7.49804 10.8294 7.74453V10.9078H8.79223C8.77144 10.9078 8.77144 10.9078 8.75066 10.8872C8.75066 10.8667 8.75066 10.8667 8.75066 10.8461C8.8546 10.6407 8.91696 10.3943 8.91696 10.1478C8.91696 9.32615 8.23096 8.64831 7.39945 8.64831C6.87976 8.64831 6.44322 8.8948 6.15219 9.28507C6.17298 9.24399 6.19376 9.18237 6.19376 9.12075C6.21455 8.8948 6.1314 8.66885 5.94431 8.52507C5.84037 8.44291 5.73643 8.31966 5.69486 8.19642C5.59092 7.97048 5.59092 7.74453 5.67407 7.51858C5.75722 7.29264 5.92352 7.12831 6.15219 7.02561C6.27692 6.98453 6.38085 6.94345 6.50558 6.94345C6.85897 6.94345 7.19158 7.14885 7.33709 7.4775C7.39945 7.60075 7.42024 7.74453 7.42024 7.88831C7.39945 8.11426 7.50339 8.3402 7.71127 8.46345C7.89836 8.58669 8.14781 8.62777 8.35569 8.52507L10.8086 7.45696L9.27035 4.00615C9.27035 3.98561 9.27035 3.98561 9.27035 3.96507C9.29114 3.94453 9.29114 3.94453 9.31193 3.94453C9.54059 3.96507 9.79004 3.94453 9.99792 3.84183C10.6839 3.55426 10.9957 2.75318 10.6839 2.07534C10.476 1.58237 9.97713 1.27426 9.45744 1.27426C9.27035 1.27426 9.08326 1.31534 8.91696 1.37696C8.70908 1.47967 8.5012 1.62345 8.37648 1.80831C8.35569 1.8494 8.35569 1.8494 8.3349 1.8494C8.31411 1.8494 8.31411 1.8494 8.29333 1.82886L7.54497 0.144531L0.144531 3.34885L3.38742 10.6818L5.81959 9.61372C5.92352 9.57264 5.98589 9.51102 6.06904 9.42885C5.9651 9.63426 5.90274 9.88074 5.90274 10.1272C5.90274 10.3737 5.9651 10.5997 6.06904 10.8256C6.06904 10.8462 6.06904 10.8462 6.06904 10.8667C6.06904 10.8872 6.04825 10.8872 6.02746 10.8872H3.36663V18.898H10.8086H18.9159V11.5034V10.8872V3.49264H10.8294V3.51318ZM5.57013 9.05912L3.69924 9.8602L0.955253 3.6775L7.23315 0.945612L7.73206 2.07534C7.836 2.30129 8.02309 2.44507 8.27254 2.46561C8.52199 2.48615 8.75066 2.38345 8.87538 2.19858C8.95853 2.09588 9.04169 2.01372 9.16641 1.97264C9.24956 1.93156 9.3535 1.91102 9.45744 1.91102C9.74847 1.91102 9.99792 2.07534 10.1226 2.34237C10.289 2.7121 10.1226 3.12291 9.74847 3.28723C9.62374 3.32831 9.49902 3.34885 9.37429 3.34885C9.12484 3.32831 8.89617 3.43102 8.77145 3.61588C8.62593 3.80075 8.60514 4.04723 8.68829 4.27318L9.97713 7.14885L8.10624 7.97047C8.10624 7.97047 8.10624 7.97047 8.08545 7.97047C8.06466 7.94993 8.06466 7.94993 8.06466 7.92939C8.08545 7.68291 8.04387 7.45696 7.93994 7.23102C7.69048 6.67642 7.15 6.32723 6.54716 6.32723C6.33928 6.32723 6.1314 6.36831 5.94431 6.45048C5.57013 6.6148 5.2791 6.90237 5.13359 7.2721C4.98808 7.64183 4.98808 8.05264 5.15438 8.42237C5.25832 8.64831 5.40383 8.83318 5.59092 8.9975C5.61171 9.01804 5.61171 9.01804 5.61171 9.03858C5.59092 9.03858 5.59092 9.05912 5.57013 9.05912ZM11.4531 7.74453C11.4531 7.72399 11.4531 7.72399 11.4739 7.70345C11.4946 7.68291 11.4946 7.70345 11.5154 7.70345C11.7233 7.82669 11.952 7.88831 12.2014 7.88831C12.9498 7.88831 13.5526 7.29264 13.5526 6.55318C13.5526 5.81372 12.9498 5.21804 12.2014 5.21804C11.9728 5.21804 11.7233 5.27966 11.5154 5.40291C11.4946 5.40291 11.4946 5.40291 11.4739 5.40291C11.4531 5.40291 11.4531 5.38237 11.4531 5.36183V4.1294H18.2714V10.9078H16.1303C16.1095 10.9078 16.1095 10.9078 16.0887 10.8872C16.0887 10.8667 16.0887 10.8667 16.0887 10.8461C16.1095 10.8256 16.1095 10.7845 16.1303 10.764C16.2966 10.5175 16.4005 10.2299 16.4005 9.92183C16.4005 9.1002 15.7353 8.44291 14.9038 8.44291C14.0723 8.44291 13.4071 9.1002 13.4071 9.92183C13.4071 10.2299 13.4903 10.5175 13.6774 10.764C13.6981 10.7845 13.7189 10.8256 13.7189 10.8461C13.7189 10.8667 13.7189 10.8667 13.7189 10.8872C13.7189 10.9078 13.6981 10.9078 13.6774 10.9078H11.4531V7.74453ZM3.99026 18.2818V11.5034H6.02746C6.25613 11.5034 6.48479 11.3802 6.58873 11.1953C6.71346 10.9899 6.71346 10.764 6.60952 10.5586C6.54716 10.4353 6.50558 10.2916 6.50558 10.1478C6.50558 9.6548 6.90055 9.26453 7.39945 9.26453C7.89836 9.26453 8.31411 9.6548 8.31411 10.1478C8.31411 10.2916 8.27254 10.4353 8.21018 10.5586C8.10624 10.764 8.10624 11.0105 8.23096 11.1953C8.35569 11.4007 8.56357 11.5034 8.79223 11.5034H10.8086V14.0299C10.8086 14.0505 10.7879 14.071 10.7671 14.071H10.7463C10.6216 14.071 10.5176 14.0505 10.4137 13.9683C10.1642 13.804 9.8732 13.7013 9.56138 13.7013C8.72987 13.7013 8.06466 14.3586 8.06466 15.1802C8.06466 16.0018 8.72987 16.6591 9.56138 16.6591C9.8732 16.6591 10.1642 16.577 10.4137 16.3921C10.5176 16.3305 10.6216 16.2894 10.7463 16.2894H10.7671C10.7879 16.2894 10.8086 16.3099 10.8086 16.3305V18.2818H3.99026ZM18.2714 18.2818H11.4323V16.3716C11.4323 16.0018 11.1412 15.7143 10.7671 15.7143H10.7463C10.4968 15.7143 10.2682 15.7759 10.0811 15.9197C9.93556 16.0224 9.76926 16.0634 9.58217 16.0634C9.10405 16.0634 8.70908 15.6732 8.70908 15.2007C8.70908 14.7283 9.10405 14.338 9.58217 14.338C9.76926 14.338 9.93556 14.3997 10.0811 14.4818C10.289 14.6256 10.5176 14.6872 10.7463 14.6872H10.7671C11.1412 14.6872 11.4323 14.3997 11.4323 14.0299V11.524H13.6566C13.8852 11.524 14.0931 11.4007 14.2178 11.2159C14.3426 11.0105 14.3633 10.7845 14.2594 10.5791C14.2386 10.538 14.197 10.4764 14.1763 10.4148C14.0723 10.271 14.0307 10.1067 14.0307 9.92183C14.0307 9.44939 14.4257 9.05912 14.9038 9.05912C15.3819 9.05912 15.7769 9.44939 15.7769 9.92183C15.7769 10.1067 15.7146 10.271 15.6314 10.4148C15.5898 10.4764 15.569 10.5175 15.5483 10.5586C15.4443 10.764 15.4651 11.0105 15.569 11.1953C15.6938 11.4007 15.9016 11.5034 16.1303 11.5034H18.2922L18.2714 18.2818Z" />
<path d="M19 19H3.26368V10.7838H3.32604L0 3.30703L7.60831 0L8.35667 1.68432C8.50219 1.52 8.66849 1.39676 8.87637 1.29405C9.06346 1.21189 9.25055 1.17081 9.45842 1.17081C10.0405 1.17081 10.5602 1.49946 10.7888 2.03351C10.9551 2.3827 10.9551 2.77297 10.8096 3.12216C10.6641 3.47135 10.3939 3.75892 10.0405 3.92324C9.8326 4.00541 9.62473 4.04649 9.39606 4.04649L10.8512 7.31243C10.9136 7.20973 10.9967 7.12757 11.1214 7.06595C11.3501 6.92216 11.6619 6.92216 11.8906 7.06595C11.9945 7.12757 12.0985 7.14811 12.2024 7.14811C12.5558 7.14811 12.826 6.88108 12.826 6.53189C12.826 6.1827 12.5558 5.91568 12.2024 5.91568C12.0985 5.91568 11.9945 5.93622 11.8906 5.99784C11.6619 6.14162 11.3501 6.14162 11.1214 5.99784C10.872 5.85405 10.7265 5.60757 10.7265 5.34054V3.38919H19C19 3.38919 19 19 19 19ZM10.9136 18.7946H18.8129V3.61514H10.9344V5.36108C10.9344 5.56649 11.0383 5.75135 11.2254 5.83351C11.3917 5.93622 11.6204 5.93622 11.7867 5.83351C11.9114 5.75135 12.0569 5.73081 12.2024 5.73081C12.6597 5.73081 13.0339 6.10054 13.0339 6.55243C13.0339 7.00432 12.6597 7.37405 12.2024 7.37405C12.0569 7.37405 11.9114 7.33297 11.7867 7.27135C11.6204 7.16865 11.3917 7.16865 11.2254 7.27135C11.0591 7.37405 10.9344 7.55892 10.9344 7.74378V11.0097H8.814C8.75164 11.0097 8.71007 10.9892 8.68928 10.9481C8.66849 10.907 8.66849 10.8454 8.68928 10.8043C8.79322 10.5989 8.85558 10.373 8.85558 10.1676C8.85558 9.38703 8.21116 8.77081 7.44201 8.77081C6.98468 8.77081 6.54814 8.99676 6.29869 9.36649L6.23632 9.44865L6.19475 9.53081C6.09081 9.73622 6.02845 9.96216 6.02845 10.1881C6.02845 10.4141 6.09081 10.64 6.19475 10.8249C6.21554 10.8659 6.21554 10.9276 6.19475 10.9686C6.17396 11.0097 6.13239 11.0303 6.07002 11.0303H3.47155V18.8357L10.9136 18.7946ZM3.3884 10.8043H5.92451C5.84136 10.5989 5.77899 10.373 5.77899 10.147C5.77899 10.0854 5.77899 10.0238 5.77899 9.96216L5.73742 10.0238L5.79978 9.90054C5.79978 9.83892 5.82057 9.7773 5.84136 9.73622L3.3884 10.8043ZM8.89716 10.8043H10.7265V7.74378C10.7265 7.7027 10.7265 7.66162 10.7473 7.6L8.41904 8.60649C8.3151 8.64757 8.19037 8.66811 8.08643 8.66811C8.6477 8.91459 9.04267 9.48973 9.04267 10.1265C9.04267 10.373 9.00109 10.5989 8.89716 10.8043ZM0.270241 3.40973L3.45077 10.5578L5.77899 9.55135C5.86214 9.51027 5.92451 9.46919 5.98687 9.40757L6.04923 9.32541L6.07002 9.24324C6.09081 9.20216 6.09081 9.16108 6.1116 9.09946C6.13238 8.91459 6.07002 8.70919 5.90372 8.58595C5.77899 8.48324 5.67505 8.36 5.61269 8.21622C5.50875 7.96973 5.50875 7.7027 5.5919 7.45622C5.69584 7.20973 5.88293 7.00432 6.13238 6.90162C6.25711 6.84 6.40263 6.81946 6.52735 6.81946C6.92232 6.81946 7.2965 7.0454 7.44201 7.41513C7.50438 7.55892 7.52516 7.72324 7.52516 7.88757C7.50438 8.09297 7.60831 8.2573 7.75383 8.38054C7.92013 8.48324 8.12801 8.50378 8.29431 8.44216L10.6225 7.43568L9.12582 4.06703C9.14661 3.98486 9.14661 3.94378 9.18818 3.9027C9.22976 3.84108 9.29212 3.84108 9.31291 3.84108C9.54158 3.86162 9.77024 3.84108 9.95733 3.73838C10.2691 3.61514 10.4978 3.36865 10.6225 3.06054C10.7473 2.75243 10.7265 2.42378 10.6018 2.11568C10.3939 1.66378 9.95733 1.37622 9.45842 1.37622C9.29212 1.37622 9.12582 1.4173 8.95952 1.47892C8.75164 1.56108 8.58534 1.70486 8.46061 1.86919C8.41904 1.93081 8.35667 1.93081 8.33589 1.93081C8.27352 1.93081 8.23195 1.88973 8.21116 1.84865L7.50438 0.267027L0.270241 3.40973ZM6.54814 7.02486C6.4442 7.02486 6.34026 7.04541 6.23632 7.08649C6.04923 7.16865 5.88293 7.33297 5.82057 7.51784C5.73742 7.72324 5.73742 7.92865 5.84136 8.11351C5.90372 8.23676 5.96608 8.33946 6.07002 8.40108C6.23632 8.52432 6.34026 8.72973 6.36105 8.91459C6.38184 8.89405 6.42341 8.87351 6.4442 8.83243L6.63129 8.60649L6.54814 8.75027C6.88074 8.52432 7.31729 8.44216 7.71225 8.50378C7.69147 8.50378 7.69147 8.48324 7.67068 8.48324C7.44201 8.31892 7.31729 8.07243 7.33807 7.80541C7.33807 7.68216 7.31729 7.55892 7.27571 7.43568C7.15098 7.20973 6.85996 7.02486 6.54814 7.02486ZM18.3764 18.3838H11.3085V16.3708C11.3085 16.0627 11.0591 15.8162 10.7473 15.8162H10.7265C10.4978 15.8162 10.2899 15.8778 10.1028 16.0011C9.93654 16.1038 9.74945 16.1654 9.54158 16.1654C9.00109 16.1654 8.56455 15.7341 8.56455 15.2C8.56455 14.6659 9.00109 14.2346 9.54158 14.2346C9.74945 14.2346 9.93654 14.2962 10.1028 14.3989C10.2899 14.5222 10.4978 14.5838 10.7265 14.5838H10.7473C11.0591 14.5838 11.3085 14.3373 11.3085 14.0292V11.4205H13.6368C13.8446 11.4205 14.0109 11.3178 14.1149 11.1535C14.2188 10.9892 14.2188 10.7838 14.1357 10.6195C14.1149 10.5784 14.0941 10.5168 14.0525 10.4757C13.9486 10.3114 13.8862 10.1265 13.8862 9.92108C13.8862 9.38703 14.3228 8.95568 14.8632 8.95568C15.4037 8.95568 15.8403 9.38703 15.8403 9.92108C15.8403 10.1265 15.7779 10.3114 15.674 10.4757C15.6324 10.5168 15.6116 10.5784 15.5908 10.6195C15.5077 10.8043 15.5077 10.9892 15.6116 11.1535C15.7155 11.3178 15.8818 11.4205 16.0897 11.4205H18.3556V18.3838H18.3764ZM11.5372 18.1784H18.1893V11.6054H16.1313C15.861 11.6054 15.6116 11.4822 15.4661 11.2357C15.3206 11.0097 15.2998 10.7427 15.4245 10.4962C15.4453 10.4346 15.4869 10.3935 15.5284 10.3319C15.6116 10.2086 15.6532 10.0649 15.6532 9.90054C15.6532 9.46919 15.2998 9.14054 14.884 9.14054C14.4683 9.14054 14.1149 9.48973 14.1149 9.90054C14.1149 10.0649 14.1565 10.2086 14.2396 10.3319C14.2812 10.3935 14.302 10.4551 14.3435 10.4962C14.4683 10.7427 14.4475 11.0097 14.302 11.2357C14.1565 11.4616 13.9278 11.6054 13.6368 11.6054H11.5372V14.0086C11.5372 14.4195 11.1838 14.7686 10.7681 14.7686H10.7473C10.477 14.7686 10.2276 14.6865 10.0197 14.5427C9.89497 14.4605 9.74945 14.4195 9.58315 14.4195C9.14661 14.4195 8.814 14.7686 8.814 15.1795C8.814 15.5903 9.1674 15.9395 9.58315 15.9395C9.74945 15.9395 9.89497 15.8984 10.0197 15.8162C10.2484 15.6724 10.477 15.5903 10.7473 15.5903H10.7681C11.1838 15.5903 11.5372 15.9395 11.5372 16.3503V18.1784ZM10.9136 18.3838H3.88731V11.4H6.02845C6.23632 11.4 6.40263 11.2973 6.50656 11.133C6.6105 10.9686 6.6105 10.7632 6.52735 10.5784C6.4442 10.4346 6.42341 10.2908 6.42341 10.1265C6.42341 9.57189 6.88074 9.14054 7.42123 9.14054C7.98249 9.14054 8.41904 9.59243 8.41904 10.1265C8.41904 10.2908 8.37746 10.4346 8.3151 10.5784C8.23195 10.7427 8.23195 10.9481 8.33589 11.133C8.43982 11.2973 8.62691 11.4 8.814 11.4H10.9136V14.0292C10.9136 14.1114 10.8512 14.173 10.7681 14.173H10.7473C10.6018 14.173 10.477 14.1319 10.3731 14.0497C10.1444 13.8854 9.87418 13.8032 9.58315 13.8032C8.814 13.8032 8.19037 14.4195 8.19037 15.1795C8.19037 15.9395 8.814 16.5557 9.58315 16.5557C9.87418 16.5557 10.1444 16.4735 10.3731 16.3092C10.4978 16.227 10.6225 16.1859 10.7473 16.1859H10.7681C10.8512 16.1859 10.9136 16.2476 10.9136 16.3297V18.3838ZM4.09519 18.1784H10.7057V16.4324C10.6225 16.4324 10.5602 16.453 10.477 16.5146C10.2068 16.6995 9.89497 16.7816 9.56236 16.7816C8.66849 16.7816 7.96171 16.0627 7.96171 15.2C7.96171 14.3168 8.68928 13.6184 9.56236 13.6184C9.89497 13.6184 10.2068 13.7211 10.477 13.8854C10.5602 13.9265 10.6225 13.9676 10.7057 13.9676V11.6259H8.814C8.54376 11.6259 8.29431 11.4822 8.1488 11.2562C8.00328 11.0303 8.00328 10.7427 8.12801 10.5168C8.19037 10.4141 8.21116 10.2908 8.21116 10.147C8.21116 9.71568 7.85777 9.36649 7.42123 9.36649C6.98468 9.36649 6.63129 9.71568 6.63129 10.147C6.63129 10.2703 6.65208 10.3935 6.71444 10.5168C6.83917 10.7632 6.83917 11.0303 6.69365 11.2562C6.54814 11.4822 6.29869 11.6259 6.02845 11.6259H4.09519C4.09519 11.6259 4.09519 18.1784 4.09519 18.1784ZM18.3764 11.0097H16.1313C16.0689 11.0097 16.0274 10.9892 16.0066 10.9481C15.9858 10.907 15.965 10.8454 16.0066 10.8043C16.0274 10.7838 16.0481 10.7427 16.0689 10.7222C16.2352 10.4962 16.3184 10.2292 16.3184 9.94162C16.3184 9.18162 15.6947 8.56541 14.9256 8.56541C14.1565 8.56541 13.5328 9.18162 13.5328 9.94162C13.5328 10.2292 13.616 10.4962 13.7823 10.7222C13.8031 10.7632 13.8239 10.7838 13.8446 10.8249C13.8654 10.8659 13.8654 10.9276 13.8446 10.9686C13.8239 11.0097 13.7823 11.0303 13.7407 11.0303H11.4125V7.74378C11.4125 7.68216 11.4333 7.64108 11.4956 7.62054C11.5372 7.6 11.5996 7.6 11.6411 7.62054C11.8282 7.72324 12.0361 7.78486 12.2648 7.78486C12.9508 7.78486 13.512 7.23027 13.512 6.55243C13.512 5.87459 12.9508 5.32 12.2648 5.32C12.0361 5.32 11.8282 5.38162 11.6411 5.48432C11.5996 5.50486 11.5372 5.50486 11.4956 5.48432C11.454 5.46378 11.4125 5.4227 11.4125 5.36108V4.02595H18.4387V11.0097H18.3764V11.0097ZM14.884 8.33946C15.7779 8.33946 16.4847 9.05838 16.4847 9.92108C16.4847 10.2292 16.4015 10.5373 16.2144 10.8043H18.1477V4.23135H11.558V5.25838C11.7659 5.15568 11.9737 5.11459 12.2024 5.11459C13.0131 5.11459 13.6575 5.75135 13.6575 6.55243C13.6575 7.35351 13.0131 7.99027 12.2024 7.99027C11.9737 7.99027 11.7659 7.94919 11.558 7.84649V10.8043H13.5536C13.3873 10.5373 13.2834 10.2497 13.2834 9.92108C13.2834 9.03784 14.0109 8.33946 14.884 8.33946ZM3.65864 10.0032L0.83151 3.61514L7.27571 0.821622L7.81619 2.03351C7.89934 2.21838 8.06565 2.34162 8.27352 2.36216C8.4814 2.3827 8.66849 2.30054 8.79322 2.13622C8.87637 2.01297 9.00109 1.93081 9.12582 1.86919C9.22976 1.82811 9.35449 1.80757 9.45842 1.80757C9.79103 1.80757 10.0821 1.99243 10.2276 2.30054C10.4147 2.71135 10.2276 3.20432 9.79103 3.38919C9.6663 3.45081 9.5 3.47135 9.37527 3.45081C9.1674 3.43027 8.98031 3.51243 8.85558 3.67676C8.73085 3.84108 8.71007 4.04649 8.79322 4.23135L10.1236 7.18919L8.10722 8.05189C8.08643 8.05189 8.04486 8.05189 8.02407 8.03135C7.98249 8.01081 7.96171 7.94919 7.96171 7.90811C7.98249 7.68216 7.94092 7.45622 7.83698 7.25081C7.60832 6.7373 7.10941 6.40865 6.52735 6.40865C6.34026 6.40865 6.13239 6.44973 5.96608 6.53189C5.61269 6.67568 5.34245 6.96324 5.21772 7.31243C5.07221 7.66162 5.093 8.05189 5.23851 8.38054C5.32166 8.58595 5.46718 8.77081 5.65427 8.91459C5.69584 8.95568 5.71663 8.99676 5.71663 9.03784C5.71663 9.09946 5.67505 9.14054 5.63348 9.16108L3.65864 10.0032ZM1.10175 3.71784L3.76258 9.73622L5.44639 9.0173C5.28009 8.87351 5.13457 8.68865 5.05142 8.48324C4.88512 8.09297 4.86433 7.66162 5.03063 7.25081C5.19694 6.86054 5.48796 6.53189 5.88293 6.36757C6.09081 6.28541 6.31947 6.22378 6.52735 6.22378C7.17177 6.22378 7.75383 6.59351 8.02407 7.18919C8.10722 7.39459 8.16958 7.62054 8.16958 7.84649L9.85339 7.12757L8.60613 4.33405C8.50219 4.08757 8.52298 3.8 8.68928 3.57405C8.85558 3.34811 9.12582 3.24541 9.39606 3.26595C9.5 3.28649 9.60394 3.26595 9.70788 3.22486C10.0197 3.08108 10.1652 2.73189 10.0197 2.42378C9.91575 2.19784 9.68709 2.05405 9.45842 2.05405C9.37527 2.05405 9.29212 2.07459 9.20897 2.11568C9.10503 2.15676 9.02188 2.21838 8.95952 2.32108C8.79322 2.54703 8.52298 2.64973 8.25274 2.62919C7.98249 2.60865 7.73304 2.42378 7.6291 2.1773L7.17177 1.15027L1.10175 3.71784Z" />
    </g>
  </symbol>
 

</svg>