<svg width="18" height="18" fill="none" xmlns="http://www.w3.org/2000/svg"><path d="M15.51 12.528c-1.087-.93-2.19-1.493-3.265-.565l-.641.562c-.47.407-1.342 2.31-4.715-1.57-3.372-3.875-1.365-4.478-.895-4.882l.644-.562c1.069-.931.666-2.103-.105-3.309l-.465-.73C5.294.268 4.451-.522 3.38.408L2.8.913C2.328 1.258 1.005 2.38.684 4.51c-.386 2.556.832 5.482 3.625 8.693 2.788 3.212 5.519 4.825 8.105 4.797 2.15-.023 3.448-1.176 3.854-1.595l.58-.507c1.069-.929.405-1.874-.683-2.806l-.654-.563z" fill="#fff"/></svg>