<svg width="124" height="38" fill="none" xmlns="http://www.w3.org/2000/svg"><path d="M21.476 2.25c0 .266-.132.663-.397.795-.265.265-.53.398-.927.398h-3.576c-.398 0-.795 0-1.325.132-.53 0-1.06.132-1.722.132-.662 0-1.192.133-1.722.133-.53.132-.927.132-1.325.132H9.423c-.133 0-.265 0-.265-.132-.133 0-.265 0-.265-.133h-.132s-.133 0-.265.133c-.133.132-.133.132-.133.265-.265 1.324-.397 2.78-.53 4.104-.132 1.324-.397 2.78-.53 4.237v.397c0 .265-.132.53-.132.927-.132.397-.132.795-.132 1.192 0 .397-.133.794-.133 1.191 0 .398-.132.662-.132.927v3.178c0 .397-.133.794-.265 1.06-.133.264-.398.529-.53.661-.265.133-.397.265-.662.397-.265 0-.398.133-.53.133-.133 0-.265 0-.53-.133-.265-.132-.397-.265-.662-.397-.398-.265-.53-.53-.795-.794-.132-.265-.265-.53-.265-.795v-1.456c0-.265.133-.397.133-.662s.132-.53.132-.927c0-.133 0-.397.133-.662 0-.397.132-.794.132-1.324.132-.53.132-1.06.265-1.721.132-.53.132-1.192.265-1.59.132-.529.132-.926.132-1.323 0-.397.133-.53.133-.53l.662-5.164V1.854c.132-.53.265-.927.662-1.324C5.847.132 6.376 0 6.906 0c.265 0 .53 0 .795.132.132 0 .397.133.662.265.265.133.662.133 1.06.265h1.59C12.071.53 12.998.53 13.792.397c.796 0 1.325-.132 1.855-.132s.928-.133 1.192-.133h.663c0-.132.132-.132.132-.132h.133c.264 0 .662 0 1.192.132.397 0 .794.133 1.192.265.397.133.662.397.927.662s.397.53.397 1.06v.132zm13.91 13.507c0 .132 0 .397-.265.794-.133.265-.265.662-.53.927-.265.397-.53.662-.927 1.06-.398.396-.663.661-1.06.926s-.795.53-1.325.662c-.397.132-.927.265-1.457.265-1.06 0-1.986-.397-2.516-1.06-.663-.662-1.06-1.72-1.192-3.045-.398.662-.928 1.192-1.457 1.721-.53.53-1.06 1.06-1.722 1.457-.53.397-1.192.662-1.722.927s-1.06.397-1.457.397c-.398 0-.663-.133-1.06-.265a4.025 4.025 0 01-.927-.662c-.265-.265-.397-.662-.662-.927-.133-.397-.265-.794-.265-1.191 0-.398 0-.795.132-1.192.133-.397.133-.794.265-1.324.133-.53.398-.927.53-1.589.53-.53.927-1.06 1.192-1.721.398-.795.795-1.457 1.325-2.119.53-.662 1.06-1.191 1.722-1.72.53-.53 1.06-.928 1.589-1.193.53-.264.927-.397 1.325-.397h.397c.132 0 .265.133.265.133.132 0 .265.132.265.132h.132c.265 0 .398-.132.398-.132.132 0 .132-.133.264-.133h.265c.133 0 .398 0 .53.133.133.132.398.264.53.397.133.132.265.265.397.53.133.132.265.397.265.53 0 .132 0 .132.133.264 0 0 0 .132.132.132.133.133.133.265.265.398.133.132.133.397.133.53 0 .132 0 .264-.133.661 0 .265-.132.662-.265 1.06-.132.397-.132.794-.265 1.191 0 .397-.132.794-.132 1.192 0 .926 0 1.589.132 2.25.133.53.133 1.06.265 1.325.133.264.265.53.53.662.133.132.397.132.662.132.133 0 .398 0 .663-.132.265 0 .53-.133.662-.265.265-.133.53-.265.662-.397.265-.133.398-.398.663-.53l.927-.927c.265-.265.53-.397.794-.397.265 0 .398 0 .53.132.265 0 .398.265.398.398zm-9.405-5.164c0-.53 0-.927-.132-1.192-.133-.265-.133-.397-.265-.397-.133 0-.398 0-.53.132-.265.133-.397.133-.53.265-.132.133-.397.265-.53.397l-.397.398c-.397.397-.662.926-1.06 1.588-.397.662-.794 1.192-1.192 1.854a12.096 12.096 0 00-.927 1.854c-.265.53-.397 1.059-.397 1.456 0 .265 0 .53.132.795.133.132.265.264.53.264.133 0 .397-.132.662-.264.265-.133.53-.398.928-.662.264-.265.662-.53.927-.927s.53-.662.794-.927c.265-.265.53-.662.795-1.06.265-.396.53-.794.662-1.19.265-.398.398-.795.53-1.193v-1.191z" fill="#222"/><path d="M56.314 15.623c0 .265 0 .397-.133.794-.132.265-.265.53-.53.795-.53.53-1.06 1.191-1.59 1.589-.529.53-1.059.927-1.589 1.324s-1.06.662-1.59.927c-.529.264-1.059.397-1.456.397-1.06 0-1.722-.398-2.384-1.06-.53-.794-.795-1.853-.795-3.31V16.02c0-.397.132-.794.132-1.191 0-.398.133-.927.133-1.325.132-.397.265-.794.265-1.191.132-.662.265-1.324.397-1.721.133-.53.133-.795.133-.927v-.133l-.133-.132c-.265 0-.397.265-.662.794-.133.265-.265.662-.398 1.06-.132.397-.397.794-.53 1.324-.132.53-.397.927-.662 1.456-.264.53-.53 1.06-.794 1.457-.265.53-.53.926-.928 1.456-.264.397-.662.927-1.06 1.192-.661.662-1.456 1.324-2.25 1.72-.796.398-1.59.663-2.517.663-.663 0-1.193-.132-1.722-.265-.53-.265-.928-.397-1.193-.794-.264-.398-.53-.662-.662-1.192-.132-.397-.265-.927-.265-1.324s0-.662.133-.794c.132-.265.265-.398.397-.53.133-.132.265-.265.53-.265.132 0 .397-.132.662-.132.53 0 .927.132 1.192.397.265.265.398.662.398 1.06 0 .396.132.661.265.794.132.132.397.264.53.264.53 0 .927-.132 1.456-.397.53-.265.928-.794 1.457-1.324.53-.53.928-1.191 1.457-2.118.398-.795.928-1.722 1.325-2.78.265-.53.397-.928.53-1.325.132-.397.265-.794.53-1.06.132-.264.397-.661.53-.926.132-.265.397-.53.662-.794.132-.133.265-.265.53-.265.132 0 .397-.133.662-.265s.53-.132.927-.265c.265 0 .53-.132.795-.132s.53 0 .662.132l.53.53c.132.132.265.397.397.662.133.265.133.53.133.794v.795c0 .265-.133.662-.133 1.191 0 .398-.132.927-.265 1.457-.132.53-.132 1.06-.265 1.589 0 .53-.132 1.059-.132 1.588 0 .53 0 1.06-.133 1.457 0 .53 0 .927.133 1.324 0 .397.132.662.132.794.133.265.133.398.265.398.133.132.265.132.398.132.132 0 .397-.132.794-.265.265-.132.663-.397 1.06-.662s.795-.662 1.192-.927c.397-.397.795-.794 1.325-1.191l.265-.265.264-.265c.133-.132.133-.132.265-.132h.398c.132 0 .397 0 .53.132v.265z" fill="#222"/><path d="M71.416 11.386c0 .133 0 .265-.133.53-.132.264-.132.53-.397.662-1.06 1.324-2.12 2.648-3.179 3.84-1.06 1.191-1.987 2.25-3.046 3.177-1.06.927-1.987 1.589-2.915 2.119-.927.53-1.854.794-2.781.794-.795 0-1.59-.132-2.252-.397-.662-.265-1.192-.662-1.59-1.192-.397-.53-.661-1.059-.926-1.854-.133-.662-.265-1.456-.265-2.383 0-.662 0-1.324.132-1.986.133-.662.265-1.456.53-2.118.265-.662.53-1.457.927-2.119.398-.662.795-1.324 1.325-1.853.265-.265.53-.53.794-.662.265-.265.663-.398.928-.662.265-.133.662-.398 1.06-.398.397-.132.661-.132 1.059-.132.397 0 .795.132 1.06.265.397.132.662.397.927.662s.397.53.53.927c.132.397.264.662.264 1.059 0 .397-.132.794-.132 1.192-.133.397-.265.926-.53 1.456-.265.53-.53 1.06-.927 1.456-.397.53-.795.927-1.325 1.457l-.662.662c-.265.265-.53.53-.795.662-.264.265-.662.53-.927.794-.265.265-.662.53-.927.662 0 .265 0 .398.133.662.132.265.264.398.397.662.132.133.397.398.662.398.265.132.53.132.927.132.663 0 1.457-.265 2.252-.662.795-.53 1.59-1.06 2.517-1.854.794-.794 1.722-1.589 2.649-2.648.927-.927 1.854-1.986 2.781-3.045l.53-.53c.265-.132.398-.264.795-.264h.132c.133 0 .133.132.265.132.133 0 .133.132.133.265v.132zM60.819 9.93c0-.133 0-.265-.132-.398 0-.132-.133-.264-.398-.264-.397 0-.794.132-1.06.53-.264.264-.661.794-.926 1.323-.265.53-.53 1.192-.795 1.854-.265.662-.397 1.456-.662 2.25.132 0 .132-.132.265-.264.132-.132.265-.132.265-.265l.264-.265.265-.264c.53-.662 1.06-1.06 1.457-1.59.398-.396.663-.794.795-1.19.133-.266.397-.663.397-.795.265-.133.265-.398.265-.662z" fill="#222"/><path d="M84.396 9.534c0 1.06-.133 1.986-.398 2.78-.264.927-.53 1.722-1.06 2.516-.397.794-1.059 1.589-1.589 2.25-.662.663-1.324 1.457-2.252 2.12-.264.264-.662.529-1.06.794-.397.265-.794.53-1.324.662-.397.132-.927.397-1.324.397-.398.133-.795.133-1.192.133-.398 0-.795-.133-1.193-.265-.397-.133-.53-.398-.662-.795-.132.397-.132.927-.265 1.192 0 .397-.132.794-.132 1.06 0 .396-.133.661-.133 1.058 0 .398-.132.662-.132 1.06 0 .132 0 .264-.133.53 0 .264-.132.661-.132.926 0 .397-.132.662-.132 1.06 0 .264-.133.529-.133.661 0 .133-.132.398-.265.662-.132.265-.265.398-.397.662-.133.265-.397.398-.53.53-.265.132-.397.265-.53.265-.132 0-.397 0-.53-.133-.264-.132-.397-.264-.662-.397-.132-.132-.397-.265-.53-.53-.132-.132-.265-.264-.265-.397 0-.132 0-.265.133-.53 0-.264.132-.529.132-.926s.133-.795.265-1.192c.133-.397.133-.927.265-1.324.133-.397.133-.927.265-1.324s.132-.794.265-1.192c.132-.794.265-1.72.53-2.648.132-.926.397-1.853.53-2.913.132-.926.265-1.986.397-2.912.132-1.06.132-1.986.132-2.913V8.872c0-.397 0-.662.133-1.06.132-.397.265-.661.397-.926a1.6 1.6 0 01.662-.662c.265-.133.53-.265.795-.265.133 0 .265.132.53.132.132.133.265.265.397.53l.398.794c.132.265.132.662.132.927s0 .662-.132 1.06c0 .397-.133.794-.133 1.191-.132.397-.132.795-.265 1.324 0 .397 0 .795-.132 1.192a18.923 18.923 0 011.854-2.648c.663-.795 1.457-1.59 2.12-2.119.794-.662 1.457-1.059 2.119-1.456.662-.397 1.192-.53 1.59-.53.53 0 .927.133 1.324.265s.795.397 1.06.662.53.662.794 1.06c.398.396.398.794.398 1.19zm-3.047 1.06c0-.266 0-.53-.132-.795 0-.133-.133-.398-.133-.53l-.265-.265h-.132c-.265 0-.662.133-1.192.53-.398.265-.927.794-1.457 1.324s-1.06 1.06-1.59 1.721c-.53.662-1.06 1.324-1.457 1.986-.132.133-.264.398-.397.662-.132.265-.397.53-.53.927l-.397.794c-.133.265-.133.53-.133.663v.264c0 .133.133.133.265.265.133.133.265.133.398.265.132 0 .265.132.53.132.397 0 .794-.132 1.324-.397s.927-.53 1.457-.927.927-.794 1.457-1.324.927-1.059 1.325-1.589c.397-.53.662-1.191.927-1.853 0-.662.132-1.324.132-1.854zm21.458 5.294c0 .132-.132.397-.265.53-.132.264-.265.397-.397.53-.662.661-1.325 1.456-1.987 2.117a15.23 15.23 0 01-2.252 1.854c-.794.53-1.589.927-2.384 1.324-.794.265-1.722.53-2.649.53-.795 0-1.59-.133-2.252-.397-.662-.265-1.192-.662-1.59-1.192-.396-.53-.661-1.06-.926-1.721-.133-.662-.265-1.457-.265-2.384 0-.662 0-1.324.132-2.118.133-.662.265-1.456.53-2.119.265-.662.53-1.456.927-2.118.398-.662.795-1.324 1.457-2.118.53-.662 1.192-1.192 1.722-1.457.662-.265 1.192-.397 1.855-.397.53 0 .927 0 1.192.132.397.133.662.265.927.53s.397.53.53.794c.132.265.265.662.265 1.06 0 .926-.265 1.72-.795 2.78-.53.927-1.325 1.854-2.252 2.78-.132.133-.397.398-.662.53-.265.265-.53.397-.795.662s-.662.53-.927.795c-.265.264-.662.53-.927.662 0 .264.132.53.265.794.132.265.265.53.397.662.133.265.397.397.662.53.265.132.53.132.795.132.662 0 1.192-.132 1.854-.265.53-.264 1.192-.53 1.855-.926.662-.398 1.192-.795 1.854-1.325.663-.53 1.192-1.059 1.855-1.72 0 0 .132-.133.264-.133.133 0 .133-.133.265-.133.133-.132.265-.132.398-.132h.397s.133 0 .265.132c.132 0 .265.133.397.265.133.133.265.133.265.265v.265zm-7.815-5.561c0-.265-.132-.53-.132-.662-.132-.133-.265-.133-.397-.133-.265 0-.53.133-.928.53-.264.265-.662.795-.927 1.192-.265.53-.53 1.059-.794 1.72a5.312 5.312 0 00-.398 1.987c.133-.132.398-.397.662-.53.265-.132.53-.397.795-.662l.927-.927c.265-.264.53-.53.663-.926.265-.265.397-.53.53-.795-.133-.132 0-.397 0-.794z" fill="#222"/><path d="M113.137 15.757c-.53.53-1.192 1.06-1.855 1.721-.662.53-1.324 1.06-2.119 1.457-.662.397-1.457.794-2.252 1.059-.794.265-1.457.397-2.251.397-.663 0-1.193-.132-1.722-.265-.398-.132-.795-.397-1.192-.794a2.89 2.89 0 01-.663-1.06c-.132-.397-.265-.926-.265-1.323 0-.662.133-1.192.53-1.457.265-.397.795-.53 1.325-.53.397 0 .662.133.927.398s.397.662.397 1.191c0 .265.133.398.133.53.132.132.132.265.265.397.132.133.265.133.397.133h.397c.663 0 1.457-.133 2.12-.398.794-.264 1.589-.794 2.516-1.588a16.72 16.72 0 01-1.324-.398c-.398-.264-.662-.397-.927-.794-.265-.265-.398-.662-.53-.927-.133-.397-.133-.662-.133-1.06 0-.661.133-1.456.398-1.985.265-.662.794-1.192 1.457-1.854.397-.265.662-.53 1.059-.794.398-.265.795-.53 1.325-.662.397-.133.927-.397 1.457-.397.53-.133 1.06-.133 1.589-.133.398 0 .795 0 1.192.132.398.133.663.265.928.53s.529.53.662.927c.132.397.265.794.265 1.456v.662c0 .265-.133.398-.133.662 0 .265-.132.398-.132.662 0 .133-.133.398-.133.398 0 .132-.132.264-.132.397v.397s.132.133.132.265.133.132.133.265v.264c0 .133 0 .265-.133.53-.132.265-.132.53-.264.795-.133.53-.398 1.191-.53 1.72-.133.53-.265 1.192-.265 1.722 0 .265 0 .53.132.794.133.265.265.398.53.398.662 0 1.457-.265 2.384-.795.927-.53 1.855-1.324 2.782-2.25.265-.265.397-.398.662-.53.265-.133.398-.133.53-.133s.265 0 .53.133c.132.132.265.265.265.53 0 .397-.265.926-.663 1.456l-1.589 1.589c-.53.53-1.192 1.059-1.722 1.456-.662.397-1.325.795-1.987 1.06a5.49 5.49 0 01-2.119.397c-.927 0-1.59-.265-2.119-.795-.53-.53-.663-1.324-.663-2.25v-.795c0-.265.133-.53.133-.795 0-.264.132-.53.132-.794 0-.265.133-.53.265-.662l-.132-.662zm1.722-6.09c0-.265 0-.53-.133-.663-.132-.132-.265-.264-.53-.264-.529 0-1.059.132-1.457.264l-1.192.795c-.397.397-.662.662-.794 1.191-.265.398-.398.795-.398 1.192 0 .133 0 .265.133.397.132.133.132.265.265.397.132.133.264.133.397.265.132 0 .397.133.53.133h.53c.132 0 .397 0 .529-.133.133 0 .265-.132.398-.132.132 0 .265-.133.265-.133.132-.132.265-.264.397-.53.265-.264.397-.529.53-.926.132-.265.265-.662.397-.927 0-.397.133-.662.133-.927zM6.51 31.91c0 .265 0 .53-.132.927-.132.265-.132.662-.264 1.059-.133.397-.265.662-.398 1.06-.132.396-.397.661-.53.926-.132.265-.397.53-.662.662-.265.265-.53.397-.795.53-.265.132-.53.265-.927.397-.265.132-.662.132-.927.132-.132 0-.265 0-.397-.132l-.398-.397c-.132-.133-.265-.398-.265-.53-.397-.265-.397-.53-.397-.794 0-.265 0-.662.132-.927 0-.265.133-.662.265-1.06.133-.397.398-.661.663-1.059.265-.397.53-.662.927-1.059l.265-.265c.132-.132.265-.132.397-.264.133-.133.265-.133.397-.133.133 0 .265-.132.265-.132.265-.133.398-.133.53-.133.133 0 .398-.132.53-.132v-.397c0-.133-.132-.265-.132-.398 0-.132-.133-.264-.133-.264-.132-.133-.132-.265-.265-.398l-.265-.264c-.132 0-.265-.133-.397-.133-.133 0-.265-.132-.397-.132h-.265c-.133 0-.265 0-.398.132-.132 0-.265.133-.397.133-.133 0-.265.132-.265.132H1.61c-.132 0-.265 0-.265-.132-.132-.133-.132-.133-.132-.265 0-.133 0-.133.132-.265 0-.132.133-.132.133-.265l.265-.265.132-.132c.265-.132.397-.132.662-.265H3.2c.397 0 .794 0 1.06.133.397.132.661.264.926.397.265.132.53.397.663.794.265.265.397.662.53 1.192 0 .132 0 .265.132.397v1.589zm-1.456 0h-.397c-.133 0-.265.132-.398.132-.132 0-.265.133-.397.265-.133.133-.265.133-.398.265l-.132.132c0 .133-.132.133-.265.265-.132.133-.132.265-.265.265-.132.132-.132.132-.132.265-.133.265-.265.397-.398.662-.132.265-.132.397-.265.53 0 .132-.132.397-.132.529v.397c0 .133 0 .265.132.265 0 .133.133.133.133.133h.265c.132 0 .132 0 .265-.133.132 0 .132-.132.265-.132.132.132.265.132.397 0l.795-.795c.265-.265.397-.662.53-1.059.132-.397.264-.662.397-1.06v-.926zm11.522.926v.265c0 .133-.132.265-.132.265-.53.662-.927 1.192-1.457 1.721-.53.53-.927 1.06-1.457 1.457-.398.397-.927.794-1.325.927a2.556 2.556 0 01-1.324.397c-.398 0-.663-.133-1.06-.133-.265-.132-.53-.264-.662-.53l-.398-.794c-.132-.264-.132-.662-.132-1.059 0-.265 0-.662.132-.927 0-.397.133-.662.265-1.059.133-.397.265-.662.398-.927 0-.397.265-.662.53-.927l.397-.397c.132-.132.265-.265.397-.265.133-.132.265-.132.53-.265.133 0 .397-.132.53-.132.132 0 .397 0 .53.133.132.132.265.132.397.264.133.133.133.265.265.398 0 .132.132.264.132.53 0 .132 0 .396-.132.529 0 .265-.133.397-.265.662s-.265.397-.397.662c-.133.265-.398.397-.663.662l-.264.265-.398.397-.397.397-.398.397v.265c0 .133.133.265.133.265l.265.265c.132 0 .265.132.397.132.265 0 .662-.132 1.06-.265l1.192-.794 1.192-1.192c.397-.397.795-.927 1.324-1.324 0-.132.133-.132.265-.265.133-.132.265-.132.398-.132h.132s.133 0 .133.132c-.265-.132-.265-.132-.133 0zm-4.9-.662v-.264l-.133-.133c-.132 0-.397.133-.53.265-.132.132-.265.397-.397.53-.133.264-.265.53-.398.926a2.493 2.493 0 00-.265 1.06l.133-.133.132-.132.133-.133.132-.132.663-.662c.132-.265.264-.397.397-.53.132-.132.132-.264.132-.397v-.265z" fill="#222"/><path d="M25.188 32.042v.397c0 .133 0 .265-.133.398 0 .132-.132.397-.132.661v1.06c0 .132.132.265.132.397s.133.265.265.265c.133.132.133.132.265.132s.397 0 .53-.132c.132-.133.397-.265.662-.398.265-.132.397-.264.662-.53.265-.132.398-.396.663-.529.264-.264.397-.397.53-.662.132-.264.397-.397.53-.53l.132-.132h.132s.133 0 .133.133c0 0 .132.132.132.264 0 .133 0 .265-.132.398 0 .132-.133.397-.265.662a1.828 1.828 0 00-.398.53c-.132.264-.397.397-.53.661l-.662.662c-.265.265-.53.398-.794.53l-.795.397c-.265.133-.53.133-.795.133-.397 0-.662-.133-.927-.265-.265-.133-.398-.397-.53-.53-.133-.265-.265-.53-.265-.794 0-.265-.132-.53-.132-.795v-.927c0-.132 0-.264.132-.397a1.828 1.828 0 00-.397.53c-.133.265-.398.397-.53.662-.265.265-.398.53-.53.794-.132.265-.397.53-.53.795 0 .132-.132.265-.132.265 0 .132-.133.132-.133.264-.132.133-.132.133-.265.133h-.397c-.132 0-.132-.133-.265-.133-.132 0-.132-.132-.265-.132-.132 0-.132-.132-.132-.132v-3.046s-.133.133-.265.133l-.265.264c-.133.133-.133.265-.265.398-.132.132-.132.264-.265.397-.265.53-.53.927-.795 1.324a7.587 7.587 0 00-.53.927c-.132.132-.132.397-.264.53-.133.132-.133.264-.265.264-.133.133-.133.133-.265.133h-.265c-.133 0-.397 0-.397-.133-.133-.132-.133-.265-.265-.397 0-.132-.133-.397-.133-.53v-3.972c0-.264 0-.397.133-.53 0-.132.132-.264.265-.397.132.265.264.265.397.265h.662c.133 0 .133 0 .133.133l.132.132v.53c0 .132 0 .397-.132.53 0 .264-.133.397-.133.661 0 .265-.132.53-.132.795s-.133.397-.133.53v.264c0-.132.133-.265.133-.397.132-.132.132-.265.265-.53.132-.132.132-.397.265-.53.132-.132.132-.264.264-.397.265-.397.398-.661.663-.926s.397-.53.662-.662c.265-.133.397-.265.662-.398.133-.132.398-.132.53-.132.133 0 .265.132.398.132.132.133.264.265.264.398.133.132.133.265.133.53v1.985s.132-.132.132-.264c.133-.133.133-.265.265-.398.133-.132.133-.264.265-.397.133-.132.133-.132.133-.265.264-.264.397-.53.662-.794l.662-.662c.265-.133.398-.265.662-.397.265-.133.398-.133.663-.133.132 0 .132 0 .265.133.132 0 .132.132.265.132 0 .132.132.132.132.265-.132.132-.132.265-.132.397z" fill="#222"/><path d="M37.107 32.572v.264c0 .133 0 .133-.132.265 0 0 0 .133-.133.133-.264.264-.397.53-.662.926l-.795.795c-.264.265-.53.53-.927.794-.265.265-.662.53-1.06.662-.132.133-.397.265-.662.398-.265.132-.53.264-.662.264-.265.133-.53.133-.795.133s-.53.132-.794.132c-.265 0-.663 0-.928-.132-.265-.133-.53-.265-.662-.53s-.265-.397-.397-.662c-.133-.265-.133-.53-.133-.794 0-.53.133-1.192.398-1.722.264-.53.53-1.059 1.06-1.72l.397-.398c.132-.132.265-.265.53-.397.132-.133.397-.265.53-.398.132-.132.397-.132.53-.132.132 0 .396 0 .529.133l.397.397c.133.132.265.397.265.53 0 .132.133.397.133.529v.265c0 .132 0 .265-.133.265 0 .132-.132.132-.132.264-.133.133-.133.133-.265.133-.265 0-.398 0-.398-.133-.132-.132-.132-.264-.265-.53 0-.132 0-.264-.132-.396l-.132-.133s-.133 0-.265.133l-.265.264c-.133.133-.265.265-.265.398-.133.132-.265.264-.265.53-.133.132-.133.264-.265.529 0 .132-.132.397-.132.53 0 .132-.133.397-.133.53v.926c0 .132.133.132.133.265.132.132.132.132.265.132.132 0 .132.133.264.133.265 0 .53 0 .663-.133.265 0 .53-.132.662-.265.265-.132.397-.265.662-.265.265-.132.398-.264.663-.397.264-.132.53-.397.794-.662.265-.265.53-.397.795-.662l.662-.662c.133-.265.398-.397.53-.53l.265-.264.133-.133s.132 0 .132-.132h.265l.132.132v.398z" fill="#222"/><path d="M45.85 33.101s0 .133-.133.265c0 .133-.132.265-.265.397-.132.133-.132.265-.265.398l-.397.397c-.398.53-.927 1.059-1.325 1.456-.397.397-.795.662-1.06.927a7.587 7.587 0 01-.927.53c-.264.132-.53.132-.794.132-.265 0-.53 0-.795-.132a1.83 1.83 0 01-.53-.398c-.132-.132-.265-.264-.397-.53-.133-.264-.133-.396-.265-.661 0-.265 0-.397-.133-.53 0-.132 0-.265-.132-.265l-.133-.132h-.264c-.133 0-.133 0-.265.132-.133 0-.133 0-.265.133-.133 0-.133.132-.133.132v.927c0 .132-.132.265-.132.397 0 .133-.133.265-.133.397 0 .133-.132.265-.132.398l-.265.264c-.132 0-.132.133-.265.133h-.53c-.132 0-.132-.133-.132-.133 0-.132-.133-.132-.133-.264v-.53c0-.132.133-.265.133-.397 0-.133.132-.397.132-.662.133-.265.133-.53.265-.927 0-.265.133-.53.133-.794 0-.265 0-.53.132-.795v-1.589c0-.132 0-.265.133-.265 0-.132.132-.132.264-.264.133-.133.133-.133.265-.133h.53c.133 0 .133.133.265.133.133.132.133.264.133.397 0 .132.132.397.132.53v1.058c0 .132 0 .264-.132.53 0 .132 0 .264-.133.529.133 0 .398-.133.53-.133.132-.132.265-.132.53-.264l.397-.398c.133-.132.265-.264.398-.53.132-.132.264-.264.397-.529.132-.132.265-.264.265-.397 0-.132.132-.265.132-.265 0-.132.133-.132.133-.265.132-.132.132-.132.265-.132.132 0 .265-.132.397-.132h.265c.132 0 .265.132.265.132l.265.265c.132.132.132.132.132.265v.132s0 .133-.132.133l-.133.132s-.132.132-.265.132c0 0-.132 0-.132.133 0 0-.133.132-.133.264l-.264.265c-.133.133-.133.265-.265.398-.133.264-.398.397-.53.661-.265.133-.398.398-.795.53l.133.133s.132.132.132.264c0 .133.132.133.132.265v.265c.133.265.133.53.265.794.133.133.398.265.663.265.132 0 .265 0 .53-.132.132 0 .264-.133.53-.265.132-.132.397-.265.53-.397.131-.133.396-.265.529-.53l.53-.53.53-.53c.132-.132.264-.396.397-.529.132-.132.265-.264.265-.397l.397-.397c.133-.133.265-.133.265-.133s.133 0 .133.133c.264-.133.264 0 .264.132z" fill="#222"/><path d="M53.93 32.837c0 .132-.133.397-.265.53-.133.132-.265.397-.53.529l-.795.397c-.265 0-.53.133-.927.133h-.397c-.133 0-.265 0-.398-.133-.132 0-.265-.132-.265-.132-.132 0-.132-.133-.264-.133v.53c0 .133 0 .265-.133.397 0 .133-.132.265-.132.398-.133.132-.133.264-.265.397l-.398.397a1.828 1.828 0 01-.53.397c-.132.133-.397.265-.53.397-.264.133-.397.265-.662.265-.264.133-.397.133-.662.265-.265 0-.397.132-.53.132-.265 0-.662 0-.794-.132-.265-.132-.398-.265-.53-.397a1.01 1.01 0 01-.265-.662c0-.265-.133-.53-.133-.795 0-.264 0-.53.133-.794 0-.265.132-.53.265-.795l.397-.794c.133-.265.265-.53.398-.662.397-.662.662-1.06 1.192-1.456.397-.265.927-.53 1.457-.53h.397c.132 0 .265.132.397.132.133 0 .265.133.398.265.132.133.265.133.265.265 0 0 .132.132.132.265 0 .132.133.265.133.397s.132.265.132.397v.133c.132.132.132.264.265.264.132.133.265.133.397.265.133.133.265.133.398.133h.927c.132 0 .265 0 .397-.133.133 0 .265-.132.398-.132.132 0 .264-.133.397-.265l.265-.265c.132 0 .132-.132.265-.132.132 0 .132 0 .265.132-.265.397-.265.397-.265.53zm-5.298.397v-.662l-.133-.132c0-.133-.132-.133-.132-.265l-.133-.133s-.132-.132-.132 0c-.133 0-.265 0-.398.133-.132 0-.265.132-.397.265l-.397.397c-.133.132-.265.397-.265.53-.133.132-.133.397-.265.529-.133.265-.133.397-.265.662 0 .265-.133.397-.133.662v.53c0 .132 0 .264.133.264.132.133.265.133.397.133h.265c.133 0 .265-.133.398-.133.132-.132.264-.132.397-.264.132-.133.265-.133.265-.265l.53-.53c.132-.132.132-.264.265-.53 0-.132.132-.397.132-.529-.133-.132-.133-.397-.133-.662z" fill="#222"/><path d="M61.745 34.823s0 .133-.133.265c-.132.132-.132.265-.265.53-.132.132-.265.397-.53.53-.132.132-.397.396-.662.529l-.795.397c-.265.132-.53.132-.794.132-.265 0-.398 0-.53-.132-.133-.132-.265-.132-.398-.265-.132-.132-.264-.397-.264-.53 0-.264-.133-.529-.133-.926v-.795c-.132.133-.265.398-.397.662-.133.265-.265.398-.53.662-.133.265-.398.398-.53.53-.265.132-.397.397-.662.53-.265.132-.398.264-.663.397-.264.132-.397.132-.53.132 0 0-.132 0-.264-.132-.133 0-.265-.133-.398-.265l-.397-.397c-.132-.133-.132-.265-.265-.397 0-.133-.132-.265-.132-.398v-.397c0-.265 0-.53.132-.794 0-.265.133-.53.265-.927.133-.265.265-.662.265-.927.132-.265.132-.53.265-.794.132-.265.132-.53.132-.662l.133-.133c.132 0 .132-.132.265-.132.132 0 .132-.133.265-.133h.132c.133 0 .133 0 .265.133.132 0 .132.132.265.132 0 .133.132.133.132.265v.265c0 .132 0 .132-.132.397 0 .133-.133.265-.133.53 0 .132-.132.264-.264.53-.133.132-.133.264-.133.397 0 .132-.132.264-.265.397-.132.132-.132.264-.132.397 0 .132-.133.265-.133.53v1.324s0 .132.133.132h.132s.133-.132.265-.132c.133 0 .133-.133.265-.133s.132-.132.265-.132c.132-.133.265-.265.53-.397l.53-.53c.132-.265.397-.397.53-.53.132-.132.264-.264.264-.397.133-.132.133-.265.265-.397.133-.133.133-.265.133-.53 0-.132.132-.265.132-.53 0-.132.133-.264.265-.397.132-.132.132-.264.265-.264.132-.133.265-.133.397-.133.133 0 .265 0 .398.133.132 0 .132.132.132.132 0 .133.133.133.133.265v.397s0 .132-.133.265c-.132.132-.132.397-.132.662s-.133.53-.133.794v1.325c0 .132 0 .397.133.529 0 .132.132.265.132.397.133.133.133.133.265.133s.397 0 .53-.133c.132-.132.397-.132.53-.265l.397-.397c.132-.132.265-.132.265-.265l.132-.132.133-.132.132-.133h.133c.132 0 .132 0 .265.133.265-.927.265-.927.265-.795zm-2.385-7.15c0 .133 0 .133-.132.265 0 .133-.133.265-.133.397-.132.133-.132.265-.264.398l-.398.397c-.132.132-.265.132-.397.132-.133 0-.265.133-.398.133-.132 0-.264.132-.53.132h-.397c-.265 0-.53 0-.662-.132-.265 0-.397-.133-.662-.265a1.828 1.828 0 01-.53-.397 1.825 1.825 0 01-.398-.53s0-.133-.132-.265c0-.132 0-.132-.132-.265v-.529c0-.133.132-.133.132-.133s.133-.132.265-.132h.265c.132 0 .265 0 .397.132.133.133.265.265.265.398 0 .132 0 .264.133.397 0 .132.132.264.264.264.133.133.265.133.398.265.132 0 .397.133.662.133h.53c.132 0 .132 0 .265-.133.132 0 .132 0 .132-.132.133 0 .133-.133.265-.133 0-.132.133-.132.133-.264 0-.133.132-.133.132-.265 0-.133 0-.133.133-.265 0-.132 0-.132.132-.132l.133-.133s.132 0 .132-.132h.132c.133 0 .398 0 .398.132-.265.265-.133.398-.133.662zm21.328 7.15c0 .133 0 .265-.132.398-.133.132-.133.264-.265.397l-.795.794c-.265.265-.53.397-.662.53-.265.132-.53.265-.663.397-.265.132-.397.132-.662.132s-.53 0-.662-.132a1.828 1.828 0 01-.53-.397c-.132-.133-.265-.265-.265-.53s-.132-.397-.132-.662c0-.397 0-.662.132-1.06 0-.396.132-.794.265-1.058-.265.53-.53.927-.795 1.324s-.53.794-.794 1.059c-.265.265-.53.53-.795.662s-.53.265-.795.265c-.132 0-.265 0-.397-.133-.133 0-.265-.132-.398-.264-.132-.133-.265-.265-.397-.53s-.132-.53-.132-.794v-.928c0-.132 0-.397.132-.529 0-.132 0-.397.132-.53 0 0-.132.133-.132.265 0 .133-.132.265-.132.397 0 .133-.133.265-.133.53 0 .133-.132.397-.132.53 0 .132-.133.264-.133.397-.132.132-.132.265-.132.397-.265.265-.398.53-.53.794-.133.265-.398.398-.53.53-.927-.132-1.192 0-1.325 0-.264 0-.53.133-.794.133-.265 0-.398 0-.663-.133-.264-.132-.397-.132-.53-.265-.132-.132-.264-.264-.397-.53-.132-.264-.132-.529-.132-.794 0-.264 0-.53.132-.662.133-.132.265-.264.662-.264h.265c.133 0 .133.132.265.132 0 0 .133.132.133.265 0 .132.132.264.132.397v.265c0 .132.133.132.133.132l.132.133h.133c.132 0 .265 0 .397-.133l.397-.397c.133-.133.265-.397.398-.53l.397-.794.397-.795c.133-.264.265-.53.398-.662.132-.264.265-.397.265-.53.132-.132.132-.264.265-.396l.132-.133.133-.132.132-.133.133-.132.132-.132c.132 0 .132 0 .265-.133.132 0 .132 0 .265-.132h.53c.132 0 .132.132.132.132 0 .133.132.133.132.265v1.059c0 .133 0 .265-.132.53 0 .132 0 .397-.132.53v.926c0 .265 0 .53.132.795 0 .132.132.264.132.264.133 0 .133 0 .265-.132.133 0 .133-.132.265-.132.133 0 .133-.133.265-.133l.133-.132c.265-.265.397-.53.662-.795.265-.264.397-.53.53-.794.132-.265.397-.53.53-.794l.397-.795s.132-.132.132-.265c0-.132.133-.132.265-.264.133 0 .133-.133.265-.133h.398c.132 0 .132.133.264.133.133 0 .133.132.265.132 0 .132.133.132.133.265v.662c0 .132-.133.265-.133.53 0 .132-.132.397-.132.661 0 .265-.133.53-.133.795v.794c0 .398 0 .53.133.795.132.132.265.264.397.264.265 0 .53-.132.795-.264.265-.133.662-.53 1.06-.927.132-.133.265-.265.397-.265.133 0 .265-.132.265-.132h.265c-.265.397-.265.397-.265.53z" fill="#222"/><path d="M87.705 32.836v.265c0 .133-.132.265-.132.265-.53.662-.927 1.192-1.457 1.721-.53.53-.927 1.06-1.457 1.457-.398.397-.928.794-1.325.927a2.556 2.556 0 01-1.324.397c-.398 0-.795-.133-1.06-.133-.265-.132-.53-.264-.662-.53l-.398-.794c-.132-.264-.132-.662-.132-1.059 0-.265 0-.662.132-.927 0-.397.133-.662.265-1.059.133-.397.265-.662.397-.927.133-.265.398-.662.663-.927l.397-.397c.133-.132.265-.265.398-.265.132-.132.264-.132.53-.265.132 0 .397-.132.53-.132.132 0 .397 0 .529.133.132.132.265.132.397.264.133.133.133.265.265.398 0 .132.133.264.133.53 0 .132 0 .396-.133.529 0 .265-.132.397-.265.662-.132.265-.264.397-.397.662-.132.265-.397.397-.662.662l-.265.265-.397.397-.398.397-.397.397v.265c0 .133.132.133.132.265l.265.265c.133 0 .265.132.398.132.264 0 .662-.132 1.06-.265l1.191-.794 1.192-1.192c.398-.397.795-.927 1.325-1.324 0-.132.132-.132.265-.265.132-.132.265-.132.397-.132h.133s.132 0 .132.132c-.265-.132-.265-.132-.265 0zm-4.9-.662v-.264l-.133-.133c-.133 0-.397.133-.53.265-.132.132-.265.397-.397.53-.133.264-.265.53-.398.926a2.493 2.493 0 00-.265 1.06s.133 0 .133-.133l.132-.132.133-.133.132-.132.663-.662c.132-.265.264-.397.397-.53.132-.132.132-.264.132-.397v-.265z" fill="#222"/><path d="M97.64 33.1s0 .133-.133.398c-.133.132-.265.397-.53.662s-.53.53-.795.927-.662.662-1.06 1.059c-.264.265-.53.53-.927.794-.265.265-.53.398-.927.662-.265.133-.53.265-.927.398-.265.132-.662.132-.927.132s-.53 0-.663-.133c-.265-.132-.397-.264-.53-.397-.132-.132-.264-.397-.397-.662-.132-.264-.132-.53-.132-.926v-.53c0-.133 0-.397.132-.53 0-.132.133-.397.133-.53.132-.132.132-.397.265-.529-.133 0-.133.132-.265.132-.133 0-.265.133-.398.133h-.662c-.265 0-.53 0-.795-.133-.265-.132-.397-.264-.662-.397-.132-.132-.265-.397-.397-.53-.133-.264-.133-.529-.133-.794 0-.132 0-.265.133-.397 0-.133.132-.133.264-.265.133 0 .133-.132.265-.132h.53c.133 0 .133.132.133.132s.132.133.132.265v.529c0 .133 0 .133.133.265 0 .133.132.133.264.133.133 0 .265.132.398.132.132 0 .265 0 .397-.132.133 0 .265-.133.398-.133.132-.132.265-.132.397-.265l.397-.397c0-.132.133-.132.133-.264 0-.133.132-.133.132-.133.133 0 .133-.132.265-.132h.53c.132 0 .132.132.265.132l.132.133v.132c0 .132 0 .265-.132.53-.132.264-.265.397-.397.794-.133.132-.265.397-.265.53-.133.264-.133.397-.265.662 0 .264-.133.397-.133.662v.662c0 .264 0 .53.133.662.132.132.265.264.53.264.264 0 .397 0 .662-.132l.795-.397c.264-.133.53-.397.794-.662.265-.265.53-.53.927-.795.265-.264.53-.53.795-.926.265-.265.53-.53.795-.927 0-.133.132-.133.265-.265.132-.133.265-.133.397-.133.133 0 .265 0 .265.133.133.265.265.397.265.53z" fill="#222"/><path d="M106.383 31.909c0 .132 0 .265-.133.397 0 .133 0 .265-.132.397 0 .133-.133.397-.133.662v1.06c0 .132.133.264.133.397 0 .132.132.264.265.264.132.133.132.133.264.133.133 0 .398 0 .53-.133.133-.132.398-.264.663-.397.264-.132.397-.264.662-.53.265-.132.397-.396.662-.529.265-.265.397-.397.53-.662.132-.265.397-.397.53-.53l.132-.132h.133s.132 0 .132.133c0 0 .133.132.133.264 0 .133 0 .265-.133.397 0 .133-.132.398-.265.663-.132.132-.265.264-.397.53-.133.132-.398.396-.53.661l-.662.662c-.265.265-.53.397-.795.53l-.795.397c-.265.132-.53.132-.794.132-.398 0-.663-.132-.928-.264-.265-.133-.397-.398-.53-.53-.132-.265-.264-.53-.264-.794 0-.265-.133-.53-.133-.795v-.927c0-.132 0-.265.133-.397a1.828 1.828 0 00-.398.53c-.132.265-.397.397-.53.662-.132.265-.397.53-.529.794-.133.265-.398.53-.53.795 0 .132-.133.264-.133.264 0 .133-.132.133-.132.265 0 .133-.133.133-.265.133-.133 0-.133 0-.265.132h-.132c-.133 0-.133-.132-.265-.132-.133 0-.133-.133-.265-.133-.133 0-.133-.132-.133-.132V33.1s-.132.133-.265.133l-.265.265c-.132.132-.132.265-.264.397-.133.132-.133.265-.265.397-.265.53-.53.927-.795 1.324a7.587 7.587 0 00-.53.927c-.132.132-.132.397-.265.53-.132.132-.132.264-.265.264-.132.133-.132.133-.265.133h-.265c-.132 0-.397 0-.397-.133-.132-.132-.132-.264-.265-.397 0-.132-.132-.397-.132-.53v-3.972c0-.264 0-.397.132-.53 0-.132.133-.264.265-.396.133-.133.133-.133.265-.133h.662c.133 0 .133 0 .133.133l.132.132v.53c0 .132 0 .397-.132.53 0 .264-.133.529-.133.794s-.132.53-.132.794c0 .265 0 .397-.133.53v.264c0-.132.133-.264.133-.397.132-.132.132-.264.265-.53.132-.132.132-.396.265-.529.132-.132.132-.265.264-.397.265-.397.398-.662.663-.927s.397-.53.662-.662.397-.265.662-.397c.133-.133.398-.133.53-.133.133 0 .265.133.398.133.132.132.264.265.264.397.133.132.133.265.133.53v1.986s.132-.133.132-.265c.133-.133.133-.265.265-.397.133-.133.133-.265.265-.398.133-.132.133-.132.133-.264.265-.265.397-.53.662-.795l.662-.662c.265-.132.398-.265.662-.397.265-.132.398-.132.663-.132.132 0 .132 0 .265.132.132 0 .132.132.265.132 0 .133.132.133.132.265.133.397.133.53.133.53z" fill="#222"/><path d="M119.758 34.955c0 .133 0 .265-.132.398 0 .132-.133.264-.265.264-.265.398-.663.662-.928.927-.264.265-.529.53-.794.662-.265.133-.53.265-.663.397-.264.133-.397.133-.662.133s-.397 0-.662-.133c-.133-.132-.397-.132-.53-.397-.132-.132-.265-.397-.265-.53-.132-.264-.132-.53-.132-.794v-.927c0-.132 0-.397.132-.53 0-.132 0-.397.133-.529 0-.132 0-.265.132-.397v-.265s-.132 0-.132.132c-.133 0-.133.133-.265.133-.133 0-.265.132-.398.132-.132 0-.397.133-.662.133.133 0 .133.132.265.132.132.132.132.132.132.265 0 .132.133.132.133.265v.264c0 .265 0 .398-.133.663-.132.264-.132.53-.264.794-.133.265-.265.53-.53.662-.133.265-.398.397-.663.53l-.794.397c-.265.132-.53.132-.795.132-.132 0-.397 0-.53-.132l-.397-.397a1.008 1.008 0 01-.265-.663c-.133-.264-.133-.53-.133-.794v-.53c0-.132 0-.397.133-.661 0-.265.132-.398.132-.663 0-.264.133-.53.133-.794 0-.132.132-.397.132-.662s.133-.397.133-.662.132-.397.132-.53c0-.132.133-.264.133-.397 0-.132.132-.132.132-.132.133 0 .133-.133.265-.133s.132-.132.265-.132h.265c.132 0 .265 0 .397.132.133.133.133.265.133.398v.397c0 .132-.133.265-.133.397s-.132.265-.132.53c0 .132-.133.264-.133.397.663 0 1.192-.133 1.722-.133.398-.132.795-.132 1.06-.264.265-.133.53-.265.662-.265l.397-.397s0-.133.133-.133c0 0 0-.132.132-.132v-.133c0-.132 0-.132.133-.264 0 0 0-.133.132-.133l.133-.132s.132-.133.265-.133h.529c.133 0 .133 0 .265.133.133 0 .133.132.133.132s.132.133.132.265v.265c0 .132 0 .132-.132.265 0 .132-.133.264-.133.397 0 .132-.132.265-.132.53 0 .264-.133.529-.133.794s-.132.53-.132.794c0 .265-.132.53-.132.795v.662c0 .264 0 .53.132.662s.132.132.265.132c.265 0 .53-.132.927-.397s.795-.53 1.192-1.06l.265-.264c.133-.133.265-.133.397-.133.133 0 .133 0 .265.133-.397 0-.397 0-.397.132zm-7.285-1.191h-.927v.264c0 .133 0 .265-.133.398 0 .132 0 .264-.132.53 0 .132 0 .264-.133.529v.53c0 .264 0 .397.133.53 0 .131.132.131.265.131.265 0 .397 0 .662-.132.133-.132.397-.265.53-.53.132-.132.265-.397.397-.662.133-.264.133-.397.133-.661 0-.265 0-.53-.133-.795-.397 0-.53-.132-.662-.132zm9.274 2.25c0 .133 0 .265-.133.53 0 .132-.132.265-.397.53-.265.132-.397.264-.662.264-.53 0-.662-.265-.662-.794 0-.133 0-.133.132-.265 0-.133.132-.265.265-.397.132-.133.132-.265.265-.265.132-.133.265-.133.397-.133h.265c.133 0 .265.133.265.133.133 0 .132.132.265.132v.265zm1.192-7.812v.265c0 .132 0 .265-.132.53 0 .265-.133.397-.133.662s-.132.397-.132.662c-.133.397-.265.926-.398 1.324-.132.397-.265.927-.265 1.324v.794c0 .133-.132.133-.132.265-.265 0-.397 0-.662-.132-.133 0-.265-.133-.398-.133v-1.589c0-.397.133-.794.133-1.191.132-.398.132-.795.265-1.192 0-.397.132-.662.132-1.06v-.794c0-.132 0-.132.133-.264l.132-.133s.132-.132.265-.132c.132 0 .132-.133.265-.133h.265c.132 0 .397 0 .53.133.132 0 .132.132.132.265-.132.397 0 .53 0 .53zm-32.451-12.71l-.265-.265-.265-.264c-.132 0-.132-.133-.265-.133h-.397c-.133 0-.265.133-.265.133-.133 0-.133.132-.265.132s-.132.132-.132.132c-.53.53-1.06.927-1.59 1.457-.53.397-1.06.794-1.59 1.059-.53.265-1.059.53-1.589.662s-1.06.132-1.59.132c-.264 0-.53-.132-.662-.132-.132-.132-.397-.265-.53-.397-.132-.133-.264-.397-.264-.53 0-.132-.133-.265-.133-.397-.927.132-1.854.132-2.649.265 0 .265 0 .53.133.794.132.53.397 1.06.662 1.589.265.397.662.794 1.192 1.06.53.264 1.06.396 1.854.396.795 0 1.457 0 2.252-.264.662-.265 1.457-.53 2.12-.927.662-.397 1.324-.927 1.986-1.457.662-.53 1.192-1.059 1.855-1.72l.397-.398c.132-.133.132-.265.132-.397 0-.397 0-.397-.132-.53zM9.956 34.425c-.133 0-.133-.132 0 0-.265-.132-.265-.132-.265-.265h-.397s-.133 0-.133.133H9.03c-.265.264-.53.53-.795.662-.265.264-.53.397-.795.53-.265.132-.53.264-.795.264-.264.132-.53.132-.794.132-.133 0-.265 0-.398-.132-.132 0-.132-.132-.265-.265 0-.132-.132-.132-.132-.265v-.264c-.397 0-.927.132-1.325.132v.397c0 .265.133.53.265.795.133.264.398.397.663.53.397.264.662.264 1.06.264.397 0 .662 0 1.059-.132a3.966 3.966 0 001.06-.53c.397-.265.662-.397.927-.662s.662-.53.927-.794c0 0 .132-.133.132-.265.133 0 .133-.133.133-.265 0 0 0 .132 0 0z" fill="#222"/></svg>