<?xml version="1.0" standalone="no"?>
<!DOCTYPE svg PUBLIC "-//W3C//DTD SVG 1.1//EN" "http://www.w3.org/Graphics/SVG/1.1/DTD/svg11.dtd" >
<svg>
<metadata>
Created by FontForge 20090914 at Thu Jan 20 16:15:08 2022
 By www-data
Copyright (c) 2012, The Raleway Project Authors (matt@pixelspread.com)
</metadata>
<defs>
<font id="Rawline-SemiBold" horiz-adv-x="1540" >
  <font-face 
    font-family="Rawline SemiBold"
    font-weight="600"
    font-stretch="normal"
    units-per-em="2048"
    panose-1="0 0 7 0 0 0 0 0 0 0"
    ascent="1638"
    descent="-410"
    x-height="1071"
    cap-height="1454"
    bbox="-901 -465.005 2617 2320"
    underline-thickness="102"
    underline-position="-408"
    unicode-range="U+0008-U+FB06"
  />
<missing-glyph horiz-adv-x="1245" 
d="M1106 1454c24.667 0 37 -14.333 37 -43v-1352c0 -21.333 -5.33301 -36.5 -16 -45.5s-28 -13.5 -52 -13.5h-917c-20.667 0 -35.167 4 -43.5 12s-12.5 21 -12.5 39v1356c0 31.333 13 47 39 47h965zM1036 1315c0 24.667 -10 37 -30 37h-707l737 -1180v1143zM209 145
c0 -15.333 3.33301 -26.333 10 -33s19 -10 37 -10h694l-741 1168v-1125z" />
    <glyph glyph-name="fi" unicode="fi" horiz-adv-x="1118" 
d="M197 870h-143.998v174h144v43c0 56.667 9.16699 110.5 27.5 161.5s44.5 96.5 78.5 136.5s77.667 71.833 131 95.5s112.666 35.5 177.999 35.5c126 0 247.667 -39.667 365 -119l-92 -168c-32.667 28 -71.834 50.667 -117.501 68s-92.5 26 -140.5 26
c-66 0 -116.667 -22.5 -152 -67.5s-53 -98.833 -53 -161.5v-50h561v-1044h-225v870h-336v-870h-225v870z" />
    <glyph glyph-name="fl" unicode="fl" horiz-adv-x="1290" 
d="M1061 -14c-76.667 0 -137.168 20.833 -181.501 62.5s-66.5 97.834 -66.5 168.501v881c0 30.667 -3 58.5 -9 83.5s-15.833 48.667 -29.5 71s-33.5 39.666 -59.5 51.999s-57.333 18.5 -94 18.5c-66 0 -115.167 -22.5 -147.5 -67.5s-49.5 -106.5 -51.5 -184.5v-27h196v-174
h-196v-870h-225v870h-144v174h144v62c0 128.667 36.5 229.167 109.5 301.5s176.167 108.5 309.5 108.5c138 0 242.833 -33.5 314.5 -100.5s107.5 -157.167 107.5 -270.5v-832c0 -48.667 7 -82 21 -100s35 -27 63 -27c38.667 0 86 9.66699 142 29l32 -182
c-26.667 -11.333 -63.167 -22 -109.5 -32s-88.166 -15 -125.499 -15z" />
    <glyph glyph-name=".notdef" horiz-adv-x="1245" 
d="M1106 1454c24.667 0 37 -14.333 37 -43v-1352c0 -21.333 -5.33301 -36.5 -16 -45.5s-28 -13.5 -52 -13.5h-917c-20.667 0 -35.167 4 -43.5 12s-12.5 21 -12.5 39v1356c0 31.333 13 47 39 47h965zM1036 1315c0 24.667 -10 37 -30 37h-707l737 -1180v1143zM209 145
c0 -15.333 3.33301 -26.333 10 -33s19 -10 37 -10h694l-741 1168v-1125z" />
    <glyph glyph-name=".null" horiz-adv-x="0" 
 />
    <glyph glyph-name=".null" horiz-adv-x="0" 
 />
    <glyph glyph-name="nonmarkingreturn" unicode="&#x9;" horiz-adv-x="682" 
 />
    <glyph glyph-name="controlCR" unicode="&#xd;" horiz-adv-x="0" 
 />
    <glyph glyph-name="space" unicode=" " horiz-adv-x="505" 
 />
    <glyph glyph-name="exclam" unicode="!" horiz-adv-x="581" 
d="M178 518v950h225v-950h-225zM178 0v281h225v-281h-225z" />
    <glyph glyph-name="quotedbl" unicode="&#x22;" horiz-adv-x="731" 
d="M131 1026v451h193v-451h-193zM408 1026v451h192v-451h-192z" />
    <glyph glyph-name="numbersign" unicode="#" horiz-adv-x="1445" 
d="M1370 893h-285l-77 -324h270v-172h-311l-97 -397h-184l98 397h-297l-96 -397h-184l100 397h-231v172h270l78 324h-256v160h297l96 401h184l-98 -401h295l98 401h185l-101 -401h246v-160zM825 569l78 324h-297l-78 -324h297z" />
    <glyph glyph-name="dollar" unicode="$" horiz-adv-x="1286" 
d="M1204 403c0 -69.333 -12.668 -130.502 -38.001 -183.502s-60.833 -95.833 -106.5 -128.5s-97.5 -57.667 -155.5 -75s-122.333 -27.333 -193 -30v-215h-125v219c-196.667 14.667 -368 78.667 -514 192l104 197c35.333 -36.667 92.666 -73.5 171.999 -110.5
s163.333 -60.833 252 -71.5v426l-41 10c-76.667 20 -140 40.333 -190 61s-94.167 46 -132.5 76s-66.166 65.5 -83.499 106.5s-26 89.5 -26 145.5c0 128 42.333 230.333 127 307s195.334 121 332.001 133v207h125v-207c160 -11.333 305.333 -65.333 436 -162l-105 -188
c-28 30.667 -74.667 60.834 -140 90.501s-134 47.834 -206 54.501v-426l29 -6c64 -15.333 118.667 -30.5 164 -45.5s89 -34 131 -57s75.667 -48.667 101 -77s45.5 -62.833 60.5 -103.5s22.5 -87 22.5 -139zM366.999 1059c0 -54 17.833 -95.332 53.5 -123.999
s95.5 -54.334 179.5 -77.001v399c-155.333 -11.333 -233 -77.333 -233 -198zM695.999 192.999c84.667 3.33301 149.5 20.667 194.5 52s67.5 76 67.5 134c0 56 -21 99.833 -63 131.5s-108.333 60.167 -199 85.5v-403z" />
    <glyph glyph-name="percent" unicode="%" horiz-adv-x="1552" 
d="M74 1169c0 84.667 31.667 156.832 95 216.499s140 89.5 230 89.5c90.667 0 167.667 -29.667 231 -89s95 -131.666 95 -216.999c0 -84 -31.667 -155.5 -95 -214.5s-140.333 -88.5 -231 -88.5c-90 0 -166.667 29.5 -230 88.5s-95 130.5 -95 214.5zM166 81.998l575 682
l541 702l107 -92l-566 -674l-553 -712zM565 1169c0 52 -16.333 96.5029 -49 133.503s-71.667 55.5 -117 55.5s-84.333 -18.833 -117 -56.5s-49 -81.834 -49 -132.501s16.333 -94.334 49 -131.001s71.667 -55 117 -55s84.333 18.667 117 56s49 80.666 49 129.999z
M827 285.001c0 84 31.833 155.5 95.5 214.5s140.5 88.5 230.5 88.5c90.667 0 167.667 -29.5 231 -88.5s95 -130.5 95 -214.5c0 -85.333 -31.667 -157.5 -95 -216.5s-140.333 -88.5 -231 -88.5c-90 0 -166.833 29.667 -230.5 89s-95.5 131.333 -95.5 216zM1319 285.001
c0 50.667 -16.5 94.333 -49.5 131s-71.833 55 -116.5 55c-45.333 0 -84.333 -18.667 -117 -56s-49 -80.666 -49 -129.999c0 -52 16.333 -96.5 49 -133.5s71.667 -55.5 117 -55.5c46 0 85.167 18.667 117.5 56s48.5 81.666 48.5 132.999z" />
    <glyph glyph-name="ampersand" unicode="&#x26;" horiz-adv-x="1425" 
d="M1419 0l-297.001 0.00195312l-131 139c-124 -106 -265.333 -159 -424 -159c-139.333 0 -254 40.167 -344 120.5s-135 179.166 -135 296.499c0 45.333 7 88.5 21 129.5s34.333 78.5 61 112.5s54.834 64.667 84.501 92s64.167 54.666 103.5 81.999
c-63.333 70 -107.5 128.5 -132.5 175.5s-37.5 95.833 -37.5 146.5c0 98.667 36.5 179.667 109.5 243s164.833 95 275.5 95c104 0 191.833 -27.667 263.5 -83s107.5 -131 107.5 -227c0 -75.333 -23.5 -142.5 -70.5 -201.5s-114.833 -118.167 -203.5 -177.5l327 -342
c49.333 96.667 74 206.667 74 330h184c0 -178 -42.333 -334.333 -127 -469zM572.999 1305c-51.333 0 -93.833 -15.833 -127.5 -47.5s-50.5 -70.5 -50.5 -116.5c0 -26.667 9 -53.5 27 -80.5s55.667 -71.167 113 -132.5c70 44.667 121.167 84.167 153.5 118.5
s48.5 71.833 48.5 112.5c0 42.667 -15.5 77.667 -46.5 105s-70.167 41 -117.5 41zM591.999 158.002c100 0 192 36.666 276 109.999l-376 400c-60.667 -43.333 -107 -86.833 -139 -130.5s-48 -91.167 -48 -142.5c0 -69.333 27.833 -126.166 83.5 -170.499
s123.5 -66.5 203.5 -66.5z" />
    <glyph glyph-name="quotesingle" unicode="'" horiz-adv-x="454" 
d="M131 1024v453h193v-453h-193z" />
    <glyph glyph-name="parenleft" unicode="(" horiz-adv-x="606" 
d="M375 1536l174.001 -74c-26 -38.667 -53.167 -86 -81.5 -142s-56.333 -118.333 -84 -187s-50.334 -141.5 -68.001 -218.5s-26.5 -147.833 -26.5 -212.5c0 -201.333 84.667 -439.333 254 -714l-164 -84c-200.667 296 -301 564.333 -301 805c0 128 25.5 257.167 76.5 387.5
s124.5 276.833 220.5 439.5z" />
    <glyph glyph-name="parenright" unicode=")" horiz-adv-x="606" 
d="M227 -96l-166 83.999c170.667 277.333 256 515.333 256 714c0 64.667 -9 135.5 -27 212.5s-40.833 149.833 -68.5 218.5s-55.5 130.834 -83.5 186.501s-55 103.167 -81 142.5l172 74c96 -162.667 169.5 -309.167 220.5 -439.5s76.5 -259.5 76.5 -387.5
c0 -242 -99.667 -510.333 -299 -805z" />
    <glyph glyph-name="asterisk" unicode="*" horiz-adv-x="690" 
d="M164 1085l92 138l-143 45l32 102l146 -59l-8 155h125l-9 -155l146 59l30 -102l-141 -45l92 -138l-90 -61l-90 145l-92 -145z" />
    <glyph glyph-name="plus" unicode="+" horiz-adv-x="858" 
d="M758 817v-180h-228v-248h-202v248h-228v180h228v248h202v-248h228z" />
    <glyph glyph-name="comma" unicode="," horiz-adv-x="452" 
d="M150 -199l49 211h-74v250h203v-250l-72 -211h-106z" />
    <glyph glyph-name="hyphen" unicode="-" horiz-adv-x="862" 
d="M125 459v203h612v-203h-612z" />
    <glyph glyph-name="period" unicode="." horiz-adv-x="436" 
d="M125 0v262h186v-262h-186z" />
    <glyph glyph-name="slash" unicode="/" horiz-adv-x="1359" 
d="M1303 1454l-998 -1454h-250l998 1454h250z" />
    <glyph glyph-name="zero" unicode="0" horiz-adv-x="1423" 
d="M90 717c0 70 9.16699 140.169 27.5 210.502s45.5 137 81.5 200s78.667 118.833 128 167.5s107.333 87.334 174 116.001s137.334 43 212.001 43c78.667 0 152.334 -15.333 221.001 -46s127 -71.334 175 -122.001s89.167 -108.167 123.5 -172.5
s59.666 -130.333 75.999 -198s24.5 -133.834 24.5 -198.501c0 -70.667 -9 -141.334 -27 -212.001s-45 -137.167 -81 -199.5s-78.5 -117.666 -127.5 -165.999s-106.833 -86.833 -173.5 -115.5s-137 -43.334 -211 -44.001c-79.333 1.33301 -153.333 17.166 -222 47.499
s-127 70.333 -175 120s-89.333 106.334 -124 170.001s-60.334 129.5 -77.001 197.5s-25 135.333 -25 202zM713 186.002c51.333 0 98.665 11.165 141.998 33.498s79.833 51.833 109.5 88.5s54.834 78.334 75.501 125.001s35.834 94 45.501 142s14.5 95.333 14.5 142
c0 50 -5.33301 100 -16 150s-26.834 97.833 -48.501 143.5s-47.667 86 -78 121s-66.5 63 -108.5 84s-87.333 31.5 -136 31.5c-64 0 -121.667 -17 -173 -51s-92.166 -77.667 -122.499 -131s-53.5 -110.166 -69.5 -170.499s-24 -119.5 -24 -177.5
c2 -64 11.5 -126.667 28.5 -188s40.833 -118 71.5 -170s71 -93.833 121 -125.5s106 -47.5 168 -47.5z" />
    <glyph glyph-name="one" unicode="1" horiz-adv-x="952" 
d="M907 203v-203h-772v203h281v1036c-25.333 -35.333 -73.5 -73.5 -144.5 -114.5s-132.167 -61.5 -183.5 -61.5v209c27.333 0 57 6.5 89 19.5s61.333 28.667 88 47s51.667 37.333 75 57s41.5 36 54.5 49s20.167 20.833 21.5 23.5h231v-1265h260z" />
    <glyph glyph-name="two" unicode="2" horiz-adv-x="1226" 
d="M90 0c0 161.333 24.6699 289.834 74.0029 385.501s128.333 176.167 237 241.5c30 18 71.167 40 123.5 66s95.166 48.167 128.499 66.5s67.666 41 102.999 68s61.833 57.667 79.5 92s26.5 73.166 26.5 116.499c0 68 -21.5 123.333 -64.5 166s-104.167 64 -183.5 64
c-78 0 -148.833 -18.667 -212.5 -56s-116.834 -81 -159.501 -131l-144 150c13.333 16.667 29.833 34.167 49.5 52.5s46.667 39.333 81 63s70.833 44.667 109.5 63s84.834 33.833 138.501 46.5s108.5 19 164.5 19c150 0 266.667 -40.167 350 -120.5
s125 -183.166 125 -308.499c0 -62 -9.5 -117 -28.5 -165s-51.5 -91.5 -97.5 -130.5s-82.833 -67.5 -110.5 -85.5s-73.834 -44 -138.501 -78c-1.33301 -1.33301 -2.5 -2.16602 -3.5 -2.49902s-2.33301 -1 -4 -2s-3.16699 -1.83301 -4.5 -2.5
c-76.667 -38.667 -139 -73.834 -187 -105.501s-85 -62.5 -111 -92.5s-44.333 -57.833 -55 -83.5s-18.667 -56.834 -24 -93.501h766v-203h-1028z" />
    <glyph glyph-name="three" unicode="3" horiz-adv-x="1198" 
d="M567 -16c-121.333 0 -225.17 25.499 -311.503 76.499s-144.166 120.833 -173.499 209.5l123 148c14.667 -60 54 -112.5 118 -157.5s143.333 -67.5 238 -67.5c90.667 0 164.5 20.5 221.5 61.5s85.5 96.167 85.5 165.5c0 76.667 -36 135.334 -108 176.001s-173 61 -303 61
h-70v181h70c116 0 207 18.667 273 56s99 91.666 99 162.999c0 66 -25.667 119 -77 159s-113.666 60 -186.999 60c-75.333 0 -141.666 -17.167 -198.999 -51.5s-100 -78.5 -128 -132.5l-148 161c42.667 66.667 108.5 120 197.5 160s184.167 60 285.5 60
c143.333 0 261.833 -37.5 355.5 -112.5s140.5 -168.833 140.5 -281.5c0 -82 -24.5 -151.167 -73.5 -207.5s-117.167 -94.166 -204.5 -113.499c92 -17.333 166.5 -60.5 223.5 -129.5s85.5 -149.5 85.5 -241.5c0 -82.667 -24.333 -155 -73 -217s-113 -108.5 -193 -139.5
s-169 -46.5 -267 -46.5z" />
    <glyph glyph-name="four" unicode="4" horiz-adv-x="1189" 
d="M705 0v352h-650v201l719 901h156v-899h180v-203h-180v-352h-225zM285 555h444v557z" />
    <glyph glyph-name="five" unicode="5" horiz-adv-x="1153" 
d="M549 -20c-104 0 -197.671 23.668 -281.004 71.001s-147.333 111.666 -192 192.999l135 129c38.667 -59.333 88.334 -106.333 149.001 -141s124.334 -52 191.001 -52c84.667 0 154.334 26.333 209.001 79s82 120.667 82 204c0 81.333 -26.167 147.666 -78.5 198.999
s-117.833 77 -196.5 77c-51.333 0 -100 -11.833 -146 -35.5s-82.667 -56.167 -110 -97.5h-200l165 848h711v-207h-547l-73 -395c50.667 54.667 127 82 229 82c136.667 0 250.334 -43.667 341.001 -131s136 -198.666 136 -333.999c0 -144 -49.5 -261.5 -148.5 -352.5
s-224.167 -136.5 -375.5 -136.5z" />
    <glyph glyph-name="six" unicode="6" horiz-adv-x="1243" 
d="M651 971c-76.667 0 -145.334 -18.001 -206.001 -54.001s-106 -84.333 -136 -145c2 155.333 33.5 276.833 94.5 364.5s142.833 131.5 245.5 131.5c66.667 0 128 -16.833 184 -50.5s99.333 -79.167 130 -136.5l133 140c-48 76.667 -110.833 136.334 -188.5 179.001
s-162.5 64 -254.5 64c-172 0 -307.5 -71.833 -406.5 -215.5s-148.5 -351.5 -148.5 -623.5c0 -200 48.167 -357.5 144.5 -472.5s225.833 -172.5 388.5 -172.5c148 0 272.333 48.667 373 146s151 216.333 151 357c0 90 -22.167 172.333 -66.5 247
s-105.166 133.5 -182.499 176.5s-162.333 64.5 -255 64.5zM322 482.999c0 84 30.3311 156.333 90.998 217s133.334 91 218.001 91s157.334 -30.333 218.001 -91s91 -133 91 -217c0 -84.667 -30.5 -157.667 -91.5 -219s-133.5 -92 -217.5 -92s-156.5 30.667 -217.5 92
s-91.5 134.333 -91.5 219z" />
    <glyph glyph-name="seven" unicode="7" horiz-adv-x="1122" 
d="M772 1247h-704v207h1060l-729 -1454h-254z" />
    <glyph glyph-name="eight" unicode="8" horiz-adv-x="1230" 
d="M612 -16c-146.667 0 -269.665 42.3271 -368.998 126.994s-149 191 -149 319c0 79.333 25 149.666 75 210.999s109 107 177 137c-58 25.333 -106.333 63.833 -145 115.5s-58 108.167 -58 169.5c0 60.667 14.167 116.334 42.5 167.001s65.333 91.834 111 123.501
s96 56.334 151 74.001s110.5 26.5 166.5 26.5c56.667 0 112.667 -8.66699 168 -26s106.166 -41.833 152.499 -73.5s83.833 -72.667 112.5 -123s43 -105.833 43 -166.5c0 -61.333 -19.833 -118.166 -59.5 -170.499s-88.834 -91.166 -147.501 -116.499
c72 -32 132 -79.167 180 -141.5s72 -134.5 72 -216.5c0 -85.333 -24 -161.666 -72 -228.999s-111.5 -118.666 -190.5 -153.999s-165.833 -53 -260.5 -53zM614.002 855.994c62.667 0 119.333 18.501 170 55.501s76 86.167 76 147.5c0 57.333 -24.167 104 -72.5 140
s-106.166 54 -173.499 54c-66.667 0 -123.834 -18.333 -171.501 -55s-71.5 -84.334 -71.5 -143.001c0 -60.667 25 -109 75 -145s106 -54 168 -54zM614.001 683.995c-78 0 -145.5 -23.333 -202.5 -70s-85.5 -106.667 -85.5 -180s29.5 -133 88.5 -179s126.167 -69 201.5 -69
c76 0 143.5 23.833 202.5 71.5s88.5 106.5 88.5 176.5c0 74.667 -29.833 135 -89.5 181s-127.5 69 -203.5 69z" />
    <glyph glyph-name="nine" unicode="9" horiz-adv-x="1241" 
d="M590 473c77.333 0 146.499 18 207.499 54s105.833 84.333 134.5 145c-0.666992 -155.333 -31.667 -276.5 -93 -363.5s-143.666 -130.5 -246.999 -130.5c-65.333 0 -126.166 16.833 -182.499 50.5s-99.833 79.167 -130.5 136.5l-134 -140
c48 -78 110.833 -138.333 188.5 -181s163.167 -64 256.5 -64c171.333 0 306.333 72.167 405 216.5s148 352.5 148 624.5c0 200 -48 357.167 -144 471.5s-225 171.5 -387 171.5c-97.333 0 -186.333 -22.167 -267 -66.5s-144 -105 -190 -182s-69 -161.833 -69 -254.5
c0 -136 48.667 -251.333 146 -346s216.666 -142 357.999 -142zM921.999 961c0 -82.667 -30.667 -154.333 -92 -215s-134 -91 -218 -91s-156.5 30.333 -217.5 91s-91.5 133 -91.5 217c0 85.333 30.167 158.5 90.5 219.5s132.5 91.5 216.5 91.5s157 -31 219 -93
s93 -135.333 93 -220z" />
    <glyph glyph-name="colon" unicode=":" horiz-adv-x="456" 
d="M135 801v260h187v-260h-187zM135 0v262h187v-262h-187z" />
    <glyph glyph-name="semicolon" unicode=";" horiz-adv-x="489" 
d="M145 801v260h185v-260h-185zM168 -199l49 211h-74v250h203v-250l-72 -211h-106z" />
    <glyph glyph-name="less" unicode="&#x3c;" horiz-adv-x="1048" 
d="M68 582l860 520v-240l-535 -332l535 -323v-250l-860 512v113z" />
    <glyph glyph-name="equal" unicode="=" horiz-adv-x="897" 
d="M131 649v150h633v-150h-633zM131 332v149h633v-149h-633z" />
    <glyph glyph-name="greater" unicode="&#x3e;" horiz-adv-x="1048" 
d="M983 469l-862 -512v250l534 323l-534 332v240l862 -520v-113z" />
    <glyph glyph-name="question" unicode="?" horiz-adv-x="987" 
d="M272 453c0 74.667 12.8301 138.496 38.4971 191.496s69.5 98.833 131.5 137.5c7.33301 4.66699 24.333 14.334 51 29.001s47.5 26.5 62.5 35.5s34.167 22.667 57.5 41s41.5 36 54.5 53s24.5 37.833 34.5 62.5s15 50.667 15 78c0 63.333 -22.167 113.666 -66.5 150.999
s-97.166 56 -158.499 56c-60 0 -113.667 -17.333 -161 -52s-85.333 -77.334 -114 -128.001l-147 100c36.667 82.667 93.834 147.5 171.501 194.5s163.167 70.5 256.5 70.5c52.667 0 103.167 -8 151.5 -24s92.5 -39.667 132.5 -71s71.833 -73.166 95.5 -125.499
s35.5 -112.166 35.5 -179.499c0 -46 -5.66699 -87.167 -17 -123.5s-28.666 -68.166 -51.999 -95.499s-47.666 -50.666 -72.999 -69.999s-57 -39.666 -95 -60.999c-4 -2 -16.833 -9.33301 -38.5 -22s-35 -20.667 -40 -24l-34 -23c-17.667 -12 -29.334 -21.5 -35.001 -28.5
l-26 -31.5c-11.667 -14 -19.5 -27.167 -23.5 -39.5s-8 -27.333 -12 -45s-6 -36.5 -6 -56.5h-189zM278.997 -0.00390625v258h186v-258h-186z" />
    <glyph glyph-name="at" unicode="@" horiz-adv-x="1726" 
d="M1620 455c0 -21.333 -0.670898 -42.8311 -2.00391 -64.498s-4.5 -49.334 -9.5 -83.001s-11.667 -65.167 -20 -94.5s-20.333 -59.5 -36 -90.5s-34 -57.5 -55 -79.5s-47.833 -40.167 -80.5 -54.5s-68.667 -21.5 -108 -21.5c-34 0 -63.167 4.83301 -87.5 14.5
s-43.166 23.5 -56.499 41.5s-23.166 36.5 -29.499 55.5s-10.833 40.5 -13.5 64.5c-41.333 -43.333 -92.5 -78 -153.5 -104s-125.833 -39 -194.5 -39c-98 0 -174.333 26.167 -229 78.5s-82 120.5 -82 204.5c0 42 7.5 80 22.5 114s34.667 61.667 59 83
s53.333 39.166 87 53.499s68 24.5 103 30.5s71.5 9 109.5 9c85.333 0 166.333 -15 243 -45c0 90.667 -17.5 159.834 -52.5 207.501s-97.833 71.5 -188.5 71.5c-108.667 0 -201.667 -30.667 -279 -92l-45 123c103.333 68 218 102 344 102c46.667 0 88.5 -4.66699 125.5 -14
s68 -21.5 93 -36.5s46.5 -34.167 64.5 -57.5s32 -46.5 42 -69.5s17.833 -50 23.5 -81s9.16699 -58.5 10.5 -82.5s2 -51.667 2 -83v-221c0 -28 0.5 -51.333 1.5 -70s3.5 -38.5 7.5 -59.5s9.5 -37.5 16.5 -49.5s17 -22 30 -30s28.5 -12 46.5 -12
c36.667 0 68.334 13.667 95.001 41s46.5 62.333 59.5 105s22.333 83.834 28 123.501s8.5 78.167 8.5 115.5c0 128 -28.167 243.833 -84.5 347.5s-135.5 185.334 -237.5 245.001s-216.667 89.5 -344 89.5c-94 0 -182 -16.833 -264 -50.5s-152.333 -80 -211 -139
s-104.834 -130 -138.501 -213s-50.5 -172.167 -50.5 -267.5c0 -92.667 16 -180.334 48 -263.001s76 -154.334 132 -215.001s124.333 -108.834 205 -144.501s167.667 -53.5 261 -53.5c58 0 110.833 6.5 158.5 19.5s100.5 32.5 158.5 58.5l33 -90
c-112 -54.667 -229.333 -82 -352 -82c-101.333 0 -197.5 19 -288.5 57s-170 90.5 -237 157.5s-120.167 148.667 -159.5 245s-59 199.833 -59 310.5c0 93.333 13.667 180.833 41 262.5s65.333 152.667 114 213s105.334 112.5 170.001 156.5s134.834 77 210.501 99
s153.834 33 234.501 33c101.333 0 197.666 -17.833 288.999 -53.5s172 -86 242 -151s125.667 -147.333 167 -247s62 -209.167 62 -328.5zM1085 340.002l-0.00195312 78c-1.33301 0 -17.333 4.5 -48 13.5s-62.167 16.167 -94.5 21.5s-65.166 8 -98.499 8
c-72.667 0 -131.167 -13.667 -175.5 -41s-66.5 -71 -66.5 -131c0 -48.667 16.5 -88.5 49.5 -119.5s77.833 -46.5 134.5 -46.5c62.667 0 124.334 14.333 185.001 43c76 36 114 94 114 174z" />
    <glyph glyph-name="A" unicode="A" horiz-adv-x="1382" 
d="M584 1454h217l565 -1454h-242l-153 395h-561l-152 -395h-244zM926 565l-234 637l-241 -637h475z" />
    <glyph glyph-name="B" unicode="B" horiz-adv-x="1382" 
d="M858 0l-694 -0.00195312v1454h749c65.333 0 124 -18.5 176 -55.5s91 -83.333 117 -139s39 -114.5 39 -176.5c0 -72.667 -18.667 -140 -56 -202s-88.333 -107.333 -153 -136c84 -24.667 150.167 -69.667 198.5 -135s72.5 -143.666 72.5 -234.999
c0 -113.333 -43.167 -204.166 -129.5 -272.499s-192.833 -102.5 -319.5 -102.5zM393 1255v-427.999h422c56.667 0 104.334 20.167 143.001 60.5s58 91.166 58 152.499c0 62.667 -17.833 114.167 -53.5 154.5s-80.834 60.5 -135.501 60.5h-434zM872 642.999
l-479 -0.000976562v-444h465c60 0 110.5 21.5 151.5 64.5s61.5 94.5 61.5 154.5c0 60.667 -19 113.334 -57 158.001s-85.333 67 -142 67z" />
    <glyph glyph-name="C" unicode="C" horiz-adv-x="1400" 
d="M776 1462c127.333 0 239.171 -28.8359 335.504 -86.5029s168.833 -134.5 217.5 -230.5l-180 -121c-19.333 42 -43.666 78.5 -72.999 109.5s-61.333 55 -96 72s-69.5 29.5 -104.5 37.5s-70.833 12 -107.5 12c-58.667 0 -113.334 -10.167 -164.001 -30.5
s-94 -47.5 -130 -81.5s-67 -73.667 -93 -119s-45.167 -93 -57.5 -143s-18.5 -100.667 -18.5 -152c0 -94 19.833 -181.667 59.5 -263s95.834 -146.833 168.501 -196.5s153 -74.5 241 -74.5c50 0 98.833 7.83301 146.5 23.5s93.667 42 138 79s78.5 82.5 102.5 136.5l191 -108
c-28.667 -69.333 -75.334 -130.333 -140.001 -183s-135.667 -91.667 -213 -117s-155 -38 -233 -38c-98.667 0 -191.834 21.667 -279.501 65s-161.334 100.333 -221.001 171s-106.834 150.834 -141.501 240.501s-52 180.5 -52 272.5c0 70.667 10 140.834 30 210.501
s50.167 135.334 90.5 197.001s88.166 116.167 143.499 163.5s121 84.833 197 112.5s157 41.5 243 41.5z" />
    <glyph glyph-name="D" unicode="D" horiz-adv-x="1466" 
d="M164 0v1454h516c114 0 216.5 -18.833 307.5 -56.5s165.5 -89.667 223.5 -156s102.167 -143 132.5 -230s45.5 -181.167 45.5 -282.5c0 -220 -64.5 -396.5 -193.5 -529.5s-300.833 -199.5 -515.5 -199.5h-516zM680 1251h-287v-1048h287c100 0 186.167 23.167 258.5 69.5
s126.5 108.833 162.5 187.5s54 168.334 54 269.001c0 155.333 -42.167 281.166 -126.5 377.499s-200.5 144.5 -348.5 144.5z" />
    <glyph glyph-name="E" unicode="E" horiz-adv-x="1234" 
d="M1161 203v-203h-997v1454h979v-203h-750v-413h649v-191h-649v-444h768z" />
    <glyph glyph-name="F" unicode="F" horiz-adv-x="1185" 
d="M164 0v1454h969v-203h-740v-434h619v-190h-619v-627h-229z" />
    <glyph glyph-name="G" unicode="G" horiz-adv-x="1472" 
d="M877 735h497.003v-735h-192v180c-120.667 -126.667 -262 -190 -424 -190c-94 0 -183.5 20.333 -268.5 61s-157.667 94.667 -218 162s-108.333 146.5 -144 237.5s-53.5 185.167 -53.5 282.5s17.667 190.833 53 280.5s83.166 167.5 143.499 233.5
s133.666 118.667 219.999 158s178.166 59 275.499 59c134 0 248.833 -28.167 344.5 -84.5s168.5 -133.833 218.5 -232.5l-176 -127c-39.333 77.333 -93.333 136.166 -162 176.499s-145.667 60.5 -231 60.5c-88.667 0 -168 -24.833 -238 -74.5s-123.333 -114.667 -160 -195
s-55 -167.166 -55 -260.499c0 -147.333 45 -272.5 135 -375.5s201.333 -154.5 334 -154.5c150.667 0 286 71 406 213v155h-305v170z" />
    <glyph glyph-name="H" unicode="H" horiz-adv-x="1521" 
d="M1358 1454v-1454h-232v641h-733v-641h-229v1454h229v-608h733v608h232z" />
    <glyph glyph-name="I" unicode="I" horiz-adv-x="557" 
d="M164 0v1454h229v-1454h-229z" />
    <glyph glyph-name="J" unicode="J" horiz-adv-x="999" 
d="M76 256c26 -18.667 61.833 -35.333 107.5 -50s96.5 -22 152.5 -22c48 0 88.667 6.5 122 19.5s60.666 31.5 81.999 55.5s38 57 50 99s20.167 88.167 24.5 138.5s6.5 112.166 6.5 185.499v772h231v-739c0 -59.333 -1.16699 -111.833 -3.5 -157.5s-6.5 -92.667 -12.5 -141
s-14.667 -90.666 -26 -126.999s-25.666 -71.833 -42.999 -106.5s-38.833 -64 -64.5 -88s-55.5 -45.167 -89.5 -63.5s-73.667 -32 -119 -41s-96 -13.5 -152 -13.5c-126 0 -233.333 30.333 -322 91z" />
    <glyph glyph-name="K" unicode="K" horiz-adv-x="1351" 
d="M164 0v1452h229v-747l684 749h254l-573 -643l606 -811h-260l-492 666l-219 -228v-438h-229z" />
    <glyph glyph-name="L" unicode="L" horiz-adv-x="1196" 
d="M164 0v1454h229v-1251h781v-203h-1010z" />
    <glyph glyph-name="M" unicode="M" horiz-adv-x="1781" 
d="M1386 0v1036l-428 -786h-135l-430 786v-1036h-229v1454h246l481 -889l481 889h246v-1454h-232z" />
    <glyph glyph-name="N" unicode="N" horiz-adv-x="1570" 
d="M393 1028v-1028h-229v1454h188l824 -1051v1049h231v-1452h-201z" />
    <glyph glyph-name="O" unicode="O" 
d="M72 727c0 96 17.834 188.831 53.501 278.498s84.167 168.167 145.5 235.5s135.666 121.333 222.999 162s180 61 278 61c100.667 0 195 -21.333 283 -64s161.5 -98.834 220.5 -168.501s105.5 -148.667 139.5 -237s51 -178.166 51 -269.499
c0 -96 -17.833 -188.667 -53.5 -278s-83.834 -167.666 -144.501 -234.999s-134.667 -121.166 -222 -161.499s-180 -60.5 -278 -60.5c-81.333 0 -158.666 13.5 -231.999 40.5s-137.833 64.167 -193.5 111.5s-104 102 -145 164s-72.167 129.167 -93.5 201.5
s-32 145.5 -32 219.5zM770.001 196.998c70.667 0 135.669 15.332 195.002 45.999s108 71.167 146 121.5s67.5 106.833 88.5 169.5s31.5 127 31.5 193c0 68.667 -11.167 134.834 -33.5 198.501s-53 120 -92 169s-87.667 88 -146 117s-121.5 43.5 -189.5 43.5
c-70.667 0 -135.834 -15.167 -195.501 -45.5s-108.834 -70.5 -147.501 -120.5s-68.667 -106.333 -90 -169s-32 -127 -32 -193c0 -92 18.5 -178 55.5 -258s91.5 -145.333 163.5 -196s154 -76 246 -76z" />
    <glyph glyph-name="P" unicode="P" horiz-adv-x="1275" 
d="M164 0l0.000976562 1454h610c84 0 161.167 -23.333 231.5 -70s124.5 -106 162.5 -178s57 -147 57 -225c0 -60.667 -10.667 -119.667 -32 -177s-50.833 -108 -88.5 -152s-84.334 -79.333 -140.001 -106s-115.167 -40 -178.5 -40h-393v-506h-229zM393.001 709
l378.999 -0.000976562c64 0 116.5 25.667 157.5 77s61.5 116.333 61.5 195s-22.667 143.334 -68 194.001s-99.666 76 -162.999 76h-367v-542z" />
    <glyph glyph-name="Q" unicode="Q" horiz-adv-x="1536" 
d="M1466 725c0 -94.667 -16.833 -186 -50.5 -274s-81.5 -166 -143.5 -234l190 -217h-221l-94 106c-110.667 -77.333 -237 -116 -379 -116c-81.333 0.666992 -158.666 14.5 -231.999 41.5s-137.833 64.167 -193.5 111.5s-104 101.833 -145 163.5s-72.167 128.667 -93.5 201
s-32 145.5 -32 219.5c0 96 17.833 188.833 53.5 278.5s84.167 168.167 145.5 235.5s135.666 121.333 222.999 162s180 61 278 61c100.667 0 195 -21.333 283 -64s161.5 -98.834 220.5 -168.501s105.5 -148.667 139.5 -237s51 -178.166 51 -269.499zM770 197
c89.333 0 168.669 23.667 238.002 71l-209 238h221l106 -121c70 98.667 105 212.667 105 342c0 68.667 -11.167 135 -33.5 199s-53 120.5 -92 169.5s-87.667 88.167 -146 117.5s-121.5 44 -189.5 44c-70.667 0 -135.834 -15.333 -195.501 -46s-108.834 -71 -147.501 -121
s-68.667 -106.5 -90 -169.5s-32 -127.5 -32 -193.5c0 -92 18.5 -178 55.5 -258s91.5 -145.333 163.5 -196s154 -76 246 -76z" />
    <glyph glyph-name="R" unicode="R" horiz-adv-x="1353" 
d="M164 0l-0.000976562 1454h633c63.333 0 123.5 -13.667 180.5 -41s104.833 -63.333 143.5 -108s69.334 -95.334 92.001 -152.001s34 -114 34 -172c0 -98.667 -26 -187.834 -78 -267.501s-120.667 -133.167 -206 -160.5l342 -553h-258l-316 506h-338v-506h-229z
M392.999 709.002h402.001c63.333 0 115.666 26.5 156.999 79.5s62 117.167 62 192.5c0 74 -23.333 137.5 -70 190.5s-100.667 79.5 -162 79.5h-389v-542z" />
    <glyph glyph-name="S" unicode="S" horiz-adv-x="1251" 
d="M1024 1112c-31.333 34.667 -84.667 67.999 -160 99.999s-153 48 -233 48c-94.667 0 -165.5 -17.5 -212.5 -52.5s-70.5 -84.5 -70.5 -148.5c0 -20 2.66699 -38 8 -54s12.166 -30.167 20.499 -42.5s20.833 -24.166 37.5 -35.499s33.167 -21 49.5 -29
s38.666 -16.5 66.999 -25.5s54.833 -16.667 79.5 -23l97 -24.5c64 -15.333 118.667 -30.5 164 -45.5s89 -34 131 -57s75.667 -48.667 101 -77s45.5 -62.833 60.5 -103.5s22.5 -87 22.5 -139c0 -58 -9.16699 -110.333 -27.5 -157s-43.5 -86 -75.5 -118
s-70.667 -58.833 -116 -80.5s-94 -37.334 -146 -47.001s-108 -14.5 -168 -14.5c-110.667 0 -217.667 16.833 -321 50.5s-196.333 82.167 -279 145.5l105 197c42 -43.333 110.5 -85.166 205.5 -125.499s192.833 -60.5 293.5 -60.5c90.667 0 160.5 16 209.5 48
s73.5 78 73.5 138c0 24 -3.66699 45.667 -11 65s-20 36.833 -38 52.5s-36.5 29.167 -55.5 40.5s-46 23 -81 35s-67 22 -96 30l-117.5 31c-76.667 20 -140 40.333 -190 61s-94.167 46 -132.5 76s-66.166 65.5 -83.499 106.5s-26 89.5 -26 145.5c0 70 13.5 133.167 40.5 189.5
s64.167 102.833 111.5 139.5s103 64.667 167 84s133.667 29 209 29c178.667 0 342.334 -54.667 491.001 -164z" />
    <glyph glyph-name="T" unicode="T" horiz-adv-x="1261" 
d="M1231 1251h-483v-1251h-232v1251h-485v203h1200v-203z" />
    <glyph glyph-name="U" unicode="U" 
d="M770 -10c-90 0 -170.831 13.333 -242.498 40s-131.167 62.334 -178.5 107.001s-86.666 98.5 -117.999 161.5s-53.833 129 -67.5 198s-20.5 142.5 -20.5 220.5v737h230v-737c0 -55.333 4 -107.5 12 -156.5s21.833 -96.167 41.5 -141.5s44.167 -84 73.5 -116
s67 -57.667 113 -77s98.333 -29 157 -29c59.333 0 112.166 9.83301 158.499 29.5s84.166 45.834 113.499 78.501s53.666 71.667 72.999 117s32.833 92.166 40.5 140.499s11.5 99.833 11.5 154.5v737h232v-737c0 -102 -12 -195.833 -36 -281.5
s-60.5 -162.334 -109.5 -230.001s-114.667 -120.5 -197 -158.5s-177.833 -57 -286.5 -57z" />
    <glyph glyph-name="V" unicode="V" horiz-adv-x="1388" 
d="M256 1454l438 -1173l436 1173h244l-571 -1454h-217l-574 1454h244z" />
    <glyph glyph-name="W" unicode="W" horiz-adv-x="2152" 
d="M680 1448h215l180 -494l182 494h216l-250 -647l217 -535l452 1188h252l-596 -1454h-198l-273 651l-274 -651h-201l-594 1454h250l455 -1188l217 535z" />
    <glyph glyph-name="X" unicode="X" horiz-adv-x="1312" 
d="M256 1454l401 -571l402 571h254l-525 -737l508 -717h-254l-385 551l-385 -551h-256l508 717l-524 737h256z" />
    <glyph glyph-name="Y" unicode="Y" horiz-adv-x="1345" 
d="M270 1454l402 -723l405 723h252l-543 -934v-520h-229v524l-539 930h252z" />
    <glyph glyph-name="Z" unicode="Z" horiz-adv-x="1288" 
d="M63 176l879 1075h-858v203h1130v-176l-856 -1075h859v-203h-1154v176z" />
    <glyph glyph-name="bracketleft" unicode="[" horiz-adv-x="598" 
d="M170 -82v1598h334v-183h-125v-1233h125v-182h-334z" />
    <glyph glyph-name="backslash" unicode="\" horiz-adv-x="1253" 
d="M307 1454l891 -1454h-250l-893 1454h252z" />
    <glyph glyph-name="bracketright" unicode="]" horiz-adv-x="598" 
d="M94 -82v182h125v1233h-125v183h334v-1598h-334z" />
    <glyph glyph-name="asciicircum" unicode="^" horiz-adv-x="1165" 
d="M84 621l405 833h189l403 -833h-188l-309 639l-316 -639h-184z" />
    <glyph glyph-name="underscore" unicode="_" horiz-adv-x="1003" 
d="M121 -203v203h762v-203h-762z" />
    <glyph glyph-name="grave" unicode="`" horiz-adv-x="497" 
d="M96 1495h215l117 -225l-143 -45z" />
    <glyph glyph-name="a" unicode="a" horiz-adv-x="1155" 
d="M57 313c0 102 42.334 184.168 127.001 246.501s194.667 93.5 330 93.5c108.667 0 201.667 -14.333 279 -43v68c0 75.333 -23 134.166 -69 176.499s-110.667 63.5 -194 63.5c-57.333 0 -112.666 -10 -165.999 -30s-111.333 -50.333 -174 -91l-75 151
c142 94.667 288.667 142 440 142c144.667 0 258 -38.167 340 -114.5s123 -183.833 123 -322.5v-399c0 -25.333 4.5 -43.833 13.5 -55.5s24.167 -17.834 45.5 -18.501v-180c-36 -6.66699 -68 -10 -96 -10c-45.333 0 -80.833 11 -106.5 33s-40.834 49.667 -45.501 83l-6 62
c-46 -59.333 -104.833 -105.5 -176.5 -138.5s-145.167 -49.5 -220.5 -49.5c-106.667 0 -194.834 31.833 -264.501 95.5s-104.5 142.834 -104.5 237.501zM739.001 248.001c36 36 54.001 69.333 54.001 100v123c-78.667 30 -160.667 45 -246 45
c-82.667 0 -149.5 -16.667 -200.5 -50s-76.5 -78 -76.5 -134c0 -50.667 19.5 -94.5 58.5 -131.5s92.5 -55.5 160.5 -55.5c46.667 0 92.667 9.66699 138 29s82.666 44 111.999 74z" />
    <glyph glyph-name="b" unicode="b" horiz-adv-x="1286" 
d="M334 195l0.000976562 -194.998h-199v1495h225v-627c43.333 70 97.333 124.5 162 163.5s138.334 58.5 221.001 58.5c70 0 135 -15.333 195 -46s110.333 -71.834 151 -123.501s72.5 -111.334 95.5 -179.001s34.5 -138.167 34.5 -211.5c0 -100.667 -22 -193 -66 -277
s-104.833 -150.5 -182.5 -199.5s-163.5 -73.5 -257.5 -73.5c-80.667 0 -154.334 19.167 -221.001 57.5s-119.334 90.833 -158.001 157.5zM987.001 530.002c0 99.333 -30.167 185.334 -90.5 258.001s-135.833 109 -226.5 109c-66 0 -126.667 -21.833 -182 -65.5
s-98 -98.834 -128 -165.501v-283c16 -59.333 53.667 -109.333 113 -150s119.333 -61 180 -61c96 0 175.667 35.5 239 106.5s95 154.833 95 251.5z" />
    <glyph glyph-name="c" unicode="c" horiz-adv-x="1144" 
d="M621 -20c-108 0 -204.834 25.6709 -290.501 77.0039s-151.167 119.166 -196.5 203.499s-68 176.5 -68 276.5c0 75.333 13.167 146.5 39.5 213.5s63.166 125.667 110.499 176s106 90.166 176 119.499s146.333 44 229 44c108 0 202 -24 282 -72s140.667 -113 182 -195
l-219 -69c-25.333 44.667 -60 79.667 -104 105s-92.667 38 -146 38c-90.667 0 -166.5 -33.833 -227.5 -101.5s-91.5 -153.834 -91.5 -258.501c0 -102.667 31.333 -189.167 94 -259.5s138.334 -105.5 227.001 -105.5c55.333 0 107.333 14.167 156 42.5
s81.334 63.166 98.001 104.499l222 -65c-36 -82 -96.333 -148.167 -181 -198.5s-182 -75.5 -292 -75.5z" />
    <glyph glyph-name="d" unicode="d" horiz-adv-x="1304" 
d="M68 535c0 101.333 20.332 194.168 60.999 278.501s98.167 151.5 172.5 201.5s157.5 75 249.5 75c79.333 0 152.333 -20.5 219 -61.5s119.334 -94.5 158.001 -160.5v627h225v-1241c0 -26 4.66699 -44.667 14 -56s25 -17.333 47 -18v-180c-39.333 -6.66699 -72 -10 -98 -10
c-42 0 -77.5 12 -106.5 36s-44.5 53.667 -46.5 89l-2 80c-40.667 -67.333 -95.334 -120 -164.001 -158s-141.667 -57 -219 -57c-96.667 0 -184.167 25.167 -262.5 75.5s-139.166 117.666 -182.499 201.999s-65 176.833 -65 277.5zM927.999 385.002l-0.000976562 280.998
c-23.333 64.667 -65.333 119.334 -126 164.001s-122 67 -184 67c-61.333 0 -116.5 -17.5 -165.5 -52.5s-86.5 -80.333 -112.5 -136s-39 -115.167 -39 -178.5c0 -99.333 32.167 -183.833 96.5 -253.5s143.5 -104.5 237.5 -104.5c60.667 0 120.834 20.833 180.501 62.5
s97.167 91.834 112.5 150.501z" />
    <glyph glyph-name="e" unicode="e" horiz-adv-x="1218" 
d="M621 -20c-108.667 0 -205.667 25.332 -291 75.999s-150.666 117.667 -195.999 201s-68 175 -68 275c0 75.333 13.5 147 40.5 215s64.167 127.333 111.5 178s106.166 90.834 176.499 120.501s146.5 44.5 228.5 44.5s157.5 -15 226.5 -45s126.667 -70.167 173 -120.5
s82.333 -108.5 108 -174.5s38.5 -135 38.5 -207c0 -18.667 -2 -46 -6 -82h-858c6.66699 -92.667 41.167 -168.5 103.5 -227.5s135.833 -88.5 220.5 -88.5c61.333 0 118.333 15.167 171 45.5s89 69.833 109 118.5l193 -55c-38 -82 -100 -148.167 -186 -198.5
s-184.333 -75.5 -295 -75.5zM299 609.999h647c-8 92.667 -42.5 168.167 -103.5 226.5s-134.833 87.5 -221.5 87.5c-86 0 -159.667 -29.5 -221 -88.5s-95 -134.167 -101 -225.5z" />
    <glyph glyph-name="f" unicode="f" horiz-adv-x="729" 
d="M197 0l-0.000976562 870.002h-144v174h144v43c0 131.333 30.833 235.666 92.5 312.999s144.834 116 249.501 116c84.667 0 167.667 -22 249 -66l-49 -168c-47.333 28.667 -98.333 43 -153 43c-53.333 0 -94 -19.833 -122 -59.5s-42 -96.834 -42 -171.501v-50h274v-174
h-274v-870h-225z" />
    <glyph glyph-name="g" unicode="g" horiz-adv-x="1288" 
d="M70 535c0 101.333 20.834 194.168 62.501 278.501s100.667 151.5 177 201.5s162.166 75 257.499 75c82.667 0 156.834 -19.833 222.501 -59.5s120.5 -93.834 164.5 -162.501v203h199v-1040c0 -100.667 -25 -188.334 -75 -263.001s-117.667 -130.834 -203 -168.501
s-182.333 -56.5 -291 -56.5c-216 0 -380.667 76.667 -494 230l127 118c40 -56.667 92.5 -100.167 157.5 -130.5s134.833 -45.5 209.5 -45.5c63.333 0 120.333 10.833 171 32.5s92.167 57 124.5 106s48.5 108.167 48.5 177.5v164c-37.333 -63.333 -89.5 -113.333 -156.5 -150
s-137.833 -55 -212.5 -55c-93.333 0 -177.833 25.333 -253.5 76s-133.834 117.334 -174.501 200.001s-61 172.334 -61 269.001zM928.001 385.002l0.000976562 281.001c-26.667 67.333 -69.334 122.666 -128.001 165.999s-120 65 -184 65
c-62.667 0 -118.667 -18.167 -168 -54.5s-86.5 -82.333 -111.5 -138s-37.5 -114.5 -37.5 -176.5c0 -98 32.333 -181.833 97 -251.5s143.667 -104.5 237 -104.5c66 0 127.5 21 184.5 63s93.833 92 110.5 150z" />
    <glyph glyph-name="h" unicode="h" horiz-adv-x="1222" 
d="M1096 0l-226.001 -0.000976562v600c0 96 -17.333 168.167 -52 216.5s-84.667 72.5 -150 72.5c-62.667 0 -124.167 -24 -184.5 -72s-101.5 -108 -123.5 -180v-637h-225v1495h225v-639c41.333 72.667 97.333 129.834 168 171.501s147.334 62.5 230.001 62.5
c225.333 0 338 -145.667 338 -437v-653z" />
    <glyph glyph-name="i" unicode="i" horiz-adv-x="495" 
d="M135 1247v248h225v-248h-225zM135 0v1071h225v-1071h-225z" />
    <glyph glyph-name="j" unicode="j" horiz-adv-x="507" 
d="M147 1247v248h226v-248h-226zM-236 -299l101 152c34 -32 77.667 -48 131 -48c40.667 0 76 15 106 45s45 67 45 111v1110h226v-1094c0 -106.667 -34.167 -194.667 -102.5 -264s-150.833 -104 -247.5 -104c-104.667 0 -191 30.667 -259 92z" />
    <glyph glyph-name="k" unicode="k" horiz-adv-x="1122" 
d="M881 0l-344 494l-177 -168v-326h-225v1495h225v-942l496 516h242l-416 -448l438 -621h-239z" />
    <glyph glyph-name="l" unicode="l" horiz-adv-x="616" 
d="M137 1495l225 -0.000976562v-1186c0 -50.667 7.33301 -84.5 22 -101.5s36.334 -25.5 65.001 -25.5c50.667 0 97 9.66699 139 29l33 -178c-32.667 -14.667 -71.334 -26.5 -116.001 -35.5s-85.334 -13.5 -122.001 -13.5c-77.333 0 -137.666 21.333 -180.999 64
s-65 102.334 -65 179.001v1268z" />
    <glyph glyph-name="m" unicode="m" horiz-adv-x="1898" 
d="M1774 0l-226 0.00195312v600c0 192.667 -64 289 -192 289c-63.333 0 -121.666 -23.5 -174.999 -70.5s-91.333 -108.167 -114 -183.5v-635h-225v600c0 192.667 -63.667 289 -191 289c-63.333 0 -122 -23.333 -176 -70s-92.333 -107.334 -115 -182.001v-637h-225v1071h205
v-215c42 75.333 97.667 133.166 167 173.499s148 60.5 236 60.5c84.667 0 153.5 -22.5 206.5 -67.5s86.167 -103.833 99.5 -176.5c45.333 79.333 102.166 139.833 170.499 181.5s145.833 62.5 232.5 62.5c214.667 0 322 -145.667 322 -437v-653z" />
    <glyph glyph-name="n" unicode="n" horiz-adv-x="1222" 
d="M1096 0l-226.005 -0.000976562v600c0 99.333 -15.833 172.333 -47.5 219s-79.167 70 -142.5 70c-65.333 0 -129.166 -24.167 -191.499 -72.5s-105.166 -108.166 -128.499 -179.499v-637h-225v1071h205v-215c41.333 72 101 129 179 171s163.667 63 257 63
c50 0 93.833 -7.66699 131.5 -23s68.334 -36 92.001 -62s42.834 -58.167 57.501 -96.5s24.834 -78 30.501 -119s8.5 -86.5 8.5 -136.5v-653z" />
    <glyph glyph-name="o" unicode="o" horiz-adv-x="1232" 
d="M66 535c0 74 13.3311 144.667 39.998 212s63.334 126.333 110.001 177s104.834 91 174.501 121s144.834 45 225.501 45c108 0 204.5 -25.667 289.5 -77s149.833 -119 194.5 -203s67 -175.667 67 -275s-22.333 -191 -67 -275s-109.5 -151.667 -194.5 -203
s-181.5 -77 -289.5 -77c-82 0 -157.833 15 -227.5 45s-127.834 70.333 -174.501 121s-83 109.667 -109 177s-39 138 -39 212zM615.998 172c89.333 0 165 35.001 227 105.001s93 156 93 258s-31 187.833 -93 257.5s-137.667 104.5 -227 104.5
c-88.667 0 -164 -35.333 -226 -106s-93 -157 -93 -259c0 -102.667 30.833 -188.334 92.5 -257.001s137.167 -103 226.5 -103z" />
    <glyph glyph-name="p" unicode="p" horiz-adv-x="1286" 
d="M360 201l-0.000976562 -636.998h-225v1507h199v-192c42 65.333 95.833 116.833 161.5 154.5s138.167 56.5 217.5 56.5c71.333 0 138.666 -15 201.999 -45s117 -70 161 -120s78.833 -108.833 104.5 -176.5s38.5 -138.167 38.5 -211.5
c0 -102.667 -20 -196.334 -60 -281.001s-96.5 -151.834 -169.5 -201.501s-155.167 -74.5 -246.5 -74.5c-83.333 0 -158.166 19.833 -224.499 59.5s-119.166 93.5 -158.499 161.5zM986.999 537.002c0 100 -32 184.999 -96 254.999s-143.333 105 -238 105
c-60 0 -119.833 -20.667 -179.5 -62s-97.5 -91 -113.5 -149v-280c28 -67.333 70.667 -123.166 128 -167.499s118 -66.5 182 -66.5c61.333 0 116.5 17.5 165.5 52.5s86.5 80.167 112.5 135.5s39 114.333 39 177z" />
    <glyph glyph-name="q" unicode="q" horiz-adv-x="1286" 
d="M70 537c0 100.667 21.833 193.168 65.5 277.501s104 151.333 181 201s162.5 74.5 256.5 74.5c80 0 153.167 -19.333 219.5 -58s119.5 -90.334 159.5 -155.001v194h199v-1507h-225v637c-89.333 -147.333 -217 -221 -383 -221c-90.667 0 -172.5 25.5 -245.5 76.5
s-129.167 118.833 -168.5 203.5s-59 177 -59 277zM926 377.001v282c-13.333 63.333 -50.666 118.833 -111.999 166.5s-124.333 71.5 -189 71.5c-61.333 0 -117.333 -17.5 -168 -52.5s-89.667 -80.5 -117 -136.5s-41 -115.333 -41 -178c0 -100 30.833 -184.667 92.5 -254
s139.5 -104 233.5 -104c123.333 0 223.666 68.333 300.999 205z" />
    <glyph glyph-name="r" unicode="r" horiz-adv-x="765" 
d="M737 877c-88 -2 -165.833 -22.5 -233.5 -61.5s-115.5 -92.5 -143.5 -160.5v-655h-225v1071h209v-240c37.333 73.333 85.833 132.333 145.5 177s123.167 69 190.5 73c28.667 0 47.667 -0.666992 57 -2v-202z" />
    <glyph glyph-name="s" unicode="s" horiz-adv-x="1005" 
d="M516 -20c-91.333 0 -177.167 14.999 -257.5 44.999s-148.833 73.667 -205.5 131l84 151c118.667 -103.333 242.334 -155 371.001 -155c64.667 0 116.334 12.167 155.001 36.5s58 59.166 58 104.499c0 10.667 -1 20.667 -3 30s-5.83301 17.833 -11.5 25.5
s-11.167 14.334 -16.5 20.001s-13.5 11.334 -24.5 17.001s-20.667 10.334 -29 14.001s-20.5 8.16699 -36.5 13.5s-29.333 9.5 -40 12.5l-47.5 13c-21 5.66699 -38.167 10.5 -51.5 14.5c-62.667 19.333 -113.5 37.333 -152.5 54s-74.333 36.667 -106 60
s-54.5 50.666 -68.5 81.999s-21 68.333 -21 111c0 102 38.667 182.5 116 241.5s179.333 88.5 306 88.5c162 0 292.333 -49.333 391 -148l-97 -149c-92.667 84.667 -195 127 -307 127c-56.667 0 -103.834 -10.667 -141.501 -32s-56.5 -56 -56.5 -104
c0 -17.333 3.33301 -32.666 10 -45.999s14.667 -24.5 24 -33.5s24.833 -18.333 46.5 -28s41.334 -17.334 59.001 -23.001l79.5 -24.5l79 -23.5c20.667 -6.33301 44.167 -14 70.5 -23s47.666 -17.167 63.999 -24.5s34.166 -16.333 53.499 -27s34.833 -21.167 46.5 -31.5
s23.5 -22.333 35.5 -36s21 -28 27 -43s11 -31.833 15 -50.5s6 -39 6 -61c0 -102.667 -38.333 -183.167 -115 -241.5s-179.667 -87.5 -309 -87.5z" />
    <glyph glyph-name="t" unicode="t" horiz-adv-x="751" 
d="M731 55c-100 -47.333 -193.333 -70.999 -280 -70.999c-76 0 -138.5 20.167 -187.5 60.5s-73.5 101.166 -73.5 182.499v670h-141v174h141v352h226v-352h233v-174h-233v-598c2 -36 13.333 -63.167 34 -81.5s47.334 -27.5 80.001 -27.5c47.333 0 98.666 14.333 153.999 43z
" />
    <glyph glyph-name="u" unicode="u" horiz-adv-x="1247" 
d="M125 416l-0.00195312 655.002h225v-610c0 -95.333 17.333 -167.333 52 -216s85.667 -73 153 -73c65.333 0 126.5 20.167 183.5 60.5s100.833 97.166 131.5 170.499v668h226v-817c0 -26 4.66699 -44.667 14 -56s25 -17.333 47 -18v-180
c-39.333 -6.66699 -72.666 -10 -99.999 -10c-41.333 0 -76 11.167 -104 33.5s-43.333 51.5 -46 87.5l-4 106c-47.333 -76.667 -109.166 -135.334 -185.499 -176.001s-160.5 -61 -252.5 -61c-111.333 0 -195.833 36.833 -253.5 110.5s-86.5 182.167 -86.5 325.5z" />
    <glyph glyph-name="v" unicode="v" horiz-adv-x="1114" 
d="M434 0l-407 1071h233l305 -862l305 862h217l-407 -1071h-246z" />
    <glyph glyph-name="w" unicode="w" horiz-adv-x="1699" 
d="M1470 1071h216l-451 -1071h-193l-192 483l-193 -483h-192l-453 1071h215l344 -852l152 395l-184 455h190l121 -334l119 334h190l-182 -455l151 -395z" />
    <glyph glyph-name="x" unicode="x" horiz-adv-x="1069" 
d="M262 1071l254 -366l19 -35l18 35l252 366h244l-385 -536l389 -535h-244l-256 365l-18 32l-19 -32l-256 -365h-244l390 532l-386 539h242z" />
    <glyph glyph-name="y" unicode="y" horiz-adv-x="1120" 
d="M172 -252c48 -9.33301 84.335 -14 109.002 -14c34.667 0 63.167 16.833 85.5 50.5s53.166 105.5 92.499 215.5l-441 1071h236l328 -842l290 842h218l-486 -1319c-22.667 -64 -61.834 -116.167 -117.501 -156.5s-123.5 -60.5 -203.5 -60.5c-36 0 -73 5.33301 -111 16v197z
" />
    <glyph glyph-name="z" unicode="z" horiz-adv-x="1009" 
d="M57 141l635 770h-612v160h858v-141l-631 -770h637v-160h-887v141z" />
    <glyph glyph-name="braceleft" unicode="{" horiz-adv-x="600" 
d="M389 1333v-459c0 -52 -21.667 -97.667 -65 -137c20 -18 35.833 -39.5 47.5 -64.5s17.5 -49.167 17.5 -72.5v-481h113v-182h-271c-11.333 0 -22 4.83301 -32 14.5s-15 25.167 -15 46.5v532c0 32.667 -9 61 -27 85s-40.333 38.667 -67 44v160c26.667 0 49 13.833 67 41.5
s27 55.5 27 83.5v510c0 22 5.16699 37.833 15.5 47.5s20.833 14.5 31.5 14.5h271v-183h-113z" />
    <glyph glyph-name="bar" unicode="|" horiz-adv-x="524" 
d="M166 -266v1853h192v-1853h-192z" />
    <glyph glyph-name="braceright" unicode="}" horiz-adv-x="600" 
d="M100 1333l-0.000976562 183h269c10 0 20.333 -4.83301 31 -14.5s16 -25.5 16 -47.5v-510c0 -28 9 -55.833 27 -83.5s40.333 -41.5 67 -41.5v-160c-27.333 -5.33301 -49.833 -20 -67.5 -44s-26.5 -52.333 -26.5 -85v-532c0 -21.333 -5 -36.833 -15 -46.5
s-20.667 -14.5 -32 -14.5h-269v182h113v481c0 24 5.33301 48.5 16 73.5s26.334 46.167 47.001 63.5c-42 38 -63 83.667 -63 137v459h-113z" />
    <glyph glyph-name="asciitilde" unicode="~" horiz-adv-x="1124" 
d="M385 725c31.333 0 63.499 -5.83496 96.499 -17.502s61.333 -24.667 85 -39s50.834 -27.333 81.501 -39s59 -17.5 85 -17.5c20.667 0 39.667 3.33301 57 10s31 14.834 41 24.501s18.333 19.834 25 30.501s11.334 19.334 14.001 26.001s4 11.334 4 14.001h130
c0 -6 -2.66699 -17 -8 -33s-15 -36.167 -29 -60.5s-30.667 -47.333 -50 -69s-45.5 -40.334 -78.5 -56.001s-68.833 -23.5 -107.5 -23.5c-32 0 -65 5.83301 -99 17.5s-63 24.667 -87 39s-50.833 27.333 -80.5 39s-56.834 17.5 -81.501 17.5c-20 0 -38 -3.83301 -54 -11.5
s-28.667 -16.667 -38 -27s-17.166 -21.333 -23.499 -33s-10.5 -21 -12.5 -28s-3 -11.5 -3 -13.5h-127c0 10 2.66699 24 8 42s14.666 39.167 27.999 63.5s29.333 47.166 48 68.499s43.5 39.333 74.5 54s64.833 22 101.5 22z" />
    <glyph glyph-name="nonbreakingspace" unicode="&#xa0;" horiz-adv-x="505" 
 />
    <glyph glyph-name="exclamdown" unicode="&#xa1;" horiz-adv-x="577" 
d="M401 1460v-280h-225v280h225zM401 942v-950h-225v950h225z" />
    <glyph glyph-name="cent" unicode="&#xa2;" horiz-adv-x="1187" 
d="M565 -246v228.002c-91.333 7.33301 -174.333 38.333 -249 93s-132 122.167 -172 202.5s-60 163.833 -60 250.5c0 92.667 18.5 178.667 55.5 258s92.5 146.166 166.5 200.499s160.333 87.833 259 100.5v234h107v-234c97.333 -2.66699 183.166 -26.834 257.499 -72.501
s132.5 -109.5 174.5 -191.5l-217 -69c-24 41.333 -54.833 73.333 -92.5 96s-78.5 35.667 -122.5 39v-711c46 5.33301 91.167 21 135.5 47s72.833 57.333 85.5 94l219 -65c-23.333 -57.333 -61.666 -107.5 -114.999 -150.5s-108.333 -74.333 -165 -94s-110 -29.5 -160 -29.5
v-226h-107zM565 188.002v692.999c-76 -12 -136.667 -52.333 -182 -121s-68 -146 -68 -232c0 -80.667 23.5 -153.167 70.5 -217.5s106.833 -105.166 179.5 -122.499z" />
    <glyph glyph-name="sterling" unicode="&#xa3;" horiz-adv-x="1081" 
d="M946 197l54.998 -168.002c-73.333 -40 -150.333 -60 -231 -60c-40.667 0 -100.667 9.33301 -180 28s-140.666 28 -183.999 28c-76.667 0 -158.667 -13.667 -246 -41l-54 161c80 70.667 138.667 138.5 176 203.5s56 130.5 56 196.5c0 14 -1.33301 33 -4 57h-221v172h163
c-6 12.667 -19.167 38.834 -39.5 78.501s-34.5 68.667 -42.5 87s-16.333 43.5 -25 75.5s-13 62.333 -13 91c0 99.333 39.5 183.833 118.5 253.5s174.5 104.5 286.5 104.5c78.667 0 153.834 -19.167 225.501 -57.5s131.167 -90.833 178.5 -157.5l-121 -139
c-32.667 50.667 -75.667 91.667 -129 123s-106 47 -158 47c-56.667 0 -103.667 -18.667 -141 -56s-56 -83.666 -56 -138.999c0 -30.667 5.83301 -61.667 17.5 -93s29.667 -69.666 54 -114.999s41.5 -79.666 51.5 -102.999h373v-172h-324c2 -14 3 -29.667 3 -47
c0 -64.667 -14.333 -125.834 -43 -183.501s-77.334 -122.834 -146.001 -195.501c60 15.333 111.333 23 154 23c35.333 0 83.333 -6.16699 144 -18.5s106.667 -18.5 138 -18.5c42.667 0 97.334 11.667 164.001 35z" />
    <glyph glyph-name="currency" unicode="&#xa4;" horiz-adv-x="1116" 
d="M338 1006c62.667 43.333 136.332 65 220.999 65c81.333 0 154.333 -21.667 219 -65l144 145l98 -96l-146 -144c45.333 -64 68 -137.667 68 -221c0 -82 -23.333 -155.667 -70 -221l148 -143l-88 -86l-150 139c-65.333 -45.333 -139.666 -68 -222.999 -68
c-84 0 -159.667 22.667 -227 68l-150 -139l-86 86l146 145c-45.333 66.667 -68 139.667 -68 219c0 83.333 22 156.333 66 219l-144 146l97 96zM558.998 459c58.667 0 108.167 22.332 148.5 66.999s60.5 100 60.5 166s-20.167 120.833 -60.5 164.5s-89.833 65.5 -148.5 65.5
s-108.167 -22.167 -148.5 -66.5s-60.5 -100.166 -60.5 -167.499c0 -64.667 20.167 -119 60.5 -163s89.833 -66 148.5 -66z" />
    <glyph glyph-name="yen" unicode="&#xa5;" horiz-adv-x="1431" 
d="M979 797h158v-150h-238l-72 -127v-59h312v-150h-312v-311h-231v311h-307v150h307v63l-68 123h-239v150h162l-392 657h252l402 -729l405 729h252z" />
    <glyph glyph-name="brokenbar" unicode="&#xa6;" horiz-adv-x="528" 
d="M360 1587v-817h-192v817h192zM360 551v-817h-192v817h192z" />
    <glyph glyph-name="section" unicode="&#xa7;" horiz-adv-x="1073" 
d="M987 215c0 -54 -9.33594 -103.497 -28.0029 -148.497s-43 -82.333 -73 -112s-64.5 -55 -103.5 -76s-78.333 -36 -118 -45s-78.834 -13.5 -117.501 -13.5c-48.667 0 -96.167 6.5 -142.5 19.5s-87.666 30.5 -123.999 52.5s-67.333 43.5 -93 64.5s-49.167 43.167 -70.5 66.5
l145 139c82.667 -84.667 174.334 -127 275.001 -127c58 0 108.667 15.5 152 46.5s65 72.833 65 125.5c0 22.667 -4.16699 42.334 -12.5 59.001s-18.5 29.667 -30.5 39s-27.667 17 -47 23s-36.833 10.167 -52.5 12.5s-34.5 4.16602 -56.5 5.49902
c-129.333 8 -231 42.833 -305 104.5s-111 144.167 -111 247.5c0 63.333 15 116.666 45 159.999c-25.333 22 -47 53.5 -65 94.5s-27 86.833 -27 137.5c0 103.333 41.833 191.5 125.5 264.5s181.834 109.5 294.501 109.5c54 0 103.833 -7 149.5 -21
s85.334 -33.5 119.001 -58.5s61.5 -49 83.5 -72s43.333 -49.5 64 -79.5l-174 -82c-20.667 36.667 -51.5 64.667 -92.5 84s-86.167 29 -135.5 29c-57.333 0 -106.166 -15.833 -146.499 -47.5s-60.5 -73.167 -60.5 -124.5c0 -56.667 18.167 -96.5 54.5 -119.5
s87.166 -35.167 152.499 -36.5c42 -0.666992 82.667 -4.83398 122 -12.501s78 -19.834 116 -36.501s71 -37.5 99 -62.5s50.5 -56.667 67.5 -95s25.5 -81.5 25.5 -129.5c0 -36.667 -4.83301 -70.667 -14.5 -102s-21.167 -55.333 -34.5 -72c53.333 -42.667 80 -113 80 -211z
M695.997 483.003c14 11.333 25.333 27.498 34 48.498s13 42.5 13 64.5c0 28 -6.5 52.833 -19.5 74.5s-30 38.167 -51 49.5s-43.167 19.833 -66.5 25.5s-47 8.5 -71 8.5c-60 0 -105.333 7.33301 -136 22c-27.333 -25.333 -41 -60.666 -41 -105.999
c0 -36.667 8.16699 -66.667 24.5 -90s38.166 -39.666 65.499 -48.999s55 -16 83 -20s58.333 -8 91 -12s57.334 -9.33301 74.001 -16z" />
    <glyph glyph-name="dieresis" unicode="&#xa8;" horiz-adv-x="841" 
d="M145 1260v225h189v-225h-189zM508 1260v225h188v-225h-188z" />
    <glyph glyph-name="copyright" unicode="&#xa9;" horiz-adv-x="1716" 
d="M92 727c0 104 19.333 201.667 58 293s91.5 169.5 158.5 234.5s147.667 116.167 242 153.5s195.5 56 303.5 56c108.667 0 210.834 -18.667 306.501 -56s177.5 -88.5 245.5 -153.5s121.667 -143.167 161 -234.5s59 -189 59 -293c0 -104.667 -19.667 -202.834 -59 -294.501
s-93 -170.167 -161 -235.5s-149.833 -116.833 -245.5 -154.5s-197.834 -56.5 -306.501 -56.5c-108 0 -209.167 18.833 -303.5 56.5s-175 89.167 -242 154.5s-119.833 143.833 -158.5 235.5s-58 189.834 -58 294.501zM1520 723c0 120 -28.8311 229.166 -86.498 327.499
s-137.334 175.5 -239.001 231.5s-215.167 84 -340.5 84c-92 0 -178.833 -16.5 -260.5 -49.5s-151.334 -78 -209.001 -135s-103.334 -125 -137.001 -204s-50.5 -163.167 -50.5 -252.5c0 -88.667 16.667 -172.5 50 -251.5s78.833 -147 136.5 -204
s127.334 -102.167 209.001 -135.5s168.834 -50 261.501 -50c123.333 0 235.666 26.833 336.999 80.5s181.5 129.334 240.5 227.001s88.5 208.167 88.5 331.5zM373.002 726.999c0 48.667 6.33203 96.001 18.999 142.001s32.334 89.667 59.001 131s59 77.333 97 108
s84 55 138 73s112.667 27 176 27c100 0 187.5 -21.833 262.5 -65.5s130.167 -104.167 165.5 -181.5l-215 -68c-21.333 44.667 -51.5 76.667 -90.5 96s-79.833 29 -122.5 29c-81.333 0 -145.333 -28.5 -192 -85.5s-70 -125.5 -70 -205.5c0 -86.667 27.333 -156.5 82 -209.5
s116 -79.5 184 -79.5c44 0 86.5 11.667 127.5 35s71.5 54.666 91.5 93.999l215 -65c-29.333 -68 -82.5 -127.333 -159.5 -178s-167.167 -76 -270.5 -76c-142 0 -260.333 45.167 -355 135.5s-142 204.833 -142 343.5z" />
    <glyph glyph-name="ordfeminine" unicode="&#xaa;" horiz-adv-x="903" 
d="M88 930c0 69.333 28.5 125.832 85.5 169.499s130.167 65.5 219.5 65.5c71.333 0 133 -10.667 185 -32v45c0 50.667 -14.333 89.834 -43 117.501s-70.334 41.5 -125.001 41.5c-68.667 0 -145.334 -27.333 -230.001 -82l-53 109c95.333 62.667 195 94 299 94
c102.667 0 182.334 -26 239.001 -78s85 -126.333 85 -223v-242c0 -18 3.66699 -31 11 -39s19.333 -12.667 36 -14v-149c-27.333 -5.33301 -52.666 -8 -75.999 -8c-66.667 0 -104.334 28.667 -113.001 86l-2 43c-69.333 -89.333 -160 -134 -272 -134
c-69.333 0 -127.666 22 -174.999 66s-71 98.667 -71 164zM551 894.999c18 14 26.999 31.666 26.999 52.999v88c-43.333 19.333 -94.666 29 -153.999 29c-51.333 0 -93.166 -11.167 -125.499 -33.5s-48.5 -51.5 -48.5 -87.5c0 -33.333 12.667 -61.166 38 -83.499
s57 -33.5 95 -33.5c34 0 66.167 6.16699 96.5 18.5s54.166 28.833 71.499 49.5z" />
    <glyph glyph-name="guillemotleft" unicode="&#xab;" horiz-adv-x="1271" 
d="M78 582l528 379v-187l-348 -244l348 -235v-184l-528 358v113zM621 582l530 379v-187l-350 -244l350 -235v-184l-530 358v113z" />
    <glyph glyph-name="logicalnot" unicode="&#xac;" horiz-adv-x="1230" 
d="M1092 793v-562h-193v359h-770v203h963z" />
    <glyph glyph-name="sfthyphen" unicode="&#xad;" horiz-adv-x="1212" 
d="M125 459v203h962v-203h-962z" />
    <glyph glyph-name="registered" unicode="&#xae;" horiz-adv-x="1716" 
d="M92 727c0 104 19.333 201.667 58 293s91.5 169.5 158.5 234.5s148 116.167 243 153.5s196.5 56 304.5 56c108.667 0 210.667 -18.667 306 -56s176.833 -88.5 244.5 -153.5s121.167 -143.167 160.5 -234.5s59 -189 59 -293c0 -104.667 -19.667 -202.834 -59 -294.501
s-92.833 -170.167 -160.5 -235.5s-149.167 -116.833 -244.5 -154.5s-197.333 -56.5 -306 -56.5c-108 0 -209.5 18.833 -304.5 56.5s-176 89.167 -243 154.5s-119.833 143.833 -158.5 235.5s-58 189.834 -58 294.501zM1516 725c0 88.667 -16.666 172.499 -49.999 251.499
s-79 147 -137 204s-128 102.167 -210 135.5s-169.667 50 -263 50c-124 0 -236 -28.333 -336 -85s-177.833 -133.667 -233.5 -231s-83.5 -205 -83.5 -323c0 -119.333 27.833 -228.166 83.5 -326.499s133.5 -176 233.5 -233s212 -85.5 336 -85.5
c122.667 0 234.167 27 334.5 81s179.666 130.167 237.999 228.5s87.5 209.5 87.5 333.5zM532.001 1182l396 -0.000976562c52.667 0 101 -14.667 145 -44s77.833 -66.666 101.5 -111.999s35.5 -92.333 35.5 -141c0 -60.667 -16.833 -116 -50.5 -166
s-77.5 -83.667 -131.5 -101l219 -346h-182l-201 318h-170v-318h-162v910zM918.001 728.998c41.333 0 73.833 14.168 97.5 42.501s35.5 66.166 35.5 113.499s-13.333 85 -40 113s-60 42 -100 42h-217v-311h224z" />
    <glyph glyph-name="macron" unicode="&#xaf;" horiz-adv-x="841" 
d="M119 1319v143h606v-143h-606z" />
    <glyph glyph-name="degree" unicode="&#xb0;" horiz-adv-x="569" 
d="M285 1483c56 0 102.333 -18.167 139 -54.5s55 -81.833 55 -136.5c0 -59.333 -18.167 -107.5 -54.5 -144.5s-82.833 -55.5 -139.5 -55.5c-55.333 0 -101.666 19 -138.999 57s-56 85.667 -56 143c0 54.667 18.667 100.167 56 136.5s83.666 54.5 138.999 54.5zM203 1288
c0 -22 8 -40.999 24 -56.999c14.667 -16.667 34 -25 58 -25c25.333 0 44.333 8.33301 57 25c16.667 16.667 25 35.667 25 57c0 19.333 -8.33301 38.666 -25 57.999c-10.667 14.667 -29.667 22 -57 22c-24 0 -43.333 -7.33301 -58 -22c-16 -18 -24 -37.333 -24 -58z" />
    <glyph glyph-name="plusminus" unicode="&#xb1;" horiz-adv-x="960" 
d="M831 854v-182h-249v-271h-203v271h-250v182h250v268h203v-268h249zM129 82v182h700v-182h-700z" />
    <glyph glyph-name="twosuperior" unicode="&#xb2;" horiz-adv-x="831" 
d="M66 809c0 106 19.8311 187.835 59.498 245.502s107.834 106.167 204.501 145.5c10 4 27.833 10.667 53.5 20s44.667 16.666 57 21.999l49.5 22c20.667 9.33301 36.5 18.333 47.5 27s22.5 18.834 34.5 30.501s20.667 24.5 26 38.5s8 29 8 45c0 39.333 -16.5 71 -49.5 95
s-79.167 36 -138.5 36c-101.333 0 -186.666 -36.333 -255.999 -109l-88 99c24.667 31.333 69 62.333 133 93s140.333 46 229 46c103.333 0 182.833 -23.333 238.5 -70s83.5 -109.334 83.5 -188.001c0 -33.333 -6.5 -64.166 -19.5 -92.499s-28.333 -51.333 -46 -69
s-40.334 -34.334 -68.001 -50.001s-51.667 -27.334 -72 -35.001s-44.166 -15.5 -71.499 -23.5c-129.333 -42 -194 -107 -194 -195h461v-133h-682z" />
    <glyph glyph-name="threesuperior" unicode="&#xb3;" horiz-adv-x="819" 
d="M61 965l76 93.998c11.333 -31.333 40 -60.333 86 -87s101.333 -40 166 -40c61.333 0 112.5 11 153.5 33s61.5 52 61.5 90c0 41.333 -24.833 72.833 -74.5 94.5s-120.5 32.5 -212.5 32.5h-49v125h47c173.333 0 260 38 260 114c0 38 -18.5 67.333 -55.5 88
s-81.167 31 -132.5 31c-106.667 0 -184.334 -34.667 -233.001 -104l-88 104c27.333 38.667 71.333 69.167 132 91.5s125 33.5 193 33.5c97.333 0 177.333 -22 240 -66s94 -99.667 94 -167c0 -46.667 -15.667 -85.667 -47 -117s-76.333 -52.666 -135 -63.999
c62 -8.66699 111.667 -33.167 149 -73.5s56 -88.166 56 -143.499c0 -51.333 -16.833 -95.333 -50.5 -132s-76.667 -63.334 -129 -80.001s-110.166 -25 -173.499 -25c-86 0 -159.167 14.833 -219.5 44.5s-98.5 70.834 -114.5 123.501z" />
    <glyph glyph-name="acute" unicode="&#xb4;" horiz-adv-x="497" 
d="M244 1225l-148 45l117 225h215z" />
    <glyph glyph-name="mu" unicode="&#xb5;" horiz-adv-x="1320" 
d="M158 1071l225.002 -0.00195312v-610c0 -192.667 69.667 -289 209 -289c63.333 0 123.666 20.333 180.999 61s101.333 97.334 132 170.001v668h225v-805c0 -25.333 5.16699 -43.5 15.5 -54.5s27.166 -17.167 50.499 -18.5v-193c-40.667 -6.66699 -75.334 -10 -104.001 -10
c-43.333 0 -79 12.333 -107 37s-43 55.334 -45 92.001l-2 98c-29.333 -62 -78.166 -117 -146.499 -165s-138.833 -72 -211.5 -72c-54 0 -98.833 13.5 -134.5 40.5s-60.5 59.833 -74.5 98.5l12 -553h-225v1505z" />
    <glyph glyph-name="paragraph" unicode="&#xb6;" horiz-adv-x="1304" 
d="M649 1454l563.001 0.000976562v-172h-143v-1446h-192v606h-121v-606h-195v606c-148.667 2 -267.334 48.333 -356.001 139s-133 211.667 -133 363c0 161.333 50.5 286.666 151.5 375.999s242.833 134 425.5 134zM561.001 614.001v668.002
c-95.333 -2 -169.333 -33 -222 -93s-79 -140.333 -79 -241s28.5 -179.834 85.5 -237.501s128.833 -89.834 215.5 -96.501zM877.001 1282h-121v-668h121v668z" />
    <glyph glyph-name="periodcentered" unicode="&#xb7;" horiz-adv-x="436" 
d="M125 498v280h186v-280h-186z" />
    <glyph glyph-name="cedilla" unicode="&#xb8;" horiz-adv-x="634" 
d="M305 -395c-84.667 0 -165.334 19.6689 -242.001 59.002l58 121c52 -28.667 100.333 -43 145 -43c38.667 0 68.834 8.16699 90.501 24.5s32.5 40.166 32.5 71.499c0 30.667 -10.5 58.667 -31.5 84s-52.833 51.333 -95.5 78l78 53c62 -39.333 108.833 -78.5 140.5 -117.5
s47.5 -85.167 47.5 -138.5c0 -58.667 -19.5 -105.334 -58.5 -140.001s-93.833 -52 -164.5 -52z" />
    <glyph glyph-name="onesuperior" unicode="&#xb9;" horiz-adv-x="591" 
d="M549 944l-0.00195312 -135.001h-449v135h162v572c-16.667 -21.333 -45.5 -43.833 -86.5 -67.5s-76.833 -35.5 -107.5 -35.5v137c16 0 33.5 3.83301 52.5 11.5s36.5 16.834 52.5 27.501s30.833 21.667 44.5 33s24.334 21 32.001 29s11.834 12.667 12.501 14h137v-721h150z
" />
    <glyph glyph-name="ordmasculine" unicode="&#xba;" horiz-adv-x="913" 
d="M80 1077c0 106.667 34.667 196.834 104 270.501s160.333 110.5 273 110.5s203.667 -36.833 273 -110.5s104 -163.834 104 -270.501c0 -104 -34.833 -192.833 -104.5 -266.5s-160.5 -110.5 -272.5 -110.5s-202.833 36.833 -272.5 110.5s-104.5 162.5 -104.5 266.5z
M457 848c56.667 0 104.5 22 143.5 66s58.5 99 58.5 165s-19.5 120.833 -58.5 164.5s-86.833 65.5 -143.5 65.5s-104.667 -22.167 -144 -66.5s-59 -99.5 -59 -165.5c0 -65.333 19.667 -119.833 59 -163.5s87.333 -65.5 144 -65.5z" />
    <glyph glyph-name="guillemotright" unicode="&#xbb;" horiz-adv-x="1271" 
d="M651 469l-528 -358v184l348 235l-348 244v187l528 -379v-113zM1194 469l-528 -358v184l350 235l-350 244v187l528 -379v-113z" />
    <glyph glyph-name="onequarter" unicode="&#xbc;" horiz-adv-x="1748" 
d="M549 776l-0.00195312 -134.998h-449v135h162v572c-16.667 -21.333 -45.5 -43.833 -86.5 -67.5s-76.833 -35.5 -107.5 -35.5v135c16 0 33.5 3.83301 52.5 11.5s36.5 17 52.5 28s30.833 22.167 44.5 33.5s24.334 21.166 32.001 29.499s11.834 13.166 12.501 14.499h137
v-721h150zM167.998 82.002l575 682l541 702l107 -92l-566 -674l-553 -712zM1430 0.00195312v203h-455v127l500 518h98v-520h119v-125h-119v-203h-143zM1112 328.002h322v338z" />
    <glyph glyph-name="onehalf" unicode="&#xbd;" horiz-adv-x="1783" 
d="M549 776l-0.00195312 -134.998h-449v135h162v572c-16.667 -21.333 -45.5 -43.833 -86.5 -67.5s-76.833 -35.5 -107.5 -35.5v135c16 0 33.5 3.83301 52.5 11.5s36.5 17 52.5 28s30.833 22.167 44.5 33.5s24.334 21.166 32.001 29.499s11.834 13.166 12.501 14.499h137
v-721h150zM167.998 82.002l575 682l541 702l107 -92l-566 -674l-553 -712zM1032 0.00195312c0 106 19.334 187.832 58.001 245.499s104.667 106.167 198 145.5l61.5 24c29 11.333 50.5 20 64.5 26s32 15 54 27s38.333 23.333 49 34s20.334 24 29.001 40s13 33.333 13 52
c0 40 -16.333 72.167 -49 96.5s-78 36.5 -136 36.5c-100.667 0 -183.334 -37 -248.001 -111l-86 101c24 32 67.167 63.167 129.5 93.5s136.833 45.5 223.5 45.5c100.667 0 178 -23.333 232 -70s81 -110 81 -190c0 -33.333 -6.16699 -64 -18.5 -92s-27 -50.833 -44 -68.5
s-39 -34.167 -66 -49.5s-50.333 -26.666 -70 -33.999s-42.834 -15.333 -69.501 -24c-127.333 -41.333 -191 -106.333 -191 -195h461v-133h-676z" />
    <glyph glyph-name="threequarters" unicode="&#xbe;" horiz-adv-x="1976" 
d="M61 797l75.999 93.998c11.333 -31.333 40 -60.333 86 -87s101.333 -40 166 -40c61.333 0 112.5 11 153.5 33s61.5 52 61.5 90c0 41.333 -24.833 72.833 -74.5 94.5s-120.5 32.5 -212.5 32.5h-49v125h47c173.333 0 260 38 260 114c0 36.667 -18.667 65.667 -56 87
s-81.333 32 -132 32c-106.667 0 -184.334 -34.667 -233.001 -104l-88 104c27.333 38.667 71.333 69.167 132 91.5s125 33.5 193 33.5c96.667 0 176.5 -22.167 239.5 -66.5s94.5 -99.833 94.5 -166.5c0 -46.667 -15.667 -85.667 -47 -117s-76.333 -52.666 -135 -63.999
c62 -8.66699 111.667 -33.167 149 -73.5s56 -88.166 56 -143.499c0 -51.333 -16.833 -95.5 -50.5 -132.5s-76.667 -64 -129 -81s-110.166 -25.5 -173.499 -25.5c-85.333 0 -158.166 15.167 -218.499 45.5s-98.833 71.833 -115.5 124.5zM394.999 81.998l576 682l540 702
l107 -92l-565 -674l-553 -712zM1657 -0.00195312v203h-455v127l500 518h98v-520h119v-125h-119v-203h-143zM1339 327.998h322v338z" />
    <glyph glyph-name="questiondown" unicode="&#xbf;" horiz-adv-x="974" 
d="M700 1036v-258h-186v258h186zM707 584c0 -74.667 -12.8301 -138.829 -38.4971 -192.496s-69.5 -99.5 -131.5 -137.5c-7.33301 -4.66699 -24.333 -14.334 -51 -29.001s-47.5 -26.5 -62.5 -35.5s-34.167 -22.667 -57.5 -41s-41.5 -36 -54.5 -53s-24.5 -37.833 -34.5 -62.5
s-15 -50.667 -15 -78c0 -63.333 22.167 -113.666 66.5 -150.999s97.166 -56 158.499 -56c60 0 113.667 17.333 161 52s85.333 77.334 114 128.001l147 -100c-36.667 -82.667 -93.667 -147.334 -171 -194.001s-163 -70 -257 -70c-53.333 0 -104 8 -152 24s-92 39.5 -132 70.5
s-71.833 72.667 -95.5 125s-35.5 112.166 -35.5 179.499c0 46 5.66699 87.167 17 123.5s28.666 68.166 51.999 95.499s47.666 50.666 72.999 69.999s57 39.666 95 60.999l34 19.5c18 10.333 29.833 17.333 35.5 21l31.5 20.5c15.333 10 26 18 32 24l26 26
c11.333 11.333 19.333 22 24 32l16 35c6 13.333 10.167 27.833 12.5 43.5s3.5 32.167 3.5 49.5h189z" />
    <glyph glyph-name="Agrave" unicode="&#xc0;" horiz-adv-x="1382" 
d="M459 1876h215l117 -225l-144 -45zM584 1454h217l565 -1454h-242l-153 395h-561l-152 -395h-244zM926 565l-234 637l-241 -637h475z" />
    <glyph glyph-name="Aacute" unicode="&#xc1;" horiz-adv-x="1382" 
d="M770 1604l-147 45l116 225h215zM584 1454h217l565 -1454h-242l-153 395h-561l-152 -395h-244zM926 565l-234 637l-241 -637h475z" />
    <glyph glyph-name="Acircumflex" unicode="&#xc2;" horiz-adv-x="1382" 
d="M399 1679l213 195h162l213 -195l-121 -57l-174 129l-174 -129zM584 1454h217l565 -1454h-242l-153 395h-561l-152 -395h-244zM926 565l-234 637l-241 -637h475z" />
    <glyph glyph-name="Atilde" unicode="&#xc3;" horiz-adv-x="1382" 
d="M557 1726c-21.333 0 -39.333 -4.50195 -54 -13.502s-25 -20 -31 -33s-10 -23.667 -12 -32s-3 -14.833 -3 -19.5h-127c0 10 2 23.667 6 41s11.5 37.5 22.5 60.5s24.333 44.333 40 64s36.667 36.334 63 50.001s55.5 20.5 87.5 20.5c34 0 66.333 -7.5 97 -22.5l88 -45
c28 -15 55.667 -22.5 83 -22.5c18.667 0 35.167 3.33301 49.5 10s25.333 14.334 33 23.001s13.834 18.167 18.501 28.5s7.5 18.5 8.5 24.5s1.5 10.667 1.5 14h129c0 -8.66699 -2.16699 -21.334 -6.5 -38.001s-12.333 -36.667 -24 -60s-25.834 -45 -42.501 -65
s-39.167 -37.167 -67.5 -51.5s-59.5 -21.5 -93.5 -21.5c-35.333 0 -69 7.33301 -101 22s-61.5 29.334 -88.5 44.001s-52.5 22 -76.5 22zM584 1454h217l565 -1454h-242l-153 395h-561l-152 -395h-244zM926 564.998l-234 637l-241 -637h475z" />
    <glyph glyph-name="Adieresis" unicode="&#xc4;" horiz-adv-x="1382" 
d="M418 1640v226h188v-226h-188zM780 1640v226h189v-226h-189zM584 1454h217l565 -1454h-242l-153 395h-561l-152 -395h-244zM926 565l-234 637l-241 -637h475z" />
    <glyph glyph-name="Aring" unicode="&#xc5;" horiz-adv-x="1382" 
d="M692 1915c61.333 0 110.833 -16.833 148.5 -50.5s56.5 -78.167 56.5 -133.5c0 -54 -18.667 -97.333 -56 -130s-87 -49 -149 -49c-60 0 -108.833 16.333 -146.5 49s-56.5 76 -56.5 130c0 55.333 18.833 99.833 56.5 133.5s86.5 50.5 146.5 50.5zM600 1731
c0 -26 8.83301 -48 26.5 -66s39.5 -27 65.5 -27s48.5 9 67.5 27s28.5 40 28.5 66c0 28.667 -9 51.5 -27 68.5s-41 25.5 -69 25.5c-26 0 -47.833 -8.5 -65.5 -25.5s-26.5 -39.833 -26.5 -68.5zM584 1454h217l565 -1454h-242l-153 395h-561l-152 -395h-244zM926 565l-234 637
l-241 -637h475z" />
    <glyph glyph-name="AE" unicode="&#xc6;" horiz-adv-x="1972" 
d="M866 1454h1016v-203h-725v-409h615v-203h-615v-436h744v-203h-973v395h-490l-241 -395h-248zM911 600v590l-372 -590h372z" />
    <glyph glyph-name="Ccedilla" unicode="&#xc7;" horiz-adv-x="1400" 
d="M1352 326c-37.333 -89.333 -101.667 -163.167 -193 -221.5s-191 -95.166 -299 -110.499c70 -58.667 105 -124.334 105 -197.001c0 -58.667 -19.667 -105.334 -59 -140.001s-94.333 -52 -165 -52c-84 0 -164.333 19.667 -241 59l57 121c52 -28.667 100.333 -43 145 -43
c38.667 0 68.834 8.16699 90.501 24.5s32.5 40.166 32.5 71.499c0 53.333 -36.667 104 -110 152c-92.667 7.33301 -179.5 34 -260.5 80s-149.167 103.667 -204.5 173s-98.833 147 -130.5 233s-47.5 173 -47.5 261c0 70.667 10 140.834 30 210.501
s50.167 135.334 90.5 197.001s88.166 116.167 143.499 163.5s121 84.833 197 112.5s157 41.5 243 41.5c127.333 0 239.166 -28.833 335.499 -86.5s168.833 -134.5 217.5 -230.5l-180 -121c-19.333 42 -43.666 78.5 -72.999 109.5s-61.333 55 -96 72s-69.5 29.5 -104.5 37.5
s-70.833 12 -107.5 12c-58.667 0 -113.334 -10.167 -164.001 -30.5s-94 -47.5 -130 -81.5s-67 -73.667 -93 -119s-45.167 -93 -57.5 -143s-18.5 -100.667 -18.5 -152c0 -94 19.833 -181.667 59.5 -263s95.834 -146.833 168.501 -196.5s153 -74.5 241 -74.5
c50 0 98.833 7.83301 146.5 23.5s93.667 42 138 79s78.5 82.5 102.5 136.5z" />
    <glyph glyph-name="Egrave" unicode="&#xc8;" horiz-adv-x="1234" 
d="M442 1876h215l117 -225l-143 -45zM1161 203v-203h-997v1454h979v-203h-750v-413h649v-191h-649v-444h768z" />
    <glyph glyph-name="Eacute" unicode="&#xc9;" horiz-adv-x="1234" 
d="M754 1604l-148 45l117 225h215zM1161 203v-203h-997v1454h979v-203h-750v-413h649v-191h-649v-444h768z" />
    <glyph glyph-name="Ecircumflex" unicode="&#xca;" horiz-adv-x="1234" 
d="M383 1679l213 195h162l213 -195l-121 -57l-174 129l-174 -129zM1161 203v-203h-997v1454h979v-203h-750v-413h649v-191h-649v-444h768z" />
    <glyph glyph-name="Edieresis" unicode="&#xcb;" horiz-adv-x="1234" 
d="M401 1640v226h189v-226h-189zM764 1640v226h188v-226h-188zM1161 203v-203h-997v1454h979v-203h-750v-413h649v-191h-649v-444h768z" />
    <glyph glyph-name="Igrave" unicode="&#xcc;" horiz-adv-x="557" 
d="M45 1876h215l117 -225l-144 -45zM164 0v1454h229v-1454h-229z" />
    <glyph glyph-name="Iacute" unicode="&#xcd;" horiz-adv-x="557" 
d="M356 1604l-147 45l117 225h215zM164 0v1454h229v-1454h-229z" />
    <glyph glyph-name="Icircumflex" unicode="&#xce;" horiz-adv-x="557" 
d="M-14 1679l213 195h161l213 -195l-120 -57l-174 129l-175 -129zM164 0v1454h229v-1454h-229z" />
    <glyph glyph-name="Idieresis" unicode="&#xcf;" horiz-adv-x="557" 
d="M4 1640v226h189v-226h-189zM367 1640v226h188v-226h-188zM164 0v1454h229v-1454h-229z" />
    <glyph glyph-name="Eth" unicode="&#xd0;" horiz-adv-x="1478" 
d="M692 1454c114 0 216.5 -18.833 307.5 -56.5s165.5 -89.667 223.5 -156s102.167 -143 132.5 -230s45.5 -181.167 45.5 -282.5c0 -220 -64.5 -396.5 -193.5 -529.5s-300.833 -199.5 -515.5 -199.5h-516v645h-108v172h108v637h516zM692 203c100 0 186.167 23.167 258.5 69.5
s126.5 108.833 162.5 187.5s54 168.334 54 269.001c0 155.333 -42.167 281.166 -126.5 377.499s-200.5 144.5 -348.5 144.5h-286v-434h309v-172h-309v-442h286z" />
    <glyph glyph-name="Ntilde" unicode="&#xd1;" horiz-adv-x="1570" 
d="M651 1726c-21.333 0 -39.335 -4.50195 -54.002 -13.502s-25 -20 -31 -33s-10 -23.667 -12 -32s-3 -14.833 -3 -19.5h-127c0 10 2 23.667 6 41s11.5 37.5 22.5 60.5s24.333 44.333 40 64s36.667 36.334 63 50.001s55.5 20.5 87.5 20.5c34 0 66.333 -7.5 97 -22.5l88 -45
c28 -15 55.667 -22.5 83 -22.5c18.667 0 35.167 3.33301 49.5 10s25.333 14.334 33 23.001s13.834 18.167 18.501 28.5s7.5 18.5 8.5 24.5s1.5 10.667 1.5 14h129c0 -8.66699 -2.16699 -21.334 -6.5 -38.001s-12.166 -36.667 -23.499 -60s-25.333 -45 -42 -65
s-39.167 -37.167 -67.5 -51.5s-59.5 -21.5 -93.5 -21.5c-35.333 0 -69 7.33301 -101 22s-61.667 29.334 -89 44.001s-53 22 -77 22zM392.998 1028v-1028h-229v1454h188l824 -1051v1049h231v-1452h-201z" />
    <glyph glyph-name="Ograve" unicode="&#xd2;" 
d="M539 1876h215l116 -225l-143 -45zM72 727c0 96 17.834 188.831 53.501 278.498s84.167 168.167 145.5 235.5s135.666 121.333 222.999 162s180 61 278 61c100.667 0 195 -21.333 283 -64s161.5 -98.834 220.5 -168.501s105.5 -148.667 139.5 -237
s51 -178.166 51 -269.499c0 -96 -17.833 -188.667 -53.5 -278s-83.834 -167.666 -144.501 -234.999s-134.667 -121.166 -222 -161.499s-180 -60.5 -278 -60.5c-81.333 0 -158.666 13.5 -231.999 40.5s-137.833 64.167 -193.5 111.5s-104 102 -145 164
s-72.167 129.167 -93.5 201.5s-32 145.5 -32 219.5zM770.001 196.998c70.667 0 135.669 15.332 195.002 45.999s108 71.167 146 121.5s67.5 106.833 88.5 169.5s31.5 127 31.5 193c0 68.667 -11.167 134.834 -33.5 198.501s-53 120 -92 169s-87.667 88 -146 117
s-121.5 43.5 -189.5 43.5c-70.667 0 -135.834 -15.167 -195.501 -45.5s-108.834 -70.5 -147.501 -120.5s-68.667 -106.333 -90 -169s-32 -127 -32 -193c0 -92 18.5 -178 55.5 -258s91.5 -145.333 163.5 -196s154 -76 246 -76z" />
    <glyph glyph-name="Oacute" unicode="&#xd3;" 
d="M850 1604l-148 45l117 225h215zM72 727c0 96 17.834 188.831 53.501 278.498s84.167 168.167 145.5 235.5s135.666 121.333 222.999 162s180 61 278 61c100.667 0 195 -21.333 283 -64s161.5 -98.834 220.5 -168.501s105.5 -148.667 139.5 -237s51 -178.166 51 -269.499
c0 -96 -17.833 -188.667 -53.5 -278s-83.834 -167.666 -144.501 -234.999s-134.667 -121.166 -222 -161.499s-180 -60.5 -278 -60.5c-81.333 0 -158.666 13.5 -231.999 40.5s-137.833 64.167 -193.5 111.5s-104 102 -145 164s-72.167 129.167 -93.5 201.5
s-32 145.5 -32 219.5zM770.001 196.998c70.667 0 135.669 15.332 195.002 45.999s108 71.167 146 121.5s67.5 106.833 88.5 169.5s31.5 127 31.5 193c0 68.667 -11.167 134.834 -33.5 198.501s-53 120 -92 169s-87.667 88 -146 117s-121.5 43.5 -189.5 43.5
c-70.667 0 -135.834 -15.167 -195.501 -45.5s-108.834 -70.5 -147.501 -120.5s-68.667 -106.333 -90 -169s-32 -127 -32 -193c0 -92 18.5 -178 55.5 -258s91.5 -145.333 163.5 -196s154 -76 246 -76z" />
    <glyph glyph-name="Ocircumflex" unicode="&#xd4;" 
d="M479 1679l213 195h162l213 -195l-121 -57l-174 129l-174 -129zM72 727c0 96 17.834 188.831 53.501 278.498s84.167 168.167 145.5 235.5s135.666 121.333 222.999 162s180 61 278 61c100.667 0 195 -21.333 283 -64s161.5 -98.834 220.5 -168.501
s105.5 -148.667 139.5 -237s51 -178.166 51 -269.499c0 -96 -17.833 -188.667 -53.5 -278s-83.834 -167.666 -144.501 -234.999s-134.667 -121.166 -222 -161.499s-180 -60.5 -278 -60.5c-81.333 0 -158.666 13.5 -231.999 40.5s-137.833 64.167 -193.5 111.5
s-104 102 -145 164s-72.167 129.167 -93.5 201.5s-32 145.5 -32 219.5zM770.001 196.998c70.667 0 135.669 15.332 195.002 45.999s108 71.167 146 121.5s67.5 106.833 88.5 169.5s31.5 127 31.5 193c0 68.667 -11.167 134.834 -33.5 198.501s-53 120 -92 169
s-87.667 88 -146 117s-121.5 43.5 -189.5 43.5c-70.667 0 -135.834 -15.167 -195.501 -45.5s-108.834 -70.5 -147.501 -120.5s-68.667 -106.333 -90 -169s-32 -127 -32 -193c0 -92 18.5 -178 55.5 -258s91.5 -145.333 163.5 -196s154 -76 246 -76z" />
    <glyph glyph-name="Otilde" unicode="&#xd5;" 
d="M637 1726c-21.333 0 -39.333 -4.50195 -54 -13.502s-25 -20 -31 -33s-10 -23.667 -12 -32s-3 -14.833 -3 -19.5h-127c0 10 2 23.667 6 41s11.5 37.5 22.5 60.5s24.333 44.333 40 64s36.667 36.334 63 50.001s55.5 20.5 87.5 20.5c34 0 66.333 -7.5 97 -22.5l88 -45
c28 -15 55.667 -22.5 83 -22.5c18.667 0 35.167 3.33301 49.5 10s25.333 14.334 33 23.001s13.834 18.167 18.501 28.5s7.5 18.5 8.5 24.5s1.5 10.667 1.5 14h129c0 -8.66699 -2.16699 -21.334 -6.5 -38.001s-12.333 -36.667 -24 -60s-25.834 -45 -42.501 -65
s-39.167 -37.167 -67.5 -51.5s-59.5 -21.5 -93.5 -21.5c-35.333 0 -69 7.33301 -101 22s-61.5 29.334 -88.5 44.001s-52.5 22 -76.5 22zM72 726.998c0 96 17.834 188.831 53.501 278.498s84.167 168.167 145.5 235.5s135.666 121.333 222.999 162s180 61 278 61
c100.667 0 195 -21.333 283 -64s161.5 -98.834 220.5 -168.501s105.5 -148.667 139.5 -237s51 -178.166 51 -269.499c0 -96 -17.833 -188.667 -53.5 -278s-83.834 -167.666 -144.501 -234.999s-134.667 -121.166 -222 -161.499s-180 -60.5 -278 -60.5
c-81.333 0 -158.666 13.5 -231.999 40.5s-137.833 64.167 -193.5 111.5s-104 102 -145 164s-72.167 129.167 -93.5 201.5s-32 145.5 -32 219.5zM770.001 196.996c70.667 0 135.669 15.332 195.002 45.999s108 71.167 146 121.5s67.5 106.833 88.5 169.5s31.5 127 31.5 193
c0 68.667 -11.167 134.834 -33.5 198.501s-53 120 -92 169s-87.667 88 -146 117s-121.5 43.5 -189.5 43.5c-70.667 0 -135.834 -15.167 -195.501 -45.5s-108.834 -70.5 -147.501 -120.5s-68.667 -106.333 -90 -169s-32 -127 -32 -193c0 -92 18.5 -178 55.5 -258
s91.5 -145.333 163.5 -196s154 -76 246 -76z" />
    <glyph glyph-name="Odieresis" unicode="&#xd6;" 
d="M498 1640v226h188v-226h-188zM860 1640v226h189v-226h-189zM72 727c0 96 17.834 188.831 53.501 278.498s84.167 168.167 145.5 235.5s135.666 121.333 222.999 162s180 61 278 61c100.667 0 195 -21.333 283 -64s161.5 -98.834 220.5 -168.501
s105.5 -148.667 139.5 -237s51 -178.166 51 -269.499c0 -96 -17.833 -188.667 -53.5 -278s-83.834 -167.666 -144.501 -234.999s-134.667 -121.166 -222 -161.499s-180 -60.5 -278 -60.5c-81.333 0 -158.666 13.5 -231.999 40.5s-137.833 64.167 -193.5 111.5
s-104 102 -145 164s-72.167 129.167 -93.5 201.5s-32 145.5 -32 219.5zM770.001 196.998c70.667 0 135.669 15.332 195.002 45.999s108 71.167 146 121.5s67.5 106.833 88.5 169.5s31.5 127 31.5 193c0 68.667 -11.167 134.834 -33.5 198.501s-53 120 -92 169
s-87.667 88 -146 117s-121.5 43.5 -189.5 43.5c-70.667 0 -135.834 -15.167 -195.501 -45.5s-108.834 -70.5 -147.501 -120.5s-68.667 -106.333 -90 -169s-32 -127 -32 -193c0 -92 18.5 -178 55.5 -258s91.5 -145.333 163.5 -196s154 -76 246 -76z" />
    <glyph glyph-name="multiply" unicode="&#xd7;" horiz-adv-x="962" 
d="M848 336l-141 -139l-226 223l-225 -223l-139 141l221 223l-215 219l141 140l217 -218l219 220l140 -142l-217 -219z" />
    <glyph glyph-name="Oslash" unicode="&#xd8;" horiz-adv-x="1538" 
d="M1255 1253c66.667 -70.667 118.502 -152.169 155.502 -244.502s55.5 -186.833 55.5 -283.5c0 -96 -17.833 -188.667 -53.5 -278s-83.834 -167.666 -144.501 -234.999s-134.667 -121.166 -222 -161.499s-180 -60.5 -278 -60.5c-115.333 0 -223.333 27.333 -324 82l-49 -72
h-250l138 199c-66.667 69.333 -118.5 150.333 -155.5 243s-55.5 187.667 -55.5 285c0 96 17.833 188.833 53.5 278.5s84.167 168.167 145.5 235.5s135.666 121.333 222.999 162s180 61 278 61c116 0 222.667 -28 320 -84l51 74h250zM305.002 726.998
c0 -129.333 35.0029 -243.333 105.003 -342l563 819c-60.667 34 -128.334 51 -203.001 51c-70.667 0 -135.834 -15.167 -195.501 -45.5s-108.834 -70.5 -147.501 -120.5s-68.667 -106.333 -90 -169s-32 -127 -32 -193zM770.005 196.998c70.667 0 135.667 15.333 195 46
s108 71.167 146 121.5s67.5 106.833 88.5 169.5s31.5 127 31.5 193c0 130 -35 243.333 -105 340l-561 -819c60.667 -34 129 -51 205 -51z" />
    <glyph glyph-name="Ugrave" unicode="&#xd9;" 
d="M537 1876h215l116 -225l-143 -45zM770 -10c-90 0 -170.831 13.333 -242.498 40s-131.167 62.334 -178.5 107.001s-86.666 98.5 -117.999 161.5s-53.833 129 -67.5 198s-20.5 142.5 -20.5 220.5v737h230v-737c0 -55.333 4 -107.5 12 -156.5s21.833 -96.167 41.5 -141.5
s44.167 -84 73.5 -116s67 -57.667 113 -77s98.333 -29 157 -29c59.333 0 112.166 9.83301 158.499 29.5s84.166 45.834 113.499 78.501s53.666 71.667 72.999 117s32.833 92.166 40.5 140.499s11.5 99.833 11.5 154.5v737h232v-737c0 -102 -12 -195.833 -36 -281.5
s-60.5 -162.334 -109.5 -230.001s-114.667 -120.5 -197 -158.5s-177.833 -57 -286.5 -57z" />
    <glyph glyph-name="Uacute" unicode="&#xda;" 
d="M848 1604l-148 45l117 225h215zM770 -10c-90 0 -170.831 13.333 -242.498 40s-131.167 62.334 -178.5 107.001s-86.666 98.5 -117.999 161.5s-53.833 129 -67.5 198s-20.5 142.5 -20.5 220.5v737h230v-737c0 -55.333 4 -107.5 12 -156.5s21.833 -96.167 41.5 -141.5
s44.167 -84 73.5 -116s67 -57.667 113 -77s98.333 -29 157 -29c59.333 0 112.166 9.83301 158.499 29.5s84.166 45.834 113.499 78.501s53.666 71.667 72.999 117s32.833 92.166 40.5 140.499s11.5 99.833 11.5 154.5v737h232v-737c0 -102 -12 -195.833 -36 -281.5
s-60.5 -162.334 -109.5 -230.001s-114.667 -120.5 -197 -158.5s-177.833 -57 -286.5 -57z" />
    <glyph glyph-name="Ucircumflex" unicode="&#xdb;" 
d="M477 1679l213 195h162l213 -195l-121 -57l-174 129l-174 -129zM770 -10c-90 0 -170.831 13.333 -242.498 40s-131.167 62.334 -178.5 107.001s-86.666 98.5 -117.999 161.5s-53.833 129 -67.5 198s-20.5 142.5 -20.5 220.5v737h230v-737c0 -55.333 4 -107.5 12 -156.5
s21.833 -96.167 41.5 -141.5s44.167 -84 73.5 -116s67 -57.667 113 -77s98.333 -29 157 -29c59.333 0 112.166 9.83301 158.499 29.5s84.166 45.834 113.499 78.501s53.666 71.667 72.999 117s32.833 92.166 40.5 140.499s11.5 99.833 11.5 154.5v737h232v-737
c0 -102 -12 -195.833 -36 -281.5s-60.5 -162.334 -109.5 -230.001s-114.667 -120.5 -197 -158.5s-177.833 -57 -286.5 -57z" />
    <glyph glyph-name="Udieresis" unicode="&#xdc;" 
d="M496 1640v226h188v-226h-188zM858 1640v226h189v-226h-189zM770 -10c-90 0 -170.831 13.333 -242.498 40s-131.167 62.334 -178.5 107.001s-86.666 98.5 -117.999 161.5s-53.833 129 -67.5 198s-20.5 142.5 -20.5 220.5v737h230v-737c0 -55.333 4 -107.5 12 -156.5
s21.833 -96.167 41.5 -141.5s44.167 -84 73.5 -116s67 -57.667 113 -77s98.333 -29 157 -29c59.333 0 112.166 9.83301 158.499 29.5s84.166 45.834 113.499 78.501s53.666 71.667 72.999 117s32.833 92.166 40.5 140.499s11.5 99.833 11.5 154.5v737h232v-737
c0 -102 -12 -195.833 -36 -281.5s-60.5 -162.334 -109.5 -230.001s-114.667 -120.5 -197 -158.5s-177.833 -57 -286.5 -57z" />
    <glyph glyph-name="Yacute" unicode="&#xdd;" horiz-adv-x="1345" 
d="M750 1604l-148 45l117 225h215zM270 1454l402 -723l405 723h252l-543 -934v-520h-229v524l-539 930h252z" />
    <glyph glyph-name="Thorn" unicode="&#xde;" horiz-adv-x="1236" 
d="M1190 709c0 -82.667 -18 -160 -54 -232s-88 -130.667 -156 -176s-144.667 -68 -230 -68h-357v-233h-229v1454h229v-272h346c84 0 161.167 -23.333 231.5 -70s124.5 -106 162.5 -178s57 -147 57 -225zM958 709c0 75.333 -22.668 139.167 -68.001 191.5
s-99.666 78.5 -162.999 78.5h-334v-541h346c64 0 116.5 26.667 157.5 80s61.5 117 61.5 191z" />
    <glyph glyph-name="germandbls" unicode="&#xdf;" horiz-adv-x="1136" 
d="M500 195c104 2 186.333 24 247 66s91 105.333 91 190c0 78 -25.667 140.167 -77 186.5s-116.666 69.5 -195.999 69.5h-41v204h39c57.333 0 103.5 16.833 138.5 50.5s52.5 77.834 52.5 132.501c0 58.667 -19.167 102.667 -57.5 132s-83.5 44 -135.5 44
c-70.667 0 -123.5 -23.833 -158.5 -71.5s-52.5 -105.167 -52.5 -172.5v-1026h-215v1065c0 115.333 41.333 210.333 124 285s187.334 112 314.001 112c114 0 208.167 -30.667 282.5 -92s111.5 -142 111.5 -242c0 -70.667 -18.667 -135 -56 -193s-82.333 -95.333 -135 -112
c91.333 -22.667 163.666 -69.667 216.999 -141s80 -156 80 -254c0 -72 -14.833 -136.167 -44.5 -192.5s-70.834 -101.833 -123.501 -136.5s-113 -61.334 -181 -80.001s-142.667 -29 -224 -31v207z" />
    <glyph glyph-name="agrave" unicode="&#xe0;" horiz-adv-x="1155" 
d="M317 1497h215l117 -225l-143 -45zM57 313c0 102 42.334 184.168 127.001 246.501s194.667 93.5 330 93.5c108.667 0 201.667 -14.333 279 -43v68c0 75.333 -23 134.166 -69 176.499s-110.667 63.5 -194 63.5c-57.333 0 -112.666 -10 -165.999 -30
s-111.333 -50.333 -174 -91l-75 151c142 94.667 288.667 142 440 142c144.667 0 258 -38.167 340 -114.5s123 -183.833 123 -322.5v-399c0 -25.333 4.5 -43.833 13.5 -55.5s24.167 -17.834 45.5 -18.501v-180c-36 -6.66699 -68 -10 -96 -10c-45.333 0 -80.833 11 -106.5 33
s-40.834 49.667 -45.501 83l-6 62c-46 -59.333 -104.833 -105.5 -176.5 -138.5s-145.167 -49.5 -220.5 -49.5c-106.667 0 -194.834 31.833 -264.501 95.5s-104.5 142.834 -104.5 237.501zM739.001 248.001c36 36 54.001 69.333 54.001 100v123
c-78.667 30 -160.667 45 -246 45c-82.667 0 -149.5 -16.667 -200.5 -50s-76.5 -78 -76.5 -134c0 -50.667 19.5 -94.5 58.5 -131.5s92.5 -55.5 160.5 -55.5c46.667 0 92.667 9.66699 138 29s82.666 44 111.999 74z" />
    <glyph glyph-name="aacute" unicode="&#xe1;" horiz-adv-x="1155" 
d="M629 1225l-148 45l117 225h215zM57 313c0 102 42.334 184.168 127.001 246.501s194.667 93.5 330 93.5c108.667 0 201.667 -14.333 279 -43v68c0 75.333 -23 134.166 -69 176.499s-110.667 63.5 -194 63.5c-57.333 0 -112.666 -10 -165.999 -30
s-111.333 -50.333 -174 -91l-75 151c142 94.667 288.667 142 440 142c144.667 0 258 -38.167 340 -114.5s123 -183.833 123 -322.5v-399c0 -25.333 4.5 -43.833 13.5 -55.5s24.167 -17.834 45.5 -18.501v-180c-36 -6.66699 -68 -10 -96 -10c-45.333 0 -80.833 11 -106.5 33
s-40.834 49.667 -45.501 83l-6 62c-46 -59.333 -104.833 -105.5 -176.5 -138.5s-145.167 -49.5 -220.5 -49.5c-106.667 0 -194.834 31.833 -264.501 95.5s-104.5 142.834 -104.5 237.501zM739.001 248.001c36 36 54.001 69.333 54.001 100v123
c-78.667 30 -160.667 45 -246 45c-82.667 0 -149.5 -16.667 -200.5 -50s-76.5 -78 -76.5 -134c0 -50.667 19.5 -94.5 58.5 -131.5s92.5 -55.5 160.5 -55.5c46.667 0 92.667 9.66699 138 29s82.666 44 111.999 74z" />
    <glyph glyph-name="acircumflex" unicode="&#xe2;" horiz-adv-x="1155" 
d="M258 1300l213 195h162l213 -195l-121 -57l-174 129l-174 -129zM57 313c0 102 42.334 184.168 127.001 246.501s194.667 93.5 330 93.5c108.667 0 201.667 -14.333 279 -43v68c0 75.333 -23 134.166 -69 176.499s-110.667 63.5 -194 63.5
c-57.333 0 -112.666 -10 -165.999 -30s-111.333 -50.333 -174 -91l-75 151c142 94.667 288.667 142 440 142c144.667 0 258 -38.167 340 -114.5s123 -183.833 123 -322.5v-399c0 -25.333 4.5 -43.833 13.5 -55.5s24.167 -17.834 45.5 -18.501v-180
c-36 -6.66699 -68 -10 -96 -10c-45.333 0 -80.833 11 -106.5 33s-40.834 49.667 -45.501 83l-6 62c-46 -59.333 -104.833 -105.5 -176.5 -138.5s-145.167 -49.5 -220.5 -49.5c-106.667 0 -194.834 31.833 -264.501 95.5s-104.5 142.834 -104.5 237.501zM739.001 248.001
c36 36 54.001 69.333 54.001 100v123c-78.667 30 -160.667 45 -246 45c-82.667 0 -149.5 -16.667 -200.5 -50s-76.5 -78 -76.5 -134c0 -50.667 19.5 -94.5 58.5 -131.5s92.5 -55.5 160.5 -55.5c46.667 0 92.667 9.66699 138 29s82.666 44 111.999 74z" />
    <glyph glyph-name="atilde" unicode="&#xe3;" horiz-adv-x="1155" 
d="M416 1348c-17.333 0 -32.501 -3.16699 -45.501 -9.5s-23 -13.833 -30 -22.5s-12.5 -18.334 -16.5 -29.001s-6.5 -18.834 -7.5 -24.501s-1.5 -10.167 -1.5 -13.5h-127c0 10 2 23.667 6 41s11.5 37.5 22.5 60.5s24.333 44.333 40 64s36.834 36.334 63.501 50.001
s56 20.5 88 20.5c34 0 66.333 -7.5 97 -22.5l88 -45c28 -15 55.667 -22.5 83 -22.5c18.667 0 35.167 3.33301 49.5 10s25.166 14.334 32.499 23.001s13.333 18.167 18 28.5s7.5 18.5 8.5 24.5s1.5 10.667 1.5 14h129c0 -8.66699 -2.16699 -21.334 -6.5 -38.001
s-12.166 -36.5 -23.499 -59.5s-25.333 -44.667 -42 -65s-39.167 -37.5 -67.5 -51.5s-59.5 -21 -93.5 -21c-35.333 0 -69 7.33301 -101 22s-61.5 29.334 -88.5 44.001s-52.5 22 -76.5 22zM56.999 313c0 102 42.334 184.168 127.001 246.501s194.667 93.5 330 93.5
c108.667 0 201.667 -14.333 279 -43v68c0 75.333 -23 134.166 -69 176.499s-110.667 63.5 -194 63.5c-57.333 0 -112.666 -10 -165.999 -30s-111.333 -50.333 -174 -91l-75 151c142 94.667 288.667 142 440 142c144.667 0 258 -38.167 340 -114.5s123 -183.833 123 -322.5
v-399c0 -25.333 4.5 -43.833 13.5 -55.5s24.167 -17.834 45.5 -18.501v-180c-36 -6.66699 -68 -10 -96 -10c-45.333 0 -80.833 11 -106.5 33s-40.834 49.667 -45.501 83l-6 62c-46 -59.333 -104.833 -105.5 -176.5 -138.5s-145.167 -49.5 -220.5 -49.5
c-106.667 0 -194.834 31.833 -264.501 95.5s-104.5 142.834 -104.5 237.501zM739 248.001c36 36 54.001 69.333 54.001 100v123c-78.667 30 -160.667 45 -246 45c-82.667 0 -149.5 -16.667 -200.5 -50s-76.5 -78 -76.5 -134c0 -50.667 19.5 -94.5 58.5 -131.5
s92.5 -55.5 160.5 -55.5c46.667 0 92.667 9.66699 138 29s82.666 44 111.999 74z" />
    <glyph glyph-name="adieresis" unicode="&#xe4;" horiz-adv-x="1155" 
d="M276 1262v225h189v-225h-189zM639 1262v225h188v-225h-188zM57 313c0 102 42.334 184.168 127.001 246.501s194.667 93.5 330 93.5c108.667 0 201.667 -14.333 279 -43v68c0 75.333 -23 134.166 -69 176.499s-110.667 63.5 -194 63.5
c-57.333 0 -112.666 -10 -165.999 -30s-111.333 -50.333 -174 -91l-75 151c142 94.667 288.667 142 440 142c144.667 0 258 -38.167 340 -114.5s123 -183.833 123 -322.5v-399c0 -25.333 4.5 -43.833 13.5 -55.5s24.167 -17.834 45.5 -18.501v-180
c-36 -6.66699 -68 -10 -96 -10c-45.333 0 -80.833 11 -106.5 33s-40.834 49.667 -45.501 83l-6 62c-46 -59.333 -104.833 -105.5 -176.5 -138.5s-145.167 -49.5 -220.5 -49.5c-106.667 0 -194.834 31.833 -264.501 95.5s-104.5 142.834 -104.5 237.501zM739.001 248.001
c36 36 54.001 69.333 54.001 100v123c-78.667 30 -160.667 45 -246 45c-82.667 0 -149.5 -16.667 -200.5 -50s-76.5 -78 -76.5 -134c0 -50.667 19.5 -94.5 58.5 -131.5s92.5 -55.5 160.5 -55.5c46.667 0 92.667 9.66699 138 29s82.666 44 111.999 74z" />
    <glyph glyph-name="aring" unicode="&#xe5;" horiz-adv-x="1155" 
d="M551 1536c61.333 0 110.833 -16.833 148.5 -50.5s56.5 -78.167 56.5 -133.5c0 -54 -18.667 -97.167 -56 -129.5s-87 -48.5 -149 -48.5c-60 0 -108.833 16.167 -146.5 48.5s-56.5 75.5 -56.5 129.5c0 55.333 18.833 99.833 56.5 133.5s86.5 50.5 146.5 50.5zM459 1352
c0 -26 8.83301 -47.833 26.5 -65.5s39.5 -26.5 65.5 -26.5s48.5 8.83301 67.5 26.5s28.5 39.5 28.5 65.5c0 28.667 -9 51.5 -27 68.5s-41 25.5 -69 25.5c-26 0 -47.833 -8.5 -65.5 -25.5s-26.5 -39.833 -26.5 -68.5zM57 313c0 102 42.334 184.168 127.001 246.501
s194.667 93.5 330 93.5c108.667 0 201.667 -14.333 279 -43v68c0 75.333 -23 134.166 -69 176.499s-110.667 63.5 -194 63.5c-57.333 0 -112.666 -10 -165.999 -30s-111.333 -50.333 -174 -91l-75 151c142 94.667 288.667 142 440 142c144.667 0 258 -38.167 340 -114.5
s123 -183.833 123 -322.5v-399c0 -25.333 4.5 -43.833 13.5 -55.5s24.167 -17.834 45.5 -18.501v-180c-36 -6.66699 -68 -10 -96 -10c-45.333 0 -80.833 11 -106.5 33s-40.834 49.667 -45.501 83l-6 62c-46 -59.333 -104.833 -105.5 -176.5 -138.5
s-145.167 -49.5 -220.5 -49.5c-106.667 0 -194.834 31.833 -264.501 95.5s-104.5 142.834 -104.5 237.501zM739.001 248.001c36 36 54.001 69.333 54.001 100v123c-78.667 30 -160.667 45 -246 45c-82.667 0 -149.5 -16.667 -200.5 -50s-76.5 -78 -76.5 -134
c0 -50.667 19.5 -94.5 58.5 -131.5s92.5 -55.5 160.5 -55.5c46.667 0 92.667 9.66699 138 29s82.666 44 111.999 74z" />
    <glyph glyph-name="ae" unicode="&#xe6;" horiz-adv-x="1914" 
d="M57 315c0 100 41.8398 181.331 125.507 243.998s192.167 94 325.5 94c98.667 0 183.334 -13.667 254.001 -41c5.33301 52 12.666 90.333 21.999 115c-8 65.333 -33.833 115.5 -77.5 150.5s-103.167 52.5 -178.5 52.5c-105.333 0 -218 -41 -338 -123l-71 143
c141.333 93.333 284.666 140 429.999 140c85.333 0 159.666 -15.167 222.999 -45.5s113.333 -73.5 150 -129.5c46.667 54 103.667 96.667 171 128s140.666 47 219.999 47c82 0 157.833 -14.833 227.5 -44.5s128 -69.667 175 -120s83.667 -109.166 110 -176.499
s39.833 -138.666 40.5 -213.999c0 -31.333 -2 -56 -6 -74h-875c6.66699 -92.667 42.667 -168.5 108 -227.5s142.666 -88.5 231.999 -88.5c61.333 0 118.5 15.167 171.5 45.5s89.5 69.833 109.5 118.5l192 -55c-36.667 -81.333 -98.334 -147.333 -185.001 -198
s-185.334 -76 -296.001 -76c-96.667 0 -184.334 20.333 -263.001 61s-142 96 -190 166c-44 -75.333 -107.833 -132 -191.5 -170s-168.5 -57 -254.5 -57c-102.667 0 -188.5 32 -257.5 96s-103.5 143.667 -103.5 239zM1640.01 603.998c-8 94 -42.667 170.833 -104 230.5
s-137 89.5 -227 89.5s-165.667 -30 -227 -90s-95 -136.667 -101 -230h659zM750.007 257.998c26 21.333 40.333 45.332 43 71.999c-18 40.667 -28.333 93 -31 157c-72.667 24.667 -145 37 -217 37c-81.333 0 -147.833 -17.667 -199.5 -53s-77.5 -81 -77.5 -137
c0 -53.333 20.333 -98.166 61 -134.499s90.667 -54.5 150 -54.5c56 0 108.667 10.167 158 30.5s87 47.833 113 82.5z" />
    <glyph glyph-name="ccedilla" unicode="&#xe7;" horiz-adv-x="1144" 
d="M1094 254c-30 -68.667 -77.667 -126.661 -143 -173.994s-142 -78 -230 -92c65.333 -54.667 98 -118.334 98 -191.001c0 -58.667 -19.5 -105.334 -58.5 -140.001s-93.833 -52 -164.5 -52c-84.667 0 -165.334 19.667 -242.001 59l58 121c52 -28.667 100.333 -43 145 -43
c38.667 0 68.834 8.16699 90.501 24.5s32.5 40.166 32.5 71.499c0 49.333 -32.667 97.333 -98 144c-100.667 6 -190.834 35.167 -270.501 87.5s-140.5 119.333 -182.5 201s-63 170.5 -63 266.5c0 75.333 13.167 146.5 39.5 213.5s63.166 125.667 110.499 176
s106 90.166 176 119.499s146.333 44 229 44c108 0 202 -24 282 -72s140.667 -113 182 -195l-219 -69c-25.333 44.667 -60 79.667 -104 105s-92.667 38 -146 38c-90.667 0 -166.5 -33.833 -227.5 -101.5s-91.5 -153.834 -91.5 -258.501c0 -102.667 31.333 -189.167 94 -259.5
s138.334 -105.5 227.001 -105.5c55.333 0 107.333 14.167 156 42.5s81.334 63.166 98.001 104.499z" />
    <glyph glyph-name="egrave" unicode="&#xe8;" horiz-adv-x="1218" 
d="M383 1497h215l117 -225l-144 -45zM621 -20c-108.667 0 -205.667 25.332 -291 75.999s-150.666 117.667 -195.999 201s-68 175 -68 275c0 75.333 13.5 147 40.5 215s64.167 127.333 111.5 178s106.166 90.834 176.499 120.501s146.5 44.5 228.5 44.5s157.5 -15 226.5 -45
s126.667 -70.167 173 -120.5s82.333 -108.5 108 -174.5s38.5 -135 38.5 -207c0 -18.667 -2 -46 -6 -82h-858c6.66699 -92.667 41.167 -168.5 103.5 -227.5s135.833 -88.5 220.5 -88.5c61.333 0 118.333 15.167 171 45.5s89 69.833 109 118.5l193 -55
c-38 -82 -100 -148.167 -186 -198.5s-184.333 -75.5 -295 -75.5zM299 609.999h647c-8 92.667 -42.5 168.167 -103.5 226.5s-134.833 87.5 -221.5 87.5c-86 0 -159.667 -29.5 -221 -88.5s-95 -134.167 -101 -225.5z" />
    <glyph glyph-name="eacute" unicode="&#xe9;" horiz-adv-x="1218" 
d="M694 1225l-147 45l117 225h215zM621 -20c-108.667 0 -205.667 25.332 -291 75.999s-150.666 117.667 -195.999 201s-68 175 -68 275c0 75.333 13.5 147 40.5 215s64.167 127.333 111.5 178s106.166 90.834 176.499 120.501s146.5 44.5 228.5 44.5s157.5 -15 226.5 -45
s126.667 -70.167 173 -120.5s82.333 -108.5 108 -174.5s38.5 -135 38.5 -207c0 -18.667 -2 -46 -6 -82h-858c6.66699 -92.667 41.167 -168.5 103.5 -227.5s135.833 -88.5 220.5 -88.5c61.333 0 118.333 15.167 171 45.5s89 69.833 109 118.5l193 -55
c-38 -82 -100 -148.167 -186 -198.5s-184.333 -75.5 -295 -75.5zM299 609.999h647c-8 92.667 -42.5 168.167 -103.5 226.5s-134.833 87.5 -221.5 87.5c-86 0 -159.667 -29.5 -221 -88.5s-95 -134.167 -101 -225.5z" />
    <glyph glyph-name="ecircumflex" unicode="&#xea;" horiz-adv-x="1218" 
d="M324 1300l213 195h161l213 -195l-120 -57l-175 129l-174 -129zM621 -20c-108.667 0 -205.667 25.332 -291 75.999s-150.666 117.667 -195.999 201s-68 175 -68 275c0 75.333 13.5 147 40.5 215s64.167 127.333 111.5 178s106.166 90.834 176.499 120.501
s146.5 44.5 228.5 44.5s157.5 -15 226.5 -45s126.667 -70.167 173 -120.5s82.333 -108.5 108 -174.5s38.5 -135 38.5 -207c0 -18.667 -2 -46 -6 -82h-858c6.66699 -92.667 41.167 -168.5 103.5 -227.5s135.833 -88.5 220.5 -88.5c61.333 0 118.333 15.167 171 45.5
s89 69.833 109 118.5l193 -55c-38 -82 -100 -148.167 -186 -198.5s-184.333 -75.5 -295 -75.5zM299 609.999h647c-8 92.667 -42.5 168.167 -103.5 226.5s-134.833 87.5 -221.5 87.5c-86 0 -159.667 -29.5 -221 -88.5s-95 -134.167 -101 -225.5z" />
    <glyph glyph-name="edieresis" unicode="&#xeb;" horiz-adv-x="1218" 
d="M342 1262v225h188v-225h-188zM705 1262v225h188v-225h-188zM621 -20c-108.667 0 -205.667 25.332 -291 75.999s-150.666 117.667 -195.999 201s-68 175 -68 275c0 75.333 13.5 147 40.5 215s64.167 127.333 111.5 178s106.166 90.834 176.499 120.501
s146.5 44.5 228.5 44.5s157.5 -15 226.5 -45s126.667 -70.167 173 -120.5s82.333 -108.5 108 -174.5s38.5 -135 38.5 -207c0 -18.667 -2 -46 -6 -82h-858c6.66699 -92.667 41.167 -168.5 103.5 -227.5s135.833 -88.5 220.5 -88.5c61.333 0 118.333 15.167 171 45.5
s89 69.833 109 118.5l193 -55c-38 -82 -100 -148.167 -186 -198.5s-184.333 -75.5 -295 -75.5zM299 609.999h647c-8 92.667 -42.5 168.167 -103.5 226.5s-134.833 87.5 -221.5 87.5c-86 0 -159.667 -29.5 -221 -88.5s-95 -134.167 -101 -225.5z" />
    <glyph glyph-name="igrave" unicode="&#xec;" horiz-adv-x="495" 
d="M14 1497h215l117 -225l-143 -45zM135 0v1071h225v-1071h-225z" />
    <glyph glyph-name="iacute" unicode="&#xed;" horiz-adv-x="495" 
d="M326 1225l-148 45l117 225h215zM135 0v1071h225v-1071h-225z" />
    <glyph glyph-name="icircumflex" unicode="&#xee;" horiz-adv-x="495" 
d="M-45 1300l213 195h162l213 -195l-121 -57l-174 129l-174 -129zM135 0v1071h225v-1071h-225z" />
    <glyph glyph-name="idieresis" unicode="&#xef;" horiz-adv-x="495" 
d="M-27 1262v225h189v-225h-189zM336 1262v225h188v-225h-188zM135 0v1071h225v-1071h-225z" />
    <glyph glyph-name="eth" unicode="&#xf0;" horiz-adv-x="1247" 
d="M903 1282c91.333 -100 159.33 -210.664 203.997 -331.997s67 -240 67 -356c0 -93.333 -14.667 -178.833 -44 -256.5s-69.166 -142.334 -119.499 -194.001s-109.666 -91.834 -177.999 -120.501s-141.166 -43 -218.499 -43c-99.333 0 -190.333 21.667 -273 65
s-148.167 103.166 -196.5 179.499s-72.5 160.5 -72.5 252.5c0 135.333 48.5 251.166 145.5 347.499s214.167 144.5 351.5 144.5c78 0 150.333 -17.333 217 -52s118.667 -81 156 -139c-32 162 -102.333 302.667 -211 422l-207 -121l-65 92l188 109
c-81.333 74 -186.333 145.667 -315 215h301c66 -35.333 128.667 -79.666 188 -132.999l168 98l66 -92zM617.997 172.003c91.333 0 168.167 30.832 230.5 92.499s93.5 135.834 93.5 222.501c0 84.667 -30.5 155.667 -91.5 213s-136.167 86 -225.5 86
c-90.667 0 -167 -30 -229 -90s-93 -133 -93 -219s30.5 -158.333 91.5 -217s135.5 -88 223.5 -88z" />
    <glyph glyph-name="ntilde" unicode="&#xf1;" horiz-adv-x="1222" 
d="M498 1348c-17.333 0 -32.499 -3.16895 -45.499 -9.50195s-23 -13.833 -30 -22.5s-12.5 -18.334 -16.5 -29.001s-6.5 -18.834 -7.5 -24.501s-1.5 -10.167 -1.5 -13.5h-127c0 10 2 23.667 6 41s11.5 37.5 22.5 60.5s24.333 44.333 40 64s36.667 36.334 63 50.001
s55.5 20.5 87.5 20.5c27.333 0 53.666 -4.66699 78.999 -14s46.5 -19.666 63.5 -30.999s36.833 -21.666 59.5 -30.999s45 -14 67 -14c18.667 0 35.167 3.33301 49.5 10s25.166 14.334 32.499 23.001s13.333 18.167 18 28.5s7.5 18.5 8.5 24.5s1.5 10.667 1.5 14h129
c0 -8.66699 -2.16699 -21.334 -6.5 -38.001s-12.166 -36.5 -23.499 -59.5s-25.333 -44.667 -42 -65s-39.167 -37.5 -67.5 -51.5s-59.5 -21 -93.5 -21c-35.333 0 -69 7.33301 -101 22s-61.5 29.334 -88.5 44.001s-52.5 22 -76.5 22zM1096 -0.00195312l-226.005 -0.000976562
v600c0 99.333 -15.833 172.333 -47.5 219s-79.167 70 -142.5 70c-65.333 0 -129.166 -24.167 -191.499 -72.5s-105.166 -108.166 -128.499 -179.499v-637h-225v1071h205v-215c41.333 72 101 129 179 171s163.667 63 257 63c50 0 93.833 -7.66699 131.5 -23
s68.334 -36 92.001 -62s42.834 -58.167 57.501 -96.5s24.834 -78 30.501 -119s8.5 -86.5 8.5 -136.5v-653z" />
    <glyph glyph-name="ograve" unicode="&#xf2;" horiz-adv-x="1232" 
d="M383 1497h215l117 -225l-144 -45zM66 535c0 74 13.3311 144.667 39.998 212s63.334 126.333 110.001 177s104.834 91 174.501 121s144.834 45 225.501 45c108 0 204.5 -25.667 289.5 -77s149.833 -119 194.5 -203s67 -175.667 67 -275s-22.333 -191 -67 -275
s-109.5 -151.667 -194.5 -203s-181.5 -77 -289.5 -77c-82 0 -157.833 15 -227.5 45s-127.834 70.333 -174.501 121s-83 109.667 -109 177s-39 138 -39 212zM615.998 172c89.333 0 165 35.001 227 105.001s93 156 93 258s-31 187.833 -93 257.5s-137.667 104.5 -227 104.5
c-88.667 0 -164 -35.333 -226 -106s-93 -157 -93 -259c0 -102.667 30.833 -188.334 92.5 -257.001s137.167 -103 226.5 -103z" />
    <glyph glyph-name="oacute" unicode="&#xf3;" horiz-adv-x="1232" 
d="M694 1225l-147 45l117 225h215zM66 535c0 74 13.3311 144.667 39.998 212s63.334 126.333 110.001 177s104.834 91 174.501 121s144.834 45 225.501 45c108 0 204.5 -25.667 289.5 -77s149.833 -119 194.5 -203s67 -175.667 67 -275s-22.333 -191 -67 -275
s-109.5 -151.667 -194.5 -203s-181.5 -77 -289.5 -77c-82 0 -157.833 15 -227.5 45s-127.834 70.333 -174.501 121s-83 109.667 -109 177s-39 138 -39 212zM615.998 172c89.333 0 165 35.001 227 105.001s93 156 93 258s-31 187.833 -93 257.5s-137.667 104.5 -227 104.5
c-88.667 0 -164 -35.333 -226 -106s-93 -157 -93 -259c0 -102.667 30.833 -188.334 92.5 -257.001s137.167 -103 226.5 -103z" />
    <glyph glyph-name="ocircumflex" unicode="&#xf4;" horiz-adv-x="1232" 
d="M324 1300l213 195h161l213 -195l-120 -57l-175 129l-174 -129zM66 535c0 74 13.3311 144.667 39.998 212s63.334 126.333 110.001 177s104.834 91 174.501 121s144.834 45 225.501 45c108 0 204.5 -25.667 289.5 -77s149.833 -119 194.5 -203s67 -175.667 67 -275
s-22.333 -191 -67 -275s-109.5 -151.667 -194.5 -203s-181.5 -77 -289.5 -77c-82 0 -157.833 15 -227.5 45s-127.834 70.333 -174.501 121s-83 109.667 -109 177s-39 138 -39 212zM615.998 172c89.333 0 165 35.001 227 105.001s93 156 93 258s-31 187.833 -93 257.5
s-137.667 104.5 -227 104.5c-88.667 0 -164 -35.333 -226 -106s-93 -157 -93 -259c0 -102.667 30.833 -188.334 92.5 -257.001s137.167 -103 226.5 -103z" />
    <glyph glyph-name="otilde" unicode="&#xf5;" horiz-adv-x="1232" 
d="M481 1348c-21.333 0 -39.335 -4.50293 -54.002 -13.5029s-25 -20.167 -31 -33.5s-10 -24.166 -12 -32.499s-3 -14.833 -3 -19.5h-127c0 10 2 23.667 6 41s11.5 37.5 22.5 60.5s24.333 44.333 40 64s36.667 36.334 63 50.001s55.5 20.5 87.5 20.5
c34 0 66.333 -7.5 97 -22.5l88 -45c28 -15 55.667 -22.5 83 -22.5c18.667 0 35.167 3.33301 49.5 10s25.333 14.334 33 23.001s13.834 18.167 18.501 28.5s7.5 18.5 8.5 24.5s1.5 10.667 1.5 14h129c0 -8.66699 -2.16699 -21.334 -6.5 -38.001s-12.166 -36.5 -23.499 -59.5
s-25.333 -44.667 -42 -65s-39.167 -37.5 -67.5 -51.5s-59.5 -21 -93.5 -21c-35.333 0 -69 7.33301 -101 22s-61.667 29.334 -89 44.001s-53 22 -77 22zM65.998 534.997c0 74 13.3311 144.667 39.998 212s63.334 126.333 110.001 177s104.834 91 174.501 121
s144.834 45 225.501 45c108 0 204.5 -25.667 289.5 -77s149.833 -119 194.5 -203s67 -175.667 67 -275s-22.333 -191 -67 -275s-109.5 -151.667 -194.5 -203s-181.5 -77 -289.5 -77c-82 0 -157.833 15 -227.5 45s-127.834 70.333 -174.501 121s-83 109.667 -109 177
s-39 138 -39 212zM615.996 171.997c89.333 0 165 35.001 227 105.001s93 156 93 258s-31 187.833 -93 257.5s-137.667 104.5 -227 104.5c-88.667 0 -164 -35.333 -226 -106s-93 -157 -93 -259c0 -102.667 30.833 -188.334 92.5 -257.001s137.167 -103 226.5 -103z" />
    <glyph glyph-name="odieresis" unicode="&#xf6;" horiz-adv-x="1232" 
d="M342 1262v225h188v-225h-188zM705 1262v225h188v-225h-188zM66 535c0 74 13.3311 144.667 39.998 212s63.334 126.333 110.001 177s104.834 91 174.501 121s144.834 45 225.501 45c108 0 204.5 -25.667 289.5 -77s149.833 -119 194.5 -203s67 -175.667 67 -275
s-22.333 -191 -67 -275s-109.5 -151.667 -194.5 -203s-181.5 -77 -289.5 -77c-82 0 -157.833 15 -227.5 45s-127.834 70.333 -174.501 121s-83 109.667 -109 177s-39 138 -39 212zM615.998 172c89.333 0 165 35.001 227 105.001s93 156 93 258s-31 187.833 -93 257.5
s-137.667 104.5 -227 104.5c-88.667 0 -164 -35.333 -226 -106s-93 -157 -93 -259c0 -102.667 30.833 -188.334 92.5 -257.001s137.167 -103 226.5 -103z" />
    <glyph glyph-name="divide" unicode="&#xf7;" horiz-adv-x="1071" 
d="M440 842v235h191v-235h-191zM123 508v180h825v-180h-825zM440 119v233h191v-233h-191z" />
    <glyph glyph-name="oslash" unicode="&#xf8;" horiz-adv-x="1232" 
d="M1004 938c52 -51.333 92.165 -111.832 120.498 -181.499s42.5 -143.5 42.5 -221.5c0 -99.333 -22.333 -191 -67 -275s-109.5 -151.667 -194.5 -203s-181.5 -77 -289.5 -77c-106 0 -202.667 25 -290 75l-52 -61h-163l114 141c-50.667 50.667 -89.834 110.667 -117.501 180
s-41.5 142.666 -41.5 219.999c0 74 13.333 144.667 40 212s63.334 126.333 110.001 177s104.834 91 174.501 121s144.834 45 225.501 45c104.667 0 199 -24.667 283 -74l49 61h168zM615.998 897.001c-88.667 0 -164 -35.334 -226 -106.001s-93 -157 -93 -259
c0 -87.333 24.667 -165.666 74 -234.999l399 557c-44.667 28.667 -96 43 -154 43zM615.998 172c89.333 0 165 35 227 105s93 156 93 258c0 90 -25.333 169 -76 237l-401 -555c46.667 -30 99 -45 157 -45z" />
    <glyph glyph-name="ugrave" unicode="&#xf9;" horiz-adv-x="1247" 
d="M375 1497h215l117 -225l-144 -45zM125 416l-0.00195312 655.002h225v-610c0 -95.333 17.333 -167.333 52 -216s85.667 -73 153 -73c65.333 0 126.5 20.167 183.5 60.5s100.833 97.166 131.5 170.499v668h226v-817c0 -26 4.66699 -44.667 14 -56s25 -17.333 47 -18v-180
c-39.333 -6.66699 -72.666 -10 -99.999 -10c-41.333 0 -76 11.167 -104 33.5s-43.333 51.5 -46 87.5l-4 106c-47.333 -76.667 -109.166 -135.334 -185.499 -176.001s-160.5 -61 -252.5 -61c-111.333 0 -195.833 36.833 -253.5 110.5s-86.5 182.167 -86.5 325.5z" />
    <glyph glyph-name="uacute" unicode="&#xfa;" horiz-adv-x="1247" 
d="M686 1225l-147 45l116 225h215zM125 416l-0.00195312 655.002h225v-610c0 -95.333 17.333 -167.333 52 -216s85.667 -73 153 -73c65.333 0 126.5 20.167 183.5 60.5s100.833 97.166 131.5 170.499v668h226v-817c0 -26 4.66699 -44.667 14 -56s25 -17.333 47 -18v-180
c-39.333 -6.66699 -72.666 -10 -99.999 -10c-41.333 0 -76 11.167 -104 33.5s-43.333 51.5 -46 87.5l-4 106c-47.333 -76.667 -109.166 -135.334 -185.499 -176.001s-160.5 -61 -252.5 -61c-111.333 0 -195.833 36.833 -253.5 110.5s-86.5 182.167 -86.5 325.5z" />
    <glyph glyph-name="ucircumflex" unicode="&#xfb;" horiz-adv-x="1247" 
d="M315 1300l213 195h162l213 -195l-121 -57l-174 129l-174 -129zM125 416l-0.00195312 655.002h225v-610c0 -95.333 17.333 -167.333 52 -216s85.667 -73 153 -73c65.333 0 126.5 20.167 183.5 60.5s100.833 97.166 131.5 170.499v668h226v-817
c0 -26 4.66699 -44.667 14 -56s25 -17.333 47 -18v-180c-39.333 -6.66699 -72.666 -10 -99.999 -10c-41.333 0 -76 11.167 -104 33.5s-43.333 51.5 -46 87.5l-4 106c-47.333 -76.667 -109.166 -135.334 -185.499 -176.001s-160.5 -61 -252.5 -61
c-111.333 0 -195.833 36.833 -253.5 110.5s-86.5 182.167 -86.5 325.5z" />
    <glyph glyph-name="udieresis" unicode="&#xfc;" horiz-adv-x="1247" 
d="M334 1262v225h188v-225h-188zM696 1262v225h189v-225h-189zM125 416l-0.00195312 655.002h225v-610c0 -95.333 17.333 -167.333 52 -216s85.667 -73 153 -73c65.333 0 126.5 20.167 183.5 60.5s100.833 97.166 131.5 170.499v668h226v-817c0 -26 4.66699 -44.667 14 -56
s25 -17.333 47 -18v-180c-39.333 -6.66699 -72.666 -10 -99.999 -10c-41.333 0 -76 11.167 -104 33.5s-43.333 51.5 -46 87.5l-4 106c-47.333 -76.667 -109.166 -135.334 -185.499 -176.001s-160.5 -61 -252.5 -61c-111.333 0 -195.833 36.833 -253.5 110.5
s-86.5 182.167 -86.5 325.5z" />
    <glyph glyph-name="yacute" unicode="&#xfd;" horiz-adv-x="1120" 
d="M659 1225l-147 45l117 225h215zM172 -252c48 -9.33301 84.335 -14 109.002 -14c34.667 0 63.167 16.833 85.5 50.5s53.166 105.5 92.499 215.5l-441 1071h236l328 -842l290 842h218l-486 -1319c-22.667 -64 -61.834 -116.167 -117.501 -156.5s-123.5 -60.5 -203.5 -60.5
c-36 0 -73 5.33301 -111 16v197z" />
    <glyph glyph-name="thorn" unicode="&#xfe;" horiz-adv-x="1232" 
d="M635 -43c-61.333 0 -116 13.168 -164 39.501s-82.667 57.5 -104 93.5v-526h-232v1890h232v-502c67.333 97.333 162.666 146 285.999 146c76.667 0 148 -17 214 -51s120.5 -78.333 163.5 -133s76.833 -115.834 101.5 -183.501s37 -135.834 37 -204.501
c-1.33301 -99.333 -25.666 -192.666 -72.999 -279.999s-112 -157.333 -194 -210s-171 -79 -267 -79zM639 895.001c-114.667 0 -205.333 -66.332 -272 -198.999v-340c0 -46 28.833 -89.833 86.5 -131.5s116.167 -62.5 175.5 -62.5c88 0 161.5 36.167 220.5 108.5
s88.5 158.166 88.5 257.499c0 100.667 -27.667 187 -83 259s-127.333 108 -216 108z" />
    <glyph glyph-name="ydieresis" unicode="&#xff;" horiz-adv-x="1120" 
d="M307 1262v225h189v-225h-189zM670 1262v225h188v-225h-188zM172 -252c48 -9.33301 84.335 -14 109.002 -14c34.667 0 63.167 16.833 85.5 50.5s53.166 105.5 92.499 215.5l-441 1071h236l328 -842l290 842h218l-486 -1319c-22.667 -64 -61.834 -116.167 -117.501 -156.5
s-123.5 -60.5 -203.5 -60.5c-36 0 -73 5.33301 -111 16v197z" />
    <glyph glyph-name="Amacron" unicode="&#x100;" horiz-adv-x="1382" 
d="M391 1698v143h606v-143h-606zM584 1454h217l565 -1454h-242l-153 395h-561l-152 -395h-244zM926 565l-234 637l-241 -637h475z" />
    <glyph glyph-name="amacron" unicode="&#x101;" horiz-adv-x="1155" 
d="M250 1319v143h606v-143h-606zM57 313c0 102 42.334 184.168 127.001 246.501s194.667 93.5 330 93.5c108.667 0 201.667 -14.333 279 -43v68c0 75.333 -23 134.166 -69 176.499s-110.667 63.5 -194 63.5c-57.333 0 -112.666 -10 -165.999 -30s-111.333 -50.333 -174 -91
l-75 151c142 94.667 288.667 142 440 142c144.667 0 258 -38.167 340 -114.5s123 -183.833 123 -322.5v-399c0 -25.333 4.5 -43.833 13.5 -55.5s24.167 -17.834 45.5 -18.501v-180c-36 -6.66699 -68 -10 -96 -10c-45.333 0 -80.833 11 -106.5 33s-40.834 49.667 -45.501 83
l-6 62c-46 -59.333 -104.833 -105.5 -176.5 -138.5s-145.167 -49.5 -220.5 -49.5c-106.667 0 -194.834 31.833 -264.501 95.5s-104.5 142.834 -104.5 237.501zM739.001 248.001c36 36 54.001 69.333 54.001 100v123c-78.667 30 -160.667 45 -246 45
c-82.667 0 -149.5 -16.667 -200.5 -50s-76.5 -78 -76.5 -134c0 -50.667 19.5 -94.5 58.5 -131.5s92.5 -55.5 160.5 -55.5c46.667 0 92.667 9.66699 138 29s82.666 44 111.999 74z" />
    <glyph glyph-name="Abreve" unicode="&#x102;" horiz-adv-x="1382" 
d="M811 1874h124.999c0 -71.333 -23.333 -130.833 -70 -178.5s-104.667 -71.5 -174 -71.5s-127.166 23.833 -173.499 71.5s-69.5 107.167 -69.5 178.5h124c0 -38.667 12 -72.5 36 -101.5s51.667 -43.5 83 -43.5c30 0 56.333 13.667 79 41s36 62 40 104zM583.999 1454h217
l565 -1454h-242l-153 395h-561l-152 -395h-244zM925.999 565l-234 637l-241 -637h475z" />
    <glyph glyph-name="abreve" unicode="&#x103;" horiz-adv-x="1155" 
d="M670 1495h125c0 -71.333 -23.333 -130.833 -70 -178.5s-104.667 -71.5 -174 -71.5s-127.333 23.833 -174 71.5s-70 107.167 -70 178.5h125c0 -38.667 12 -72.5 36 -101.5s51.667 -43.5 83 -43.5c30 0 56.333 13.667 79 41s36 62 40 104zM57 313
c0 102 42.334 184.168 127.001 246.501s194.667 93.5 330 93.5c108.667 0 201.667 -14.333 279 -43v68c0 75.333 -23 134.166 -69 176.499s-110.667 63.5 -194 63.5c-57.333 0 -112.666 -10 -165.999 -30s-111.333 -50.333 -174 -91l-75 151c142 94.667 288.667 142 440 142
c144.667 0 258 -38.167 340 -114.5s123 -183.833 123 -322.5v-399c0 -25.333 4.5 -43.833 13.5 -55.5s24.167 -17.834 45.5 -18.501v-180c-36 -6.66699 -68 -10 -96 -10c-45.333 0 -80.833 11 -106.5 33s-40.834 49.667 -45.501 83l-6 62
c-46 -59.333 -104.833 -105.5 -176.5 -138.5s-145.167 -49.5 -220.5 -49.5c-106.667 0 -194.834 31.833 -264.501 95.5s-104.5 142.834 -104.5 237.501zM739.001 248.001c36 36 54.001 69.333 54.001 100v123c-78.667 30 -160.667 45 -246 45
c-82.667 0 -149.5 -16.667 -200.5 -50s-76.5 -78 -76.5 -134c0 -50.667 19.5 -94.5 58.5 -131.5s92.5 -55.5 160.5 -55.5c46.667 0 92.667 9.66699 138 29s82.666 44 111.999 74z" />
    <glyph glyph-name="Aogonek" unicode="&#x104;" horiz-adv-x="1382" 
d="M1208 -186c0 -48 52 -73.999 156 -77.999l-47 -133c-93.333 7.33301 -159.333 27.166 -198 59.499s-58 70.5 -58 114.5c0 78 46.333 152.333 139 223h-76l-153 395h-561l-152 -395h-244l570 1454h217l565 -1454c-105.333 -76 -158 -138 -158 -186zM451 565.001h475
l-234 637z" />
    <glyph glyph-name="aogonek" unicode="&#x105;" horiz-adv-x="1155" 
d="M1077 0c-104.667 -75.333 -157 -137.33 -157 -185.997c0 -48 51.667 -74 155 -78l-47 -133c-93.333 7.33301 -159.333 27.166 -198 59.499s-58 70.5 -58 114.5c0 78 47 152.333 141 223c-49.333 19.333 -77.333 54.666 -84 105.999l-6 62
c-46 -59.333 -104.833 -105.5 -176.5 -138.5s-145.167 -49.5 -220.5 -49.5c-106.667 0 -194.834 31.833 -264.501 95.5s-104.5 142.834 -104.5 237.501c0 102 42.333 184.167 127 246.5s194.667 93.5 330 93.5c108.667 0 201.667 -14.333 279 -43v68
c0 75.333 -23 134.166 -69 176.499s-110.667 63.5 -194 63.5c-57.333 0 -112.666 -10 -165.999 -30s-111.333 -50.333 -174 -91l-75 151c142 94.667 288.667 142 440 142c144.667 0 258 -38.167 340 -114.5s123 -183.833 123 -322.5v-399c0 -25.333 4.5 -43.833 13.5 -55.5
s24.167 -17.834 45.5 -18.501v-180zM793 348.003l0.000976562 123c-78.667 30 -160.667 45 -246 45c-82.667 0 -149.5 -16.667 -200.5 -50s-76.5 -78 -76.5 -134c0 -50.667 19.5 -94.5 58.5 -131.5s92.5 -55.5 160.5 -55.5c46.667 0 92.667 9.66699 138 29
s82.666 44 111.999 74c36 36 54 69.333 54 100z" />
    <glyph glyph-name="Cacute" unicode="&#x106;" horiz-adv-x="1400" 
d="M852 1604l-147 45l116 225h215zM776 1462c127.333 0 239.171 -28.8359 335.504 -86.5029s168.833 -134.5 217.5 -230.5l-180 -121c-19.333 42 -43.666 78.5 -72.999 109.5s-61.333 55 -96 72s-69.5 29.5 -104.5 37.5s-70.833 12 -107.5 12
c-58.667 0 -113.334 -10.167 -164.001 -30.5s-94 -47.5 -130 -81.5s-67 -73.667 -93 -119s-45.167 -93 -57.5 -143s-18.5 -100.667 -18.5 -152c0 -94 19.833 -181.667 59.5 -263s95.834 -146.833 168.501 -196.5s153 -74.5 241 -74.5c50 0 98.833 7.83301 146.5 23.5
s93.667 42 138 79s78.5 82.5 102.5 136.5l191 -108c-28.667 -69.333 -75.334 -130.333 -140.001 -183s-135.667 -91.667 -213 -117s-155 -38 -233 -38c-98.667 0 -191.834 21.667 -279.501 65s-161.334 100.333 -221.001 171s-106.834 150.834 -141.501 240.501
s-52 180.5 -52 272.5c0 70.667 10 140.834 30 210.501s50.167 135.334 90.5 197.001s88.166 116.167 143.499 163.5s121 84.833 197 112.5s157 41.5 243 41.5z" />
    <glyph glyph-name="cacute" unicode="&#x107;" horiz-adv-x="1144" 
d="M696 1225l-147 45l117 225h215zM621 -20c-108 0 -204.834 25.6709 -290.501 77.0039s-151.167 119.166 -196.5 203.499s-68 176.5 -68 276.5c0 75.333 13.167 146.5 39.5 213.5s63.166 125.667 110.499 176s106 90.166 176 119.499s146.333 44 229 44
c108 0 202 -24 282 -72s140.667 -113 182 -195l-219 -69c-25.333 44.667 -60 79.667 -104 105s-92.667 38 -146 38c-90.667 0 -166.5 -33.833 -227.5 -101.5s-91.5 -153.834 -91.5 -258.501c0 -102.667 31.333 -189.167 94 -259.5s138.334 -105.5 227.001 -105.5
c55.333 0 107.333 14.167 156 42.5s81.334 63.166 98.001 104.499l222 -65c-36 -82 -96.333 -148.167 -181 -198.5s-182 -75.5 -292 -75.5z" />
    <glyph glyph-name="Ccircumflex" unicode="&#x108;" horiz-adv-x="1400" 
d="M481 1679l213 195h162l213 -195l-121 -57l-174 129l-174 -129zM776 1462c127.333 0 239.171 -28.8359 335.504 -86.5029s168.833 -134.5 217.5 -230.5l-180 -121c-19.333 42 -43.666 78.5 -72.999 109.5s-61.333 55 -96 72s-69.5 29.5 -104.5 37.5s-70.833 12 -107.5 12
c-58.667 0 -113.334 -10.167 -164.001 -30.5s-94 -47.5 -130 -81.5s-67 -73.667 -93 -119s-45.167 -93 -57.5 -143s-18.5 -100.667 -18.5 -152c0 -94 19.833 -181.667 59.5 -263s95.834 -146.833 168.501 -196.5s153 -74.5 241 -74.5c50 0 98.833 7.83301 146.5 23.5
s93.667 42 138 79s78.5 82.5 102.5 136.5l191 -108c-28.667 -69.333 -75.334 -130.333 -140.001 -183s-135.667 -91.667 -213 -117s-155 -38 -233 -38c-98.667 0 -191.834 21.667 -279.501 65s-161.334 100.333 -221.001 171s-106.834 150.834 -141.501 240.501
s-52 180.5 -52 272.5c0 70.667 10 140.834 30 210.501s50.167 135.334 90.5 197.001s88.166 116.167 143.499 163.5s121 84.833 197 112.5s157 41.5 243 41.5z" />
    <glyph glyph-name="ccircumflex" unicode="&#x109;" horiz-adv-x="1144" 
d="M326 1300l213 195h161l213 -195l-120 -57l-175 129l-174 -129zM621 -20c-108 0 -204.834 25.6709 -290.501 77.0039s-151.167 119.166 -196.5 203.499s-68 176.5 -68 276.5c0 75.333 13.167 146.5 39.5 213.5s63.166 125.667 110.499 176s106 90.166 176 119.499
s146.333 44 229 44c108 0 202 -24 282 -72s140.667 -113 182 -195l-219 -69c-25.333 44.667 -60 79.667 -104 105s-92.667 38 -146 38c-90.667 0 -166.5 -33.833 -227.5 -101.5s-91.5 -153.834 -91.5 -258.501c0 -102.667 31.333 -189.167 94 -259.5
s138.334 -105.5 227.001 -105.5c55.333 0 107.333 14.167 156 42.5s81.334 63.166 98.001 104.499l222 -65c-36 -82 -96.333 -148.167 -181 -198.5s-182 -75.5 -292 -75.5z" />
    <glyph glyph-name="Cdot" unicode="&#x10a;" horiz-adv-x="1400" 
d="M672 1638v236h202v-236h-202zM776 1462c127.333 0 239.171 -28.8359 335.504 -86.5029s168.833 -134.5 217.5 -230.5l-180 -121c-19.333 42 -43.666 78.5 -72.999 109.5s-61.333 55 -96 72s-69.5 29.5 -104.5 37.5s-70.833 12 -107.5 12
c-58.667 0 -113.334 -10.167 -164.001 -30.5s-94 -47.5 -130 -81.5s-67 -73.667 -93 -119s-45.167 -93 -57.5 -143s-18.5 -100.667 -18.5 -152c0 -94 19.833 -181.667 59.5 -263s95.834 -146.833 168.501 -196.5s153 -74.5 241 -74.5c50 0 98.833 7.83301 146.5 23.5
s93.667 42 138 79s78.5 82.5 102.5 136.5l191 -108c-28.667 -69.333 -75.334 -130.333 -140.001 -183s-135.667 -91.667 -213 -117s-155 -38 -233 -38c-98.667 0 -191.834 21.667 -279.501 65s-161.334 100.333 -221.001 171s-106.834 150.834 -141.501 240.501
s-52 180.5 -52 272.5c0 70.667 10 140.834 30 210.501s50.167 135.334 90.5 197.001s88.166 116.167 143.499 163.5s121 84.833 197 112.5s157 41.5 243 41.5z" />
    <glyph glyph-name="cdot" unicode="&#x10b;" horiz-adv-x="1144" 
d="M516 1260v235h203v-235h-203zM621 -20c-108 0 -204.834 25.6709 -290.501 77.0039s-151.167 119.166 -196.5 203.499s-68 176.5 -68 276.5c0 75.333 13.167 146.5 39.5 213.5s63.166 125.667 110.499 176s106 90.166 176 119.499s146.333 44 229 44
c108 0 202 -24 282 -72s140.667 -113 182 -195l-219 -69c-25.333 44.667 -60 79.667 -104 105s-92.667 38 -146 38c-90.667 0 -166.5 -33.833 -227.5 -101.5s-91.5 -153.834 -91.5 -258.501c0 -102.667 31.333 -189.167 94 -259.5s138.334 -105.5 227.001 -105.5
c55.333 0 107.333 14.167 156 42.5s81.334 63.166 98.001 104.499l222 -65c-36 -82 -96.333 -148.167 -181 -198.5s-182 -75.5 -292 -75.5z" />
    <glyph glyph-name="Ccaron" unicode="&#x10c;" horiz-adv-x="1400" 
d="M600 1874l174 -129l174 129l121 -57l-213 -195h-162l-213 195zM776 1462c127.333 0 239.171 -28.8359 335.504 -86.5029s168.833 -134.5 217.5 -230.5l-180 -121c-19.333 42 -43.666 78.5 -72.999 109.5s-61.333 55 -96 72s-69.5 29.5 -104.5 37.5s-70.833 12 -107.5 12
c-58.667 0 -113.334 -10.167 -164.001 -30.5s-94 -47.5 -130 -81.5s-67 -73.667 -93 -119s-45.167 -93 -57.5 -143s-18.5 -100.667 -18.5 -152c0 -94 19.833 -181.667 59.5 -263s95.834 -146.833 168.501 -196.5s153 -74.5 241 -74.5c50 0 98.833 7.83301 146.5 23.5
s93.667 42 138 79s78.5 82.5 102.5 136.5l191 -108c-28.667 -69.333 -75.334 -130.333 -140.001 -183s-135.667 -91.667 -213 -117s-155 -38 -233 -38c-98.667 0 -191.834 21.667 -279.501 65s-161.334 100.333 -221.001 171s-106.834 150.834 -141.501 240.501
s-52 180.5 -52 272.5c0 70.667 10 140.834 30 210.501s50.167 135.334 90.5 197.001s88.166 116.167 143.499 163.5s121 84.833 197 112.5s157 41.5 243 41.5z" />
    <glyph glyph-name="ccaron" unicode="&#x10d;" horiz-adv-x="1144" 
d="M444 1495l174 -129l175 129l120 -57l-213 -195h-161l-213 195zM621 -20c-108 0 -204.834 25.6709 -290.501 77.0039s-151.167 119.166 -196.5 203.499s-68 176.5 -68 276.5c0 75.333 13.167 146.5 39.5 213.5s63.166 125.667 110.499 176s106 90.166 176 119.499
s146.333 44 229 44c108 0 202 -24 282 -72s140.667 -113 182 -195l-219 -69c-25.333 44.667 -60 79.667 -104 105s-92.667 38 -146 38c-90.667 0 -166.5 -33.833 -227.5 -101.5s-91.5 -153.834 -91.5 -258.501c0 -102.667 31.333 -189.167 94 -259.5
s138.334 -105.5 227.001 -105.5c55.333 0 107.333 14.167 156 42.5s81.334 63.166 98.001 104.499l222 -65c-36 -82 -96.333 -148.167 -181 -198.5s-182 -75.5 -292 -75.5z" />
    <glyph glyph-name="Dcaron" unicode="&#x10e;" horiz-adv-x="1466" 
d="M512 1874l174 -129l174 129l121 -57l-213 -195h-162l-213 195zM164 0v1454h516c114 0 216.5 -18.833 307.5 -56.5s165.5 -89.667 223.5 -156s102.167 -143 132.5 -230s45.5 -181.167 45.5 -282.5c0 -220 -64.5 -396.5 -193.5 -529.5s-300.833 -199.5 -515.5 -199.5h-516z
M680 1251h-287v-1048h287c100 0 186.167 23.167 258.5 69.5s126.5 108.833 162.5 187.5s54 168.334 54 269.001c0 155.333 -42.167 281.166 -126.5 377.499s-200.5 144.5 -348.5 144.5z" />
    <glyph glyph-name="dcaron" unicode="&#x10f;" horiz-adv-x="1304" 
d="M68 535c0 101.333 20.332 194.168 60.999 278.501s98.167 151.5 172.5 201.5s157.5 75 249.5 75c79.333 0 152.333 -20.5 219 -61.5s119.334 -94.5 158.001 -160.5v627h225v-1241c0 -26 4.66699 -44.667 14 -56s25 -17.333 47 -18v-180c-39.333 -6.66699 -72 -10 -98 -10
c-42 0 -77.5 12 -106.5 36s-44.5 53.667 -46.5 89l-2 80c-40.667 -67.333 -95.334 -120 -164.001 -158s-141.667 -57 -219 -57c-96.667 0 -184.167 25.167 -262.5 75.5s-139.166 117.666 -182.499 201.999s-65 176.833 -65 277.5zM1362 1225l-148 45l117 225h215z
M927.999 385.002l-0.000976562 280.998c-23.333 64.667 -65.333 119.334 -126 164.001s-122 67 -184 67c-61.333 0 -116.5 -17.5 -165.5 -52.5s-86.5 -80.333 -112.5 -136s-39 -115.167 -39 -178.5c0 -99.333 32.167 -183.833 96.5 -253.5s143.5 -104.5 237.5 -104.5
c60.667 0 120.834 20.833 180.501 62.5s97.167 91.834 112.5 150.501z" />
    <glyph glyph-name="Dcroat" unicode="&#x110;" horiz-adv-x="1478" 
d="M692 1454c114 0 216.5 -18.833 307.5 -56.5s165.5 -89.667 223.5 -156s102.167 -143 132.5 -230s45.5 -181.167 45.5 -282.5c0 -220 -64.5 -396.5 -193.5 -529.5s-300.833 -199.5 -515.5 -199.5h-516v645h-108v172h108v637h516zM692 203c100 0 186.167 23.167 258.5 69.5
s126.5 108.833 162.5 187.5s54 168.334 54 269.001c0 155.333 -42.167 281.166 -126.5 377.499s-200.5 144.5 -348.5 144.5h-286v-434h309v-172h-309v-442h286z" />
    <glyph glyph-name="dcroat" unicode="&#x111;" horiz-adv-x="1304" 
d="M1288 1237l-135.001 0.00195312v-983c0 -26 4.66699 -44.667 14 -56s25 -17.333 47 -18v-180c-39.333 -6.66699 -72 -10 -98 -10c-42 0 -77.5 12 -106.5 36s-44.5 53.667 -46.5 89l-2 80c-40.667 -67.333 -95.334 -120 -164.001 -158s-141.667 -57 -219 -57
c-96.667 0 -184.167 25.167 -262.5 75.5s-139.166 117.666 -182.499 201.999s-65 176.833 -65 277.5c0 101.333 20.333 194.166 61 278.499s98.167 151.5 172.5 201.5s157.5 75 249.5 75c79.333 0 152.333 -20.5 219 -61.5s119.334 -94.5 158.001 -160.5v369h-215v139h215
v119h225v-119h135v-139zM927.999 385.002l-0.000976562 280.998c-23.333 64.667 -65.333 119.334 -126 164.001s-122 67 -184 67c-61.333 0 -116.5 -17.5 -165.5 -52.5s-86.5 -80.333 -112.5 -136s-39 -115.167 -39 -178.5c0 -99.333 32.167 -183.833 96.5 -253.5
s143.5 -104.5 237.5 -104.5c60.667 0 120.834 20.833 180.501 62.5s97.167 91.834 112.5 150.501z" />
    <glyph glyph-name="Emacron" unicode="&#x112;" horiz-adv-x="1234" 
d="M375 1698v143h606v-143h-606zM1161 203v-203h-997v1454h979v-203h-750v-413h649v-191h-649v-444h768z" />
    <glyph glyph-name="emacron" unicode="&#x113;" horiz-adv-x="1218" 
d="M315 1319v143h607v-143h-607zM621 -20c-108.667 0 -205.667 25.332 -291 75.999s-150.666 117.667 -195.999 201s-68 175 -68 275c0 75.333 13.5 147 40.5 215s64.167 127.333 111.5 178s106.166 90.834 176.499 120.501s146.5 44.5 228.5 44.5s157.5 -15 226.5 -45
s126.667 -70.167 173 -120.5s82.333 -108.5 108 -174.5s38.5 -135 38.5 -207c0 -18.667 -2 -46 -6 -82h-858c6.66699 -92.667 41.167 -168.5 103.5 -227.5s135.833 -88.5 220.5 -88.5c61.333 0 118.333 15.167 171 45.5s89 69.833 109 118.5l193 -55
c-38 -82 -100 -148.167 -186 -198.5s-184.333 -75.5 -295 -75.5zM299 609.999h647c-8 92.667 -42.5 168.167 -103.5 226.5s-134.833 87.5 -221.5 87.5c-86 0 -159.667 -29.5 -221 -88.5s-95 -134.167 -101 -225.5z" />
    <glyph glyph-name="Ebreve" unicode="&#x114;" horiz-adv-x="1234" 
d="M795 1874h125c0 -71.333 -23.333 -130.833 -70 -178.5s-104.667 -71.5 -174 -71.5s-127.333 23.833 -174 71.5s-70 107.167 -70 178.5h125c0 -38.667 12 -72.5 36 -101.5s51.667 -43.5 83 -43.5c30 0 56.333 13.667 79 41s36 62 40 104zM1161 203v-203h-997v1454h979
v-203h-750v-413h649v-191h-649v-444h768z" />
    <glyph glyph-name="ebreve" unicode="&#x115;" horiz-adv-x="1218" 
d="M735 1495h124.999c0 -71.333 -23.333 -130.833 -70 -178.5s-104.667 -71.5 -174 -71.5s-127.166 23.833 -173.499 71.5s-69.5 107.167 -69.5 178.5h125c0 -38.667 11.833 -72.5 35.5 -101.5s51.167 -43.5 82.5 -43.5c30 0 56.333 13.667 79 41s36 62 40 104zM620.999 -20
c-108.667 0 -205.667 25.332 -291 75.999s-150.666 117.667 -195.999 201s-68 175 -68 275c0 75.333 13.5 147 40.5 215s64.167 127.333 111.5 178s106.166 90.834 176.499 120.501s146.5 44.5 228.5 44.5s157.5 -15 226.5 -45s126.667 -70.167 173 -120.5
s82.333 -108.5 108 -174.5s38.5 -135 38.5 -207c0 -18.667 -2 -46 -6 -82h-858c6.66699 -92.667 41.167 -168.5 103.5 -227.5s135.833 -88.5 220.5 -88.5c61.333 0 118.333 15.167 171 45.5s89 69.833 109 118.5l193 -55c-38 -82 -100 -148.167 -186 -198.5
s-184.333 -75.5 -295 -75.5zM298.999 609.999h647c-8 92.667 -42.5 168.167 -103.5 226.5s-134.833 87.5 -221.5 87.5c-86 0 -159.667 -29.5 -221 -88.5s-95 -134.167 -101 -225.5z" />
    <glyph glyph-name="Edot" unicode="&#x116;" horiz-adv-x="1234" 
d="M573 1638v236h203v-236h-203zM1161 203v-203h-997v1454h979v-203h-750v-413h649v-191h-649v-444h768z" />
    <glyph glyph-name="edot" unicode="&#x117;" horiz-adv-x="1218" 
d="M514 1260v235h203v-235h-203zM621 -20c-108.667 0 -205.667 25.332 -291 75.999s-150.666 117.667 -195.999 201s-68 175 -68 275c0 75.333 13.5 147 40.5 215s64.167 127.333 111.5 178s106.166 90.834 176.499 120.501s146.5 44.5 228.5 44.5s157.5 -15 226.5 -45
s126.667 -70.167 173 -120.5s82.333 -108.5 108 -174.5s38.5 -135 38.5 -207c0 -18.667 -2 -46 -6 -82h-858c6.66699 -92.667 41.167 -168.5 103.5 -227.5s135.833 -88.5 220.5 -88.5c61.333 0 118.333 15.167 171 45.5s89 69.833 109 118.5l193 -55
c-38 -82 -100 -148.167 -186 -198.5s-184.333 -75.5 -295 -75.5zM299 609.999h647c-8 92.667 -42.5 168.167 -103.5 226.5s-134.833 87.5 -221.5 87.5c-86 0 -159.667 -29.5 -221 -88.5s-95 -134.167 -101 -225.5z" />
    <glyph glyph-name="Eogonek" unicode="&#x118;" horiz-adv-x="1234" 
d="M1161 0c-104.667 -75.333 -157 -137.332 -157 -185.999c0 -48 51.667 -74 155 -78l-47 -133c-93.333 7.33301 -159.333 27.166 -198 59.499s-58 70.5 -58 114.5c0 78 46.333 152.333 139 223h-831v1454h979v-203h-750v-413h649v-191h-649v-444h768v-203z" />
    <glyph glyph-name="eogonek" unicode="&#x119;" horiz-adv-x="1218" 
d="M1169 543c0 -18.667 -1.99805 -46.002 -5.99805 -82.002h-858c6.66699 -92.667 41.167 -168.5 103.5 -227.5s135.833 -88.5 220.5 -88.5c61.333 0 118.333 15.167 171 45.5s89 69.833 109 118.5l193 -55c-27.333 -60.667 -70 -113.667 -128 -159
s-124.667 -77.666 -200 -96.999c-104 -74.667 -156 -136 -156 -184s52 -74 156 -78l-47 -133c-93.333 7.33301 -159.333 27.166 -198 59.499s-58 70.5 -58 114.5c0 70.667 38.333 138.334 115 203.001c-102 6 -192.833 34.667 -272.5 86s-140.834 117.833 -183.501 199.5
s-64 170.5 -64 266.5c0 75.333 13.5 147 40.5 215s64.167 127.333 111.5 178s106.166 90.834 176.499 120.501s146.5 44.5 228.5 44.5s157.5 -15 226.5 -45s126.667 -70.167 173 -120.5s82.333 -108.5 108 -174.5s38.5 -135 38.5 -207zM299.002 609.998h647
c-8 92.667 -42.5 168.167 -103.5 226.5s-134.833 87.5 -221.5 87.5c-86 0 -159.667 -29.5 -221 -88.5s-95 -134.167 -101 -225.5z" />
    <glyph glyph-name="Ecaron" unicode="&#x11a;" horiz-adv-x="1234" 
d="M502 1874l174 -129l174 129l121 -57l-213 -195h-162l-213 195zM1161 203v-203h-997v1454h979v-203h-750v-413h649v-191h-649v-444h768z" />
    <glyph glyph-name="ecaron" unicode="&#x11b;" horiz-adv-x="1218" 
d="M442 1495l174 -129l175 129l120 -57l-213 -195h-161l-213 195zM621 -20c-108.667 0 -205.667 25.332 -291 75.999s-150.666 117.667 -195.999 201s-68 175 -68 275c0 75.333 13.5 147 40.5 215s64.167 127.333 111.5 178s106.166 90.834 176.499 120.501
s146.5 44.5 228.5 44.5s157.5 -15 226.5 -45s126.667 -70.167 173 -120.5s82.333 -108.5 108 -174.5s38.5 -135 38.5 -207c0 -18.667 -2 -46 -6 -82h-858c6.66699 -92.667 41.167 -168.5 103.5 -227.5s135.833 -88.5 220.5 -88.5c61.333 0 118.333 15.167 171 45.5
s89 69.833 109 118.5l193 -55c-38 -82 -100 -148.167 -186 -198.5s-184.333 -75.5 -295 -75.5zM299 609.999h647c-8 92.667 -42.5 168.167 -103.5 226.5s-134.833 87.5 -221.5 87.5c-86 0 -159.667 -29.5 -221 -88.5s-95 -134.167 -101 -225.5z" />
    <glyph glyph-name="Gcircumflex" unicode="&#x11c;" horiz-adv-x="1472" 
d="M764 1751l-174 -129l-119 57l213 195h162l213 -195l-121 -57zM877 735h497.003v-735h-192v180c-120.667 -126.667 -262 -190 -424 -190c-94 0 -183.5 20.333 -268.5 61s-157.667 94.667 -218 162s-108.333 146.5 -144 237.5s-53.5 185.167 -53.5 282.5
s17.667 190.833 53 280.5s83.166 167.5 143.499 233.5s133.666 118.667 219.999 158s178.166 59 275.499 59c134 0 248.833 -28.167 344.5 -84.5s168.5 -133.833 218.5 -232.5l-176 -127c-39.333 77.333 -93.333 136.166 -162 176.499s-145.667 60.5 -231 60.5
c-88.667 0 -168 -24.833 -238 -74.5s-123.333 -114.667 -160 -195s-55 -167.166 -55 -260.499c0 -147.333 45 -272.5 135 -375.5s201.333 -154.5 334 -154.5c150.667 0 286 71 406 213v155h-305v170z" />
    <glyph glyph-name="gcircumflex" unicode="&#x11d;" horiz-adv-x="1288" 
d="M334 1300l213 195h162l213 -195l-121 -57l-174 129l-174 -129zM70 535c0 101.333 20.834 194.168 62.501 278.501s100.667 151.5 177 201.5s162.166 75 257.499 75c82.667 0 156.834 -19.833 222.501 -59.5s120.5 -93.834 164.5 -162.501v203h199v-1040
c0 -100.667 -25 -188.334 -75 -263.001s-117.667 -130.834 -203 -168.501s-182.333 -56.5 -291 -56.5c-216 0 -380.667 76.667 -494 230l127 118c40 -56.667 92.5 -100.167 157.5 -130.5s134.833 -45.5 209.5 -45.5c63.333 0 120.333 10.833 171 32.5s92.167 57 124.5 106
s48.5 108.167 48.5 177.5v164c-37.333 -63.333 -89.5 -113.333 -156.5 -150s-137.833 -55 -212.5 -55c-93.333 0 -177.833 25.333 -253.5 76s-133.834 117.334 -174.501 200.001s-61 172.334 -61 269.001zM928.001 385.002l0.000976562 281.001
c-26.667 67.333 -69.334 122.666 -128.001 165.999s-120 65 -184 65c-62.667 0 -118.667 -18.167 -168 -54.5s-86.5 -82.333 -111.5 -138s-37.5 -114.5 -37.5 -176.5c0 -98 32.333 -181.833 97 -251.5s143.667 -104.5 237 -104.5c66 0 127.5 21 184.5 63
s93.833 92 110.5 150z" />
    <glyph glyph-name="Gbreve" unicode="&#x11e;" horiz-adv-x="1472" 
d="M764 1624c-69.333 0 -127.333 23.833 -174 71.5s-70 107.167 -70 178.5h125c0 -38.667 12 -72.5 36 -101.5s51.667 -43.5 83 -43.5c30 0 56.333 13.667 79 41s36 62 40 104h125c0 -71.333 -23.333 -130.833 -70 -178.5s-104.667 -71.5 -174 -71.5zM877 735h497.003v-735
h-192v180c-120.667 -126.667 -262 -190 -424 -190c-94 0 -183.5 20.333 -268.5 61s-157.667 94.667 -218 162s-108.333 146.5 -144 237.5s-53.5 185.167 -53.5 282.5s17.667 190.833 53 280.5s83.166 167.5 143.499 233.5s133.666 118.667 219.999 158
s178.166 59 275.499 59c134 0 248.833 -28.167 344.5 -84.5s168.5 -133.833 218.5 -232.5l-176 -127c-39.333 77.333 -93.333 136.166 -162 176.499s-145.667 60.5 -231 60.5c-88.667 0 -168 -24.833 -238 -74.5s-123.333 -114.667 -160 -195s-55 -167.166 -55 -260.499
c0 -147.333 45 -272.5 135 -375.5s201.333 -154.5 334 -154.5c150.667 0 286 71 406 213v155h-305v170z" />
    <glyph glyph-name="gbreve" unicode="&#x11f;" horiz-adv-x="1288" 
d="M745 1495h124.999c0 -71.333 -23.167 -130.833 -69.5 -178.5s-104.166 -71.5 -173.499 -71.5s-127.333 23.833 -174 71.5s-70 107.167 -70 178.5h125c0 -38.667 12 -72.5 36 -101.5s51.667 -43.5 83 -43.5c29.333 0 55.333 13.667 78 41s36 62 40 104zM69.999 535
c0 101.333 20.834 194.168 62.501 278.501s100.667 151.5 177 201.5s162.166 75 257.499 75c82.667 0 156.834 -19.833 222.501 -59.5s120.5 -93.834 164.5 -162.501v203h199v-1040c0 -100.667 -25 -188.334 -75 -263.001s-117.667 -130.834 -203 -168.501
s-182.333 -56.5 -291 -56.5c-216 0 -380.667 76.667 -494 230l127 118c40 -56.667 92.5 -100.167 157.5 -130.5s134.833 -45.5 209.5 -45.5c63.333 0 120.333 10.833 171 32.5s92.167 57 124.5 106s48.5 108.167 48.5 177.5v164c-37.333 -63.333 -89.5 -113.333 -156.5 -150
s-137.833 -55 -212.5 -55c-93.333 0 -177.833 25.333 -253.5 76s-133.834 117.334 -174.501 200.001s-61 172.334 -61 269.001zM928 385.002l0.000976562 281.001c-26.667 67.333 -69.334 122.666 -128.001 165.999s-120 65 -184 65c-62.667 0 -118.667 -18.167 -168 -54.5
s-86.5 -82.333 -111.5 -138s-37.5 -114.5 -37.5 -176.5c0 -98 32.333 -181.833 97 -251.5s143.667 -104.5 237 -104.5c66 0 127.5 21 184.5 63s93.833 92 110.5 150z" />
    <glyph glyph-name="Gdot" unicode="&#x120;" horiz-adv-x="1472" 
d="M864 1874v-236h-202v236h202zM877 735h497.003v-735h-192v180c-120.667 -126.667 -262 -190 -424 -190c-94 0 -183.5 20.333 -268.5 61s-157.667 94.667 -218 162s-108.333 146.5 -144 237.5s-53.5 185.167 -53.5 282.5s17.667 190.833 53 280.5
s83.166 167.5 143.499 233.5s133.666 118.667 219.999 158s178.166 59 275.499 59c134 0 248.833 -28.167 344.5 -84.5s168.5 -133.833 218.5 -232.5l-176 -127c-39.333 77.333 -93.333 136.166 -162 176.499s-145.667 60.5 -231 60.5c-88.667 0 -168 -24.833 -238 -74.5
s-123.333 -114.667 -160 -195s-55 -167.166 -55 -260.499c0 -147.333 45 -272.5 135 -375.5s201.333 -154.5 334 -154.5c150.667 0 286 71 406 213v155h-305v170z" />
    <glyph glyph-name="gdot" unicode="&#x121;" horiz-adv-x="1288" 
d="M524 1260v235h203v-235h-203zM70 535c0 101.333 20.834 194.168 62.501 278.501s100.667 151.5 177 201.5s162.166 75 257.499 75c82.667 0 156.834 -19.833 222.501 -59.5s120.5 -93.834 164.5 -162.501v203h199v-1040c0 -100.667 -25 -188.334 -75 -263.001
s-117.667 -130.834 -203 -168.501s-182.333 -56.5 -291 -56.5c-216 0 -380.667 76.667 -494 230l127 118c40 -56.667 92.5 -100.167 157.5 -130.5s134.833 -45.5 209.5 -45.5c63.333 0 120.333 10.833 171 32.5s92.167 57 124.5 106s48.5 108.167 48.5 177.5v164
c-37.333 -63.333 -89.5 -113.333 -156.5 -150s-137.833 -55 -212.5 -55c-93.333 0 -177.833 25.333 -253.5 76s-133.834 117.334 -174.501 200.001s-61 172.334 -61 269.001zM928.001 385.002l0.000976562 281.001c-26.667 67.333 -69.334 122.666 -128.001 165.999
s-120 65 -184 65c-62.667 0 -118.667 -18.167 -168 -54.5s-86.5 -82.333 -111.5 -138s-37.5 -114.5 -37.5 -176.5c0 -98 32.333 -181.833 97 -251.5s143.667 -104.5 237 -104.5c66 0 127.5 21 184.5 63s93.833 92 110.5 150z" />
    <glyph glyph-name="Gcedilla" unicode="&#x122;" horiz-adv-x="1472" 
d="M877 735h497.003v-735h-192v180c-120.667 -126.667 -262 -190 -424 -190c-94 0 -183.5 20.333 -268.5 61s-157.667 94.667 -218 162s-108.333 146.5 -144 237.5s-53.5 185.167 -53.5 282.5s17.667 190.833 53 280.5s83.166 167.5 143.499 233.5
s133.666 118.667 219.999 158s178.166 59 275.499 59c134 0 248.833 -28.167 344.5 -84.5s168.5 -133.833 218.5 -232.5l-176 -127c-39.333 77.333 -93.333 136.166 -162 176.499s-145.667 60.5 -231 60.5c-88.667 0 -168 -24.833 -238 -74.5s-123.333 -114.667 -160 -195
s-55 -167.166 -55 -260.499c0 -147.333 45 -272.5 135 -375.5s201.333 -154.5 334 -154.5c150.667 0 286 71 406 213v155h-305v170zM659.003 -279v181h195v-181l-72 -157h-104l47 157h-66z" />
    <glyph glyph-name="gcedilla" unicode="&#x123;" horiz-adv-x="1288" 
d="M707 1495l-48 -131h64v-164h-195v164l74 131h105zM70 535c0 101.333 20.834 194.168 62.501 278.501s100.667 151.5 177 201.5s162.166 75 257.499 75c82.667 0 156.834 -19.833 222.501 -59.5s120.5 -93.834 164.5 -162.501v203h199v-1040
c0 -100.667 -25 -188.334 -75 -263.001s-117.667 -130.834 -203 -168.501s-182.333 -56.5 -291 -56.5c-216 0 -380.667 76.667 -494 230l127 118c40 -56.667 92.5 -100.167 157.5 -130.5s134.833 -45.5 209.5 -45.5c63.333 0 120.333 10.833 171 32.5s92.167 57 124.5 106
s48.5 108.167 48.5 177.5v164c-37.333 -63.333 -89.5 -113.333 -156.5 -150s-137.833 -55 -212.5 -55c-93.333 0 -177.833 25.333 -253.5 76s-133.834 117.334 -174.501 200.001s-61 172.334 -61 269.001zM928.001 385.002l0.000976562 281.001
c-26.667 67.333 -69.334 122.666 -128.001 165.999s-120 65 -184 65c-62.667 0 -118.667 -18.167 -168 -54.5s-86.5 -82.333 -111.5 -138s-37.5 -114.5 -37.5 -176.5c0 -98 32.333 -181.833 97 -251.5s143.667 -104.5 237 -104.5c66 0 127.5 21 184.5 63
s93.833 92 110.5 150z" />
    <glyph glyph-name="Hcircumflex" unicode="&#x124;" horiz-adv-x="1521" 
d="M473 1679l213 195h162l213 -195l-121 -57l-174 129l-174 -129zM1358 1454v-1454h-232v641h-733v-641h-229v1454h229v-608h733v608h232z" />
    <glyph glyph-name="hcircumflex" unicode="&#x125;" horiz-adv-x="1222" 
d="M358 1683l213 195h162l213 -195l-121 -57l-174 129l-174 -129zM1096 0l-226.001 -0.000976562v600c0 96 -17.333 168.167 -52 216.5s-84.667 72.5 -150 72.5c-62.667 0 -124.167 -24 -184.5 -72s-101.5 -108 -123.5 -180v-637h-225v1495h225v-639
c41.333 72.667 97.333 129.834 168 171.501s147.334 62.5 230.001 62.5c225.333 0 338 -145.667 338 -437v-653z" />
    <glyph glyph-name="Hbar" unicode="&#x126;" 
d="M1470 1233v-146h-102v-1087h-231v641h-734v-641h-229v1087h-104v146h104v221h229v-221h734v221h231v-221h102zM1137 846v241h-734v-241h734z" />
    <glyph glyph-name="hbar" unicode="&#x127;" horiz-adv-x="1222" 
d="M758 1090c225.333 0 337.999 -145.668 337.999 -437.001v-653h-226v600c0 96 -17.333 168.167 -52 216.5s-84.667 72.5 -150 72.5c-62.667 0 -124.167 -24 -184.5 -72s-101.5 -108 -123.5 -180v-637h-225v1237h-102v139h102v119h225v-119h248v-139h-248v-381
c41.333 72.667 97.333 129.834 168 171.501s147.334 62.5 230.001 62.5z" />
    <glyph glyph-name="Itilde" unicode="&#x128;" horiz-adv-x="557" 
d="M143 1726c-21.333 0 -39.335 -4.50195 -54.002 -13.502s-25 -20 -31 -33s-10 -23.667 -12 -32s-3 -14.833 -3 -19.5h-127c0 10 2 23.667 6 41s11.5 37.5 22.5 60.5s24.333 44.333 40 64s36.667 36.334 63 50.001s55.5 20.5 87.5 20.5c34 0 66.333 -7.5 97 -22.5l88 -45
c28 -15 55.667 -22.5 83 -22.5c18.667 0 35.167 3.33301 49.5 10s25.333 14.334 33 23.001s13.834 18.167 18.501 28.5s7.5 18.5 8.5 24.5s1.5 10.667 1.5 14h129c0 -8.66699 -2.16699 -21.334 -6.5 -38.001s-12.166 -36.667 -23.499 -60s-25.333 -45 -42 -65
s-39.167 -37.167 -67.5 -51.5s-59.5 -21.5 -93.5 -21.5c-35.333 0 -69 7.33301 -101 22s-61.667 29.334 -89 44.001s-53 22 -77 22zM163.998 -0.00195312v1454h229v-1454h-229z" />
    <glyph glyph-name="itilde" unicode="&#x129;" horiz-adv-x="495" 
d="M113 1348c-17.333 0 -32.499 -3.16895 -45.499 -9.50195s-23 -13.833 -30 -22.5s-12.5 -18.334 -16.5 -29.001s-6.5 -18.834 -7.5 -24.501s-1.5 -10.167 -1.5 -13.5h-127c0 10 2 23.667 6 41s11.5 37.5 22.5 60.5s24.333 44.333 40 64s36.667 36.334 63 50.001
s55.5 20.5 87.5 20.5c27.333 0 53.666 -4.66699 78.999 -14s46.5 -19.666 63.5 -30.999s36.833 -21.666 59.5 -30.999s45 -14 67 -14c18.667 0 35.167 3.33301 49.5 10s25.166 14.334 32.499 23.001s13.333 18.167 18 28.5s7.5 18.5 8.5 24.5s1.5 10.667 1.5 14h129
c0 -8.66699 -2.16699 -21.334 -6.5 -38.001s-12.166 -36.5 -23.499 -59.5s-25.333 -44.667 -42 -65s-39.167 -37.5 -67.5 -51.5s-59.5 -21 -93.5 -21c-35.333 0 -69 7.33301 -101 22s-61.5 29.334 -88.5 44.001s-52.5 22 -76.5 22zM135.001 -0.00195312v1071h225v-1071h-225
z" />
    <glyph glyph-name="Imacron" unicode="&#x12a;" horiz-adv-x="557" 
d="M-23 1698v143h607v-143h-607zM164 0v1454h229v-1454h-229z" />
    <glyph glyph-name="imacron" unicode="&#x12b;" horiz-adv-x="495" 
d="M-53 1319v143h606v-143h-606zM135 0v1071h225v-1071h-225z" />
    <glyph glyph-name="Ibreve" unicode="&#x12c;" horiz-adv-x="557" 
d="M397 1874h124.999c0 -71.333 -23.167 -130.833 -69.5 -178.5s-104.166 -71.5 -173.499 -71.5s-127.333 23.833 -174 71.5s-70 107.167 -70 178.5h125c0 -38.667 12 -72.5 36 -101.5s51.667 -43.5 83 -43.5c29.333 0 55.333 13.667 78 41s36 62 40 104zM163.999 0v1454
h229v-1454h-229z" />
    <glyph glyph-name="ibreve" unicode="&#x12d;" horiz-adv-x="495" 
d="M367 1495h125c0 -71.333 -23.333 -130.833 -70 -178.5s-104.667 -71.5 -174 -71.5s-127.333 23.833 -174 71.5s-70 107.167 -70 178.5h125c0 -38.667 12 -72.5 36 -101.5s51.667 -43.5 83 -43.5c30 0 56.333 13.667 79 41s36 62 40 104zM135 0v1071h225v-1071h-225z" />
    <glyph glyph-name="Iogonek" unicode="&#x12e;" horiz-adv-x="557" 
d="M393 0c-104.667 -75.333 -157 -137.332 -157 -185.999c0 -48 51.667 -74 155 -78l-47 -133c-93.333 7.33301 -159.333 27.166 -198 59.499s-58 70.5 -58 114.5c0 78 46.333 152.333 139 223h-63v1454h229v-1454z" />
    <glyph glyph-name="iogonek" unicode="&#x12f;" horiz-adv-x="495" 
d="M135 1495h225v-248h-225v248zM135 0v1071h225v-1071c-104.667 -75.333 -157 -137.333 -157 -186c0 -48 51.667 -74 155 -78l-47 -133c-93.333 7.33301 -159.333 27.166 -198 59.499s-58 70.5 -58 114.5c0 77.333 46.667 151.666 140 222.999h-60z" />
    <glyph glyph-name="Idotaccent" unicode="&#x130;" horiz-adv-x="557" 
d="M176 1638v236h203v-236h-203zM164 0v1454h229v-1454h-229z" />
    <glyph glyph-name="dotlessi" unicode="&#x131;" horiz-adv-x="495" 
d="M135 0v1071h225v-1071h-225z" />
    <glyph glyph-name="Jcircumflex" unicode="&#x134;" horiz-adv-x="999" 
d="M446 1679l213 195h162l213 -195l-121 -57l-174 129l-174 -129zM76 256c26 -18.667 61.833 -35.333 107.5 -50s96.5 -22 152.5 -22c48 0 88.667 6.5 122 19.5s60.666 31.5 81.999 55.5s38 57 50 99s20.167 88.167 24.5 138.5s6.5 112.166 6.5 185.499v772h231v-739
c0 -59.333 -1.16699 -111.833 -3.5 -157.5s-6.5 -92.667 -12.5 -141s-14.667 -90.666 -26 -126.999s-25.666 -71.833 -42.999 -106.5s-38.833 -64 -64.5 -88s-55.5 -45.167 -89.5 -63.5s-73.667 -32 -119 -41s-96 -13.5 -152 -13.5c-126 0 -233.333 30.333 -322 91z" />
    <glyph glyph-name="jcircumflex" unicode="&#x135;" horiz-adv-x="495" 
d="M-45 1300l213 195h162l213 -195l-121 -57l-174 129l-174 -129zM-250 -299l100 152c36 -32 80.667 -48 134 -48c40.667 0 76 15 106 45s45 67 45 111v1110h225v-1094c0 -106 -34.333 -193.833 -103 -263.5s-151 -104.5 -247 -104.5c-105.333 0 -192 30.667 -260 92z" />
    <glyph glyph-name="Kcedilla" unicode="&#x136;" horiz-adv-x="1351" 
d="M164 0v1452h229v-747l684 749h254l-573 -643l606 -811h-260l-492 666l-219 -228v-438h-229zM621 -436l47 157h-66v181h195v-181l-72 -157h-104z" />
    <glyph glyph-name="kcedilla" unicode="&#x137;" horiz-adv-x="1122" 
d="M881 0l-344 494l-177 -168v-326h-225v1495h225v-942l496 516h242l-416 -448l438 -621h-239zM496 -436l47 157h-66v181h195v-181l-72 -157h-104z" />
    <glyph glyph-name="kgreenlandic" unicode="&#x138;" horiz-adv-x="1122" 
d="M881 0l-342 494l-179 -168v-326h-225v1071h225v-524l492 522h246l-416 -448l438 -621h-239z" />
    <glyph glyph-name="Lacute" unicode="&#x139;" horiz-adv-x="1196" 
d="M352 1604l-147 45l117 225h215zM164 0v1454h229v-1251h781v-203h-1010z" />
    <glyph glyph-name="lacute" unicode="&#x13a;" horiz-adv-x="616" 
d="M328 1608l-148 45l117 225h215zM137 1495l225 -0.000976562v-1186c0 -50.667 7.33301 -84.5 22 -101.5s36.334 -25.5 65.001 -25.5c50.667 0 97 9.66699 139 29l33 -178c-32.667 -14.667 -71.334 -26.5 -116.001 -35.5s-85.334 -13.5 -122.001 -13.5
c-77.333 0 -137.666 21.333 -180.999 64s-65 102.334 -65 179.001v1268z" />
    <glyph glyph-name="Lcedilla" unicode="&#x13b;" horiz-adv-x="1196" 
d="M164 0v1454h229v-1251h781v-203h-1010zM600 -436l47 157h-65v181h194v-181l-71 -157h-105z" />
    <glyph glyph-name="lcedilla" unicode="&#x13c;" horiz-adv-x="616" 
d="M137 1495l225 -0.000976562v-1186c0 -50.667 7.33301 -84.5 22 -101.5s36.334 -25.5 65.001 -25.5c50.667 0 97 9.66699 139 29l33 -178c-32.667 -14.667 -71.334 -26.5 -116.001 -35.5s-85.334 -13.5 -122.001 -13.5c-77.333 0 -137.666 21.333 -180.999 64
s-65 102.334 -65 179.001v1268zM291 -436.001l47 157h-66v181h195v-181l-72 -157h-104z" />
    <glyph glyph-name="Lcaron" unicode="&#x13d;" horiz-adv-x="1196" 
d="M897 1231l-147 45l116 225h215zM164 0v1454h229v-1251h781v-203h-1010z" />
    <glyph glyph-name="lcaron" unicode="&#x13e;" horiz-adv-x="616" 
d="M137 1495l225 -0.000976562v-1186c0 -50.667 7.33301 -84.5 22 -101.5s36.334 -25.5 65.001 -25.5c50.667 0 97 9.66699 139 29l33 -178c-32.667 -14.667 -71.334 -26.5 -116.001 -35.5s-85.334 -13.5 -122.001 -13.5c-77.333 0 -137.666 21.333 -180.999 64
s-65 102.334 -65 179.001v1268zM594 1225l-148 45l117 225h215z" />
    <glyph glyph-name="Ldot" unicode="&#x13f;" horiz-adv-x="1196" 
d="M164 0v1454h229v-1251h781v-203h-1010zM750 690v281h186v-281h-186z" />
    <glyph glyph-name="ldot" unicode="&#x140;" horiz-adv-x="751" 
d="M137 1495l225 -0.000976562v-1186c0 -50.667 7.33301 -84.5 22 -101.5s36.334 -25.5 65.001 -25.5c50.667 0 97 9.66699 139 29l33 -178c-32.667 -14.667 -71.334 -26.5 -116.001 -35.5s-85.334 -13.5 -122.001 -13.5c-77.333 0 -137.666 21.333 -180.999 64
s-65 102.334 -65 179.001v1268zM530 497.999v280h187v-280h-187z" />
    <glyph glyph-name="Lslash" unicode="&#x141;" horiz-adv-x="1212" 
d="M410 203h780v-203h-1010v563l-110 -78l-62 125l172 121v723h230v-563l260 182l59 -123l-319 -225v-522z" />
    <glyph glyph-name="lslash" unicode="&#x142;" horiz-adv-x="665" 
d="M635 211l33.001 -178.001c-32.667 -14.667 -71.334 -26.5 -116.001 -35.5s-85.334 -13.5 -122.001 -13.5c-77.333 0 -137.666 21.333 -180.999 64s-65 102.334 -65 179.001v414l-114 -76l-62 125l176 117v688h226v-541l176 117l63 -123l-239 -157v-482
c0 -50.667 7.16699 -84.5 21.5 -101.5s35.833 -25.5 64.5 -25.5c50.667 0 97 9.66699 139 29z" />
    <glyph glyph-name="Nacute" unicode="&#x143;" horiz-adv-x="1570" 
d="M864 1604l-147 45l117 225h215zM393 1028v-1028h-229v1454h188l824 -1051v1049h231v-1452h-201z" />
    <glyph glyph-name="nacute" unicode="&#x144;" horiz-adv-x="1222" 
d="M711 1225l-148 45l117 225h215zM1096 0l-226.005 -0.000976562v600c0 99.333 -15.833 172.333 -47.5 219s-79.167 70 -142.5 70c-65.333 0 -129.166 -24.167 -191.499 -72.5s-105.166 -108.166 -128.499 -179.499v-637h-225v1071h205v-215c41.333 72 101 129 179 171
s163.667 63 257 63c50 0 93.833 -7.66699 131.5 -23s68.334 -36 92.001 -62s42.834 -58.167 57.501 -96.5s24.834 -78 30.501 -119s8.5 -86.5 8.5 -136.5v-653z" />
    <glyph glyph-name="Ncedilla" unicode="&#x145;" horiz-adv-x="1570" 
d="M393 1028v-1028h-229v1454h188l824 -1051v1049h231v-1452h-201zM700 -436l48 157h-66v181h195v-181l-72 -157h-105z" />
    <glyph glyph-name="ncedilla" unicode="&#x146;" horiz-adv-x="1222" 
d="M1096 0l-226.005 -0.000976562v600c0 99.333 -15.833 172.333 -47.5 219s-79.167 70 -142.5 70c-65.333 0 -129.166 -24.167 -191.499 -72.5s-105.166 -108.166 -128.499 -179.499v-637h-225v1071h205v-215c41.333 72 101 129 179 171s163.667 63 257 63
c50 0 93.833 -7.66699 131.5 -23s68.334 -36 92.001 -62s42.834 -58.167 57.501 -96.5s24.834 -78 30.501 -119s8.5 -86.5 8.5 -136.5v-653zM523.995 -436.001l47 157h-65v181h194v-181l-71 -157h-105z" />
    <glyph glyph-name="Ncaron" unicode="&#x147;" horiz-adv-x="1570" 
d="M612 1874l174 -129l175 129l120 -57l-213 -195h-161l-213 195zM393 1028v-1028h-229v1454h188l824 -1051v1049h231v-1452h-201z" />
    <glyph glyph-name="ncaron" unicode="&#x148;" horiz-adv-x="1222" 
d="M459 1495l174 -129l174 129l121 -57l-213 -195h-162l-213 195zM1096 0l-226.005 -0.000976562v600c0 99.333 -15.833 172.333 -47.5 219s-79.167 70 -142.5 70c-65.333 0 -129.166 -24.167 -191.499 -72.5s-105.166 -108.166 -128.499 -179.499v-637h-225v1071h205v-215
c41.333 72 101 129 179 171s163.667 63 257 63c50 0 93.833 -7.66699 131.5 -23s68.334 -36 92.001 -62s42.834 -58.167 57.501 -96.5s24.834 -78 30.501 -119s8.5 -86.5 8.5 -136.5v-653z" />
    <glyph glyph-name="Eng" unicode="&#x14a;" horiz-adv-x="1548" 
d="M393 1020l-0.000976562 -1020h-229v1454h176l813 -1036v1034h231v-1483c0 -104.667 -34.667 -190.834 -104 -258.501s-152 -101.5 -248 -101.5c-104 0 -190 30.667 -258 92l100 152c34 -32 78 -48 132 -48c40.667 0 76.334 15 107.001 45s46 67 46 111v82z" />
    <glyph glyph-name="eng" unicode="&#x14b;" horiz-adv-x="1220" 
d="M485 -299l100.997 151.998c36 -32 80.333 -48 133 -48c40.667 0 76 15 106 45s45 67 45 111v639c0 99.333 -15.833 172.333 -47.5 219s-79.167 70 -142.5 70c-65.333 0 -129.166 -24.167 -191.499 -72.5s-105.166 -108.166 -128.499 -179.499v-637h-225v1071h205v-215
c41.333 72 101 129 179 171s163.667 63 257 63c62 0 114.667 -11.333 158 -34s76.333 -55 99 -97s38.834 -87.667 48.501 -137s14.5 -105.666 14.5 -168.999v-676c0 -106 -34.5 -193.833 -103.5 -263.5s-151.5 -104.5 -247.5 -104.5c-105.333 0 -192 30.667 -260 92z" />
    <glyph glyph-name="Omacron" unicode="&#x14c;" 
d="M471 1698v143h606v-143h-606zM72 727c0 96 17.834 188.831 53.501 278.498s84.167 168.167 145.5 235.5s135.666 121.333 222.999 162s180 61 278 61c100.667 0 195 -21.333 283 -64s161.5 -98.834 220.5 -168.501s105.5 -148.667 139.5 -237s51 -178.166 51 -269.499
c0 -96 -17.833 -188.667 -53.5 -278s-83.834 -167.666 -144.501 -234.999s-134.667 -121.166 -222 -161.499s-180 -60.5 -278 -60.5c-81.333 0 -158.666 13.5 -231.999 40.5s-137.833 64.167 -193.5 111.5s-104 102 -145 164s-72.167 129.167 -93.5 201.5
s-32 145.5 -32 219.5zM770.001 196.998c70.667 0 135.669 15.332 195.002 45.999s108 71.167 146 121.5s67.5 106.833 88.5 169.5s31.5 127 31.5 193c0 68.667 -11.167 134.834 -33.5 198.501s-53 120 -92 169s-87.667 88 -146 117s-121.5 43.5 -189.5 43.5
c-70.667 0 -135.834 -15.167 -195.501 -45.5s-108.834 -70.5 -147.501 -120.5s-68.667 -106.333 -90 -169s-32 -127 -32 -193c0 -92 18.5 -178 55.5 -258s91.5 -145.333 163.5 -196s154 -76 246 -76z" />
    <glyph glyph-name="omacron" unicode="&#x14d;" horiz-adv-x="1232" 
d="M315 1319v143h607v-143h-607zM66 535c0 74 13.3311 144.667 39.998 212s63.334 126.333 110.001 177s104.834 91 174.501 121s144.834 45 225.501 45c108 0 204.5 -25.667 289.5 -77s149.833 -119 194.5 -203s67 -175.667 67 -275s-22.333 -191 -67 -275
s-109.5 -151.667 -194.5 -203s-181.5 -77 -289.5 -77c-82 0 -157.833 15 -227.5 45s-127.834 70.333 -174.501 121s-83 109.667 -109 177s-39 138 -39 212zM615.998 172c89.333 0 165 35.001 227 105.001s93 156 93 258s-31 187.833 -93 257.5s-137.667 104.5 -227 104.5
c-88.667 0 -164 -35.333 -226 -106s-93 -157 -93 -259c0 -102.667 30.833 -188.334 92.5 -257.001s137.167 -103 226.5 -103z" />
    <glyph glyph-name="Obreve" unicode="&#x14e;" 
d="M891 1874h125c0 -71.333 -23.333 -130.833 -70 -178.5s-104.667 -71.5 -174 -71.5s-127.333 23.833 -174 71.5s-70 107.167 -70 178.5h125c0 -38.667 12 -72.5 36 -101.5s51.667 -43.5 83 -43.5c30 0 56.333 13.667 79 41s36 62 40 104zM72 727
c0 96 17.834 188.831 53.501 278.498s84.167 168.167 145.5 235.5s135.666 121.333 222.999 162s180 61 278 61c100.667 0 195 -21.333 283 -64s161.5 -98.834 220.5 -168.501s105.5 -148.667 139.5 -237s51 -178.166 51 -269.499c0 -96 -17.833 -188.667 -53.5 -278
s-83.834 -167.666 -144.501 -234.999s-134.667 -121.166 -222 -161.499s-180 -60.5 -278 -60.5c-81.333 0 -158.666 13.5 -231.999 40.5s-137.833 64.167 -193.5 111.5s-104 102 -145 164s-72.167 129.167 -93.5 201.5s-32 145.5 -32 219.5zM770.001 196.998
c70.667 0 135.669 15.332 195.002 45.999s108 71.167 146 121.5s67.5 106.833 88.5 169.5s31.5 127 31.5 193c0 68.667 -11.167 134.834 -33.5 198.501s-53 120 -92 169s-87.667 88 -146 117s-121.5 43.5 -189.5 43.5c-70.667 0 -135.834 -15.167 -195.501 -45.5
s-108.834 -70.5 -147.501 -120.5s-68.667 -106.333 -90 -169s-32 -127 -32 -193c0 -92 18.5 -178 55.5 -258s91.5 -145.333 163.5 -196s154 -76 246 -76z" />
    <glyph glyph-name="obreve" unicode="&#x14f;" horiz-adv-x="1232" 
d="M735 1495h124.999c0 -71.333 -23.333 -130.833 -70 -178.5s-104.667 -71.5 -174 -71.5s-127.166 23.833 -173.499 71.5s-69.5 107.167 -69.5 178.5h125c0 -38.667 11.833 -72.5 35.5 -101.5s51.167 -43.5 82.5 -43.5c30 0 56.333 13.667 79 41s36 62 40 104zM65.999 535
c0 74 13.3311 144.667 39.998 212s63.334 126.333 110.001 177s104.834 91 174.501 121s144.834 45 225.501 45c108 0 204.5 -25.667 289.5 -77s149.833 -119 194.5 -203s67 -175.667 67 -275s-22.333 -191 -67 -275s-109.5 -151.667 -194.5 -203s-181.5 -77 -289.5 -77
c-82 0 -157.833 15 -227.5 45s-127.834 70.333 -174.501 121s-83 109.667 -109 177s-39 138 -39 212zM615.997 172c89.333 0 165 35.001 227 105.001s93 156 93 258s-31 187.833 -93 257.5s-137.667 104.5 -227 104.5c-88.667 0 -164 -35.333 -226 -106s-93 -157 -93 -259
c0 -102.667 30.833 -188.334 92.5 -257.001s137.167 -103 226.5 -103z" />
    <glyph glyph-name="Odblacute" unicode="&#x150;" 
d="M643 1606l-113 45l105 225h182zM946 1606l-115 45l105 225h184zM72 727c0 96 17.834 188.831 53.501 278.498s84.167 168.167 145.5 235.5s135.666 121.333 222.999 162s180 61 278 61c100.667 0 195 -21.333 283 -64s161.5 -98.834 220.5 -168.501
s105.5 -148.667 139.5 -237s51 -178.166 51 -269.499c0 -96 -17.833 -188.667 -53.5 -278s-83.834 -167.666 -144.501 -234.999s-134.667 -121.166 -222 -161.499s-180 -60.5 -278 -60.5c-81.333 0 -158.666 13.5 -231.999 40.5s-137.833 64.167 -193.5 111.5
s-104 102 -145 164s-72.167 129.167 -93.5 201.5s-32 145.5 -32 219.5zM770.001 196.998c70.667 0 135.669 15.332 195.002 45.999s108 71.167 146 121.5s67.5 106.833 88.5 169.5s31.5 127 31.5 193c0 68.667 -11.167 134.834 -33.5 198.501s-53 120 -92 169
s-87.667 88 -146 117s-121.5 43.5 -189.5 43.5c-70.667 0 -135.834 -15.167 -195.501 -45.5s-108.834 -70.5 -147.501 -120.5s-68.667 -106.333 -90 -169s-32 -127 -32 -193c0 -92 18.5 -178 55.5 -258s91.5 -145.333 163.5 -196s154 -76 246 -76z" />
    <glyph glyph-name="odblacute" unicode="&#x151;" horiz-adv-x="1232" 
d="M487 1227l-112 45l104 225h183zM791 1227l-115 45l104 225h185zM66 535c0 74 13.3311 144.667 39.998 212s63.334 126.333 110.001 177s104.834 91 174.501 121s144.834 45 225.501 45c108 0 204.5 -25.667 289.5 -77s149.833 -119 194.5 -203s67 -175.667 67 -275
s-22.333 -191 -67 -275s-109.5 -151.667 -194.5 -203s-181.5 -77 -289.5 -77c-82 0 -157.833 15 -227.5 45s-127.834 70.333 -174.501 121s-83 109.667 -109 177s-39 138 -39 212zM615.998 172c89.333 0 165 35.001 227 105.001s93 156 93 258s-31 187.833 -93 257.5
s-137.667 104.5 -227 104.5c-88.667 0 -164 -35.333 -226 -106s-93 -157 -93 -259c0 -102.667 30.833 -188.334 92.5 -257.001s137.167 -103 226.5 -103z" />
    <glyph glyph-name="OE" unicode="&#x152;" horiz-adv-x="2271" 
d="M2200 203l0.000976562 -202.999h-977v270c-48 -83.333 -112.833 -150.833 -194.5 -202.5s-171.167 -77.5 -268.5 -77.5c-99.333 0 -192.5 20.833 -279.5 62.5s-160 97 -219 166s-105.333 147.667 -139 236s-50.5 179.166 -50.5 272.499c0 96 17.667 188.833 53 278.5
s83.166 168.167 143.499 235.5s133.833 121.333 220.5 162s178.334 61 275.001 61c98 0 187.167 -25.833 267.5 -77.5s144.166 -119.167 191.499 -202.5v270h958v-203h-727v-409h617v-203h-617v-436h746zM1214 729.001c0 92 -18.502 178.002 -55.502 258.002
s-90.667 145 -161 195s-149.5 75 -237.5 75c-68.667 0 -132.167 -15.333 -190.5 -46s-106.5 -71 -144.5 -121s-67.5 -106.5 -88.5 -169.5s-31.5 -127.5 -31.5 -193.5c0 -92.667 18.167 -178.834 54.5 -258.501s89.833 -144.834 160.5 -195.501s151.334 -76 242.001 -76
c68.667 0 132 15.333 190 46s105.833 71.167 143.5 121.5s66.834 107 87.501 170s31 127.833 31 194.5z" />
    <glyph glyph-name="oe" unicode="&#x153;" horiz-adv-x="2088" 
d="M66 532c0 158.667 52.332 291.333 156.999 398s235 160 391 160c96 0 181.667 -24.667 257 -74s135.333 -119 180 -209c46 92.667 106.333 163 181 211s161 72 259 72c156.667 0 285.334 -51 386.001 -153s154.334 -236 161.001 -402c0 -37.333 -1.33301 -62 -4 -74h-858
c7.33301 -90.667 42.833 -166.667 106.5 -228s139.834 -92 228.501 -92c63.333 0 121.833 15.833 175.5 47.5s90.167 71.834 109.5 120.501l186 -55c-38.667 -82.667 -101.834 -149 -189.501 -199s-184.167 -75 -289.5 -75c-90.667 0 -174.334 23.667 -251.001 71
s-143.667 115 -201 203c-114 -182.667 -259.667 -274 -437 -274c-103.333 0 -196.833 24 -280.5 72s-149.167 114.167 -196.5 198.5s-71 178.166 -71 281.499zM1812 603.999c-6.66699 93.333 -41.167 170 -103.5 230s-136.833 90 -223.5 90c-86 0 -158.667 -30 -218 -90
s-92 -136.667 -98 -230h643zM935.999 534.999c0 102.667 -30.499 188.668 -91.499 258.001s-136.5 104 -226.5 104c-90.667 0 -166.834 -35.333 -228.501 -106s-92.5 -157.667 -92.5 -261c0 -102 30.667 -187.167 92 -255.5s137 -102.5 227 -102.5
c91.333 0 167.5 34.667 228.5 104s91.5 155.666 91.5 258.999z" />
    <glyph glyph-name="Racute" unicode="&#x154;" horiz-adv-x="1353" 
d="M713 1608l-148 45l117 225h215zM164 0l-0.000976562 1454h633c63.333 0 123.5 -13.667 180.5 -41s104.833 -63.333 143.5 -108s69.334 -95.334 92.001 -152.001s34 -114 34 -172c0 -98.667 -26 -187.834 -78 -267.501s-120.667 -133.167 -206 -160.5l342 -553h-258
l-316 506h-338v-506h-229zM392.999 709.002h402.001c63.333 0 115.666 26.5 156.999 79.5s62 117.167 62 192.5c0 74 -23.333 137.5 -70 190.5s-100.667 79.5 -162 79.5h-389v-542z" />
    <glyph glyph-name="racute" unicode="&#x155;" horiz-adv-x="765" 
d="M514 1225l-147 45l116 225h215zM737 877c-88 -2 -165.833 -22.5 -233.5 -61.5s-115.5 -92.5 -143.5 -160.5v-655h-225v1071h209v-240c37.333 73.333 85.833 132.333 145.5 177s123.167 69 190.5 73c28.667 0 47.667 -0.666992 57 -2v-202z" />
    <glyph glyph-name="Rcedilla" unicode="&#x156;" horiz-adv-x="1353" 
d="M164 0l-0.000976562 1454h633c63.333 0 123.5 -13.667 180.5 -41s104.833 -63.333 143.5 -108s69.334 -95.334 92.001 -152.001s34 -114 34 -172c0 -98.667 -26 -187.834 -78 -267.501s-120.667 -133.167 -206 -160.5l342 -553h-258l-316 506h-338v-506h-229z
M392.999 709.002h402.001c63.333 0 115.666 26.5 156.999 79.5s62 117.167 62 192.5c0 74 -23.333 137.5 -70 190.5s-100.667 79.5 -162 79.5h-389v-542zM604 -435.998l47 157h-65v181h194v-181l-71 -157h-105z" />
    <glyph glyph-name="rcedilla" unicode="&#x157;" horiz-adv-x="765" 
d="M737 877c-88 -2 -165.833 -22.5 -233.5 -61.5s-115.5 -92.5 -143.5 -160.5v-655h-225v1071h209v-240c37.333 73.333 85.833 132.333 145.5 177s123.167 69 190.5 73c28.667 0 47.667 -0.666992 57 -2v-202zM154 -436l47 157h-66v181h195v-181l-72 -157h-104z" />
    <glyph glyph-name="Rcaron" unicode="&#x158;" horiz-adv-x="1353" 
d="M461 1878l174 -129l174 129l121 -57l-213 -195h-162l-213 195zM164 0l-0.000976562 1454h633c63.333 0 123.5 -13.667 180.5 -41s104.833 -63.333 143.5 -108s69.334 -95.334 92.001 -152.001s34 -114 34 -172c0 -98.667 -26 -187.834 -78 -267.501
s-120.667 -133.167 -206 -160.5l342 -553h-258l-316 506h-338v-506h-229zM392.999 709.002h402.001c63.333 0 115.666 26.5 156.999 79.5s62 117.167 62 192.5c0 74 -23.333 137.5 -70 190.5s-100.667 79.5 -162 79.5h-389v-542z" />
    <glyph glyph-name="rcaron" unicode="&#x159;" horiz-adv-x="765" 
d="M262 1495l174 -129l174 129l121 -57l-213 -195h-162l-213 195zM737 877c-88 -2 -165.833 -22.5 -233.5 -61.5s-115.5 -92.5 -143.5 -160.5v-655h-225v1071h209v-240c37.333 73.333 85.833 132.333 145.5 177s123.167 69 190.5 73c28.667 0 47.667 -0.666992 57 -2v-202z
" />
    <glyph glyph-name="Sacute" unicode="&#x15a;" horiz-adv-x="1251" 
d="M721 1626l-148 45l117 225h215zM1024 1112c-31.333 34.667 -84.667 67.999 -160 99.999s-153 48 -233 48c-94.667 0 -165.5 -17.5 -212.5 -52.5s-70.5 -84.5 -70.5 -148.5c0 -20 2.66699 -38 8 -54s12.166 -30.167 20.499 -42.5s20.833 -24.166 37.5 -35.499
s33.167 -21 49.5 -29s38.666 -16.5 66.999 -25.5s54.833 -16.667 79.5 -23l97 -24.5c64 -15.333 118.667 -30.5 164 -45.5s89 -34 131 -57s75.667 -48.667 101 -77s45.5 -62.833 60.5 -103.5s22.5 -87 22.5 -139c0 -58 -9.16699 -110.333 -27.5 -157s-43.5 -86 -75.5 -118
s-70.667 -58.833 -116 -80.5s-94 -37.334 -146 -47.001s-108 -14.5 -168 -14.5c-110.667 0 -217.667 16.833 -321 50.5s-196.333 82.167 -279 145.5l105 197c42 -43.333 110.5 -85.166 205.5 -125.499s192.833 -60.5 293.5 -60.5c90.667 0 160.5 16 209.5 48
s73.5 78 73.5 138c0 24 -3.66699 45.667 -11 65s-20 36.833 -38 52.5s-36.5 29.167 -55.5 40.5s-46 23 -81 35s-67 22 -96 30l-117.5 31c-76.667 20 -140 40.333 -190 61s-94.167 46 -132.5 76s-66.166 65.5 -83.499 106.5s-26 89.5 -26 145.5c0 70 13.5 133.167 40.5 189.5
s64.167 102.833 111.5 139.5s103 64.667 167 84s133.667 29 209 29c178.667 0 342.334 -54.667 491.001 -164z" />
    <glyph glyph-name="sacute" unicode="&#x15b;" horiz-adv-x="1005" 
d="M596 1225l-147 45l116 225h215zM516 -20c-91.333 0 -177.167 14.999 -257.5 44.999s-148.833 73.667 -205.5 131l84 151c118.667 -103.333 242.334 -155 371.001 -155c64.667 0 116.334 12.167 155.001 36.5s58 59.166 58 104.499c0 10.667 -1 20.667 -3 30
s-5.83301 17.833 -11.5 25.5s-11.167 14.334 -16.5 20.001s-13.5 11.334 -24.5 17.001s-20.667 10.334 -29 14.001s-20.5 8.16699 -36.5 13.5s-29.333 9.5 -40 12.5l-47.5 13c-21 5.66699 -38.167 10.5 -51.5 14.5c-62.667 19.333 -113.5 37.333 -152.5 54
s-74.333 36.667 -106 60s-54.5 50.666 -68.5 81.999s-21 68.333 -21 111c0 102 38.667 182.5 116 241.5s179.333 88.5 306 88.5c162 0 292.333 -49.333 391 -148l-97 -149c-92.667 84.667 -195 127 -307 127c-56.667 0 -103.834 -10.667 -141.501 -32s-56.5 -56 -56.5 -104
c0 -17.333 3.33301 -32.666 10 -45.999s14.667 -24.5 24 -33.5s24.833 -18.333 46.5 -28s41.334 -17.334 59.001 -23.001l79.5 -24.5l79 -23.5c20.667 -6.33301 44.167 -14 70.5 -23s47.666 -17.167 63.999 -24.5s34.166 -16.333 53.499 -27s34.833 -21.167 46.5 -31.5
s23.5 -22.333 35.5 -36s21 -28 27 -43s11 -31.833 15 -50.5s6 -39 6 -61c0 -102.667 -38.333 -183.167 -115 -241.5s-179.667 -87.5 -309 -87.5z" />
    <glyph glyph-name="Scircumflex" unicode="&#x15c;" horiz-adv-x="1251" 
d="M350 1702l213 194h162l213 -194l-121 -57l-174 129l-174 -129zM1024 1112c-31.333 34.667 -84.667 67.999 -160 99.999s-153 48 -233 48c-94.667 0 -165.5 -17.5 -212.5 -52.5s-70.5 -84.5 -70.5 -148.5c0 -20 2.66699 -38 8 -54s12.166 -30.167 20.499 -42.5
s20.833 -24.166 37.5 -35.499s33.167 -21 49.5 -29s38.666 -16.5 66.999 -25.5s54.833 -16.667 79.5 -23l97 -24.5c64 -15.333 118.667 -30.5 164 -45.5s89 -34 131 -57s75.667 -48.667 101 -77s45.5 -62.833 60.5 -103.5s22.5 -87 22.5 -139
c0 -58 -9.16699 -110.333 -27.5 -157s-43.5 -86 -75.5 -118s-70.667 -58.833 -116 -80.5s-94 -37.334 -146 -47.001s-108 -14.5 -168 -14.5c-110.667 0 -217.667 16.833 -321 50.5s-196.333 82.167 -279 145.5l105 197c42 -43.333 110.5 -85.166 205.5 -125.499
s192.833 -60.5 293.5 -60.5c90.667 0 160.5 16 209.5 48s73.5 78 73.5 138c0 24 -3.66699 45.667 -11 65s-20 36.833 -38 52.5s-36.5 29.167 -55.5 40.5s-46 23 -81 35s-67 22 -96 30l-117.5 31c-76.667 20 -140 40.333 -190 61s-94.167 46 -132.5 76
s-66.166 65.5 -83.499 106.5s-26 89.5 -26 145.5c0 70 13.5 133.167 40.5 189.5s64.167 102.833 111.5 139.5s103 64.667 167 84s133.667 29 209 29c178.667 0 342.334 -54.667 491.001 -164z" />
    <glyph glyph-name="scircumflex" unicode="&#x15d;" horiz-adv-x="1005" 
d="M225 1300l213 195h162l213 -195l-121 -57l-174 129l-174 -129zM516 -20c-91.333 0 -177.167 14.999 -257.5 44.999s-148.833 73.667 -205.5 131l84 151c118.667 -103.333 242.334 -155 371.001 -155c64.667 0 116.334 12.167 155.001 36.5s58 59.166 58 104.499
c0 10.667 -1 20.667 -3 30s-5.83301 17.833 -11.5 25.5s-11.167 14.334 -16.5 20.001s-13.5 11.334 -24.5 17.001s-20.667 10.334 -29 14.001s-20.5 8.16699 -36.5 13.5s-29.333 9.5 -40 12.5l-47.5 13c-21 5.66699 -38.167 10.5 -51.5 14.5
c-62.667 19.333 -113.5 37.333 -152.5 54s-74.333 36.667 -106 60s-54.5 50.666 -68.5 81.999s-21 68.333 -21 111c0 102 38.667 182.5 116 241.5s179.333 88.5 306 88.5c162 0 292.333 -49.333 391 -148l-97 -149c-92.667 84.667 -195 127 -307 127
c-56.667 0 -103.834 -10.667 -141.501 -32s-56.5 -56 -56.5 -104c0 -17.333 3.33301 -32.666 10 -45.999s14.667 -24.5 24 -33.5s24.833 -18.333 46.5 -28s41.334 -17.334 59.001 -23.001l79.5 -24.5l79 -23.5c20.667 -6.33301 44.167 -14 70.5 -23
s47.666 -17.167 63.999 -24.5s34.166 -16.333 53.499 -27s34.833 -21.167 46.5 -31.5s23.5 -22.333 35.5 -36s21 -28 27 -43s11 -31.833 15 -50.5s6 -39 6 -61c0 -102.667 -38.333 -183.167 -115 -241.5s-179.667 -87.5 -309 -87.5z" />
    <glyph glyph-name="Scedilla" unicode="&#x15e;" horiz-adv-x="1251" 
d="M1186 403c0 -124.667 -39.501 -221 -118.501 -289s-184.167 -109.333 -315.5 -124c66.667 -56 100 -120.333 100 -193c0 -58.667 -19.5 -105.334 -58.5 -140.001s-93.833 -52 -164.5 -52c-84.667 0 -165.334 19.667 -242.001 59l57 121c52 -28.667 100.667 -43 146 -43
c38.667 0 68.834 8.16699 90.501 24.5s32.5 40.166 32.5 71.499c0 52 -35.667 102 -107 150c-212 8 -396.333 72.667 -553 194l105 197c42 -43.333 110.5 -85.166 205.5 -125.499s192.833 -60.5 293.5 -60.5c90.667 0 160.5 16 209.5 48s73.5 78 73.5 138
c0 24 -3.66699 45.667 -11 65s-20 36.833 -38 52.5s-36.5 29.167 -55.5 40.5s-46 23 -81 35s-67 22 -96 30l-117.5 31c-76.667 20 -140 40.333 -190 61s-94.167 46 -132.5 76s-66.166 65.5 -83.499 106.5s-26 89.5 -26 145.5c0 70 13.5 133.167 40.5 189.5
s64.167 102.833 111.5 139.5s103 64.667 167 84s133.667 29 209 29c178.667 0 342.334 -54.667 491.001 -164l-104 -188c-31.333 34.667 -84.666 68 -159.999 100s-153 48 -233 48c-94.667 0 -165.5 -17.5 -212.5 -52.5s-70.5 -84.5 -70.5 -148.5c0 -20 2.66699 -38 8 -54
s12.166 -30.167 20.499 -42.5s20.833 -24.166 37.5 -35.499s33.167 -21 49.5 -29s38.666 -16.5 66.999 -25.5s54.833 -16.667 79.5 -23l97 -24.5c64 -15.333 118.667 -30.5 164 -45.5s89 -34 131 -57s75.667 -48.667 101 -77s45.5 -62.833 60.5 -103.5s22.5 -87 22.5 -139z
" />
    <glyph glyph-name="scedilla" unicode="&#x15f;" horiz-adv-x="1005" 
d="M940 309c0 -87.333 -28.666 -158.999 -85.999 -214.999s-136 -92 -236 -108c64.667 -56 97 -119 97 -189c0 -58.667 -19.5 -105.334 -58.5 -140.001s-93.833 -52 -164.5 -52c-84.667 0 -165.334 19.667 -242.001 59l57 121c52 -28.667 100.667 -43 146 -43
c38.667 0 68.667 8.16699 90 24.5s32 40.166 32 71.499c0 49.333 -32 96.666 -96 141.999c-178 8.66699 -320 67.334 -426 176.001l84 151c118.667 -103.333 242.334 -155 371.001 -155c64.667 0 116.334 12.167 155.001 36.5s58 59.166 58 104.499
c0 10.667 -1 20.667 -3 30s-5.83301 17.833 -11.5 25.5s-11.167 14.334 -16.5 20.001s-13.5 11.334 -24.5 17.001s-20.667 10.334 -29 14.001s-20.5 8.16699 -36.5 13.5s-29.333 9.5 -40 12.5l-47.5 13c-21 5.66699 -38.167 10.5 -51.5 14.5
c-62.667 19.333 -113.5 37.333 -152.5 54s-74.333 36.667 -106 60s-54.5 50.666 -68.5 81.999s-21 68.333 -21 111c0 102 38.667 182.5 116 241.5s179.333 88.5 306 88.5c162 0 292.333 -49.333 391 -148l-97 -149c-92.667 84.667 -195 127 -307 127
c-56.667 0 -103.834 -10.667 -141.501 -32s-56.5 -56 -56.5 -104c0 -17.333 3.33301 -32.666 10 -45.999s14.667 -24.5 24 -33.5s24.833 -18.333 46.5 -28s41.334 -17.334 59.001 -23.001l79.5 -24.5l79 -23.5c20.667 -6.33301 44.167 -14 70.5 -23
s47.666 -17.167 63.999 -24.5s34.166 -16.333 53.499 -27s34.833 -21.167 46.5 -31.5s23.5 -22.333 35.5 -36s21 -28 27 -43s11 -31.833 15 -50.5s6 -39 6 -61z" />
    <glyph glyph-name="Scaron" unicode="&#x160;" horiz-adv-x="1251" 
d="M469 1896l174 -129l174 129l121 -57l-213 -194h-162l-213 194zM1024 1112c-31.333 34.667 -84.667 67.999 -160 99.999s-153 48 -233 48c-94.667 0 -165.5 -17.5 -212.5 -52.5s-70.5 -84.5 -70.5 -148.5c0 -20 2.66699 -38 8 -54s12.166 -30.167 20.499 -42.5
s20.833 -24.166 37.5 -35.499s33.167 -21 49.5 -29s38.666 -16.5 66.999 -25.5s54.833 -16.667 79.5 -23l97 -24.5c64 -15.333 118.667 -30.5 164 -45.5s89 -34 131 -57s75.667 -48.667 101 -77s45.5 -62.833 60.5 -103.5s22.5 -87 22.5 -139
c0 -58 -9.16699 -110.333 -27.5 -157s-43.5 -86 -75.5 -118s-70.667 -58.833 -116 -80.5s-94 -37.334 -146 -47.001s-108 -14.5 -168 -14.5c-110.667 0 -217.667 16.833 -321 50.5s-196.333 82.167 -279 145.5l105 197c42 -43.333 110.5 -85.166 205.5 -125.499
s192.833 -60.5 293.5 -60.5c90.667 0 160.5 16 209.5 48s73.5 78 73.5 138c0 24 -3.66699 45.667 -11 65s-20 36.833 -38 52.5s-36.5 29.167 -55.5 40.5s-46 23 -81 35s-67 22 -96 30l-117.5 31c-76.667 20 -140 40.333 -190 61s-94.167 46 -132.5 76
s-66.166 65.5 -83.499 106.5s-26 89.5 -26 145.5c0 70 13.5 133.167 40.5 189.5s64.167 102.833 111.5 139.5s103 64.667 167 84s133.667 29 209 29c178.667 0 342.334 -54.667 491.001 -164z" />
    <glyph glyph-name="scaron" unicode="&#x161;" horiz-adv-x="1005" 
d="M344 1495l174 -129l174 129l121 -57l-213 -195h-162l-213 195zM516 -20c-91.333 0 -177.167 14.999 -257.5 44.999s-148.833 73.667 -205.5 131l84 151c118.667 -103.333 242.334 -155 371.001 -155c64.667 0 116.334 12.167 155.001 36.5s58 59.166 58 104.499
c0 10.667 -1 20.667 -3 30s-5.83301 17.833 -11.5 25.5s-11.167 14.334 -16.5 20.001s-13.5 11.334 -24.5 17.001s-20.667 10.334 -29 14.001s-20.5 8.16699 -36.5 13.5s-29.333 9.5 -40 12.5l-47.5 13c-21 5.66699 -38.167 10.5 -51.5 14.5
c-62.667 19.333 -113.5 37.333 -152.5 54s-74.333 36.667 -106 60s-54.5 50.666 -68.5 81.999s-21 68.333 -21 111c0 102 38.667 182.5 116 241.5s179.333 88.5 306 88.5c162 0 292.333 -49.333 391 -148l-97 -149c-92.667 84.667 -195 127 -307 127
c-56.667 0 -103.834 -10.667 -141.501 -32s-56.5 -56 -56.5 -104c0 -17.333 3.33301 -32.666 10 -45.999s14.667 -24.5 24 -33.5s24.833 -18.333 46.5 -28s41.334 -17.334 59.001 -23.001l79.5 -24.5l79 -23.5c20.667 -6.33301 44.167 -14 70.5 -23
s47.666 -17.167 63.999 -24.5s34.166 -16.333 53.499 -27s34.833 -21.167 46.5 -31.5s23.5 -22.333 35.5 -36s21 -28 27 -43s11 -31.833 15 -50.5s6 -39 6 -61c0 -102.667 -38.333 -183.167 -115 -241.5s-179.667 -87.5 -309 -87.5z" />
    <glyph glyph-name="Tcedilla" unicode="&#x162;" horiz-adv-x="1261" 
d="M748 1251l-0.000976562 -1251h-27c75.333 -59.333 113 -127 113 -203c0 -58.667 -19.667 -105.334 -59 -140.001s-94.333 -52 -165 -52c-84 0 -164.333 19.667 -241 59l57 121c52 -28.667 100.333 -43 145 -43c38.667 0 68.834 8.16699 90.501 24.5
s32.5 40.166 32.5 71.499c0 30.667 -10.5 58.667 -31.5 84s-52.833 51.333 -95.5 78h-51v1251h-485v203h1200v-203h-483z" />
    <glyph glyph-name="tcedilla" unicode="&#x163;" horiz-adv-x="751" 
d="M545 -6c69.333 -58 104 -123.666 104 -196.999c0 -58.667 -19.5 -105.334 -58.5 -140.001s-93.833 -52 -164.5 -52c-84.667 0 -165.334 19.667 -242.001 59l58 121c52 -28.667 100.333 -43 145 -43c38.667 0 68.834 8.16699 90.501 24.5s32.5 40.166 32.5 71.499
c0 52.667 -35.667 102 -107 148c-64 7.33301 -115.5 31 -154.5 71s-58.5 96.667 -58.5 170v670h-141v174h141v352h226v-352h233v-174h-233v-598c2 -36 13.333 -63.167 34 -81.5s47.334 -27.5 80.001 -27.5c47.333 0 98.666 14.333 153.999 43l47 -178
c-70.667 -31.333 -132.667 -51.666 -186 -60.999z" />
    <glyph glyph-name="Tcaron" unicode="&#x164;" horiz-adv-x="1261" 
d="M465 1874l174 -129l174 129l121 -57l-213 -195h-162l-213 195zM1231 1251h-483v-1251h-232v1251h-485v203h1200v-203z" />
    <glyph glyph-name="tcaron" unicode="&#x165;" horiz-adv-x="751" 
d="M674 1225l-148 45l117 225h215zM731 55c-100 -47.333 -193.333 -70.999 -280 -70.999c-76 0 -138.5 20.167 -187.5 60.5s-73.5 101.166 -73.5 182.499v670h-141v174h141v352h226v-352h233v-174h-233v-598c2 -36 13.333 -63.167 34 -81.5s47.334 -27.5 80.001 -27.5
c47.333 0 98.666 14.333 153.999 43z" />
    <glyph glyph-name="Tbar" unicode="&#x166;" horiz-adv-x="1316" 
d="M1257 1251h-483v-491h391v-146h-391v-614h-231v614h-391v146h391v491h-486v203h1200v-203z" />
    <glyph glyph-name="tbar" unicode="&#x167;" horiz-adv-x="753" 
d="M686 233l47 -177.999c-100 -47.333 -193.333 -71 -280 -71c-76 0 -138.333 20.167 -187 60.5s-73 101.166 -73 182.499v310h-123v139h123v221h-142v174h142v352h225v-352h233v-174h-233v-221h209v-139h-209v-238c2 -36 13.333 -63.167 34 -81.5
s47.334 -27.5 80.001 -27.5c47.333 0 98.666 14.333 153.999 43z" />
    <glyph glyph-name="Utilde" unicode="&#x168;" 
d="M635 1726c-21.333 0 -39.333 -4.50195 -54 -13.502s-25 -20 -31 -33s-10 -23.667 -12 -32s-3 -14.833 -3 -19.5h-127c0 10 2 23.667 6 41s11.5 37.5 22.5 60.5s24.333 44.333 40 64s36.667 36.334 63 50.001s55.5 20.5 87.5 20.5c34 0 66.333 -7.5 97 -22.5l88 -45
c28 -15 55.667 -22.5 83 -22.5c18.667 0 35.167 3.33301 49.5 10s25.333 14.334 33 23.001s13.834 18.167 18.501 28.5s7.5 18.5 8.5 24.5s1.5 10.667 1.5 14h129c0 -8.66699 -2.16699 -21.334 -6.5 -38.001s-12.333 -36.667 -24 -60s-25.834 -45 -42.501 -65
s-39.167 -37.167 -67.5 -51.5s-59.5 -21.5 -93.5 -21.5c-35.333 0 -69 7.33301 -101 22s-61.5 29.334 -88.5 44.001s-52.5 22 -76.5 22zM770 -10.002c-90 0 -170.831 13.333 -242.498 40s-131.167 62.334 -178.5 107.001s-86.666 98.5 -117.999 161.5s-53.833 129 -67.5 198
s-20.5 142.5 -20.5 220.5v737h230v-737c0 -55.333 4 -107.5 12 -156.5s21.833 -96.167 41.5 -141.5s44.167 -84 73.5 -116s67 -57.667 113 -77s98.333 -29 157 -29c59.333 0 112.166 9.83301 158.499 29.5s84.166 45.834 113.499 78.501s53.666 71.667 72.999 117
s32.833 92.166 40.5 140.499s11.5 99.833 11.5 154.5v737h232v-737c0 -102 -12 -195.833 -36 -281.5s-60.5 -162.334 -109.5 -230.001s-114.667 -120.5 -197 -158.5s-177.833 -57 -286.5 -57z" />
    <glyph glyph-name="utilde" unicode="&#x169;" horiz-adv-x="1247" 
d="M473 1348c-21.333 0 -39.333 -4.50293 -54 -13.5029s-25 -20.167 -31 -33.5s-10 -24.166 -12 -32.499s-3 -14.833 -3 -19.5h-127c0 10 2 23.667 6 41s11.5 37.5 22.5 60.5s24.333 44.333 40 64s36.667 36.334 63 50.001s55.5 20.5 87.5 20.5c34 0 66.333 -7.5 97 -22.5
l88 -45c28 -15 55.667 -22.5 83 -22.5c18.667 0 35.167 3.33301 49.5 10s25.333 14.334 33 23.001s13.834 18.167 18.501 28.5s7.5 18.5 8.5 24.5s1.5 10.667 1.5 14h129c0 -8.66699 -2.16699 -21.334 -6.5 -38.001s-12.333 -36.5 -24 -59.5s-25.834 -44.667 -42.501 -65
s-39.167 -37.5 -67.5 -51.5s-59.5 -21 -93.5 -21c-35.333 0 -69 7.33301 -101 22s-61.5 29.334 -88.5 44.001s-52.5 22 -76.5 22zM125 415.997l-0.00195312 655.002h225v-610c0 -95.333 17.333 -167.333 52 -216s85.667 -73 153 -73c65.333 0 126.5 20.167 183.5 60.5
s100.833 97.166 131.5 170.499v668h226v-817c0 -26 4.66699 -44.667 14 -56s25 -17.333 47 -18v-180c-39.333 -6.66699 -72.666 -10 -99.999 -10c-41.333 0 -76 11.167 -104 33.5s-43.333 51.5 -46 87.5l-4 106c-47.333 -76.667 -109.166 -135.334 -185.499 -176.001
s-160.5 -61 -252.5 -61c-111.333 0 -195.833 36.833 -253.5 110.5s-86.5 182.167 -86.5 325.5z" />
    <glyph glyph-name="Umacron" unicode="&#x16a;" 
d="M469 1698v143h606v-143h-606zM770 -10c-90 0 -170.831 13.333 -242.498 40s-131.167 62.334 -178.5 107.001s-86.666 98.5 -117.999 161.5s-53.833 129 -67.5 198s-20.5 142.5 -20.5 220.5v737h230v-737c0 -55.333 4 -107.5 12 -156.5s21.833 -96.167 41.5 -141.5
s44.167 -84 73.5 -116s67 -57.667 113 -77s98.333 -29 157 -29c59.333 0 112.166 9.83301 158.499 29.5s84.166 45.834 113.499 78.501s53.666 71.667 72.999 117s32.833 92.166 40.5 140.499s11.5 99.833 11.5 154.5v737h232v-737c0 -102 -12 -195.833 -36 -281.5
s-60.5 -162.334 -109.5 -230.001s-114.667 -120.5 -197 -158.5s-177.833 -57 -286.5 -57z" />
    <glyph glyph-name="umacron" unicode="&#x16b;" horiz-adv-x="1247" 
d="M307 1319v143h606v-143h-606zM125 416l-0.00195312 655.002h225v-610c0 -95.333 17.333 -167.333 52 -216s85.667 -73 153 -73c65.333 0 126.5 20.167 183.5 60.5s100.833 97.166 131.5 170.499v668h226v-817c0 -26 4.66699 -44.667 14 -56s25 -17.333 47 -18v-180
c-39.333 -6.66699 -72.666 -10 -99.999 -10c-41.333 0 -76 11.167 -104 33.5s-43.333 51.5 -46 87.5l-4 106c-47.333 -76.667 -109.166 -135.334 -185.499 -176.001s-160.5 -61 -252.5 -61c-111.333 0 -195.833 36.833 -253.5 110.5s-86.5 182.167 -86.5 325.5z" />
    <glyph glyph-name="Ubreve" unicode="&#x16c;" 
d="M889 1874h125c0 -71.333 -23.333 -130.833 -70 -178.5s-104.667 -71.5 -174 -71.5s-127.333 23.833 -174 71.5s-70 107.167 -70 178.5h125c0 -38.667 12 -72.5 36 -101.5s51.667 -43.5 83 -43.5c30 0 56.333 13.667 79 41s36 62 40 104zM770 -10
c-90 0 -170.831 13.333 -242.498 40s-131.167 62.334 -178.5 107.001s-86.666 98.5 -117.999 161.5s-53.833 129 -67.5 198s-20.5 142.5 -20.5 220.5v737h230v-737c0 -55.333 4 -107.5 12 -156.5s21.833 -96.167 41.5 -141.5s44.167 -84 73.5 -116s67 -57.667 113 -77
s98.333 -29 157 -29c59.333 0 112.166 9.83301 158.499 29.5s84.166 45.834 113.499 78.501s53.666 71.667 72.999 117s32.833 92.166 40.5 140.499s11.5 99.833 11.5 154.5v737h232v-737c0 -102 -12 -195.833 -36 -281.5s-60.5 -162.334 -109.5 -230.001
s-114.667 -120.5 -197 -158.5s-177.833 -57 -286.5 -57z" />
    <glyph glyph-name="ubreve" unicode="&#x16d;" horiz-adv-x="1247" 
d="M727 1495h124.999c0 -71.333 -23.333 -130.833 -70 -178.5s-104.667 -71.5 -174 -71.5s-127.166 23.833 -173.499 71.5s-69.5 107.167 -69.5 178.5h124c0 -38.667 12 -72.5 36 -101.5s51.667 -43.5 83 -43.5c30 0 56.333 13.667 79 41s36 62 40 104zM124.999 416
l-0.00195312 655.002h225v-610c0 -95.333 17.333 -167.333 52 -216s85.667 -73 153 -73c65.333 0 126.5 20.167 183.5 60.5s100.833 97.166 131.5 170.499v668h226v-817c0 -26 4.66699 -44.667 14 -56s25 -17.333 47 -18v-180c-39.333 -6.66699 -72.666 -10 -99.999 -10
c-41.333 0 -76 11.167 -104 33.5s-43.333 51.5 -46 87.5l-4 106c-47.333 -76.667 -109.166 -135.334 -185.499 -176.001s-160.5 -61 -252.5 -61c-111.333 0 -195.833 36.833 -253.5 110.5s-86.5 182.167 -86.5 325.5z" />
    <glyph glyph-name="Uring" unicode="&#x16e;" 
d="M770 1915c61.333 0 110.833 -16.833 148.5 -50.5s56.5 -78.167 56.5 -133.5c0 -54 -18.667 -97.333 -56 -130s-87 -49 -149 -49c-60 0 -108.833 16.333 -146.5 49s-56.5 76 -56.5 130c0 55.333 18.833 99.833 56.5 133.5s86.5 50.5 146.5 50.5zM678 1731
c0 -26 8.83301 -48 26.5 -66s39.5 -27 65.5 -27s48.5 9 67.5 27s28.5 40 28.5 66c0 28.667 -9 51.5 -27 68.5s-41 25.5 -69 25.5c-26 0 -47.833 -8.5 -65.5 -25.5s-26.5 -39.833 -26.5 -68.5zM770 -10c-90 0 -170.831 13.333 -242.498 40s-131.167 62.334 -178.5 107.001
s-86.666 98.5 -117.999 161.5s-53.833 129 -67.5 198s-20.5 142.5 -20.5 220.5v737h230v-737c0 -55.333 4 -107.5 12 -156.5s21.833 -96.167 41.5 -141.5s44.167 -84 73.5 -116s67 -57.667 113 -77s98.333 -29 157 -29c59.333 0 112.166 9.83301 158.499 29.5
s84.166 45.834 113.499 78.501s53.666 71.667 72.999 117s32.833 92.166 40.5 140.499s11.5 99.833 11.5 154.5v737h232v-737c0 -102 -12 -195.833 -36 -281.5s-60.5 -162.334 -109.5 -230.001s-114.667 -120.5 -197 -158.5s-177.833 -57 -286.5 -57z" />
    <glyph glyph-name="uring" unicode="&#x16f;" horiz-adv-x="1247" 
d="M608 1536c61.333 0 110.833 -16.833 148.5 -50.5s56.5 -78.167 56.5 -133.5c0 -54 -18.667 -97.167 -56 -129.5s-87 -48.5 -149 -48.5c-60 0 -108.667 16.167 -146 48.5s-56 75.5 -56 129.5c0 55.333 18.667 99.833 56 133.5s86 50.5 146 50.5zM516 1352
c0 -26 8.83301 -47.833 26.5 -65.5s39.5 -26.5 65.5 -26.5s48.667 8.83301 68 26.5s29 39.5 29 65.5c0 28.667 -9.16699 51.5 -27.5 68.5s-41.5 25.5 -69.5 25.5c-26 0 -47.833 -8.5 -65.5 -25.5s-26.5 -39.833 -26.5 -68.5zM125 416l-0.00195312 655.002h225v-610
c0 -95.333 17.333 -167.333 52 -216s85.667 -73 153 -73c65.333 0 126.5 20.167 183.5 60.5s100.833 97.166 131.5 170.499v668h226v-817c0 -26 4.66699 -44.667 14 -56s25 -17.333 47 -18v-180c-39.333 -6.66699 -72.666 -10 -99.999 -10c-41.333 0 -76 11.167 -104 33.5
s-43.333 51.5 -46 87.5l-4 106c-47.333 -76.667 -109.166 -135.334 -185.499 -176.001s-160.5 -61 -252.5 -61c-111.333 0 -195.833 36.833 -253.5 110.5s-86.5 182.167 -86.5 325.5z" />
    <glyph glyph-name="Udblacute" unicode="&#x170;" 
d="M641 1606l-113 45l105 225h182zM944 1606l-115 45l105 225h184zM770 -10c-90 0 -170.831 13.333 -242.498 40s-131.167 62.334 -178.5 107.001s-86.666 98.5 -117.999 161.5s-53.833 129 -67.5 198s-20.5 142.5 -20.5 220.5v737h230v-737c0 -55.333 4 -107.5 12 -156.5
s21.833 -96.167 41.5 -141.5s44.167 -84 73.5 -116s67 -57.667 113 -77s98.333 -29 157 -29c59.333 0 112.166 9.83301 158.499 29.5s84.166 45.834 113.499 78.501s53.666 71.667 72.999 117s32.833 92.166 40.5 140.499s11.5 99.833 11.5 154.5v737h232v-737
c0 -102 -12 -195.833 -36 -281.5s-60.5 -162.334 -109.5 -230.001s-114.667 -120.5 -197 -158.5s-177.833 -57 -286.5 -57z" />
    <glyph glyph-name="udblacute" unicode="&#x171;" horiz-adv-x="1247" 
d="M479 1227l-112 45l104 225h182zM782 1227l-114 45l104 225h184zM125 416l-0.00195312 655.002h225v-610c0 -95.333 17.333 -167.333 52 -216s85.667 -73 153 -73c65.333 0 126.5 20.167 183.5 60.5s100.833 97.166 131.5 170.499v668h226v-817
c0 -26 4.66699 -44.667 14 -56s25 -17.333 47 -18v-180c-39.333 -6.66699 -72.666 -10 -99.999 -10c-41.333 0 -76 11.167 -104 33.5s-43.333 51.5 -46 87.5l-4 106c-47.333 -76.667 -109.166 -135.334 -185.499 -176.001s-160.5 -61 -252.5 -61
c-111.333 0 -195.833 36.833 -253.5 110.5s-86.5 182.167 -86.5 325.5z" />
    <glyph glyph-name="Uogonek" unicode="&#x172;" 
d="M1167 1454l232.003 -0.000976562v-737c0 -90 -9.33301 -174 -28 -252s-47.167 -149.167 -85.5 -213.5s-89 -118.166 -152 -161.499s-136.5 -72.666 -220.5 -87.999c-103.333 -74 -155 -135.333 -155 -184c0 -48 51.667 -74 155 -78l-47 -133
c-93.333 7.33301 -159.333 27.166 -198 59.499s-58 70.5 -58 114.5c0 72.667 41 142.334 123 209.001c-84 3.33301 -159.833 19.166 -227.5 47.499s-123.667 65 -168 110s-81.333 98.5 -111 160.5s-51 126.667 -64 194s-19.5 139 -19.5 215v737h230v-737
c0 -55.333 4 -107.5 12 -156.5s21.833 -96.167 41.5 -141.5s44.167 -84 73.5 -116s67 -57.667 113 -77s98.333 -29 157 -29c59.333 0 112.166 9.83301 158.499 29.5s84.166 45.834 113.499 78.501s53.666 71.667 72.999 117s32.833 92.166 40.5 140.499
s11.5 99.833 11.5 154.5v737z" />
    <glyph glyph-name="uogonek" unicode="&#x173;" horiz-adv-x="1247" 
d="M1157 0c-105.333 -76 -158.001 -137.997 -158.001 -185.997s52 -74 156 -78l-47 -133c-93.333 7.33301 -159.333 27.166 -198 59.499s-58 70.5 -58 114.5c0 78 47 152.333 141 223c-24.667 9.33301 -44.667 23.833 -60 43.5s-24 42.167 -26 67.5l-4 106
c-47.333 -76.667 -109.166 -135.334 -185.499 -176.001s-160.5 -61 -252.5 -61c-111.333 0 -195.833 36.833 -253.5 110.5s-86.5 182.167 -86.5 325.5v655h225v-610c0 -95.333 17.333 -167.333 52 -216s85.667 -73 153 -73c65.333 0 126.5 20.167 183.5 60.5
s100.833 97.166 131.5 170.499v668h226v-817c0 -26 4.66699 -44.667 14 -56s25 -17.333 47 -18v-180z" />
    <glyph glyph-name="Wcircumflex" unicode="&#x174;" horiz-adv-x="2152" 
d="M782 1679l213 195h162l213 -195l-121 -57l-174 129l-174 -129zM680 1448h215l180 -494l182 494h216l-250 -647l217 -535l452 1188h252l-596 -1454h-198l-273 651l-274 -651h-201l-594 1454h250l455 -1188l217 535z" />
    <glyph glyph-name="wcircumflex" unicode="&#x175;" horiz-adv-x="1699" 
d="M557 1300l213 195h162l213 -195l-121 -57l-174 129l-174 -129zM1470 1071h216l-451 -1071h-193l-192 483l-193 -483h-192l-453 1071h215l344 -852l152 395l-184 455h190l121 -334l119 334h190l-182 -455l151 -395z" />
    <glyph glyph-name="Ycircumflex" unicode="&#x176;" horiz-adv-x="1345" 
d="M379 1679l213 195h162l213 -195l-121 -57l-174 129l-174 -129zM270 1454l402 -723l405 723h252l-543 -934v-520h-229v524l-539 930h252z" />
    <glyph glyph-name="ycircumflex" unicode="&#x177;" horiz-adv-x="1120" 
d="M289 1300l213 195h162l213 -195l-121 -57l-174 129l-174 -129zM172 -252c48 -9.33301 84.335 -14 109.002 -14c34.667 0 63.167 16.833 85.5 50.5s53.166 105.5 92.499 215.5l-441 1071h236l328 -842l290 842h218l-486 -1319
c-22.667 -64 -61.834 -116.167 -117.501 -156.5s-123.5 -60.5 -203.5 -60.5c-36 0 -73 5.33301 -111 16v197z" />
    <glyph glyph-name="Ydieresis" unicode="&#x178;" horiz-adv-x="1345" 
d="M397 1640v226h189v-226h-189zM760 1640v226h188v-226h-188zM270 1454l402 -723l405 723h252l-543 -934v-520h-229v524l-539 930h252z" />
    <glyph glyph-name="Zacute" unicode="&#x179;" horiz-adv-x="1288" 
d="M752 1604l-148 45l117 225h215zM63 176l879 1075h-858v203h1130v-176l-856 -1075h859v-203h-1154v176z" />
    <glyph glyph-name="zacute" unicode="&#x17a;" horiz-adv-x="1009" 
d="M594 1225l-148 45l117 225h215zM57 141l635 770h-612v160h858v-141l-631 -770h637v-160h-887v141z" />
    <glyph glyph-name="Zdot" unicode="&#x17b;" horiz-adv-x="1288" 
d="M571 1638v236h203v-236h-203zM63 176l879 1075h-858v203h1130v-176l-856 -1075h859v-203h-1154v176z" />
    <glyph glyph-name="zdot" unicode="&#x17c;" horiz-adv-x="1009" 
d="M414 1260v235h202v-235h-202zM57 141l635 770h-612v160h858v-141l-631 -770h637v-160h-887v141z" />
    <glyph glyph-name="Zcaron" unicode="&#x17d;" horiz-adv-x="1288" 
d="M500 1874l174 -129l174 129l121 -57l-213 -195h-162l-213 195zM63 176l879 1075h-858v203h1130v-176l-856 -1075h859v-203h-1154v176z" />
    <glyph glyph-name="zcaron" unicode="&#x17e;" horiz-adv-x="1009" 
d="M342 1495l174 -129l174 129l121 -57l-213 -195h-162l-213 195zM57 141l635 770h-612v160h858v-141l-631 -770h637v-160h-887v141z" />
    <glyph glyph-name="Schwa" unicode="&#x18f;" horiz-adv-x="1517" 
d="M49 711c0 46.667 1.99902 80.0029 5.99902 100.003h1135c-13.333 130 -62.5 236.5 -147.5 319.5s-184.833 124.5 -299.5 124.5c-86.667 0 -166 -23.333 -238 -70s-119.667 -106.334 -143 -179.001l-225 88c53.333 110.667 136.5 200 249.5 268s236.167 102 369.5 102
c96.667 0 187.834 -20 273.501 -60s158.667 -93.333 219 -160s108 -144.834 143 -234.501s52.5 -183.167 52.5 -280.5c0 -132.667 -29.5 -255.334 -88.5 -368.001s-141.833 -202.667 -248.5 -270s-225.667 -101 -357 -101c-98 0 -191 19.833 -279 59.5
s-162.5 92.5 -223.5 158.5s-109.333 142.833 -145 230.5s-53.5 178.5 -53.5 272.5zM1192 623.003h-893c6 -80 29.833 -152.833 71.5 -218.5s96.5 -117 164.5 -154s141.667 -55.5 221 -55.5c116.667 0 216 40.333 298 121s128 183 138 307z" />
    <glyph glyph-name="florin" unicode="&#x192;" horiz-adv-x="1107" 
d="M61 -299l101 152c34 -32 77.667 -48 131 -48c40.667 0 76 15 106 45s45 67 45 111v811h-141v174h141v141c0 130.667 31 234.834 93 312.501s145 116.5 249 116.5c87.333 0 170.666 -22 249.999 -66l-49 -168c-47.333 28.667 -98.333 43 -153 43
c-53.333 0 -94 -19.833 -122 -59.5s-42 -96.834 -42 -171.501v-148h274v-174h-274v-805c0 -103.333 -34.667 -188.833 -104 -256.5s-151.666 -101.5 -246.999 -101.5c-104 0 -190 30.667 -258 92z" />
    <glyph glyph-name="Ohorn" unicode="&#x1a0;" 
d="M1141 1352c100.667 -68.667 180.002 -159.835 238.002 -273.502s87 -231.5 87 -353.5c0 -96 -17.833 -188.667 -53.5 -278s-83.834 -167.666 -144.501 -234.999s-134.667 -121.166 -222 -161.499s-180 -60.5 -278 -60.5c-81.333 0 -158.666 13.5 -231.999 40.5
s-137.833 64.167 -193.5 111.5s-104 102 -145 164s-72.167 129.167 -93.5 201.5s-32 145.5 -32 219.5c0 96 17.833 188.833 53.5 278.5s84.167 168.167 145.5 235.5s135.666 121.333 222.999 162s180 61 278 61c36 0 75.667 -3.33301 119 -10
c87.333 0 144.666 15.667 171.999 47c21.333 25.333 33 68.333 35 129h172c-2.66699 -50 -9.16699 -94.167 -19.5 -132.5s-29.833 -73.166 -58.5 -104.499c-12.667 -14.667 -29.667 -28.334 -51 -41.001zM770.002 196.999c70.667 0 135.669 15.332 195.002 45.999
s108 71.167 146 121.5s67.5 106.833 88.5 169.5s31.5 127 31.5 193c0 68.667 -11.167 134.834 -33.5 198.501s-53 120 -92 169s-87.667 88 -146 117s-121.5 43.5 -189.5 43.5c-70.667 0 -135.834 -15.167 -195.501 -45.5s-108.834 -70.5 -147.501 -120.5
s-68.667 -106.333 -90 -169s-32 -127 -32 -193c0 -92 18.5 -178 55.5 -258s91.5 -145.333 163.5 -196s154 -76 246 -76z" />
    <glyph glyph-name="ohorn" unicode="&#x1a1;" horiz-adv-x="1232" 
d="M979 961c59.333 -51.333 105.498 -114.167 138.498 -188.5s49.5 -153.5 49.5 -237.5c0 -99.333 -22.333 -191 -67 -275s-109.5 -151.667 -194.5 -203s-181.5 -77 -289.5 -77c-82 0 -157.833 15 -227.5 45s-127.834 70.333 -174.501 121s-83 109.667 -109 177
s-39 138 -39 212s13.333 144.667 40 212s63.334 126.333 110.001 177s104.834 91 174.501 121s144.834 45 225.501 45c44 0 91.333 -5.66699 142 -17c78.667 0 132.667 15.667 162 47c20.667 24.667 32 67.667 34 129h172c-2.66699 -50.667 -9 -95 -19 -133
s-29.333 -72.667 -58 -104c-16.667 -18.667 -40 -35.667 -70 -51zM615.998 171.999c89.333 0 165 35.001 227 105.001s93 156 93 258s-31 187.833 -93 257.5s-137.667 104.5 -227 104.5c-88.667 0 -164 -35.333 -226 -106s-93 -157 -93 -259
c0 -102.667 30.833 -188.334 92.5 -257.001s137.167 -103 226.5 -103z" />
    <glyph glyph-name="Uhorn" unicode="&#x1af;" 
d="M1468 1632h172.003c-2.66699 -50.667 -9 -95 -19 -133s-29.333 -72.667 -58 -104c-35.333 -39.333 -90 -67.333 -164 -84v-594c0 -102 -12 -195.833 -36 -281.5s-60.5 -162.334 -109.5 -230.001s-114.667 -120.5 -197 -158.5s-177.833 -57 -286.5 -57
c-90 0 -170.833 13.333 -242.5 40s-131.167 62.334 -178.5 107.001s-86.666 98.5 -117.999 161.5s-53.833 129 -67.5 198s-20.5 142.5 -20.5 220.5v737h230v-737c0 -55.333 4 -107.5 12 -156.5s21.833 -96.167 41.5 -141.5s44.167 -84 73.5 -116s67 -57.667 113 -77
s98.333 -29 157 -29c59.333 0 112.166 9.83301 158.499 29.5s84.166 45.834 113.499 78.501s53.666 71.667 72.999 117s32.833 92.166 40.5 140.499s11.5 99.833 11.5 154.5v737h95v2c87.333 0 144.666 15.667 171.999 47c20.667 24.667 32 67.667 34 129z" />
    <glyph glyph-name="uhorn" unicode="&#x1b0;" horiz-adv-x="1247" 
d="M1171 1247l171.999 0.00195312c-2.66699 -50.667 -9 -95 -19 -133s-29.333 -72.667 -58 -104c-37.333 -41.333 -94 -69.333 -170 -84v-672c0 -26 4.66699 -44.667 14 -56s25 -17.333 47 -18v-180c-39.333 -6.66699 -72.666 -10 -99.999 -10
c-41.333 0 -76 11.167 -104 33.5s-43.333 51.5 -46 87.5l-4 106c-47.333 -76.667 -109.166 -135.334 -185.499 -176.001s-160.5 -61 -252.5 -61c-111.333 0 -195.833 36.833 -253.5 110.5s-86.5 182.167 -86.5 325.5v655h225v-610c0 -95.333 17.333 -167.333 52 -216
s85.667 -73 153 -73c65.333 0 126.5 20.167 183.5 60.5s100.833 97.166 131.5 170.499v668h95c87.333 0 144.666 15.667 171.999 47c20.667 24.667 32 67.667 34 129z" />
    <glyph glyph-name="Gcaron" unicode="&#x1e6;" horiz-adv-x="1472" 
d="M846 1622h-162l-213 195l119 57l174 -129l174 129l121 -57zM877 735h497.003v-735h-192v180c-120.667 -126.667 -262 -190 -424 -190c-94 0 -183.5 20.333 -268.5 61s-157.667 94.667 -218 162s-108.333 146.5 -144 237.5s-53.5 185.167 -53.5 282.5
s17.667 190.833 53 280.5s83.166 167.5 143.499 233.5s133.666 118.667 219.999 158s178.166 59 275.499 59c134 0 248.833 -28.167 344.5 -84.5s168.5 -133.833 218.5 -232.5l-176 -127c-39.333 77.333 -93.333 136.166 -162 176.499s-145.667 60.5 -231 60.5
c-88.667 0 -168 -24.833 -238 -74.5s-123.333 -114.667 -160 -195s-55 -167.166 -55 -260.499c0 -147.333 45 -272.5 135 -375.5s201.333 -154.5 334 -154.5c150.667 0 286 71 406 213v155h-305v170z" />
    <glyph glyph-name="gcaron" unicode="&#x1e7;" horiz-adv-x="1288" 
d="M453 1495l174 -129l174 129l121 -57l-213 -195h-162l-213 195zM70 535c0 101.333 20.834 194.168 62.501 278.501s100.667 151.5 177 201.5s162.166 75 257.499 75c82.667 0 156.834 -19.833 222.501 -59.5s120.5 -93.834 164.5 -162.501v203h199v-1040
c0 -100.667 -25 -188.334 -75 -263.001s-117.667 -130.834 -203 -168.501s-182.333 -56.5 -291 -56.5c-216 0 -380.667 76.667 -494 230l127 118c40 -56.667 92.5 -100.167 157.5 -130.5s134.833 -45.5 209.5 -45.5c63.333 0 120.333 10.833 171 32.5s92.167 57 124.5 106
s48.5 108.167 48.5 177.5v164c-37.333 -63.333 -89.5 -113.333 -156.5 -150s-137.833 -55 -212.5 -55c-93.333 0 -177.833 25.333 -253.5 76s-133.834 117.334 -174.501 200.001s-61 172.334 -61 269.001zM928.001 385.002l0.000976562 281.001
c-26.667 67.333 -69.334 122.666 -128.001 165.999s-120 65 -184 65c-62.667 0 -118.667 -18.167 -168 -54.5s-86.5 -82.333 -111.5 -138s-37.5 -114.5 -37.5 -176.5c0 -98 32.333 -181.833 97 -251.5s143.667 -104.5 237 -104.5c66 0 127.5 21 184.5 63
s93.833 92 110.5 150z" />
    <glyph glyph-name="Oogonek" unicode="&#x1ea;" 
d="M926 8c-100 -73.333 -149.999 -133.332 -149.999 -179.999c0 -48 52 -74 156 -78l-47 -133c-93.333 7.33301 -159.333 27.166 -198 59.499s-58 70.5 -58 114.5c0 72 36.667 138.333 110 199c-96.667 4 -187.167 27.5 -271.5 70.5s-155 98.667 -212 167
s-101.833 145.833 -134.5 232.5s-49 175.667 -49 267c0 96 17.833 188.833 53.5 278.5s84.167 168.167 145.5 235.5s135.666 121.333 222.999 162s180 61 278 61c100.667 0 195 -21.333 283 -64s161.5 -98.834 220.5 -168.501s105.5 -148.667 139.5 -237
s51 -178.166 51 -269.499c0 -168.667 -50.5 -320.667 -151.5 -456s-230.5 -222.333 -388.5 -261zM305.001 727.001c0 -92 18.502 -178.001 55.502 -258.001s91.5 -145.333 163.5 -196s154 -76 246 -76c70.667 0 135.667 15.333 195 46s108 71.167 146 121.5
s67.5 106.833 88.5 169.5s31.5 127 31.5 193c0 68.667 -11.167 134.834 -33.5 198.501s-53 120 -92 169s-87.667 88 -146 117s-121.5 43.5 -189.5 43.5c-70.667 0 -135.834 -15.167 -195.501 -45.5s-108.834 -70.5 -147.501 -120.5s-68.667 -106.333 -90 -169
s-32 -127 -32 -193z" />
    <glyph glyph-name="oogonek" unicode="&#x1eb;" horiz-adv-x="1232" 
d="M768 -2c-104 -74.667 -156.006 -136 -156.006 -184s52 -74 156 -78l-47 -133c-93.333 7.33301 -159.333 27.166 -198 59.499s-58 70.5 -58 114.5c0 70.667 38.333 138.334 115 203.001c-101.333 6 -191.666 35.167 -270.999 87.5s-139.666 119.333 -180.999 201
s-62 170.5 -62 266.5c0 74 13.333 144.667 40 212s63.334 126.333 110.001 177s104.834 91 174.501 121s144.834 45 225.501 45c108 0 204.5 -25.667 289.5 -77s149.833 -119 194.5 -203s67 -175.667 67 -275c0 -126.667 -36.167 -239.667 -108.5 -339
s-169.166 -165.333 -290.499 -198zM296.994 532c0 -102.667 30.833 -188.333 92.5 -257s137.167 -103 226.5 -103s165 35 227 105s93 156 93 258s-31 187.833 -93 257.5s-137.667 104.5 -227 104.5c-88.667 0 -164 -35.333 -226 -106s-93 -157 -93 -259z" />
    <glyph glyph-name="Aringacute" unicode="&#x1fa;" horiz-adv-x="1382" 
d="M813 1419l553.001 -1419h-242l-153 395h-561l-152 -395h-244l557 1421c-54.667 33.333 -82 82.666 -82 147.999c0 44.667 13.167 83 39.5 115s61.166 53 104.499 63l92 166h215l-135 -184c61.333 -33.333 92 -86.666 92 -159.999c0 -67.333 -28 -117.333 -84 -150z
M692.001 1663c-26 0 -47.833 -8.5 -65.5 -25.5s-26.5 -39.833 -26.5 -68.5c0 -26 8.83301 -47.833 26.5 -65.5s39.5 -26.5 65.5 -26.5s48.5 8.83301 67.5 26.5s28.5 39.5 28.5 65.5c0 28.667 -9 51.5 -27 68.5s-41 25.5 -69 25.5zM451.001 565h475l-234 637z" />
    <glyph glyph-name="aringacute" unicode="&#x1fb;" horiz-adv-x="1155" 
d="M647 1606l-147 45l116 225h215zM551 1536c61.333 0 110.833 -16.833 148.5 -50.5s56.5 -78.167 56.5 -133.5c0 -54 -18.667 -97.167 -56 -129.5s-87 -48.5 -149 -48.5c-60 0 -108.833 16.167 -146.5 48.5s-56.5 75.5 -56.5 129.5c0 55.333 18.833 99.833 56.5 133.5
s86.5 50.5 146.5 50.5zM459 1352c0 -26 8.83301 -47.833 26.5 -65.5s39.5 -26.5 65.5 -26.5s48.5 8.83301 67.5 26.5s28.5 39.5 28.5 65.5c0 28.667 -9 51.5 -27 68.5s-41 25.5 -69 25.5c-26 0 -47.833 -8.5 -65.5 -25.5s-26.5 -39.833 -26.5 -68.5zM57 313
c0 102 42.334 184.168 127.001 246.501s194.667 93.5 330 93.5c108.667 0 201.667 -14.333 279 -43v68c0 75.333 -23 134.166 -69 176.499s-110.667 63.5 -194 63.5c-57.333 0 -112.666 -10 -165.999 -30s-111.333 -50.333 -174 -91l-75 151c142 94.667 288.667 142 440 142
c144.667 0 258 -38.167 340 -114.5s123 -183.833 123 -322.5v-399c0 -25.333 4.5 -43.833 13.5 -55.5s24.167 -17.834 45.5 -18.501v-180c-36 -6.66699 -68 -10 -96 -10c-45.333 0 -80.833 11 -106.5 33s-40.834 49.667 -45.501 83l-6 62
c-46 -59.333 -104.833 -105.5 -176.5 -138.5s-145.167 -49.5 -220.5 -49.5c-106.667 0 -194.834 31.833 -264.501 95.5s-104.5 142.834 -104.5 237.501zM739.001 248.001c36 36 54.001 69.333 54.001 100v123c-78.667 30 -160.667 45 -246 45
c-82.667 0 -149.5 -16.667 -200.5 -50s-76.5 -78 -76.5 -134c0 -50.667 19.5 -94.5 58.5 -131.5s92.5 -55.5 160.5 -55.5c46.667 0 92.667 9.66699 138 29s82.666 44 111.999 74z" />
    <glyph glyph-name="AEacute" unicode="&#x1fc;" horiz-adv-x="1972" 
d="M1321 1604l-147 45l116 225h215zM866 1454h1016v-203h-725v-409h615v-203h-615v-436h744v-203h-973v395h-490l-241 -395h-248zM911 600v590l-372 -590h372z" />
    <glyph glyph-name="aeacute" unicode="&#x1fd;" horiz-adv-x="1914" 
d="M1030 1225l-147 45l116 225h215zM57 315c0 100 41.8398 181.331 125.507 243.998s192.167 94 325.5 94c98.667 0 183.334 -13.667 254.001 -41c5.33301 52 12.666 90.333 21.999 115c-8 65.333 -33.833 115.5 -77.5 150.5s-103.167 52.5 -178.5 52.5
c-105.333 0 -218 -41 -338 -123l-71 143c141.333 93.333 284.666 140 429.999 140c85.333 0 159.666 -15.167 222.999 -45.5s113.333 -73.5 150 -129.5c46.667 54 103.667 96.667 171 128s140.666 47 219.999 47c82 0 157.833 -14.833 227.5 -44.5s128 -69.667 175 -120
s83.667 -109.166 110 -176.499s39.833 -138.666 40.5 -213.999c0 -31.333 -2 -56 -6 -74h-875c6.66699 -92.667 42.667 -168.5 108 -227.5s142.666 -88.5 231.999 -88.5c61.333 0 118.5 15.167 171.5 45.5s89.5 69.833 109.5 118.5l192 -55
c-36.667 -81.333 -98.334 -147.333 -185.001 -198s-185.334 -76 -296.001 -76c-96.667 0 -184.334 20.333 -263.001 61s-142 96 -190 166c-44 -75.333 -107.833 -132 -191.5 -170s-168.5 -57 -254.5 -57c-102.667 0 -188.5 32 -257.5 96s-103.5 143.667 -103.5 239z
M1640.01 603.998c-8 94 -42.667 170.833 -104 230.5s-137 89.5 -227 89.5s-165.667 -30 -227 -90s-95 -136.667 -101 -230h659zM750.007 257.998c26 21.333 40.333 45.332 43 71.999c-18 40.667 -28.333 93 -31 157c-72.667 24.667 -145 37 -217 37
c-81.333 0 -147.833 -17.667 -199.5 -53s-77.5 -81 -77.5 -137c0 -53.333 20.333 -98.166 61 -134.499s90.667 -54.5 150 -54.5c56 0 108.667 10.167 158 30.5s87 47.833 113 82.5z" />
    <glyph glyph-name="Oslashacute" unicode="&#x1fe;" horiz-adv-x="1538" 
d="M1034 1874l-184 -270l-148 45l117 225h215zM1255 1253c66.667 -70.667 118.502 -152.169 155.502 -244.502s55.5 -186.833 55.5 -283.5c0 -96 -17.833 -188.667 -53.5 -278s-83.834 -167.666 -144.501 -234.999s-134.667 -121.166 -222 -161.499s-180 -60.5 -278 -60.5
c-115.333 0 -223.333 27.333 -324 82l-49 -72h-250l138 199c-66.667 69.333 -118.5 150.333 -155.5 243s-55.5 187.667 -55.5 285c0 96 17.833 188.833 53.5 278.5s84.167 168.167 145.5 235.5s135.666 121.333 222.999 162s180 61 278 61c116 0 222.667 -28 320 -84l51 74
h250zM305.002 726.998c0 -129.333 35.0029 -243.333 105.003 -342l563 819c-60.667 34 -128.334 51 -203.001 51c-70.667 0 -135.834 -15.167 -195.501 -45.5s-108.834 -70.5 -147.501 -120.5s-68.667 -106.333 -90 -169s-32 -127 -32 -193zM770.005 196.998
c70.667 0 135.667 15.333 195 46s108 71.167 146 121.5s67.5 106.833 88.5 169.5s31.5 127 31.5 193c0 130 -35 243.333 -105 340l-561 -819c60.667 -34 129 -51 205 -51z" />
    <glyph glyph-name="oslashacute" unicode="&#x1ff;" horiz-adv-x="1232" 
d="M786 1495l-184 -270l-147 45l116 225h215zM1004 938c52 -51.333 92.165 -111.832 120.498 -181.499s42.5 -143.5 42.5 -221.5c0 -99.333 -22.333 -191 -67 -275s-109.5 -151.667 -194.5 -203s-181.5 -77 -289.5 -77c-106 0 -202.667 25 -290 75l-52 -61h-163l114 141
c-50.667 50.667 -89.834 110.667 -117.501 180s-41.5 142.666 -41.5 219.999c0 74 13.333 144.667 40 212s63.334 126.333 110.001 177s104.834 91 174.501 121s144.834 45 225.501 45c104.667 0 199 -24.667 283 -74l49 61h168zM615.998 897.001
c-88.667 0 -164 -35.334 -226 -106.001s-93 -157 -93 -259c0 -87.333 24.667 -165.666 74 -234.999l399 557c-44.667 28.667 -96 43 -154 43zM615.998 172c89.333 0 165 35 227 105s93 156 93 258c0 90 -25.333 169 -76 237l-401 -555c46.667 -30 99 -45 157 -45z" />
    <glyph glyph-name="Adblgrave" unicode="&#x200;" horiz-adv-x="1382" 
d="M334 1876h184l105 -225l-115 -45zM637 1876h182l105 -225l-113 -45zM584 1454h217l565 -1454h-242l-153 395h-561l-152 -395h-244zM926 565l-234 637l-241 -637h475z" />
    <glyph glyph-name="adblgrave" unicode="&#x201;" horiz-adv-x="1155" 
d="M193 1497h184l104 -225l-114 -45zM496 1497h182l104 -225l-112 -45zM57 313c0 102 42.334 184.168 127.001 246.501s194.667 93.5 330 93.5c108.667 0 201.667 -14.333 279 -43v68c0 75.333 -23 134.166 -69 176.499s-110.667 63.5 -194 63.5
c-57.333 0 -112.666 -10 -165.999 -30s-111.333 -50.333 -174 -91l-75 151c142 94.667 288.667 142 440 142c144.667 0 258 -38.167 340 -114.5s123 -183.833 123 -322.5v-399c0 -25.333 4.5 -43.833 13.5 -55.5s24.167 -17.834 45.5 -18.501v-180
c-36 -6.66699 -68 -10 -96 -10c-45.333 0 -80.833 11 -106.5 33s-40.834 49.667 -45.501 83l-6 62c-46 -59.333 -104.833 -105.5 -176.5 -138.5s-145.167 -49.5 -220.5 -49.5c-106.667 0 -194.834 31.833 -264.501 95.5s-104.5 142.834 -104.5 237.501zM739.001 248.001
c36 36 54.001 69.333 54.001 100v123c-78.667 30 -160.667 45 -246 45c-82.667 0 -149.5 -16.667 -200.5 -50s-76.5 -78 -76.5 -134c0 -50.667 19.5 -94.5 58.5 -131.5s92.5 -55.5 160.5 -55.5c46.667 0 92.667 9.66699 138 29s82.666 44 111.999 74z" />
    <glyph glyph-name="Ainvertedbreve" unicode="&#x202;" horiz-adv-x="1382" 
d="M573 1624h-123.999c0 71.333 23.167 130.833 69.5 178.5s104.166 71.5 173.499 71.5s127.333 -23.833 174 -71.5s70 -107.167 70 -178.5h-125c-4 42 -17.333 76.667 -40 104s-49 41 -79 41c-31.333 0 -59 -14.5 -83 -43.5s-36 -62.833 -36 -101.5zM584.001 1454h217
l565 -1454h-242l-153 395h-561l-152 -395h-244zM926.001 565l-234 637l-241 -637h475z" />
    <glyph glyph-name="ainvertedbreve" unicode="&#x203;" horiz-adv-x="1155" 
d="M432 1245h-125c0 71.333 23.333 130.833 70 178.5s104.667 71.5 174 71.5s127.333 -23.833 174 -71.5s70 -107.167 70 -178.5h-125c-4 42 -17.333 76.833 -40 104.5s-49 41.5 -79 41.5c-31.333 0 -59 -14.667 -83 -44s-36 -63.333 -36 -102zM57 313
c0 102 42.334 184.168 127.001 246.501s194.667 93.5 330 93.5c108.667 0 201.667 -14.333 279 -43v68c0 75.333 -23 134.166 -69 176.499s-110.667 63.5 -194 63.5c-57.333 0 -112.666 -10 -165.999 -30s-111.333 -50.333 -174 -91l-75 151c142 94.667 288.667 142 440 142
c144.667 0 258 -38.167 340 -114.5s123 -183.833 123 -322.5v-399c0 -25.333 4.5 -43.833 13.5 -55.5s24.167 -17.834 45.5 -18.501v-180c-36 -6.66699 -68 -10 -96 -10c-45.333 0 -80.833 11 -106.5 33s-40.834 49.667 -45.501 83l-6 62
c-46 -59.333 -104.833 -105.5 -176.5 -138.5s-145.167 -49.5 -220.5 -49.5c-106.667 0 -194.834 31.833 -264.501 95.5s-104.5 142.834 -104.5 237.501zM739.001 248.001c36 36 54.001 69.333 54.001 100v123c-78.667 30 -160.667 45 -246 45
c-82.667 0 -149.5 -16.667 -200.5 -50s-76.5 -78 -76.5 -134c0 -50.667 19.5 -94.5 58.5 -131.5s92.5 -55.5 160.5 -55.5c46.667 0 92.667 9.66699 138 29s82.666 44 111.999 74z" />
    <glyph glyph-name="Edblgrave" unicode="&#x204;" horiz-adv-x="1234" 
d="M317 1876h185l104 -225l-114 -45zM621 1876h182l104 -225l-112 -45zM1161 203v-203h-997v1454h979v-203h-750v-413h649v-191h-649v-444h768z" />
    <glyph glyph-name="edblgrave" unicode="&#x205;" horiz-adv-x="1218" 
d="M258 1497h184l105 -225l-115 -45zM561 1497h182l105 -225l-113 -45zM621 -20c-108.667 0 -205.667 25.332 -291 75.999s-150.666 117.667 -195.999 201s-68 175 -68 275c0 75.333 13.5 147 40.5 215s64.167 127.333 111.5 178s106.166 90.834 176.499 120.501
s146.5 44.5 228.5 44.5s157.5 -15 226.5 -45s126.667 -70.167 173 -120.5s82.333 -108.5 108 -174.5s38.5 -135 38.5 -207c0 -18.667 -2 -46 -6 -82h-858c6.66699 -92.667 41.167 -168.5 103.5 -227.5s135.833 -88.5 220.5 -88.5c61.333 0 118.333 15.167 171 45.5
s89 69.833 109 118.5l193 -55c-38 -82 -100 -148.167 -186 -198.5s-184.333 -75.5 -295 -75.5zM299 609.999h647c-8 92.667 -42.5 168.167 -103.5 226.5s-134.833 87.5 -221.5 87.5c-86 0 -159.667 -29.5 -221 -88.5s-95 -134.167 -101 -225.5z" />
    <glyph glyph-name="Einvertedbreve" unicode="&#x206;" horiz-adv-x="1234" 
d="M557 1624h-125c0 71.333 23.333 130.833 70 178.5s104.667 71.5 174 71.5s127.333 -23.833 174 -71.5s70 -107.167 70 -178.5h-125c-4 42 -17.333 76.667 -40 104s-49 41 -79 41c-31.333 0 -59 -14.5 -83 -43.5s-36 -62.833 -36 -101.5zM1161 203v-203h-997v1454h979
v-203h-750v-413h649v-191h-649v-444h768z" />
    <glyph glyph-name="einvertedbreve" unicode="&#x207;" horiz-adv-x="1218" 
d="M498 1245h-124.999c0 71.333 23.167 130.833 69.5 178.5s104.166 71.5 173.499 71.5s127.333 -23.833 174 -71.5s70 -107.167 70 -178.5h-125c-4 42 -17.333 76.833 -40 104.5s-49 41.5 -79 41.5c-31.333 0 -58.833 -14.667 -82.5 -44s-35.5 -63.333 -35.5 -102z
M621.001 -20c-108.667 0 -205.667 25.332 -291 75.999s-150.666 117.667 -195.999 201s-68 175 -68 275c0 75.333 13.5 147 40.5 215s64.167 127.333 111.5 178s106.166 90.834 176.499 120.501s146.5 44.5 228.5 44.5s157.5 -15 226.5 -45s126.667 -70.167 173 -120.5
s82.333 -108.5 108 -174.5s38.5 -135 38.5 -207c0 -18.667 -2 -46 -6 -82h-858c6.66699 -92.667 41.167 -168.5 103.5 -227.5s135.833 -88.5 220.5 -88.5c61.333 0 118.333 15.167 171 45.5s89 69.833 109 118.5l193 -55c-38 -82 -100 -148.167 -186 -198.5
s-184.333 -75.5 -295 -75.5zM299.001 609.999h647c-8 92.667 -42.5 168.167 -103.5 226.5s-134.833 87.5 -221.5 87.5c-86 0 -159.667 -29.5 -221 -88.5s-95 -134.167 -101 -225.5z" />
    <glyph glyph-name="Idblgrave" unicode="&#x208;" horiz-adv-x="557" 
d="M-80 1876h184l105 -225l-115 -45zM223 1876h183l104 -225l-113 -45zM164 0v1454h229v-1454h-229z" />
    <glyph glyph-name="idblgrave" unicode="&#x209;" horiz-adv-x="495" 
d="M-111 1497h185l104 -225l-115 -45zM193 1497h182l104 -225l-112 -45zM135 0v1071h225v-1071h-225z" />
    <glyph glyph-name="Iinvertedbreve" unicode="&#x20a;" horiz-adv-x="557" 
d="M160 1624h-124.999c0 71.333 23.333 130.833 70 178.5s104.667 71.5 174 71.5s127.166 -23.833 173.499 -71.5s69.5 -107.167 69.5 -178.5h-125c-4 42 -17.333 76.667 -40 104s-48.667 41 -78 41c-31.333 0 -59 -14.5 -83 -43.5s-36 -62.833 -36 -101.5zM164.001 0v1454
h229v-1454h-229z" />
    <glyph glyph-name="iinvertedbreve" unicode="&#x20b;" horiz-adv-x="495" 
d="M129 1245h-125c0 71.333 23.333 130.833 70 178.5s104.667 71.5 174 71.5s127.333 -23.833 174 -71.5s70 -107.167 70 -178.5h-125c-4 42 -17.333 76.833 -40 104.5s-49 41.5 -79 41.5c-31.333 0 -59 -14.667 -83 -44s-36 -63.333 -36 -102zM135 0v1071h225v-1071h-225z
" />
    <glyph glyph-name="Odblgrave" unicode="&#x20c;" 
d="M414 1876h184l104 -225l-114 -45zM717 1876h182l105 -225l-113 -45zM72 727c0 96 17.834 188.831 53.501 278.498s84.167 168.167 145.5 235.5s135.666 121.333 222.999 162s180 61 278 61c100.667 0 195 -21.333 283 -64s161.5 -98.834 220.5 -168.501
s105.5 -148.667 139.5 -237s51 -178.166 51 -269.499c0 -96 -17.833 -188.667 -53.5 -278s-83.834 -167.666 -144.501 -234.999s-134.667 -121.166 -222 -161.499s-180 -60.5 -278 -60.5c-81.333 0 -158.666 13.5 -231.999 40.5s-137.833 64.167 -193.5 111.5
s-104 102 -145 164s-72.167 129.167 -93.5 201.5s-32 145.5 -32 219.5zM770.001 196.998c70.667 0 135.669 15.332 195.002 45.999s108 71.167 146 121.5s67.5 106.833 88.5 169.5s31.5 127 31.5 193c0 68.667 -11.167 134.834 -33.5 198.501s-53 120 -92 169
s-87.667 88 -146 117s-121.5 43.5 -189.5 43.5c-70.667 0 -135.834 -15.167 -195.501 -45.5s-108.834 -70.5 -147.501 -120.5s-68.667 -106.333 -90 -169s-32 -127 -32 -193c0 -92 18.5 -178 55.5 -258s91.5 -145.333 163.5 -196s154 -76 246 -76z" />
    <glyph glyph-name="odblgrave" unicode="&#x20d;" horiz-adv-x="1232" 
d="M258 1497h184l105 -225l-115 -45zM561 1497h182l105 -225l-113 -45zM66 535c0 74 13.3311 144.667 39.998 212s63.334 126.333 110.001 177s104.834 91 174.501 121s144.834 45 225.501 45c108 0 204.5 -25.667 289.5 -77s149.833 -119 194.5 -203s67 -175.667 67 -275
s-22.333 -191 -67 -275s-109.5 -151.667 -194.5 -203s-181.5 -77 -289.5 -77c-82 0 -157.833 15 -227.5 45s-127.834 70.333 -174.501 121s-83 109.667 -109 177s-39 138 -39 212zM615.998 172c89.333 0 165 35.001 227 105.001s93 156 93 258s-31 187.833 -93 257.5
s-137.667 104.5 -227 104.5c-88.667 0 -164 -35.333 -226 -106s-93 -157 -93 -259c0 -102.667 30.833 -188.334 92.5 -257.001s137.167 -103 226.5 -103z" />
    <glyph glyph-name="Oinvertedbreve" unicode="&#x20e;" 
d="M653 1624h-125c0 71.333 23.333 130.833 70 178.5s104.667 71.5 174 71.5s127.333 -23.833 174 -71.5s70 -107.167 70 -178.5h-125c-4 42 -17.333 76.667 -40 104s-49 41 -79 41c-31.333 0 -59 -14.5 -83 -43.5s-36 -62.833 -36 -101.5zM72 727
c0 96 17.834 188.831 53.501 278.498s84.167 168.167 145.5 235.5s135.666 121.333 222.999 162s180 61 278 61c100.667 0 195 -21.333 283 -64s161.5 -98.834 220.5 -168.501s105.5 -148.667 139.5 -237s51 -178.166 51 -269.499c0 -96 -17.833 -188.667 -53.5 -278
s-83.834 -167.666 -144.501 -234.999s-134.667 -121.166 -222 -161.499s-180 -60.5 -278 -60.5c-81.333 0 -158.666 13.5 -231.999 40.5s-137.833 64.167 -193.5 111.5s-104 102 -145 164s-72.167 129.167 -93.5 201.5s-32 145.5 -32 219.5zM770.001 196.998
c70.667 0 135.669 15.332 195.002 45.999s108 71.167 146 121.5s67.5 106.833 88.5 169.5s31.5 127 31.5 193c0 68.667 -11.167 134.834 -33.5 198.501s-53 120 -92 169s-87.667 88 -146 117s-121.5 43.5 -189.5 43.5c-70.667 0 -135.834 -15.167 -195.501 -45.5
s-108.834 -70.5 -147.501 -120.5s-68.667 -106.333 -90 -169s-32 -127 -32 -193c0 -92 18.5 -178 55.5 -258s91.5 -145.333 163.5 -196s154 -76 246 -76z" />
    <glyph glyph-name="oinvertedbreve" unicode="&#x20f;" horiz-adv-x="1232" 
d="M498 1245h-124.999c0 71.333 23.167 130.833 69.5 178.5s104.166 71.5 173.499 71.5s127.333 -23.833 174 -71.5s70 -107.167 70 -178.5h-125c-4 42 -17.333 76.833 -40 104.5s-49 41.5 -79 41.5c-31.333 0 -58.833 -14.667 -82.5 -44s-35.5 -63.333 -35.5 -102z
M66.001 535c0 74 13.3311 144.667 39.998 212s63.334 126.333 110.001 177s104.834 91 174.501 121s144.834 45 225.501 45c108 0 204.5 -25.667 289.5 -77s149.833 -119 194.5 -203s67 -175.667 67 -275s-22.333 -191 -67 -275s-109.5 -151.667 -194.5 -203
s-181.5 -77 -289.5 -77c-82 0 -157.833 15 -227.5 45s-127.834 70.333 -174.501 121s-83 109.667 -109 177s-39 138 -39 212zM615.999 172c89.333 0 165 35.001 227 105.001s93 156 93 258s-31 187.833 -93 257.5s-137.667 104.5 -227 104.5
c-88.667 0 -164 -35.333 -226 -106s-93 -157 -93 -259c0 -102.667 30.833 -188.334 92.5 -257.001s137.167 -103 226.5 -103z" />
    <glyph glyph-name="Rdblgrave" unicode="&#x210;" horiz-adv-x="1353" 
d="M276 1880h185l104 -225l-114 -45zM580 1880h182l104 -225l-112 -45zM164 0l-0.000976562 1454h633c63.333 0 123.5 -13.667 180.5 -41s104.833 -63.333 143.5 -108s69.334 -95.334 92.001 -152.001s34 -114 34 -172c0 -98.667 -26 -187.834 -78 -267.501
s-120.667 -133.167 -206 -160.5l342 -553h-258l-316 506h-338v-506h-229zM392.999 709.002h402.001c63.333 0 115.666 26.5 156.999 79.5s62 117.167 62 192.5c0 74 -23.333 137.5 -70 190.5s-100.667 79.5 -162 79.5h-389v-542z" />
    <glyph glyph-name="rdblgrave" unicode="&#x211;" horiz-adv-x="765" 
d="M78 1497h184l105 -225l-115 -45zM381 1497h182l105 -225l-113 -45zM737 877c-88 -2 -165.833 -22.5 -233.5 -61.5s-115.5 -92.5 -143.5 -160.5v-655h-225v1071h209v-240c37.333 73.333 85.833 132.333 145.5 177s123.167 69 190.5 73c28.667 0 47.667 -0.666992 57 -2
v-202z" />
    <glyph glyph-name="Rinvertedbreve" unicode="&#x212;" horiz-adv-x="1353" 
d="M516 1628h-125c0 71.333 23.333 130.833 70 178.5s104.667 71.5 174 71.5s127.333 -23.833 174 -71.5s70 -107.167 70 -178.5h-125c-4 42 -17.333 76.833 -40 104.5s-49 41.5 -79 41.5c-31.333 0 -59 -14.667 -83 -44s-36 -63.333 -36 -102zM164 0l-0.000976562 1454h633
c63.333 0 123.5 -13.667 180.5 -41s104.833 -63.333 143.5 -108s69.334 -95.334 92.001 -152.001s34 -114 34 -172c0 -98.667 -26 -187.834 -78 -267.501s-120.667 -133.167 -206 -160.5l342 -553h-258l-316 506h-338v-506h-229zM392.999 709.002h402.001
c63.333 0 115.666 26.5 156.999 79.5s62 117.167 62 192.5c0 74 -23.333 137.5 -70 190.5s-100.667 79.5 -162 79.5h-389v-542z" />
    <glyph glyph-name="rinvertedbreve" unicode="&#x213;" horiz-adv-x="765" 
d="M317 1245h-123.999c0 71.333 23.167 130.833 69.5 178.5s104.166 71.5 173.499 71.5s127.333 -23.833 174 -71.5s70 -107.167 70 -178.5h-125c-4 42 -17.333 76.833 -40 104.5s-49 41.5 -79 41.5c-31.333 0 -59 -14.667 -83 -44s-36 -63.333 -36 -102zM737.001 877
c-88 -2 -165.833 -22.5 -233.5 -61.5s-115.5 -92.5 -143.5 -160.5v-655h-225v1071h209v-240c37.333 73.333 85.833 132.333 145.5 177s123.167 69 190.5 73c28.667 0 47.667 -0.666992 57 -2v-202z" />
    <glyph glyph-name="Udblgrave" unicode="&#x214;" 
d="M412 1876h184l104 -225l-114 -45zM715 1876h182l104 -225l-112 -45zM770 -10c-90 0 -170.831 13.333 -242.498 40s-131.167 62.334 -178.5 107.001s-86.666 98.5 -117.999 161.5s-53.833 129 -67.5 198s-20.5 142.5 -20.5 220.5v737h230v-737
c0 -55.333 4 -107.5 12 -156.5s21.833 -96.167 41.5 -141.5s44.167 -84 73.5 -116s67 -57.667 113 -77s98.333 -29 157 -29c59.333 0 112.166 9.83301 158.499 29.5s84.166 45.834 113.499 78.501s53.666 71.667 72.999 117s32.833 92.166 40.5 140.499
s11.5 99.833 11.5 154.5v737h232v-737c0 -102 -12 -195.833 -36 -281.5s-60.5 -162.334 -109.5 -230.001s-114.667 -120.5 -197 -158.5s-177.833 -57 -286.5 -57z" />
    <glyph glyph-name="udblgrave" unicode="&#x215;" horiz-adv-x="1247" 
d="M250 1497h184l105 -225l-115 -45zM553 1497h182l105 -225l-113 -45zM125 416l-0.00195312 655.002h225v-610c0 -95.333 17.333 -167.333 52 -216s85.667 -73 153 -73c65.333 0 126.5 20.167 183.5 60.5s100.833 97.166 131.5 170.499v668h226v-817
c0 -26 4.66699 -44.667 14 -56s25 -17.333 47 -18v-180c-39.333 -6.66699 -72.666 -10 -99.999 -10c-41.333 0 -76 11.167 -104 33.5s-43.333 51.5 -46 87.5l-4 106c-47.333 -76.667 -109.166 -135.334 -185.499 -176.001s-160.5 -61 -252.5 -61
c-111.333 0 -195.833 36.833 -253.5 110.5s-86.5 182.167 -86.5 325.5z" />
    </font>
</defs>
</svg>
