<svg width="19" height="20" viewBox="0 0 19 20" fill="none" xmlns="http://www.w3.org/2000/svg">
<path d="M7.99445 16.359C9.76819 16.3586 11.4908 15.7511 12.888 14.6331L17.281 19.1277L18.694 17.682L14.3011 13.1874C15.3943 11.7577 15.9885 9.99476 15.9889 8.17949C15.9889 3.66952 12.4024 0 7.99445 0C3.58651 0 0 3.66952 0 8.17949C0 12.6895 3.58651 16.359 7.99445 16.359ZM7.99445 2.04487C11.3011 2.04487 13.9903 4.79625 13.9903 8.17949C13.9903 11.5627 11.3011 14.3141 7.99445 14.3141C4.68774 14.3141 1.99861 11.5627 1.99861 8.17949C1.99861 4.79625 4.68774 2.04487 7.99445 2.04487Z" fill="white"/>
</svg>
